<svg xmlns="http://www.w3.org/2000/svg" width="45.063" height="55.962" viewBox="0 0 45.063 55.962">
  <g id="Grupo_203853" data-name="Grupo 203853" transform="translate(-303.062 -6070.031)">
    <path id="Trazado_175375" data-name="Trazado 175375" d="M-7145.38-5577.144s5.76-1.135,6.284-6.109-2.182-11.17-5.586-12.829-5.062-1.658-5.062-1.658l4.364-2.53s3.316-4.364,2.182-8.641a36.285,36.285,0,0,0-3.578-8.291s-4.975-11.433-11.259-10.56-9.6,3.665-10.646,8.029-5.149,10.3-5.149,10.3-1.659,6.545,2.88,9.164,3.84,2.53,3.84,2.53-7.069,1.4-7.942,3.579-3.4,7.505-2.792,9.251.436,4.887,2.792,5.935a11.336,11.336,0,0,1,3.143,1.833s-.262,2.444,1.746,3.055,21.739.523,21.739.523l2.349-.523Z" transform="translate(7481.001 11698.96)" fill="#fff"/>
    <g id="hacker" transform="translate(307.473 6070.032)">
      <path id="Trazado_175371" data-name="Trazado 175371" d="M61.933,48.557l-.477-2.884a11.9,11.9,0,0,0-9.35-9.726l1.626-.917a8.792,8.792,0,0,0,2.233-13.523L51.329,11.492a10.586,10.586,0,0,0-19.224,0L27.467,21.507A8.792,8.792,0,0,0,29.7,35.028l1.626.919a11.9,11.9,0,0,0-9.35,9.728L21.5,48.557A7.962,7.962,0,0,0,28.04,57.72v1.173A2.414,2.414,0,0,0,30.451,61.3H52.98a2.414,2.414,0,0,0,2.412-2.411V57.72a7.966,7.966,0,0,0,6.541-9.162ZM33.621,12.194a8.918,8.918,0,0,1,16.192,0l3.07,6.631-1.626-1.343a14.941,14.941,0,0,0-1.2-.89.8.8,0,0,0-.091-.056,15,15,0,0,0-16.5.008.761.761,0,0,0-.071.044,15.02,15.02,0,0,0-1.214.894l-1.629,1.346Zm1.09,5.534a13.252,13.252,0,0,1,14.014,0v5.659a7.4,7.4,0,0,1-2.385,5.433,6.809,6.809,0,0,1-5.226,1.817,7.045,7.045,0,0,1-6.4-6.982ZM26.925,28a7.032,7.032,0,0,1,2.56-6.125l3.555-2.938v4.723A8.724,8.724,0,0,0,40.97,32.3q.365.031.728.031a8.472,8.472,0,0,0,5.769-2.282,9.069,9.069,0,0,0,2.927-6.662V18.935l3.554,2.936a7.368,7.368,0,0,1,.68.642l.01.012a7.127,7.127,0,0,1-1.727,11.05L51.059,34.62a19.115,19.115,0,0,1-18.684,0l-1.852-1.045A7.033,7.033,0,0,1,26.925,28Zm26.8,30.9a.743.743,0,0,1-.742.742H30.453a.743.743,0,0,1-.742-.742V44.314a.743.743,0,0,1,.742-.742H52.98a.743.743,0,0,1,.742.742Zm5.284-5.114a6.3,6.3,0,0,1-3.614,2.237v-11.7A2.415,2.415,0,0,0,52.98,41.9H30.453a2.414,2.414,0,0,0-2.411,2.412v11.7a6.3,6.3,0,0,1-3.619-2.242,6.216,6.216,0,0,1-1.273-4.943l.477-2.882a10.248,10.248,0,0,1,10.141-8.587h.543a20.737,20.737,0,0,0,14.812,0h.545a10.247,10.247,0,0,1,10.14,8.587l.477,2.883a6.23,6.23,0,0,1-1.277,4.946Z" transform="translate(-21.391 -5.342)" fill="#500c75"/>
      <path id="Trazado_175372" data-name="Trazado 175372" d="M60.31,95.265a3.365,3.365,0,1,0,3.365,3.365,3.365,3.365,0,0,0-3.365-3.365Zm0,5.06a1.7,1.7,0,1,1,1.695-1.7,1.7,1.7,0,0,1-1.695,1.7Z" transform="translate(-39.985 -52.369)" fill="#500c75"/>
    </g>
  </g>
</svg>
