<svg xmlns="http://www.w3.org/2000/svg" xmlns:xlink="http://www.w3.org/1999/xlink" width="571.534" height="395.624" viewBox="0 0 571.534 395.624"><defs><clipPath id="a"><rect width="571.534" height="395.624" fill="none"/></clipPath><clipPath id="c"><rect width="373.178" height="187.684" fill="none"/></clipPath><clipPath id="d"><rect width="567.354" height="285.319" fill="none"/></clipPath><clipPath id="e"><rect width="149.971" height="109.199" fill="none"/></clipPath><clipPath id="f"><rect width="134.187" height="120.894" fill="none"/></clipPath><clipPath id="i"><rect width="70.399" height="59.535" fill="#fff"/></clipPath></defs><g clip-path="url(#a)"><g clip-path="url(#a)"><g transform="translate(97.088 114.153)" opacity="0.57"><g clip-path="url(#c)"><path d="M136.145,285.656a1.093,1.093,0,0,1-1.094-1.094A136.127,136.127,0,0,1,193.5,172.839a1.093,1.093,0,1,1,1.248,1.8,133.936,133.936,0,0,0-57.513,109.928,1.093,1.093,0,0,1-1.094,1.094" transform="translate(-84.431 -97.972)" fill="#3aaed5"/><path d="M383.435,280.005a1.093,1.093,0,0,1-1.094-1.094,133.455,133.455,0,0,0-7.586-44.519,1.094,1.094,0,0,1,2.063-.728,135.634,135.634,0,0,1,7.711,45.247,1.093,1.093,0,0,1-1.094,1.094" transform="translate(-61.971 -92.322)" fill="#3aaed5"/><path d="M377.521,233.467a1.092,1.092,0,0,1-1.007-.668,133.581,133.581,0,0,0-50.923-60.541,1.094,1.094,0,1,1,1.185-1.839,135.765,135.765,0,0,1,51.752,61.528,1.094,1.094,0,0,1-1.007,1.519" transform="translate(-66.62 -98.197)" fill="#3aaed5"/><path d="M197.254,171.236a1.094,1.094,0,0,1-.553-2.038,136.213,136.213,0,0,1,126.147-5.8,1.094,1.094,0,0,1-.927,1.982,134.023,134.023,0,0,0-124.114,5.7,1.084,1.084,0,0,1-.551.15" transform="translate(-78.704 -100.033)" fill="#3aaed5"/><path d="M114.195,288.627a1.093,1.093,0,0,1-1.094-1.094,160.115,160.115,0,0,1,95.584-146.49,1.094,1.094,0,1,1,.882,2,157.929,157.929,0,0,0-94.278,144.488,1.093,1.093,0,0,1-1.094,1.094" transform="translate(-86.488 -100.943)" fill="#3aaed5"/><path d="M410.244,287.1a1.093,1.093,0,0,1-1.094-1.094,158.574,158.574,0,0,0-63.9-126.828,1.094,1.094,0,1,1,1.3-1.757,161.446,161.446,0,0,1,47.131,55.462,158.232,158.232,0,0,1,17.653,73.123,1.093,1.093,0,0,1-1.094,1.094" transform="translate(-64.772 -99.419)" fill="#3aaed5"/><path d="M338.107,153.952a1.081,1.081,0,0,1-.585-.17c-3.235-2.055-6.589-4.017-9.966-5.832a1.093,1.093,0,1,1,1.034-1.926c3.426,1.839,6.825,3.826,10.1,5.912a1.093,1.093,0,0,1-.587,2.016" transform="translate(-66.443 -100.479)" fill="#3aaed5"/><path d="M331.859,146.155a1.086,1.086,0,0,1-.468-.105,158.375,158.375,0,0,0-118.084-6.9,1.093,1.093,0,1,1-.7-2.072,160.558,160.558,0,0,1,119.722,7,1.094,1.094,0,0,1-.47,2.081" transform="translate(-77.232 -102.09)" fill="#3aaed5"/><path d="M429.9,281.272a1.093,1.093,0,0,1-1.094-1.094,184.118,184.118,0,0,0-9.746-59.311,1.094,1.094,0,1,1,2.071-.7A186.3,186.3,0,0,1,431,280.178a1.093,1.093,0,0,1-1.094,1.094" transform="translate(-57.818 -93.588)" fill="#3aaed5"/><path d="M421.971,219.016a1.1,1.1,0,0,1-1.013-.68A184.637,184.637,0,0,0,358.2,138.507a1.094,1.094,0,0,1,1.284-1.772,186.835,186.835,0,0,1,63.5,80.774,1.094,1.094,0,0,1-.6,1.426,1.082,1.082,0,0,1-.413.081" transform="translate(-63.559 -101.357)" fill="#3aaed5"/><path d="M361.489,134.568a1.094,1.094,0,0,1-.578-.165,184.943,184.943,0,0,0-143.505-22.054,1.094,1.094,0,0,1-.545-2.12,187.144,187.144,0,0,1,145.207,22.316,1.094,1.094,0,0,1-.58,2.022" transform="translate(-76.84 -104.371)" fill="#3aaed5"/><path d="M184.89,124.43a1.094,1.094,0,0,1-.483-2.076,186.671,186.671,0,0,1,17.555-7.514,1.094,1.094,0,0,1,.757,2.053,184.119,184.119,0,0,0-17.349,7.425,1.094,1.094,0,0,1-.48.112" transform="translate(-79.862 -103.396)" fill="#3aaed5"/><path d="M89.863,289.878a1.092,1.092,0,0,1-1.094-1.094,186.5,186.5,0,0,1,92.284-161.038,1.093,1.093,0,1,1,1.108,1.886,185.26,185.26,0,0,0-91.2,159.153,1.093,1.093,0,0,1-1.094,1.094" transform="translate(-88.768 -102.194)" fill="#3aaed5"/></g></g><g transform="translate(0 7.286)" opacity="0.22"><g clip-path="url(#d)"><path d="M72.011,282.251a1.641,1.641,0,0,1-1.641-1.641A206.148,206.148,0,0,1,135.712,129.8a208.383,208.383,0,0,1,23.523-19.036,1.641,1.641,0,0,1,1.874,2.694A203.667,203.667,0,0,0,73.651,280.611a1.641,1.641,0,0,1-1.641,1.641" transform="translate(6.595 3.067)" fill="#3aaed5"/><path d="M448,273.66a1.641,1.641,0,0,1-1.641-1.641,202.937,202.937,0,0,0-11.535-67.7,1.641,1.641,0,0,1,3.1-1.092,206.214,206.214,0,0,1,11.721,68.789A1.641,1.641,0,0,1,448,273.66" transform="translate(40.744 11.658)" fill="#3aaed5"/><path d="M439.013,202.9a1.642,1.642,0,0,1-1.514-1,203.121,203.121,0,0,0-77.432-92.057,1.641,1.641,0,0,1,1.777-2.758,206.391,206.391,0,0,1,78.678,93.541,1.641,1.641,0,0,1-1.509,2.278" transform="translate(33.676 2.725)" fill="#3aaed5"/><path d="M164.923,108.282a1.64,1.64,0,0,1-.83-3.056,207.083,207.083,0,0,1,191.782-8.814,1.641,1.641,0,0,1-1.391,2.973,203.8,203.8,0,0,0-188.733,8.672,1.63,1.63,0,0,1-.828.225" transform="translate(15.303 -0.067)" fill="#3aaed5"/><path d="M38.636,286.768a1.641,1.641,0,0,1-1.641-1.641,243.427,243.427,0,0,1,145.32-222.71,1.641,1.641,0,1,1,1.322,3A240.145,240.145,0,0,0,40.276,285.127a1.641,1.641,0,0,1-1.641,1.641" transform="translate(3.467 -1.45)" fill="#3aaed5"/><path d="M488.765,284.451a1.641,1.641,0,0,1-1.641-1.641A241.115,241.115,0,0,0,389.96,89.958a1.641,1.641,0,0,1,1.954-2.636,245.417,245.417,0,0,1,71.654,84.318,240.573,240.573,0,0,1,26.837,111.17,1.641,1.641,0,0,1-1.641,1.641" transform="translate(36.486 0.867)" fill="#3aaed5"/><path d="M379.086,82a1.633,1.633,0,0,1-.879-.256c-4.928-3.13-10.027-6.113-15.155-8.866a1.64,1.64,0,0,1,1.551-2.891c5.2,2.79,10.367,5.813,15.365,8.987A1.641,1.641,0,0,1,379.086,82" transform="translate(33.945 -0.745)" fill="#3aaed5"/><path d="M369.587,70.149a1.638,1.638,0,0,1-.7-.159A240.806,240.806,0,0,0,189.327,59.5a1.64,1.64,0,1,1-1.049-3.108A244.083,244.083,0,0,1,370.293,67.026a1.641,1.641,0,0,1-.705,3.123" transform="translate(17.541 -3.195)" fill="#3aaed5"/><path d="M518.655,275.585a1.641,1.641,0,0,1-1.641-1.641A279.976,279.976,0,0,0,502.2,183.76,1.64,1.64,0,1,1,505.3,182.7a283.215,283.215,0,0,1,14.993,91.24,1.641,1.641,0,0,1-1.641,1.641" transform="translate(47.059 9.733)" fill="#3aaed5"/><path d="M506.6,180.928a1.644,1.644,0,0,1-1.52-1.022A280.777,280.777,0,0,0,409.654,58.521a1.641,1.641,0,0,1,1.925-2.658,284.069,284.069,0,0,1,96.535,122.8,1.64,1.64,0,0,1-.9,2.138,1.622,1.622,0,0,1-.618.122" transform="translate(38.33 -2.08)" fill="#3aaed5"/><path d="M414.637,52.529a1.625,1.625,0,0,1-.868-.249,281.246,281.246,0,0,0-218.21-33.535,1.64,1.64,0,1,1-.816-3.177A284.514,284.514,0,0,1,415.5,49.5a1.64,1.64,0,0,1-.868,3.032" transform="translate(18.136 -6.662)" fill="#3aaed5"/><path d="M146.125,37.118A1.641,1.641,0,0,1,145.4,34,283.168,283.168,0,0,1,172.09,22.581a1.641,1.641,0,1,1,1.134,3.079,280.263,280.263,0,0,0-26.378,11.29,1.618,1.618,0,0,1-.721.168" transform="translate(13.541 -5.18)" fill="#3aaed5"/><path d="M1.641,288.671A1.641,1.641,0,0,1,0,287.03,283.545,283.545,0,0,1,140.3,42.2a1.64,1.64,0,1,1,1.66,2.829C56.422,95.231,3.281,187.961,3.281,287.03a1.641,1.641,0,0,1-1.641,1.641" transform="translate(0 -3.352)" fill="#3aaed5"/></g></g><path d="M316.095,297.882a8.926,8.926,0,0,1-8.356-5.844l-2.675-7.246a44.664,44.664,0,0,1-17.536-.512l-3.215,7.089a9.056,9.056,0,0,1-5.034,4.747,8.872,8.872,0,0,1-6.881-.2,9.03,9.03,0,0,1-4.425-11.96l3.217-7.09a44.573,44.573,0,0,1-11.935-12.857l-7.215,2.757a8.905,8.905,0,0,1-11.562-5.244,9.141,9.141,0,0,1,5.291-11.664L253,247.093a45.649,45.649,0,0,1,.657-17.693l-7-3.172a9.082,9.082,0,0,1,.609-16.708,8.87,8.87,0,0,1,6.88.2l7,3.174a45.656,45.656,0,0,1,12.881-12.147l-2.683-7.263a9.14,9.14,0,0,1,5.29-11.663,8.911,8.911,0,0,1,11.564,5.244l2.675,7.246a44.583,44.583,0,0,1,17.535.513l3.217-7.088a9.027,9.027,0,0,1,11.913-4.547,8.874,8.874,0,0,1,4.685,5.043,9.059,9.059,0,0,1-.257,6.916l-3.217,7.088a44.638,44.638,0,0,1,11.935,12.858l7.214-2.757a8.907,8.907,0,0,1,11.563,5.244,9.14,9.14,0,0,1-5.291,11.662l-7.233,2.766a45.668,45.668,0,0,1-.657,17.693l7,3.174a9.062,9.062,0,0,1-7.488,16.5l-7-3.172a45.66,45.66,0,0,1-12.88,12.146l2.683,7.265a9.143,9.143,0,0,1-5.292,11.663,8.954,8.954,0,0,1-3.207.6m-9.616-15.575,3.313,8.973a6.722,6.722,0,0,0,8.728,3.961,6.947,6.947,0,0,0,4.021-8.864l-3.305-8.953.775-.467a43.568,43.568,0,0,0,13.5-12.739l.518-.756,8.658,3.926a6.875,6.875,0,0,0,5.68-12.521l-8.657-3.928.227-.889a43.526,43.526,0,0,0,.691-18.552l-.159-.89,8.914-3.408a6.946,6.946,0,0,0,4.021-8.863,6.722,6.722,0,0,0-8.729-3.96l-8.932,3.417-.47-.8a42.446,42.446,0,0,0-12.52-13.49l-.75-.52,3.967-8.744a6.873,6.873,0,0,0,.2-5.254,6.693,6.693,0,0,0-3.535-3.808,6.836,6.836,0,0,0-9.019,3.457l-3.966,8.744-.886-.223a42.45,42.45,0,0,0-18.4-.536l-.91.172-3.313-8.972a6.721,6.721,0,0,0-8.729-3.96,6.943,6.943,0,0,0-4.019,8.862l3.305,8.953-.774.466a43.526,43.526,0,0,0-13.505,12.74l-.517.756-8.658-3.926a6.686,6.686,0,0,0-5.2-.151,6.9,6.9,0,0,0-.487,12.673l8.658,3.925-.227.889a43.543,43.543,0,0,0-.69,18.552l.159.89-8.914,3.409a6.944,6.944,0,0,0-4.021,8.862,6.716,6.716,0,0,0,8.727,3.96l8.935-3.417.47.8A42.449,42.449,0,0,0,273.18,275.6l.751.518-3.967,8.745a6.838,6.838,0,0,0,3.337,9.065,6.7,6.7,0,0,0,5.2.149,6.876,6.876,0,0,0,3.823-3.608l3.968-8.744.885.223a42.522,42.522,0,0,0,18.4.536Zm-8.836-9.259a32.9,32.9,0,0,1-30.852-21.587,33.824,33.824,0,0,1,19.6-43.211,32.8,32.8,0,0,1,25.438.74,33.621,33.621,0,0,1-14.19,64.057m.616-64.821a30.994,30.994,0,0,0-11.083,2.065A31.64,31.64,0,0,0,268.843,250.7a30.616,30.616,0,0,0,16.165,17.419,31.373,31.373,0,0,0,25.921-57.137,30.592,30.592,0,0,0-12.671-2.757" transform="translate(22.485 16.985)" fill="#fff"/><path d="M214.32,280.219a6.226,6.226,0,0,1-6.236-6.209l-.021-4.765a29.634,29.634,0,0,1-10.282-4.087l-3.363,3.434a6.315,6.315,0,0,1-4.437,1.912,6,6,0,0,1-4.469-1.778,6.187,6.187,0,0,1-1.869-4.431,6.321,6.321,0,0,1,1.819-4.474l3.364-3.435a29.664,29.664,0,0,1-4.3-10.192l-4.763.076a6.39,6.39,0,0,1-4.471-1.778,6.194,6.194,0,0,1-1.868-4.43,6.383,6.383,0,0,1,6.256-6.388l4.784-.078a30.35,30.35,0,0,1,4.208-10.348l-3.385-3.316a6.193,6.193,0,0,1-1.869-4.433,6.372,6.372,0,0,1,6.255-6.386,6.212,6.212,0,0,1,4.47,1.778l3.385,3.316a30.339,30.339,0,0,1,10.26-4.423L207.767,205a6.382,6.382,0,0,1,6.257-6.387,6.283,6.283,0,0,1,4.469,1.778,6.192,6.192,0,0,1,1.869,4.432l.022,4.763a29.639,29.639,0,0,1,10.281,4.088l3.363-3.435h0a6.309,6.309,0,0,1,4.437-1.913,6.084,6.084,0,0,1,4.47,1.777,6.306,6.306,0,0,1,.049,8.906l-3.364,3.435a29.663,29.663,0,0,1,4.3,10.193l4.763-.077a6.318,6.318,0,0,1,4.47,1.778,6.191,6.191,0,0,1,1.869,4.432,6.38,6.38,0,0,1-6.256,6.387l-4.782.077a30.4,30.4,0,0,1-4.209,10.349l3.385,3.315a6.343,6.343,0,0,1-4.387,10.82,6.148,6.148,0,0,1-4.47-1.778l-3.385-3.316a30.335,30.335,0,0,1-10.26,4.422l.023,4.783a6.382,6.382,0,0,1-6.257,6.387h-.1m-16.832-17.887.756.512a27.515,27.515,0,0,0,11.085,4.4l.913.15.03,6.6a4.04,4.04,0,0,0,4.049,4.033h.069a4.185,4.185,0,0,0,4.1-4.189l-.031-6.579.887-.175a28.224,28.224,0,0,0,11.053-4.764l.745-.533,4.686,4.588a3.929,3.929,0,0,0,2.9,1.154,4.154,4.154,0,0,0,2.891-7.07l-4.685-4.589.518-.757A28.25,28.25,0,0,0,242,243.969l.156-.891,6.578-.105a4.185,4.185,0,0,0,4.1-4.19,4.038,4.038,0,0,0-4.048-4.034h-.068l-6.6.107-.167-.91a27.519,27.519,0,0,0-4.633-10.992l-.528-.746,4.633-4.729a4.113,4.113,0,0,0-.017-5.812,3.787,3.787,0,0,0-2.9-1.154,4.14,4.14,0,0,0-2.908,1.254h0l-4.634,4.728-.756-.511a27.517,27.517,0,0,0-11.084-4.405l-.913-.149-.031-6.6a4.04,4.04,0,0,0-4.048-4.034h-.069a4.185,4.185,0,0,0-4.1,4.189l.031,6.58-.888.174a28.205,28.205,0,0,0-11.052,4.765l-.746.534-4.687-4.591a4,4,0,0,0-2.9-1.152,4.181,4.181,0,0,0-4.1,4.19,4.017,4.017,0,0,0,1.212,2.879l4.687,4.59-.518.757a28.23,28.23,0,0,0-4.535,11.148l-.156.89-6.579.106a4.187,4.187,0,0,0-4.1,4.19,4.026,4.026,0,0,0,1.212,2.879,4.094,4.094,0,0,0,2.9,1.153l6.6-.1.168.91a27.543,27.543,0,0,0,4.633,10.99l.528.746-4.633,4.729a4.138,4.138,0,0,0-1.194,2.935,4.022,4.022,0,0,0,1.212,2.879,3.908,3.908,0,0,0,2.9,1.153,4.135,4.135,0,0,0,2.909-1.254Zm16.482-.617a21.9,21.9,0,0,1-15.436-6.284,22.471,22.471,0,0,1,15.573-38.313,22.005,22.005,0,0,1,22.41,21.951,22.594,22.594,0,0,1-22.181,22.643c-.121,0-.245,0-.367,0m.5-42.413c-.11,0-.22,0-.331,0a20.284,20.284,0,0,0-14.077,34.563,19.849,19.849,0,0,0,14.238,5.658,20.218,20.218,0,0,0,14.2-6.124h0a20.221,20.221,0,0,0,5.828-14.322A19.821,19.821,0,0,0,214.475,219.3" transform="translate(16.254 18.614)" fill="#fff"/><path d="M230.819,363.295a7.719,7.719,0,0,1-2.659-.471,7.637,7.637,0,0,1-4.525-9.9l2.239-5.908a37.468,37.468,0,0,1-10.629-9.809l-5.793,2.649a7.734,7.734,0,0,1-10.257-3.763,7.589,7.589,0,0,1-.19-5.9,7.752,7.752,0,0,1,4.053-4.324l5.793-2.649a37.5,37.5,0,0,1-.466-14.457l-5.932-2.171a7.636,7.636,0,0,1-4.525-9.9,7.832,7.832,0,0,1,9.978-4.561l5.952,2.178a38.382,38.382,0,0,1,9.987-10.654l-2.613-5.713a7.6,7.6,0,0,1-.191-5.9,7.781,7.781,0,0,1,14.311-.561l2.614,5.715a38.388,38.388,0,0,1,14.589-.584L254.8,270.7a7.833,7.833,0,0,1,9.977-4.563,7.638,7.638,0,0,1,4.525,9.9l-2.24,5.907a37.527,37.527,0,0,1,10.63,9.81l5.793-2.649a7.744,7.744,0,0,1,5.924-.237,7.638,7.638,0,0,1,4.525,9.9,7.752,7.752,0,0,1-4.054,4.323l-5.793,2.649a37.529,37.529,0,0,1,.466,14.458l5.931,2.17a7.637,7.637,0,0,1,4.524,9.9,7.832,7.832,0,0,1-9.976,4.562l-5.951-2.179a38.41,38.41,0,0,1-9.987,10.653l2.612,5.715a7.589,7.589,0,0,1,.19,5.9,7.816,7.816,0,0,1-9.977,4.561,7.6,7.6,0,0,1-4.333-4l-2.613-5.715a38.393,38.393,0,0,1-14.59.585l-2.245,5.926a7.84,7.84,0,0,1-7.319,5.033m-14.832-28.828.522.749a35.363,35.363,0,0,0,11.264,10.393l.8.467-2.89,7.628a5.447,5.447,0,0,0,3.23,7.066,5.637,5.637,0,0,0,7.181-3.282l2.883-7.608.89.155a36.26,36.26,0,0,0,15.451-.62l.888-.231,3.371,7.373a5.417,5.417,0,0,0,3.1,2.856,5.629,5.629,0,0,0,7.179-3.282,5.422,5.422,0,0,0-.133-4.21l-3.371-7.373.755-.522a36.261,36.261,0,0,0,10.577-11.278l.465-.777,7.641,2.8a5.632,5.632,0,0,0,7.178-3.282,5.445,5.445,0,0,0-3.23-7.066l-7.659-2.8.168-.91a35.387,35.387,0,0,0-.49-15.32l-.225-.886,7.444-3.4a5.579,5.579,0,0,0,2.919-3.111,5.451,5.451,0,0,0-3.232-7.066,5.576,5.576,0,0,0-4.261.173l-7.445,3.4-.521-.75a35.413,35.413,0,0,0-11.266-10.394l-.8-.466,2.892-7.628a5.445,5.445,0,0,0-3.231-7.065,5.631,5.631,0,0,0-7.178,3.283l-2.885,7.607-.891-.155a36.221,36.221,0,0,0-15.45.62l-.887.229-3.371-7.372a5.594,5.594,0,0,0-10.278.427,5.435,5.435,0,0,0,.134,4.211l3.371,7.372-.754.522a36.251,36.251,0,0,0-10.579,11.278l-.465.777-7.64-2.8a5.633,5.633,0,0,0-7.18,3.282,5.445,5.445,0,0,0,3.231,7.065l7.659,2.8-.17.91a35.382,35.382,0,0,0,.49,15.319l.226.885-7.444,3.4a5.577,5.577,0,0,0-2.918,3.11,5.422,5.422,0,0,0,.133,4.21,5.547,5.547,0,0,0,7.357,2.684Zm30.289,8.025a28.037,28.037,0,1,1,25.9-39.764,27.623,27.623,0,0,1,.689,21.428,28.513,28.513,0,0,1-26.589,18.336m.388-53.833a25.748,25.748,0,1,0,24.156,34.721,25.451,25.451,0,0,0-.632-19.743,25.794,25.794,0,0,0-23.524-14.979" transform="translate(18.503 24.899)" fill="#fff"/><path d="M155.354,100.359l-31.975-7.59a2.824,2.824,0,0,1-2.1-3.4l6.031-25.4a2.824,2.824,0,0,1,3.4-2.1l31.975,7.59a2.824,2.824,0,0,1,2.1,3.4l-6.031,25.4a2.825,2.825,0,0,1-3.4,2.1" transform="translate(11.36 5.791)" fill="#ffb44f"/><path d="M156.147,102.218a4.439,4.439,0,0,1-1.029-.121h0L123.14,94.5a4.469,4.469,0,0,1-3.313-5.375l6.032-25.406a4.471,4.471,0,0,1,5.375-3.312L163.21,68a4.472,4.472,0,0,1,3.313,5.376l-6.032,25.4a4.473,4.473,0,0,1-4.344,3.434m-.273-3.314a1.182,1.182,0,0,0,1.425-.878l6.032-25.4a1.186,1.186,0,0,0-.878-1.426L130.476,63.6a1.182,1.182,0,0,0-1.425.878l-6.031,25.4a1.186,1.186,0,0,0,.878,1.426l31.976,7.59Z" transform="translate(11.219 5.651)" fill="#233863"/><path d="M139.341,86.023a2.677,2.677,0,0,1-.557-.06,2.571,2.571,0,0,1-1.631-1.136l-4.019-6.315A1.641,1.641,0,1,1,135.9,76.75l3.642,5.725,13.573-8.75a1.641,1.641,0,0,1,1.777,2.758L140.736,85.61a2.566,2.566,0,0,1-1.4.413" transform="translate(12.454 6.885)" fill="#fff"/><path d="M407.7,101.95l-32.663,3.63a2.824,2.824,0,0,1-3.118-2.5l-2.884-25.951a2.825,2.825,0,0,1,2.495-3.119l32.663-3.63a2.826,2.826,0,0,1,3.119,2.5l2.883,25.951a2.823,2.823,0,0,1-2.495,3.119" transform="translate(34.585 6.595)" fill="#3aaed5"/><path d="M374.858,107.379a4.466,4.466,0,0,1-4.43-3.971l-2.884-25.952a4.47,4.47,0,0,1,3.946-4.931l32.661-3.63a4.469,4.469,0,0,1,4.933,3.944l2.883,25.952a4.468,4.468,0,0,1-3.945,4.929l-32.661,3.63a4.608,4.608,0,0,1-.5.028m29.788-35.231a1.058,1.058,0,0,0-.131.009l-32.662,3.63a1.183,1.183,0,0,0-1.046,1.307l2.883,25.952A1.185,1.185,0,0,0,375,104.091l32.662-3.63h0a1.185,1.185,0,0,0,1.045-1.309L405.821,73.2a1.187,1.187,0,0,0-1.176-1.054" transform="translate(34.444 6.454)" fill="#233863"/><path d="M387.349,94.039a2.568,2.568,0,0,1-1.58-.544l-5.912-4.589a1.641,1.641,0,0,1,2.012-2.592l5.36,4.162,9.828-12.811a1.641,1.641,0,0,1,2.6,2L389.409,93.026a2.567,2.567,0,0,1-1.722.991,2.494,2.494,0,0,1-.337.022" transform="translate(35.542 7.219)" fill="#fff"/><path d="M54.686,121.718a8.928,8.928,0,1,1-8.928-8.928,8.928,8.928,0,0,1,8.928,8.928" transform="translate(3.452 10.571)" fill="#3aaed5"/><path d="M268.6,8.927A8.928,8.928,0,1,1,259.667,0,8.929,8.929,0,0,1,268.6,8.927" transform="translate(23.5 0)" fill="#3aaed5"/><path d="M97.778,119.409a3.391,3.391,0,1,1-3.392-3.392,3.392,3.392,0,0,1,3.392,3.392" transform="translate(8.528 10.873)" fill="#3d85fd"/><path d="M454.761,92.234a3.391,3.391,0,1,1-3.392-3.392,3.391,3.391,0,0,1,3.392,3.392" transform="translate(41.985 8.326)" fill="#3d85fd"/><path d="M160.093,30.683a3.391,3.391,0,1,1-3.392-3.392,3.392,3.392,0,0,1,3.392,3.392" transform="translate(14.369 2.558)" fill="#3d85fd"/><path d="M58.013,177.228a3.391,3.391,0,1,1-3.392-3.392,3.392,3.392,0,0,1,3.392,3.392" transform="translate(4.801 16.292)" fill="#ffb44f"/><path d="M474.6,203.927a3.392,3.392,0,1,1-3.393-3.392,3.393,3.393,0,0,1,3.393,3.392" transform="translate(43.844 18.795)" fill="#ffb44f"/><path d="M523.63,242.676a6.246,6.246,0,1,1-6.246-6.246,6.247,6.247,0,0,1,6.246,6.246" transform="translate(47.905 22.159)" fill="#ffb44f"/><path d="M343.122,58.5a7.386,7.386,0,1,1-7.387-7.387,7.387,7.387,0,0,1,7.387,7.387" transform="translate(30.773 4.791)" fill="#ffb44f"/><path d="M181.707,351.9l-117.124.246A16.391,16.391,0,0,1,48.2,335.839l-.161-76.267a16.391,16.391,0,0,1,16.31-16.377l117.124-.246a16.392,16.392,0,0,1,16.377,16.309l.16,76.267A16.392,16.392,0,0,1,181.707,351.9" transform="translate(4.503 22.77)" fill="#3d85fd"/><path d="M64.688,353.929A18,18,0,0,1,46.7,335.983l-.159-76.267a18,18,0,0,1,17.946-18.021l117.124-.246h.036a18,18,0,0,1,17.984,17.946l.161,76.268a18.031,18.031,0,0,1-17.946,18.02l-117.124.246Zm117.159-1.887h0Zm-.2-107.313h-.03L64.5,244.975a14.719,14.719,0,0,0-14.671,14.734l.159,76.267a14.721,14.721,0,0,0,14.7,14.671h.032l117.124-.246a14.751,14.751,0,0,0,14.671-14.734l-.161-76.267a14.718,14.718,0,0,0-14.7-14.671" transform="translate(4.362 22.629)" fill="#233863"/><g transform="translate(52.547 265.717)" opacity="0.24"><g clip-path="url(#e)"><path d="M181.707,351.9l-117.124.246A16.391,16.391,0,0,1,48.2,335.839l-.161-76.267a16.391,16.391,0,0,1,16.31-16.377l117.124-.246a16.392,16.392,0,0,1,16.377,16.309l.16,76.267A16.392,16.392,0,0,1,181.707,351.9" transform="translate(-48.044 -242.948)" fill="#233863"/></g></g><path d="M168.688,337.434l-51.576-49.446a1.4,1.4,0,0,1-.042-1.975l66.946-69.828a1.4,1.4,0,0,1,1.975-.043l51.576,49.447a1.4,1.4,0,0,1,.042,1.975l-66.946,69.828a1.4,1.4,0,0,1-1.975.042" transform="translate(10.936 20.221)" fill="#fff"/><path d="M169.794,339.6a3.013,3.013,0,0,1-2.1-.844h0l-51.574-49.446a3.037,3.037,0,0,1-.09-4.3l66.945-69.827a3.042,3.042,0,0,1,4.3-.09l51.575,49.446a3.043,3.043,0,0,1,.09,4.3l-66.945,69.827a3.015,3.015,0,0,1-2.129.934h-.066m.17-3.213h0Zm-51.4-49.278,51.223,49.109L236.4,266.745l-51.223-49.109Z" transform="translate(10.795 20.08)" fill="#233863"/><path d="M215.043,264.556a1.094,1.094,0,0,1-.757-.3L194.87,245.635a1.093,1.093,0,1,1,1.514-1.578L215.8,262.672a1.094,1.094,0,0,1-.757,1.883" transform="translate(18.232 22.845)" fill="#ffb44f"/><path d="M207.785,277.867a1.1,1.1,0,0,1-.757-.3L168.193,240.33a1.094,1.094,0,1,1,1.515-1.579l38.834,37.232a1.094,1.094,0,0,1-.757,1.883" transform="translate(15.732 22.348)" fill="#233863"/><path d="M196.211,289.939a1.094,1.094,0,0,1-.757-.3L156.619,252.4a1.094,1.094,0,1,1,1.515-1.579l38.834,37.232a1.094,1.094,0,0,1-.757,1.883" transform="translate(14.647 23.479)" fill="#233863"/><path d="M185.318,301.3a1.094,1.094,0,0,1-.757-.3l-38.836-37.232a1.094,1.094,0,1,1,1.515-1.579l38.835,37.232a1.094,1.094,0,0,1-.757,1.883" transform="translate(13.626 24.544)" fill="#233863"/><path d="M173.744,313.373a1.094,1.094,0,0,1-.757-.3l-38.836-37.233a1.094,1.094,0,0,1,1.515-1.579L174.5,311.489a1.094,1.094,0,0,1-.757,1.883" transform="translate(12.541 25.676)" fill="#233863"/><path d="M146.047,277.274,79.9,304.295a1.4,1.4,0,0,1-1.821-.765L41.5,213.979a1.4,1.4,0,0,1,.766-1.821l66.142-27.021a1.4,1.4,0,0,1,1.822.766l36.582,89.55a1.4,1.4,0,0,1-.763,1.822" transform="translate(3.88 17.342)" fill="#fff"/><path d="M79.516,306.183a3.05,3.05,0,0,1-2.812-1.891L40.122,214.741a3.037,3.037,0,0,1,1.664-3.961l66.142-27.02a3.042,3.042,0,0,1,3.96,1.662l36.584,89.551a3.043,3.043,0,0,1-1.662,3.96h0L80.665,305.955a3.04,3.04,0,0,1-1.148.228M43.251,213.725l36.4,89.1,65.692-26.837-36.4-89.1Zm102.936,63.691h0Zm-.621-1.518h0Z" transform="translate(3.739 17.201)" fill="#233863"/><path d="M94.191,216.783a1.094,1.094,0,0,1-.413-2.106l11.374-4.647a1.094,1.094,0,1,1,.827,2.026L94.6,216.7a1.078,1.078,0,0,1-.413.081" transform="translate(8.725 19.677)" fill="#233863"/><path d="M65.379,247.963a1.094,1.094,0,0,1-.413-2.107l49.8-20.344a1.093,1.093,0,1,1,.827,2.023l-49.8,20.347a1.08,1.08,0,0,1-.413.081" transform="translate(6.025 21.128)" fill="#233863"/><path d="M97.118,246.238a1.094,1.094,0,0,1-.413-2.106l19.8-8.086a1.093,1.093,0,0,1,.827,2.024l-19.8,8.087a1.082,1.082,0,0,1-.413.081" transform="translate(8.999 22.115)" fill="#ffb44f"/><path d="M69.682,257.179a1.094,1.094,0,0,1-.413-2.107l12.117-4.95a1.093,1.093,0,1,1,.827,2.024L70.1,257.1a1.078,1.078,0,0,1-.413.081" transform="translate(6.428 23.434)" fill="#ffb44f"/><path d="M73.256,270.11A1.094,1.094,0,0,1,72.842,268l30.676-12.532a1.094,1.094,0,1,1,.827,2.026L73.669,270.029a1.079,1.079,0,0,1-.413.081" transform="translate(6.763 23.936)" fill="#233863"/><path d="M92.571,226.575,66.124,238.034a2.192,2.192,0,0,1-2.883-1.141L50.949,208.522a2.193,2.193,0,0,1,1.14-2.883l26.447-11.459a2.192,2.192,0,0,1,2.883,1.141l12.292,28.371a2.192,2.192,0,0,1-1.14,2.883" transform="translate(4.758 18.182)" fill="#ffb44f"/><path d="M65.347,239.4a3.293,3.293,0,0,1-3.015-1.982L50.038,209.051a3.287,3.287,0,0,1,1.709-4.322L78.2,193.271a3.29,3.29,0,0,1,4.321,1.708l12.292,28.372a3.285,3.285,0,0,1-1.708,4.32h0L66.653,239.132a3.277,3.277,0,0,1-1.306.272M79.5,195.188a1.1,1.1,0,0,0-.436.09L52.617,206.737a1.1,1.1,0,0,0-.572,1.445L64.34,236.553a1.082,1.082,0,0,0,.6.584,1.1,1.1,0,0,0,.841-.012l26.447-11.46a1.1,1.1,0,0,0,.571-1.444L80.509,195.849a1.1,1.1,0,0,0-1.009-.661m13.165,31.481h0Z" transform="translate(4.664 18.088)" fill="#233863"/><path d="M63.719,211.163a2.593,2.593,0,0,1-2.374-1.561L59.9,206.276a.547.547,0,0,1,1-.435l1.442,3.327a1.494,1.494,0,0,0,1.962.777l.244-.1a1.155,1.155,0,0,0,.6-1.517L61.5,199.9a1.2,1.2,0,0,0-1.567-.619l-.415.181a1.266,1.266,0,0,0-.658,1.665l.09.207a.547.547,0,0,1-1,.438l-.091-.208a2.362,2.362,0,0,1,1.227-3.1l.415-.181a2.293,2.293,0,0,1,3.006,1.188l3.648,8.422a2.251,2.251,0,0,1-1.168,2.955l-.244.1a2.565,2.565,0,0,1-1.026.214" transform="translate(5.405 18.566)" fill="#233863"/><path d="M77.726,198.74a2.323,2.323,0,1,1-3.286-.031,2.325,2.325,0,0,1,3.286.031" transform="translate(6.912 18.561)" fill="#fff"/><path d="M203.276,211.578,137.509,239.5a1.4,1.4,0,0,1-1.832-.74l-37.8-89.043a1.4,1.4,0,0,1,.739-1.831l65.768-27.921a1.4,1.4,0,0,1,1.832.739l37.8,89.043a1.4,1.4,0,0,1-.74,1.832" transform="translate(9.163 11.233)" fill="#fff"/><path d="M137.1,241.393a3.041,3.041,0,0,1-2.8-1.852L96.506,150.5a3.042,3.042,0,0,1,1.609-3.982l65.769-27.922a3.036,3.036,0,0,1,3.982,1.611l37.8,89.042a3.035,3.035,0,0,1-1.61,3.982L138.29,241.151a3.046,3.046,0,0,1-1.187.242M99.622,149.44l37.612,88.595L202.552,210.3,164.941,121.71Z" transform="translate(9.022 11.092)" fill="#233863"/><path d="M150.612,151.735a1.094,1.094,0,0,1-.428-2.1l11.309-4.8a1.094,1.094,0,1,1,.854,2.014l-11.308,4.8a1.091,1.091,0,0,1-.428.086" transform="translate(14.013 13.566)" fill="#233863"/><path d="M122.21,183.352a1.094,1.094,0,0,1-.428-2.1L171.3,160.227a1.094,1.094,0,0,1,.854,2.014l-49.521,21.023a1.092,1.092,0,0,1-.428.087" transform="translate(11.351 15.009)" fill="#233863"/><path d="M153.938,181.16a1.094,1.094,0,0,1-.428-2.1l19.685-8.357a1.094,1.094,0,0,1,.854,2.013l-19.684,8.357a1.093,1.093,0,0,1-.428.087" transform="translate(14.325 15.99)" fill="#ffb44f"/><path d="M126.657,192.462a1.094,1.094,0,0,1-.429-2.1l12.05-5.115a1.094,1.094,0,0,1,.854,2.015l-12.048,5.115a1.089,1.089,0,0,1-.427.086" transform="translate(11.768 17.353)" fill="#ffb44f"/><path d="M130.4,205.367a1.094,1.094,0,0,1-.428-2.1l30.5-12.95a1.094,1.094,0,0,1,.854,2.015l-30.5,12.95a1.091,1.091,0,0,1-.428.086" transform="translate(12.119 17.829)" fill="#233863"/><path d="M169.652,299.9,99.012,289.18a1.4,1.4,0,0,1-1.173-1.59l14.51-95.641a1.4,1.4,0,0,1,1.591-1.171l70.64,10.717a1.4,1.4,0,0,1,1.171,1.59l-14.51,95.641a1.4,1.4,0,0,1-1.59,1.171" transform="translate(9.168 17.879)" fill="#3aaed5"/><path d="M170.008,301.7a2.993,2.993,0,0,1-.462-.035l-70.64-10.717a3.039,3.039,0,0,1-2.547-3.462l14.509-95.638a3.039,3.039,0,0,1,3.458-2.548l70.641,10.718a3.039,3.039,0,0,1,2.548,3.458L173,299.112a3.038,3.038,0,0,1-3,2.583m-70.369-13.96L169.8,298.379l14.437-95.159-70.16-10.644Z" transform="translate(9.028 17.738)" fill="#233863"/><path d="M134.551,206.729a1.052,1.052,0,0,1-.165-.013l-13.561-2.057a1.093,1.093,0,1,1,.329-2.161l13.56,2.057a1.093,1.093,0,0,1-.163,2.174" transform="translate(11.237 18.977)" fill="#fff"/><path d="M166.909,225.071a1.057,1.057,0,0,1-.165-.013L151.172,222.7a1.093,1.093,0,1,1,.329-2.161l15.571,2.362a1.093,1.093,0,0,1-.163,2.174" transform="translate(14.081 20.668)" fill="#233863"/><path d="M143.538,221.525a1.053,1.053,0,0,1-.165-.013l-26.6-4.034a1.094,1.094,0,0,1,.329-2.163l26.595,4.037a1.093,1.093,0,0,1-.163,2.173" transform="translate(10.857 20.179)" fill="#fff"/><path d="M144.735,238.622a1.053,1.053,0,0,1-.165-.013l-30.3-4.6a1.093,1.093,0,0,1,.329-2.161l30.3,4.6a1.093,1.093,0,0,1-.163,2.174" transform="translate(10.622 21.728)" fill="#233863"/><path d="M165.264,257.658a1.053,1.053,0,0,1-.165-.013l-53.191-8.07a1.093,1.093,0,1,1,.329-2.161l53.19,8.07a1.093,1.093,0,0,1-.163,2.174" transform="translate(10.401 23.187)" fill="#fff"/><path d="M139.475,270.66a1.063,1.063,0,0,1-.165-.013L109.4,266.11a1.094,1.094,0,0,1,.329-2.162l29.91,4.538a1.093,1.093,0,0,1-.163,2.174" transform="translate(10.166 24.737)" fill="#fff"/><path d="M186.033,364.344l-125.777.264a12.052,12.052,0,0,1-12.042-11.992L48.036,267.7a12.053,12.053,0,0,1,11.992-12.043l125.777-.264a12.052,12.052,0,0,1,12.042,11.99l.178,84.92a12.052,12.052,0,0,1-11.992,12.042" transform="translate(4.502 23.936)" fill="#fff"/><path d="M60.324,365.8a13.147,13.147,0,0,1-13.109-13.084l-.178-84.919a13.146,13.146,0,0,1,13.083-13.138l125.777-.264h.027a13.124,13.124,0,0,1,13.11,13.083l.178,84.919a13.125,13.125,0,0,1-13.084,13.138v0L60.352,365.8Zm125.6-109.217H185.9l-125.777.264a10.958,10.958,0,0,0-10.9,10.946l.178,84.92a10.957,10.957,0,0,0,10.922,10.9h.024l125.777-.265a10.935,10.935,0,0,0,10.9-10.946l-.178-84.919a10.936,10.936,0,0,0-10.923-10.9" transform="translate(4.408 23.842)" fill="#233863"/><path d="M187.061,236.711l-31.724.067A10.727,10.727,0,0,0,144.664,247.5l.032,15.181-80.352.17a16.391,16.391,0,0,0-16.31,16.377l.161,76.266A16.391,16.391,0,0,0,64.572,371.8l117.124-.246a16.392,16.392,0,0,0,16.308-16.377l-.156-74.706,0-1.562-.067-31.524a10.727,10.727,0,0,0-10.717-10.673" transform="translate(4.502 22.185)" fill="#3d85fd"/><path d="M64.679,373.58a18.007,18.007,0,0,1-17.985-17.946l-.16-76.269a18,18,0,0,1,17.946-18.02l78.713-.166-.03-13.541a12.368,12.368,0,0,1,12.31-12.36l31.724-.067h.026a12.35,12.35,0,0,1,12.336,12.31l.226,107.792a18,18,0,0,1-17.946,18.02l-117.126.247ZM187.2,238.492l-31.724.067a9.086,9.086,0,0,0-9.035,9.074l.033,15.181a1.641,1.641,0,0,1-1.637,1.644l-80.354.17a14.718,14.718,0,0,0-14.671,14.732l.16,76.269a14.721,14.721,0,0,0,14.7,14.671h.03l117.126-.247a14.718,14.718,0,0,0,14.671-14.732l-.226-107.792a9.065,9.065,0,0,0-9.055-9.035Zm0-1.641h0Z" transform="translate(4.361 22.044)" fill="#233863"/><g transform="translate(66.066 271.06)" opacity="0.12"><g clip-path="url(#f)"><path d="M184.8,247.833l-28.385.059a9.6,9.6,0,0,0-9.549,9.592l.028,13.586-71.9.151a14.668,14.668,0,0,0-14.592,14.657l.143,68.254a14.669,14.669,0,0,0,14.654,14.6l104.8-.221a14.667,14.667,0,0,0,14.592-14.656l-.14-66.856,0-1.4-.059-28.211a9.6,9.6,0,0,0-9.59-9.552" transform="translate(-60.405 -247.833)" fill="#fff"/></g></g><path d="M176.564,346.077a5.341,5.341,0,1,1-5.341-5.341,5.34,5.34,0,0,1,5.341,5.341" transform="translate(15.547 31.934)" fill="#fff"/><path d="M180.57,264.982a1.093,1.093,0,0,1-1.094-1.094V249.35a4.642,4.642,0,0,0-4.824-4.424H164.059a1.094,1.094,0,1,1,0-2.187h10.593a6.828,6.828,0,0,1,7.012,6.612v14.538a1.093,1.093,0,0,1-1.094,1.094" transform="translate(15.273 22.75)" fill="#fff"/><path d="M107.766,303.995a2.734,2.734,0,0,1-1.917-4.684L118.7,286.677l12.651,12.65a2.735,2.735,0,0,1-3.867,3.867l-8.815-8.817-8.985,8.833a2.724,2.724,0,0,1-1.917.784" transform="translate(9.844 26.868)" fill="#fff"/><path d="M117.665,320.838a2.734,2.734,0,0,1-2.734-2.734V290.431a2.734,2.734,0,0,1,5.469,0V318.1a2.734,2.734,0,0,1-2.734,2.734" transform="translate(10.772 26.963)" fill="#fff"/><path d="M139.817,332.014H99.237a5.888,5.888,0,0,1-5.88-5.88V311.392a2.734,2.734,0,1,1,5.469,0v14.742a.412.412,0,0,0,.411.411h40.58a.73.73,0,0,0,.73-.73V311.392a2.734,2.734,0,1,1,5.469,0v14.424a6.2,6.2,0,0,1-6.2,6.2" transform="translate(8.75 28.928)" fill="#fff"/><path d="M458.674,351.9l-117.125.246a16.39,16.39,0,0,1-16.377-16.309l-.162-76.267a16.391,16.391,0,0,1,16.311-16.377l117.123-.246a16.392,16.392,0,0,1,16.377,16.309l.16,76.267A16.391,16.391,0,0,1,458.674,351.9" transform="translate(30.461 22.77)" fill="#3d85fd"/><path d="M341.654,353.929a18.033,18.033,0,0,1-17.983-17.946l-.16-76.267a18,18,0,0,1,17.946-18.021l117.126-.246h.036A18.005,18.005,0,0,1,476.6,259.394l.161,76.268a18,18,0,0,1-17.946,18.02l-117.126.246Zm117.16-1.887h0Zm-.2-107.313h-.03l-117.126.246a14.72,14.72,0,0,0-14.671,14.734l.16,76.267a14.751,14.751,0,0,0,14.7,14.671h.032l117.126-.246a14.751,14.751,0,0,0,14.671-14.734l-.161-76.267a14.72,14.72,0,0,0-14.7-14.671" transform="translate(30.32 22.629)" fill="#233863"/><path d="M458.674,351.9l-117.125.246a16.39,16.39,0,0,1-16.377-16.309l-.162-76.267a16.391,16.391,0,0,1,16.311-16.377l117.123-.246a16.392,16.392,0,0,1,16.377,16.309l.16,76.267A16.391,16.391,0,0,1,458.674,351.9" transform="translate(30.461 22.77)" fill="#ffb44f"/><path d="M341.654,353.929a18.033,18.033,0,0,1-17.983-17.946l-.16-76.267a18,18,0,0,1,17.946-18.021l117.126-.246h.036A18.005,18.005,0,0,1,476.6,259.394l.161,76.268a18,18,0,0,1-17.946,18.02l-117.126.246Zm117.16-1.887h0Zm-.2-107.313h-.03l-117.126.246a14.72,14.72,0,0,0-14.671,14.734l.16,76.267a14.751,14.751,0,0,0,14.7,14.671h.032l117.126-.246a14.751,14.751,0,0,0,14.671-14.734l-.161-76.267a14.72,14.72,0,0,0-14.7-14.671" transform="translate(30.32 22.629)" fill="#233863"/><g transform="translate(355.472 265.717)" opacity="0.24"><g clip-path="url(#e)"><path d="M458.674,351.9l-117.125.246a16.39,16.39,0,0,1-16.377-16.309l-.162-76.267a16.391,16.391,0,0,1,16.311-16.377l117.123-.246a16.392,16.392,0,0,1,16.377,16.309l.16,76.267A16.391,16.391,0,0,1,458.674,351.9" transform="translate(-325.011 -242.948)" fill="#233863"/></g></g><path d="M463,358.118l-125.777.264a12.051,12.051,0,0,1-12.042-11.992L325,261.472a12.053,12.053,0,0,1,11.991-12.043l125.777-.264a12.052,12.052,0,0,1,12.042,11.992l.178,84.92A12.052,12.052,0,0,1,463,358.118" transform="translate(30.46 23.352)" fill="#fff"/><path d="M337.29,359.569a13.125,13.125,0,0,1-13.109-13.083L324,261.567a13.126,13.126,0,0,1,13.083-13.139l125.777-.264h.027A13.125,13.125,0,0,1,476,261.248l.178,84.919A13.127,13.127,0,0,1,463.1,359.306l-125.777.264Zm125.8-2.451,0,1.094,0-1.094a10.935,10.935,0,0,0,10.9-10.947l-.178-84.919a10.937,10.937,0,0,0-10.923-10.9h-.023l-125.777.264a10.935,10.935,0,0,0-10.9,10.947l.178,84.919a10.936,10.936,0,0,0,10.922,10.9h.024Z" transform="translate(30.366 23.258)" fill="#233863"/><path d="M463,364.344l-125.777.264a12.051,12.051,0,0,1-12.042-11.992L325,267.7a12.053,12.053,0,0,1,11.991-12.043l125.777-.264a12.052,12.052,0,0,1,12.042,11.99l.178,84.92A12.052,12.052,0,0,1,463,364.344" transform="translate(30.46 23.936)" fill="#fff"/><path d="M337.29,365.8a13.125,13.125,0,0,1-13.109-13.084L324,267.793a13.146,13.146,0,0,1,13.083-13.138l125.777-.264h.027A13.124,13.124,0,0,1,476,267.475l.178,84.919a13.125,13.125,0,0,1-13.083,13.138v0l-125.776.265Zm125.6-109.217h-.024l-125.777.264a10.958,10.958,0,0,0-10.9,10.946l.178,84.92a10.936,10.936,0,0,0,10.922,10.9h.024l125.777-.265a10.934,10.934,0,0,0,10.9-10.946l-.178-84.919a10.936,10.936,0,0,0-10.922-10.9" transform="translate(30.366 23.842)" fill="#233863"/><path d="M464.027,236.711l-31.724.067A10.727,10.727,0,0,0,421.63,247.5l.032,15.181-80.352.17A16.391,16.391,0,0,0,325,279.223l.161,76.266a16.391,16.391,0,0,0,16.377,16.31l117.125-.246a16.391,16.391,0,0,0,16.308-16.377l-.156-74.706,0-1.562-.067-31.524a10.727,10.727,0,0,0-10.717-10.673" transform="translate(30.46 22.185)" fill="#ffb44f"/><path d="M341.646,373.58a18,18,0,0,1-17.985-17.946l-.16-76.269a18,18,0,0,1,17.946-18.02l78.712-.166-.029-13.541a12.368,12.368,0,0,1,12.31-12.36l31.725-.067h.026a12.366,12.366,0,0,1,12.335,12.31l.227,107.792a18.029,18.029,0,0,1-17.946,18.02l-117.124.247ZM464.171,238.492l-31.725.067a9.084,9.084,0,0,0-9.035,9.074l.032,15.181a1.64,1.64,0,0,1-1.637,1.644l-80.352.17a14.718,14.718,0,0,0-14.671,14.732l.16,76.269a14.719,14.719,0,0,0,14.7,14.671h.03l117.124-.247a14.751,14.751,0,0,0,14.671-14.732l-.227-107.792a9.087,9.087,0,0,0-9.054-9.035Zm0-1.641h0Z" transform="translate(30.319 22.044)" fill="#233863"/><g transform="translate(368.683 271.06)" opacity="0.12"><g clip-path="url(#f)"><path d="M461.484,247.833l-28.386.059a9.6,9.6,0,0,0-9.549,9.592l.028,13.586-71.9.151a14.669,14.669,0,0,0-14.593,14.657l.143,68.254a14.669,14.669,0,0,0,14.654,14.6l104.8-.221a14.666,14.666,0,0,0,14.592-14.656l-.14-66.856,0-1.4-.059-28.211a9.6,9.6,0,0,0-9.59-9.552" transform="translate(-337.09 -247.833)" fill="#fff"/></g></g><path d="M453.249,346.077a5.341,5.341,0,1,1-5.341-5.341,5.34,5.34,0,0,1,5.341,5.341" transform="translate(41.478 31.934)" fill="#fff"/><path d="M457.255,264.982a1.093,1.093,0,0,1-1.094-1.094V249.35a4.642,4.642,0,0,0-4.823-4.424H440.744a1.094,1.094,0,0,1,0-2.187h10.594a6.828,6.828,0,0,1,7.011,6.612v14.538a1.093,1.093,0,0,1-1.094,1.094" transform="translate(41.205 22.75)" fill="#fff"/><path d="M390.078,236.98l-54.034-38.945a1.4,1.4,0,0,1-.316-1.95l52.765-73.208a1.4,1.4,0,0,1,1.95-.316L444.476,161.5a1.4,1.4,0,0,1,.317,1.951l-52.765,73.208a1.4,1.4,0,0,1-1.95.316" transform="translate(31.44 11.462)" fill="#fff"/><path d="M391.029,239.025a3.012,3.012,0,0,1-1.77-.574l-54.034-38.944a3.044,3.044,0,0,1-.688-4.24L387.3,122.058a3.036,3.036,0,0,1,4.239-.689l54.033,38.945a3.044,3.044,0,0,1,.69,4.239L393.5,237.763a3.056,3.056,0,0,1-2.471,1.262m.149-3.236Zm-53.836-38.8,53.638,38.661,52.48-72.813-53.637-38.66Z" transform="translate(31.3 11.321)" fill="#233863"/><path d="M390.078,236.98l-54.034-38.945a1.4,1.4,0,0,1-.316-1.95l52.765-73.208a1.4,1.4,0,0,1,1.95-.316L444.476,161.5a1.4,1.4,0,0,1,.317,1.951l-52.765,73.208a1.4,1.4,0,0,1-1.95.316" transform="translate(31.44 11.462)" fill="#3aaed5"/><path d="M391.029,239.025a3.012,3.012,0,0,1-1.77-.574l-54.034-38.944a3.044,3.044,0,0,1-.688-4.24L387.3,122.058a3.036,3.036,0,0,1,4.239-.689l54.033,38.945a3.044,3.044,0,0,1,.69,4.239L393.5,237.763a3.056,3.056,0,0,1-2.471,1.262m.149-3.236Zm-53.836-38.8,53.638,38.661,52.48-72.813-53.637-38.66Z" transform="translate(31.3 11.321)" fill="#233863"/><path d="M416.533,174.2a1.087,1.087,0,0,1-.639-.207l-9.317-6.716a1.094,1.094,0,0,1,1.28-1.774l9.317,6.716a1.094,1.094,0,0,1-.641,1.981" transform="translate(38.063 15.492)" fill="#233863"/><path d="M410.09,188.824a1.094,1.094,0,0,1-.639-.207l-40.8-29.4a1.094,1.094,0,0,1,1.28-1.775l40.8,29.4a1.094,1.094,0,0,1-.641,1.982" transform="translate(34.508 14.736)" fill="#233863"/><path d="M401.763,195.935a1.094,1.094,0,0,1-.639-.207l-16.215-11.688a1.094,1.094,0,1,1,1.28-1.775L402.4,193.953a1.094,1.094,0,0,1-.641,1.982" transform="translate(36.032 17.063)" fill="#ffb44f"/><path d="M373,175.2a1.087,1.087,0,0,1-.639-.207l-9.925-7.154a1.094,1.094,0,1,1,1.28-1.774l9.925,7.154A1.094,1.094,0,0,1,373,175.2" transform="translate(33.926 15.545)" fill="#ffb44f"/><path d="M380.234,195.076a1.093,1.093,0,0,1-.639-.206l-25.129-18.112a1.094,1.094,0,0,1,1.28-1.775L380.875,193.1a1.094,1.094,0,0,1-.641,1.981" transform="translate(33.179 16.38)" fill="#233863"/><path d="M396.072,229.258l-66.685-25.652a1.4,1.4,0,0,1-.8-1.806l34.731-90.285a1.4,1.4,0,0,1,1.806-.8l66.685,25.652a1.4,1.4,0,0,1,.8,1.806l-34.73,90.285a1.4,1.4,0,0,1-1.806.8" transform="translate(30.787 10.367)" fill="#fff"/><path d="M396.711,231.132a3.028,3.028,0,0,1-1.086-.2L328.94,205.279a3.041,3.041,0,0,1-1.745-3.928l34.729-90.283a3.044,3.044,0,0,1,3.925-1.746l66.686,25.652a3.043,3.043,0,0,1,1.745,3.925l-34.73,90.286a3.045,3.045,0,0,1-2.839,1.947M330.344,202.3l66.231,25.478,34.555-89.832L364.9,112.472Z" transform="translate(30.646 10.227)" fill="#233863"/><path d="M396.072,229.258l-66.685-25.652a1.4,1.4,0,0,1-.8-1.806l34.731-90.285a1.4,1.4,0,0,1,1.806-.8l66.685,25.652a1.4,1.4,0,0,1,.8,1.806l-34.73,90.285a1.4,1.4,0,0,1-1.806.8" transform="translate(30.787 10.367)" fill="#fff"/><path d="M396.711,231.132a3.028,3.028,0,0,1-1.086-.2L328.94,205.279a3.041,3.041,0,0,1-1.745-3.928l34.729-90.283a3.044,3.044,0,0,1,3.925-1.746l66.686,25.652a3.043,3.043,0,0,1,1.745,3.925l-34.73,90.286a3.045,3.045,0,0,1-2.839,1.947M330.344,202.3l66.231,25.478,34.555-89.832L364.9,112.472Z" transform="translate(30.646 10.227)" fill="#233863"/><path d="M373.837,141.891a1.105,1.105,0,0,1-.393-.073l-11.469-4.412a1.094,1.094,0,1,1,.786-2.041l11.468,4.411a1.094,1.094,0,0,1-.393,2.115" transform="translate(33.859 12.68)" fill="#233863"/><path d="M404.985,172.669a1.1,1.1,0,0,1-.393-.072l-50.214-19.317a1.094,1.094,0,0,1,.786-2.041l50.213,19.316a1.093,1.093,0,0,1-.393,2.114" transform="translate(33.147 14.167)" fill="#233863"/><path d="M398.306,182.292a1.1,1.1,0,0,1-.393-.073l-19.958-7.678a1.093,1.093,0,1,1,.785-2.041l19.958,7.677a1.094,1.094,0,0,1-.393,2.115" transform="translate(35.357 16.16)" fill="#ffb44f"/><path d="M362.9,168.674a1.1,1.1,0,0,1-.393-.073l-12.217-4.7a1.093,1.093,0,1,1,.785-2.041l12.217,4.7a1.094,1.094,0,0,1-.393,2.115" transform="translate(32.764 15.163)" fill="#ffb44f"/><path d="M375.8,187.265a1.1,1.1,0,0,1-.393-.072l-30.929-11.9a1.094,1.094,0,1,1,.786-2.041l30.928,11.9a1.094,1.094,0,0,1-.393,2.115" transform="translate(32.219 16.231)" fill="#233863"/><path d="M284.526,194.739l-78.978-26.966a1.728,1.728,0,0,1-1.077-2.194L241.3,57.7a1.727,1.727,0,0,1,2.194-1.076l78.978,26.966a1.728,1.728,0,0,1,1.077,2.194L286.72,193.662a1.728,1.728,0,0,1-2.194,1.077" transform="translate(19.155 5.298)" fill="#ffb44f"/><path d="M285.221,196.612a3.325,3.325,0,0,1-1.085-.18L205.16,169.466a3.37,3.37,0,0,1-2.1-4.278L239.891,57.312a3.375,3.375,0,0,1,4.28-2.1l78.974,26.966a3.364,3.364,0,0,1,2.1,4.278L288.413,194.332a3.375,3.375,0,0,1-3.191,2.28m-42.132-138.3a.1.1,0,0,0-.092.058L206.164,166.249a.1.1,0,0,0,.055.112L285.2,193.327h0a.1.1,0,0,0,.11-.055L322.141,85.4a.1.1,0,0,0-.056-.11L243.11,58.32a.051.051,0,0,0-.021,0" transform="translate(19.014 5.158)" fill="#233863"/><path d="M299.91,186.927l-83.187-6.663a1.729,1.729,0,0,1-1.586-1.862l9.1-113.627A1.73,1.73,0,0,1,226.1,63.19l83.187,6.664a1.73,1.73,0,0,1,1.586,1.86l-9.1,113.627a1.729,1.729,0,0,1-1.861,1.585" transform="translate(20.163 5.922)" fill="#fff"/><path d="M300.194,188.714c-.092,0-.184,0-.276-.011l-83.186-6.663a3.37,3.37,0,0,1-3.09-3.628l9.1-113.626a3.374,3.374,0,0,1,3.628-3.09l83.188,6.663a3.373,3.373,0,0,1,3.089,3.627l-9.1,113.627a3.37,3.37,0,0,1-3.353,3.1M226.1,64.967a.089.089,0,0,0-.089.082l-9.1,113.626a.1.1,0,0,0,.081.1l83.186,6.663c.051-.011.092-.039.1-.081l9.1-113.627a.089.089,0,0,0-.082-.1l-83.187-6.663Z" transform="translate(20.022 5.781)" fill="#233863"/><line x2="21.073" y2="1.688" transform="translate(296.19 92.141)" fill="#fff"/><path d="M291.977,87.121c-.029,0-.059,0-.089,0l-21.073-1.689a1.094,1.094,0,0,1-1-1.178,1.083,1.083,0,0,1,1.179-1l21.072,1.688a1.094,1.094,0,0,1-.086,2.184" transform="translate(25.287 7.802)" fill="#ffb44f"/><line x2="21.073" y2="1.688" transform="translate(295.651 98.873)" fill="#fff"/><path d="M291.485,93.276a.811.811,0,0,1-.089,0l-21.074-1.688a1.093,1.093,0,1,1,.175-2.18l21.074,1.688a1.094,1.094,0,0,1-.086,2.184" transform="translate(25.241 8.379)" fill="#ffb44f"/><line x2="21.073" y2="1.688" transform="translate(246.313 171.257)" fill="#fff"/><path d="M246.375,159.457c-.029,0-.059,0-.089,0l-21.074-1.689a1.093,1.093,0,1,1,.175-2.18l21.074,1.688a1.094,1.094,0,0,1-.086,2.184" transform="translate(21.013 14.581)" fill="#ffb44f"/><line x2="18.737" y2="1.501" transform="translate(249.573 134.826)" fill="#fff"/><path d="M247.018,125.961c-.028,0-.059,0-.089,0l-18.737-1.5a1.093,1.093,0,1,1,.175-2.18l18.737,1.5a1.094,1.094,0,0,1-.086,2.184" transform="translate(21.292 11.46)" fill="#233863"/><line x2="32.222" y2="2.581" transform="translate(247.573 159.802)" fill="#fff"/><path d="M258.675,149.877a.828.828,0,0,1-.089,0l-32.222-2.58a1.093,1.093,0,1,1,.175-2.18l32.222,2.58a1.094,1.094,0,0,1-.086,2.184" transform="translate(21.121 13.6)" fill="#233863"/><line x2="24.394" y2="1.953" transform="translate(248.573 147.314)" fill="#fff"/><path d="M251.761,137.832c-.029,0-.059,0-.089,0l-24.394-1.954a1.094,1.094,0,0,1-1-1.178,1.081,1.081,0,0,1,1.178-1l24.394,1.953a1.094,1.094,0,0,1-.086,2.184" transform="translate(21.207 12.53)" fill="#233863"/><line x2="63.087" y2="5.053" transform="translate(250.396 123.339)" fill="#fff"/><path d="M292.121,119.009a.608.608,0,0,1-.089,0l-63.087-5.052a1.1,1.1,0,0,1-1-1.178,1.077,1.077,0,0,1,1.178-1l63.087,5.053a1.093,1.093,0,0,1-.086,2.183" transform="translate(21.363 10.475)" fill="#233863"/><line x2="30.144" y2="2.414" transform="translate(280.748 149.793)" fill="#fff"/><path d="M286.93,140.559c-.029,0-.059,0-.089,0L256.7,138.141a1.1,1.1,0,0,1-1-1.178,1.082,1.082,0,0,1,1.179-1l30.144,2.414a1.094,1.094,0,0,1-.086,2.184" transform="translate(23.964 12.742)" fill="#233863"/><line x2="38.659" y2="3.263" transform="translate(275.305 136.721)" fill="#fff"/><path d="M290.466,129.456c-.031,0-.062,0-.093,0l-38.659-3.264a1.094,1.094,0,0,1,.184-2.18l38.659,3.263a1.094,1.094,0,0,1-.091,2.184" transform="translate(23.497 11.622)" fill="#233863"/><g transform="translate(404.027 307.819)"><g clip-path="url(#i)"><path d="M1.722,29.517c2.02-11.451,5.322-21.1,8.453-25.6,15.111,14.609,33.257,23.354,37.292,25.2l-2.9,16.468a165.674,165.674,0,0,0-21.049,3.68l-.16.912a2.568,2.568,0,0,0,2.081,2.972L44.2,56.452a2.568,2.568,0,0,0,2.971-2.081l1.661-9.418-1.371-.242L49.9,30.893l8.418,1.485c.477.084.758.693.895,1.6l2.7.477c1.78.314-.163,11.327-1.941,11.007l-2.7-.476c-.44.813-.913,1.29-1.39,1.206l-4.238-.748-1.661,9.419a5.426,5.426,0,0,1-6.277,4.4l-18.77-3.311A5.421,5.421,0,0,1,20.5,50.012,138.573,138.573,0,0,0,.928,56.576C-.5,51.3-.311,41.047,1.722,29.517" transform="translate(7.774 0.19)" fill="#fff"/><path d="M65.8.026c.838.148,1.531.9,2.072,2.161-3.431,3.627-7.289,14.19-9.547,26.992-2.264,12.843-2.243,24.115-.241,28.67-.037.018-.078.035-.115.052a3.09,3.09,0,0,1-2.593,1.228c-3.878-.684-4.693-14.472-1.814-30.791S61.921-.658,65.8.026" transform="translate(-51.84 0)" fill="#fff"/></g></g></g></g></svg>