<svg xmlns="http://www.w3.org/2000/svg" xmlns:xlink="http://www.w3.org/1999/xlink" width="253.232" height="185.376" viewBox="0 0 253.232 185.376">
  <defs>
    <clipPath id="clip-path">
      <rect id="Rectángulo_263189" data-name="Rectángulo 263189" width="253.232" height="185.376" transform="translate(23.658 2)" fill="none"/>
    </clipPath>
    <clipPath id="clip-path-2">
      <rect id="Rectángulo_263184" data-name="Rectángulo 263184" width="81.315" height="59.208" fill="none"/>
    </clipPath>
    <clipPath id="clip-path-3">
      <rect id="Rectángulo_263185" data-name="Rectángulo 263185" width="72.757" height="65.55" fill="none"/>
    </clipPath>
    <clipPath id="clip-path-6">
      <rect id="Rectángulo_263192" data-name="Rectángulo 263192" width="38.171" height="32.28" fill="#fff"/>
    </clipPath>
  </defs>
  <g id="Enmascarar_grupo_709767" data-name="Enmascarar grupo 709767" transform="translate(-23.658 -2)" clip-path="url(#clip-path)">
    <path id="Trazado_218714" data-name="Trazado 218714" d="M281.221,244.476a4.84,4.84,0,0,1-4.531-3.169l-1.451-3.929a24.217,24.217,0,0,1-9.508-.277l-1.743,3.844a4.91,4.91,0,0,1-2.73,2.574,4.81,4.81,0,0,1-3.731-.109,4.9,4.9,0,0,1-2.4-6.485l1.744-3.844a24.167,24.167,0,0,1-6.471-6.971l-3.912,1.5a4.829,4.829,0,0,1-6.269-2.844,4.956,4.956,0,0,1,2.869-6.324l3.922-1.5a24.751,24.751,0,0,1,.356-9.593l-3.794-1.72a4.924,4.924,0,0,1,.33-9.059,4.809,4.809,0,0,1,3.73.109l3.793,1.721a24.755,24.755,0,0,1,6.984-6.586l-1.455-3.938a4.956,4.956,0,0,1,2.868-6.324,4.832,4.832,0,0,1,6.27,2.844l1.45,3.929a24.174,24.174,0,0,1,9.507.278l1.744-3.843a4.895,4.895,0,0,1,6.459-2.465,4.812,4.812,0,0,1,2.54,2.734,4.912,4.912,0,0,1-.139,3.75l-1.744,3.843a24.2,24.2,0,0,1,6.471,6.972l3.912-1.5a4.829,4.829,0,0,1,6.27,2.844,4.956,4.956,0,0,1-2.869,6.323l-3.922,1.5a24.762,24.762,0,0,1-.356,9.593l3.793,1.721a4.914,4.914,0,0,1-4.06,8.949l-3.794-1.72a24.757,24.757,0,0,1-6.983,6.585l1.455,3.939a4.957,4.957,0,0,1-2.869,6.324,4.855,4.855,0,0,1-1.739.324m-5.214-8.445,1.8,4.865a3.645,3.645,0,0,0,4.732,2.148,3.767,3.767,0,0,0,2.18-4.806l-1.792-4.854.42-.253a23.623,23.623,0,0,0,7.322-6.907l.281-.41,4.694,2.129a3.728,3.728,0,0,0,3.08-6.789l-4.694-2.13.123-.482a23.6,23.6,0,0,0,.375-10.059l-.086-.483,4.833-1.848a3.766,3.766,0,0,0,2.18-4.805,3.645,3.645,0,0,0-4.733-2.147l-4.843,1.853-.255-.432a23.015,23.015,0,0,0-6.788-7.314l-.407-.282,2.151-4.741a3.727,3.727,0,0,0,.107-2.849,3.629,3.629,0,0,0-1.917-2.065,3.707,3.707,0,0,0-4.89,1.875l-2.15,4.741-.48-.121a23.017,23.017,0,0,0-9.974-.291l-.493.093-1.8-4.865a3.644,3.644,0,0,0-4.733-2.147,3.765,3.765,0,0,0-2.179,4.805l1.792,4.854-.42.253a23.6,23.6,0,0,0-7.323,6.908l-.28.41-4.694-2.129a3.625,3.625,0,0,0-2.817-.082,3.739,3.739,0,0,0-.264,6.871l4.694,2.128-.123.482a23.609,23.609,0,0,0-.374,10.059l.086.483-4.833,1.848a3.765,3.765,0,0,0-2.18,4.805,3.642,3.642,0,0,0,4.732,2.147l4.844-1.853.255.433a23.016,23.016,0,0,0,6.788,7.314l.407.281-2.151,4.742a3.708,3.708,0,0,0,1.809,4.915,3.63,3.63,0,0,0,2.817.081,3.728,3.728,0,0,0,2.073-1.956l2.152-4.741.48.121a23.056,23.056,0,0,0,9.975.291Zm-4.791-5.021a17.838,17.838,0,0,1-16.728-11.7,18.339,18.339,0,0,1,10.629-23.429,17.783,17.783,0,0,1,13.792.4,18.229,18.229,0,0,1-7.694,34.732m.334-35.146a16.805,16.805,0,0,0-6.009,1.12A17.155,17.155,0,0,0,255.6,218.9a16.6,16.6,0,0,0,8.765,9.445,17.011,17.011,0,0,0,14.055-30.98,16.587,16.587,0,0,0-6.87-1.5" transform="translate(-97.641 -100.888)" fill="#f7c27c"/>
    <path id="Trazado_218715" data-name="Trazado 218715" d="M195.6,242.86a3.376,3.376,0,0,1-3.381-3.367l-.011-2.584a16.067,16.067,0,0,1-5.575-2.216l-1.824,1.862a3.424,3.424,0,0,1-2.406,1.037,3.252,3.252,0,0,1-2.423-.964,3.355,3.355,0,0,1-1.014-2.4,3.427,3.427,0,0,1,.986-2.426l1.824-1.863a16.084,16.084,0,0,1-2.331-5.526l-2.583.041a3.465,3.465,0,0,1-2.424-.964,3.358,3.358,0,0,1-1.013-2.4,3.461,3.461,0,0,1,3.392-3.464l2.594-.042a16.457,16.457,0,0,1,2.281-5.611l-1.835-1.8a3.358,3.358,0,0,1-1.013-2.4,3.455,3.455,0,0,1,3.392-3.463,3.368,3.368,0,0,1,2.424.964l1.835,1.8a16.451,16.451,0,0,1,5.563-2.4l-.012-2.593a3.461,3.461,0,0,1,3.393-3.463,3.407,3.407,0,0,1,2.423.964,3.357,3.357,0,0,1,1.013,2.4l.012,2.583a16.071,16.071,0,0,1,5.574,2.217l1.824-1.863h0a3.421,3.421,0,0,1,2.406-1.037,3.3,3.3,0,0,1,2.424.964,3.419,3.419,0,0,1,.027,4.829l-1.824,1.863a16.083,16.083,0,0,1,2.331,5.527l2.583-.042a3.426,3.426,0,0,1,2.424.964,3.357,3.357,0,0,1,1.013,2.4,3.459,3.459,0,0,1-3.392,3.463l-2.593.042A16.484,16.484,0,0,1,209.4,229.5l1.835,1.8a3.439,3.439,0,0,1-2.379,5.867,3.333,3.333,0,0,1-2.424-.964l-1.835-1.8a16.448,16.448,0,0,1-5.563,2.4l.012,2.593a3.46,3.46,0,0,1-3.393,3.463H195.6m-9.127-9.7.41.278a14.919,14.919,0,0,0,6.01,2.388l.5.081.016,3.579a2.19,2.19,0,0,0,2.2,2.186h.037a2.269,2.269,0,0,0,2.225-2.271l-.017-3.567.481-.095a15.3,15.3,0,0,0,5.993-2.583l.4-.289,2.541,2.488a2.13,2.13,0,0,0,1.575.626,2.253,2.253,0,0,0,1.567-3.833l-2.54-2.488.281-.41A15.317,15.317,0,0,0,210.6,223.2l.085-.483,3.566-.057a2.269,2.269,0,0,0,2.225-2.272,2.189,2.189,0,0,0-2.195-2.187h-.037l-3.579.058-.091-.493a14.921,14.921,0,0,0-2.512-5.96l-.286-.4,2.512-2.564a2.23,2.23,0,0,0-.009-3.151,2.053,2.053,0,0,0-1.574-.626,2.244,2.244,0,0,0-1.577.68h0l-2.513,2.564-.41-.277a14.92,14.92,0,0,0-6.01-2.389l-.5-.081-.017-3.579a2.19,2.19,0,0,0-2.195-2.187h-.037a2.269,2.269,0,0,0-2.225,2.271l.017,3.568-.482.094a15.293,15.293,0,0,0-5.993,2.584l-.4.289-2.541-2.49a2.168,2.168,0,0,0-1.574-.624,2.267,2.267,0,0,0-2.224,2.272,2.178,2.178,0,0,0,.657,1.561l2.541,2.489-.281.41a15.306,15.306,0,0,0-2.459,6.045l-.085.483-3.567.058a2.27,2.27,0,0,0-2.225,2.272,2.183,2.183,0,0,0,.657,1.561,2.22,2.22,0,0,0,1.575.625l3.578-.057.091.493a14.934,14.934,0,0,0,2.512,5.959l.286.4-2.512,2.564a2.243,2.243,0,0,0-.648,1.591,2.181,2.181,0,0,0,.657,1.561,2.119,2.119,0,0,0,1.574.625,2.242,2.242,0,0,0,1.577-.68Zm8.937-.334a11.876,11.876,0,0,1-8.369-3.407,12.184,12.184,0,0,1,8.444-20.774,11.931,11.931,0,0,1,12.151,11.9,12.25,12.25,0,0,1-12.026,12.277l-.2,0m.273-23-.18,0a11,11,0,0,0-7.633,18.74,10.762,10.762,0,0,0,7.72,3.068,10.962,10.962,0,0,0,7.7-3.32h0a10.964,10.964,0,0,0,3.16-7.766,10.747,10.747,0,0,0-10.766-10.724" transform="translate(-70.58 -107.964)" fill="#f7c27c"/>
    <path id="Trazado_218716" data-name="Trazado 218716" d="M215.531,318.6a4.185,4.185,0,0,1-1.442-.256,4.141,4.141,0,0,1-2.453-5.366l1.214-3.2a20.315,20.315,0,0,1-5.763-5.318l-3.141,1.436a4.193,4.193,0,0,1-5.561-2.041,4.115,4.115,0,0,1-.1-3.2,4.2,4.2,0,0,1,2.2-2.345l3.141-1.436a20.333,20.333,0,0,1-.253-7.839l-3.217-1.177A4.14,4.14,0,0,1,197.7,282.5a4.247,4.247,0,0,1,5.41-2.473l3.227,1.181a20.81,20.81,0,0,1,5.415-5.777l-1.417-3.1a4.122,4.122,0,0,1-.1-3.2,4.219,4.219,0,0,1,7.76-.3l1.417,3.1a20.814,20.814,0,0,1,7.91-.317l1.218-3.213a4.247,4.247,0,0,1,5.41-2.474,4.141,4.141,0,0,1,2.453,5.366l-1.215,3.2a20.348,20.348,0,0,1,5.764,5.319l3.141-1.436a4.2,4.2,0,0,1,3.212-.129,4.141,4.141,0,0,1,2.453,5.366,4.2,4.2,0,0,1-2.2,2.344l-3.141,1.436a20.348,20.348,0,0,1,.253,7.839l3.216,1.177a4.141,4.141,0,0,1,2.453,5.366,4.246,4.246,0,0,1-5.409,2.473l-3.227-1.181a20.827,20.827,0,0,1-5.415,5.776l1.416,3.1a4.115,4.115,0,0,1,.1,3.2,4.238,4.238,0,0,1-5.41,2.473,4.122,4.122,0,0,1-2.35-2.169l-1.417-3.1a20.818,20.818,0,0,1-7.911.317l-1.217,3.213a4.251,4.251,0,0,1-3.968,2.729m-8.042-15.631.283.406a19.175,19.175,0,0,0,6.108,5.635l.433.253-1.567,4.136a2.954,2.954,0,0,0,1.751,3.831,3.056,3.056,0,0,0,3.894-1.78l1.563-4.125.483.084a19.66,19.66,0,0,0,8.378-.336l.481-.125,1.828,4A2.937,2.937,0,0,0,232.8,316.5a3.052,3.052,0,0,0,3.893-1.78,2.94,2.94,0,0,0-.072-2.283l-1.828-4,.409-.283a19.66,19.66,0,0,0,5.735-6.115l.252-.421,4.143,1.516a3.054,3.054,0,0,0,3.892-1.78,2.952,2.952,0,0,0-1.751-3.831L243.322,296l.091-.493a19.187,19.187,0,0,0-.266-8.307l-.122-.48,4.036-1.845a3.025,3.025,0,0,0,1.583-1.687,2.956,2.956,0,0,0-1.752-3.831,3.023,3.023,0,0,0-2.31.094l-4.037,1.846-.282-.407a19.2,19.2,0,0,0-6.109-5.636L233.72,275l1.568-4.136a2.953,2.953,0,0,0-1.752-3.831,3.053,3.053,0,0,0-3.892,1.78l-1.564,4.125-.483-.084a19.639,19.639,0,0,0-8.377.336l-.481.124-1.828-4a3.033,3.033,0,0,0-5.573.231,2.947,2.947,0,0,0,.073,2.283l1.828,4-.409.283a19.655,19.655,0,0,0-5.736,6.115l-.252.421-4.142-1.516a3.054,3.054,0,0,0-3.893,1.78,2.953,2.953,0,0,0,1.752,3.831l4.153,1.521-.092.493a19.184,19.184,0,0,0,.266,8.306l.123.48-4.036,1.845a3.024,3.024,0,0,0-1.582,1.687,2.94,2.94,0,0,0,.072,2.283,3.007,3.007,0,0,0,3.989,1.455Zm16.423,4.351a15.2,15.2,0,1,1,14.043-21.561,14.977,14.977,0,0,1,.374,11.618,15.46,15.46,0,0,1-14.417,9.942m.211-29.189a13.961,13.961,0,1,0,13.1,18.826,13.8,13.8,0,0,0-.343-10.7,13.986,13.986,0,0,0-12.755-8.121" transform="translate(-80.348 -135.255)" fill="#f7c27c"/>
    <path id="Trazado_218717" data-name="Trazado 218717" d="M139.722,82.7l-17.337-4.116a1.531,1.531,0,0,1-1.136-1.844l3.27-13.775a1.531,1.531,0,0,1,1.844-1.136L143.7,65.948a1.531,1.531,0,0,1,1.136,1.844l-3.27,13.775a1.532,1.532,0,0,1-1.844,1.136" transform="translate(-49.329 -52.281)" fill="#ffb44f"/>
    <path id="Trazado_218718" data-name="Trazado 218718" d="M139.464,83.024a2.407,2.407,0,0,1-.558-.066h0l-17.338-4.116a2.423,2.423,0,0,1-1.8-2.914l3.271-13.775a2.424,2.424,0,0,1,2.914-1.8l17.338,4.116a2.425,2.425,0,0,1,1.8,2.915L141.82,81.162a2.425,2.425,0,0,1-2.355,1.862m-.148-1.8a.641.641,0,0,0,.773-.476l3.271-13.775a.643.643,0,0,0-.476-.773l-17.338-4.115a.641.641,0,0,0-.773.476L121.5,76.338a.643.643,0,0,0,.476.773l17.338,4.116Z" transform="translate(-48.718 -51.671)" fill="#233863"/>
    <path id="Trazado_218719" data-name="Trazado 218719" d="M136.382,80.273a1.452,1.452,0,0,1-.3-.033,1.394,1.394,0,0,1-.884-.616L133.017,76.2a.89.89,0,1,1,1.5-.955l1.975,3.1,7.359-4.744a.89.89,0,0,1,.964,1.5l-7.677,4.949a1.391,1.391,0,0,1-.757.224" transform="translate(-54.079 -57.032)" fill="#fff"/>
    <path id="Trazado_218720" data-name="Trazado 218720" d="M389.991,87.492l-17.71,1.968a1.531,1.531,0,0,1-1.691-1.353l-1.564-14.071a1.532,1.532,0,0,1,1.353-1.691l17.71-1.968a1.532,1.532,0,0,1,1.691,1.353L391.344,85.8a1.531,1.531,0,0,1-1.353,1.691" transform="translate(-150.181 -55.772)" fill="#3aaed5"/>
    <path id="Trazado_218721" data-name="Trazado 218721" d="M371.5,89.749a2.421,2.421,0,0,1-2.4-2.153l-1.564-14.071a2.424,2.424,0,0,1,2.14-2.673l17.709-1.968a2.423,2.423,0,0,1,2.675,2.138l1.563,14.071a2.423,2.423,0,0,1-2.139,2.673L371.77,89.733a2.5,2.5,0,0,1-.273.015m16.151-19.1a.573.573,0,0,0-.071,0l-17.71,1.968a.642.642,0,0,0-.567.709L370.864,87.4a.643.643,0,0,0,.709.567L389.283,86h0a.643.643,0,0,0,.566-.71l-1.564-14.07a.644.644,0,0,0-.638-.572" transform="translate(-149.571 -55.161)" fill="#233863"/>
    <path id="Trazado_218722" data-name="Trazado 218722" d="M383.629,86.249a1.392,1.392,0,0,1-.857-.295l-3.205-2.488a.89.89,0,0,1,1.091-1.405l2.906,2.256,5.329-6.946a.89.89,0,0,1,1.412,1.083l-5.56,7.246a1.392,1.392,0,0,1-.934.537,1.351,1.351,0,0,1-.183.012" transform="translate(-154.335 -58.48)" fill="#fff"/>
    <path id="Trazado_218732" data-name="Trazado 218732" d="M120.517,302.023l-63.506.133a8.887,8.887,0,0,1-8.88-8.843l-.087-41.353a8.887,8.887,0,0,1,8.843-8.88l63.506-.133a8.888,8.888,0,0,1,8.88,8.843l.087,41.353a8.888,8.888,0,0,1-8.843,8.88" transform="translate(-19.553 -126.008)" fill="#3d85fd"/>
    <path id="Trazado_218733" data-name="Trazado 218733" d="M56.382,302.436a9.762,9.762,0,0,1-9.751-9.73l-.086-41.353a9.761,9.761,0,0,1,9.73-9.771l63.506-.133h.02a9.761,9.761,0,0,1,9.751,9.73l.087,41.353a9.776,9.776,0,0,1-9.73,9.771l-63.506.133Zm63.525-1.023h0Zm-.106-58.186h-.016l-63.506.133a7.981,7.981,0,0,0-7.955,7.989L48.41,292.7a7.982,7.982,0,0,0,7.972,7.955H56.4l63.506-.133a8,8,0,0,0,7.955-7.989l-.087-41.353a7.98,7.98,0,0,0-7.972-7.955" transform="translate(-18.943 -125.397)" fill="#233863"/>
    <g id="Grupo_709755" data-name="Grupo 709755" transform="translate(28.491 116.939)" opacity="0.24">
      <g id="Grupo_709754" data-name="Grupo 709754">
        <g id="Grupo_709753" data-name="Grupo 709753" clip-path="url(#clip-path-2)">
          <path id="Trazado_218734" data-name="Trazado 218734" d="M120.517,302.023l-63.506.133a8.887,8.887,0,0,1-8.88-8.843l-.087-41.353a8.887,8.887,0,0,1,8.843-8.88l63.506-.133a8.888,8.888,0,0,1,8.88,8.843l.087,41.353a8.888,8.888,0,0,1-8.843,8.88" transform="translate(-48.044 -242.948)" fill="#233863"/>
        </g>
      </g>
    </g>
    <path id="Trazado_218735" data-name="Trazado 218735" d="M144.881,281.73l-27.965-26.81a.758.758,0,0,1-.023-1.071l36.3-37.861a.757.757,0,0,1,1.071-.023l27.965,26.811a.758.758,0,0,1,.023,1.071l-36.3,37.861a.758.758,0,0,1-1.071.022" transform="translate(-47.487 -114.94)" fill="#fff"/>
    <path id="Trazado_218736" data-name="Trazado 218736" d="M144.793,282.219a1.634,1.634,0,0,1-1.139-.458h0l-27.964-26.81a1.647,1.647,0,0,1-.049-2.329l36.3-37.861a1.649,1.649,0,0,1,2.329-.049l27.964,26.81a1.65,1.65,0,0,1,.049,2.329l-36.3,37.86a1.635,1.635,0,0,1-1.155.506h-.036m.092-1.742h0Zm-27.869-26.719,27.774,26.627,36.115-37.67-27.774-26.627Z" transform="translate(-46.877 -114.331)" fill="#233863"/>
    <path id="Trazado_218737" data-name="Trazado 218737" d="M205.654,255.032a.593.593,0,0,1-.41-.165l-10.528-10.094a.593.593,0,1,1,.821-.856l10.528,10.093a.593.593,0,0,1-.41,1.021" transform="translate(-79.17 -126.336)" fill="#ffb44f"/>
    <path id="Trazado_218738" data-name="Trazado 218738" d="M189.505,259.821a.593.593,0,0,1-.41-.165l-21.057-20.188a.593.593,0,1,1,.821-.856L189.916,258.8a.593.593,0,0,1-.41,1.021" transform="translate(-68.314 -124.177)" fill="#233863"/>
    <path id="Trazado_218739" data-name="Trazado 218739" d="M177.931,271.893a.593.593,0,0,1-.41-.165L156.465,251.54a.593.593,0,1,1,.821-.856l21.056,20.188a.593.593,0,0,1-.41,1.021" transform="translate(-63.603 -129.089)" fill="#233863"/>
    <path id="Trazado_218740" data-name="Trazado 218740" d="M167.038,283.255a.593.593,0,0,1-.41-.165L145.571,262.9a.593.593,0,1,1,.821-.856l21.057,20.188a.593.593,0,0,1-.41,1.021" transform="translate(-59.17 -133.714)" fill="#233863"/>
    <path id="Trazado_218741" data-name="Trazado 218741" d="M155.464,295.327a.593.593,0,0,1-.41-.165L134,274.974a.593.593,0,0,1,.821-.856l21.056,20.188a.593.593,0,0,1-.41,1.021" transform="translate(-54.459 -138.626)" fill="#233863"/>
    <path id="Trazado_218742" data-name="Trazado 218742" d="M98.138,235.047,62.275,249.7a.757.757,0,0,1-.987-.415L41.451,200.728a.757.757,0,0,1,.415-.987l35.862-14.651a.758.758,0,0,1,.988.415l19.835,48.554a.757.757,0,0,1-.414.988" transform="translate(-16.847 -102.438)" fill="#fff"/>
    <path id="Trazado_218743" data-name="Trazado 218743" d="M61.377,250.035a1.654,1.654,0,0,1-1.525-1.025L40.017,200.455a1.647,1.647,0,0,1,.9-2.148l35.862-14.651a1.649,1.649,0,0,1,2.147.9l19.836,48.555a1.65,1.65,0,0,1-.9,2.147h0L62,249.912a1.649,1.649,0,0,1-.623.123M41.714,199.9,61.45,248.215l35.619-14.551L77.332,185.353Zm55.812,34.534h0Zm-.337-.823h0Z" transform="translate(-16.236 -101.828)" fill="#233863"/>
    <path id="Trazado_218744" data-name="Trazado 218744" d="M93.69,213.653a.593.593,0,0,1-.224-1.142l6.167-2.52a.593.593,0,1,1,.448,1.1l-6.167,2.52a.585.585,0,0,1-.224.044" transform="translate(-37.888 -112.577)" fill="#233863"/>
    <path id="Trazado_218745" data-name="Trazado 218745" d="M64.878,237.647a.593.593,0,0,1-.224-1.142l27-11.031a.593.593,0,1,1,.448,1.1L65.1,237.6a.585.585,0,0,1-.224.044" transform="translate(-26.163 -118.878)" fill="#233863"/>
    <path id="Trazado_218746" data-name="Trazado 218746" d="M96.617,241.535a.593.593,0,0,1-.224-1.142l10.734-4.384a.593.593,0,0,1,.448,1.1l-10.734,4.385a.587.587,0,0,1-.224.044" transform="translate(-39.08 -123.165)" fill="#ffb44f"/>
    <path id="Trazado_218747" data-name="Trazado 218747" d="M69.181,253.911a.593.593,0,0,1-.224-1.142l6.57-2.684a.593.593,0,1,1,.448,1.1l-6.57,2.685a.585.585,0,0,1-.224.044" transform="translate(-27.914 -128.895)" fill="#ffb44f"/>
    <path id="Trazado_218748" data-name="Trazado 218748" d="M72.755,263.371a.593.593,0,0,1-.224-1.142l16.633-6.795a.593.593,0,1,1,.448,1.1l-16.633,6.795a.585.585,0,0,1-.224.044" transform="translate(-29.368 -131.071)" fill="#233863"/>
    <path id="Trazado_218749" data-name="Trazado 218749" d="M73.434,211.662l-14.34,6.213a1.189,1.189,0,0,1-1.563-.619l-6.665-15.383a1.189,1.189,0,0,1,.618-1.563l14.34-6.213a1.189,1.189,0,0,1,1.563.618L74.052,210.1a1.188,1.188,0,0,1-.618,1.563" transform="translate(-20.662 -106.087)" fill="#ffb44f"/>
    <path id="Trazado_218750" data-name="Trazado 218750" d="M58.214,218.161a1.785,1.785,0,0,1-1.635-1.075L49.914,201.7a1.782,1.782,0,0,1,.927-2.344l14.34-6.213a1.784,1.784,0,0,1,2.343.926l6.665,15.384a1.781,1.781,0,0,1-.926,2.342h0l-14.34,6.213a1.777,1.777,0,0,1-.708.148m7.674-23.974a.6.6,0,0,0-.237.049l-14.339,6.213a.6.6,0,0,0-.31.783l6.666,15.383a.586.586,0,0,0,.327.317.6.6,0,0,0,.456-.007l14.34-6.214a.6.6,0,0,0,.31-.783l-6.665-15.384a.6.6,0,0,0-.547-.358m7.138,17.069h0Z" transform="translate(-20.254 -105.681)" fill="#233863"/>
    <path id="Trazado_218751" data-name="Trazado 218751" d="M60.948,205.179a1.406,1.406,0,0,1-1.287-.846l-.782-1.8a.3.3,0,0,1,.544-.236l.782,1.8a.81.81,0,0,0,1.064.421l.132-.057a.626.626,0,0,0,.325-.823l-1.978-4.566a.648.648,0,0,0-.85-.336l-.225.1a.687.687,0,0,0-.357.9l.049.112a.3.3,0,0,1-.543.237l-.049-.113a1.281,1.281,0,0,1,.665-1.684l.225-.1a1.243,1.243,0,0,1,1.63.644L62.27,203.4a1.22,1.22,0,0,1-.633,1.6l-.132.057a1.391,1.391,0,0,1-.556.116" transform="translate(-23.469 -107.753)" fill="#233863"/>
    <path id="Trazado_218752" data-name="Trazado 218752" d="M75.9,198.421a1.26,1.26,0,1,1-1.781-.017,1.261,1.261,0,0,1,1.781.017" transform="translate(-30.013 -107.733)" fill="#fff"/>
    <path id="Trazado_218753" data-name="Trazado 218753" d="M154.974,169.586l-35.66,15.139a.757.757,0,0,1-.993-.4l-20.5-48.28a.757.757,0,0,1,.4-.993l35.66-15.139a.757.757,0,0,1,.993.4l20.5,48.28a.758.758,0,0,1-.4.993" transform="translate(-39.788 -75.911)" fill="#fff"/>
    <path id="Trazado_218754" data-name="Trazado 218754" d="M118.408,185.065a1.649,1.649,0,0,1-1.516-1l-20.5-48.28a1.649,1.649,0,0,1,.872-2.159l35.66-15.139a1.646,1.646,0,0,1,2.159.874l20.5,48.279a1.646,1.646,0,0,1-.873,2.159l-35.66,15.139a1.652,1.652,0,0,1-.643.131M98.085,135.208l20.394,48.037,35.416-15.036L133.5,120.172Z" transform="translate(-39.178 -75.3)" fill="#233863"/>
    <path id="Trazado_218755" data-name="Trazado 218755" d="M150.111,148.536a.593.593,0,0,1-.232-1.139l6.132-2.6a.593.593,0,1,1,.463,1.092l-6.131,2.6a.591.591,0,0,1-.232.047" transform="translate(-60.851 -86.043)" fill="#233863"/>
    <path id="Trazado_218756" data-name="Trazado 218756" d="M121.709,172.726a.593.593,0,0,1-.232-1.139l26.851-11.4a.593.593,0,0,1,.463,1.092l-26.851,11.4a.592.592,0,0,1-.232.047" transform="translate(-49.291 -92.308)" fill="#233863"/>
    <path id="Trazado_218757" data-name="Trazado 218757" d="M153.437,176.332a.593.593,0,0,1-.232-1.139l10.673-4.531a.593.593,0,1,1,.463,1.092l-10.673,4.531a.592.592,0,0,1-.232.047" transform="translate(-62.204 -96.57)" fill="#ffb44f"/>
    <path id="Trazado_218758" data-name="Trazado 218758" d="M126.155,189.119a.593.593,0,0,1-.232-1.139l6.533-2.774a.593.593,0,0,1,.463,1.092l-6.533,2.774a.591.591,0,0,1-.231.047" transform="translate(-51.101 -102.489)" fill="#ffb44f"/>
    <path id="Trazado_218759" data-name="Trazado 218759" d="M129.9,198.437a.593.593,0,0,1-.232-1.139l16.539-7.021a.593.593,0,0,1,.463,1.092l-16.538,7.021a.592.592,0,0,1-.232.047" transform="translate(-52.624 -104.553)" fill="#233863"/>
    <path id="Trazado_218760" data-name="Trazado 218760" d="M136.769,249.936l-38.3-5.811a.757.757,0,0,1-.636-.862l7.868-51.857a.757.757,0,0,1,.863-.635l38.3,5.811a.757.757,0,0,1,.635.862L137.632,249.3a.757.757,0,0,1-.862.635" transform="translate(-39.812 -104.77)" fill="#3aaed5"/>
    <path id="Trazado_218761" data-name="Trazado 218761" d="M136.276,250.224a1.624,1.624,0,0,1-.25-.019l-38.3-5.811a1.648,1.648,0,0,1-1.381-1.877l7.867-51.856a1.648,1.648,0,0,1,1.875-1.382l38.3,5.812a1.648,1.648,0,0,1,1.382,1.875L137.9,248.823a1.647,1.647,0,0,1-1.625,1.4m-38.155-7.569,38.041,5.771,7.828-51.6-38.041-5.771Z" transform="translate(-39.202 -104.158)" fill="#233863"/>
    <path id="Trazado_218762" data-name="Trazado 218762" d="M127.842,204.785a.571.571,0,0,1-.09-.007l-7.353-1.115a.593.593,0,1,1,.178-1.172l7.352,1.115a.593.593,0,0,1-.088,1.179" transform="translate(-48.795 -109.54)" fill="#fff"/>
    <path id="Trazado_218763" data-name="Trazado 218763" d="M159.279,222.988a.573.573,0,0,1-.09-.007l-8.444-1.281a.593.593,0,1,1,.179-1.172l8.443,1.281a.593.593,0,0,1-.088,1.179" transform="translate(-61.146 -116.881)" fill="#233863"/>
    <path id="Trazado_218764" data-name="Trazado 218764" d="M130.861,218.676a.57.57,0,0,1-.09-.007l-14.421-2.187a.593.593,0,0,1,.179-1.173l14.42,2.189a.593.593,0,0,1-.088,1.178" transform="translate(-47.147 -114.757)" fill="#fff"/>
    <path id="Trazado_218765" data-name="Trazado 218765" d="M130.363,235.517a.571.571,0,0,1-.09-.007l-16.43-2.492a.593.593,0,0,1,.178-1.172l16.43,2.492a.593.593,0,0,1-.088,1.179" transform="translate(-46.127 -121.486)" fill="#233863"/>
    <path id="Trazado_218766" data-name="Trazado 218766" d="M140.412,252.962a.57.57,0,0,1-.09-.007l-28.84-4.375a.593.593,0,1,1,.178-1.172l28.84,4.375a.593.593,0,0,1-.088,1.179" transform="translate(-45.166 -127.821)" fill="#fff"/>
    <path id="Trazado_218767" data-name="Trazado 218767" d="M125.281,267.582a.576.576,0,0,1-.09-.007l-16.218-2.46a.593.593,0,0,1,.179-1.173l16.217,2.461a.593.593,0,0,1-.088,1.179" transform="translate(-44.145 -134.55)" fill="#fff"/>
    <path id="Trazado_218768" data-name="Trazado 218768" d="M122.859,314.467l-68.2.143a6.535,6.535,0,0,1-6.529-6.5l-.1-46.043a6.535,6.535,0,0,1,6.5-6.53l68.2-.143a6.534,6.534,0,0,1,6.529,6.5l.1,46.044a6.535,6.535,0,0,1-6.5,6.529" transform="translate(-19.55 -131.073)" fill="#fff"/>
    <path id="Trazado_218769" data-name="Trazado 218769" d="M54.241,314.8a7.128,7.128,0,0,1-7.108-7.094l-.1-46.043a7.128,7.128,0,0,1,7.094-7.123l68.2-.143h.015a7.116,7.116,0,0,1,7.109,7.094l.1,46.044a7.116,7.116,0,0,1-7.094,7.123v0l-68.2.143Zm68.1-59.218h-.012l-68.2.143a5.942,5.942,0,0,0-5.91,5.935l.1,46.044a5.941,5.941,0,0,0,5.922,5.91h.013l68.2-.144a5.929,5.929,0,0,0,5.91-5.935l-.1-46.044a5.93,5.93,0,0,0-5.923-5.91" transform="translate(-19.143 -130.666)" fill="#233863"/>
    <path id="Trazado_218770" data-name="Trazado 218770" d="M123.416,236.711l-17.2.036a5.816,5.816,0,0,0-5.787,5.811l.017,8.231-43.568.092a8.887,8.887,0,0,0-8.843,8.88l.087,41.352A8.887,8.887,0,0,0,57,309.956l63.506-.133a8.888,8.888,0,0,0,8.843-8.88l-.085-40.506,0-.847-.036-17.093a5.816,5.816,0,0,0-5.811-5.787" transform="translate(-19.549 -123.47)" fill="#3d85fd"/>
    <path id="Trazado_218771" data-name="Trazado 218771" d="M56.372,310.236a9.763,9.763,0,0,1-9.752-9.73l-.087-41.353a9.761,9.761,0,0,1,9.73-9.771l42.679-.09-.016-7.342a6.706,6.706,0,0,1,6.674-6.7l17.2-.036h.014a6.7,6.7,0,0,1,6.689,6.674l.123,58.445a9.762,9.762,0,0,1-9.73,9.771l-63.506.134Zm66.434-73.246-17.2.036a4.926,4.926,0,0,0-4.9,4.92l.018,8.231a.89.89,0,0,1-.888.891l-43.568.092a7.98,7.98,0,0,0-7.955,7.988L48.4,300.5a7.982,7.982,0,0,0,7.973,7.955h.016l63.506-.134a7.98,7.98,0,0,0,7.955-7.988l-.123-58.445a4.915,4.915,0,0,0-4.91-4.9Zm0-.889h0Z" transform="translate(-18.938 -122.859)" fill="#233863"/>
    <g id="Grupo_709758" data-name="Grupo 709758" transform="translate(35.821 119.837)" opacity="0.12">
      <g id="Grupo_709757" data-name="Grupo 709757">
        <g id="Grupo_709756" data-name="Grupo 709756" clip-path="url(#clip-path-3)">
          <path id="Trazado_218772" data-name="Trazado 218772" d="M127.853,247.833l-15.391.032a5.205,5.205,0,0,0-5.178,5.2l.015,7.367-38.982.082a7.953,7.953,0,0,0-7.912,7.947l.078,37.008a7.954,7.954,0,0,0,7.945,7.914l56.822-.12a7.952,7.952,0,0,0,7.912-7.947l-.076-36.25,0-.758-.032-15.3a5.2,5.2,0,0,0-5.2-5.179" transform="translate(-60.405 -247.833)" fill="#fff"/>
        </g>
      </g>
    </g>
    <path id="Trazado_218773" data-name="Trazado 218773" d="M171.674,343.632a2.9,2.9,0,1,1-2.9-2.9,2.9,2.9,0,0,1,2.9,2.9" transform="translate(-67.511 -165.806)" fill="#fff"/>
    <path id="Trazado_218774" data-name="Trazado 218774" d="M172.51,254.8a.592.592,0,0,1-.593-.593v-7.883a2.517,2.517,0,0,0-2.616-2.4h-5.743a.593.593,0,1,1,0-1.186H169.3a3.7,3.7,0,0,1,3.8,3.585v7.883a.592.592,0,0,1-.593.593" transform="translate(-66.323 -125.923)" fill="#fff"/>
    <path id="Trazado_218775" data-name="Trazado 218775" d="M106.514,296.067a1.483,1.483,0,0,1-1.04-2.54l6.968-6.85,6.859,6.859a1.483,1.483,0,1,1-2.1,2.1l-4.78-4.78-4.872,4.789a1.477,1.477,0,0,1-1.04.425" transform="translate(-42.746 -143.805)" fill="#fff"/>
    <path id="Trazado_218776" data-name="Trazado 218776" d="M116.414,305.666a1.482,1.482,0,0,1-1.483-1.483v-15a1.483,1.483,0,0,1,2.965,0v15a1.482,1.482,0,0,1-1.483,1.483" transform="translate(-46.774 -144.22)" fill="#fff"/>
    <path id="Trazado_218777" data-name="Trazado 218777" d="M118.548,321.322h-22a3.192,3.192,0,0,1-3.188-3.188v-7.993a1.483,1.483,0,1,1,2.965,0v7.993a.223.223,0,0,0,.223.223h22a.4.4,0,0,0,.4-.4v-7.821a1.483,1.483,0,1,1,2.965,0v7.821a3.364,3.364,0,0,1-3.361,3.361" transform="translate(-37.994 -152.751)" fill="#fff"/>
    <path id="Trazado_218778" data-name="Trazado 218778" d="M397.483,302.023l-63.506.133a8.887,8.887,0,0,1-8.88-8.843l-.088-41.353a8.887,8.887,0,0,1,8.844-8.88l63.505-.133a8.888,8.888,0,0,1,8.88,8.843l.087,41.353a8.887,8.887,0,0,1-8.842,8.88" transform="translate(-132.271 -126.008)" fill="#3d85fd"/>
    <path id="Trazado_218779" data-name="Trazado 218779" d="M333.348,302.436a9.778,9.778,0,0,1-9.751-9.73l-.087-41.353a9.762,9.762,0,0,1,9.73-9.771l63.506-.133h.02a9.762,9.762,0,0,1,9.751,9.73l.087,41.353a9.762,9.762,0,0,1-9.73,9.771l-63.506.133Zm63.525-1.023h0Zm-.106-58.186h-.016l-63.506.133a7.981,7.981,0,0,0-7.955,7.989l.087,41.353a8,8,0,0,0,7.971,7.955h.017l63.506-.133a8,8,0,0,0,7.955-7.989l-.087-41.353a7.981,7.981,0,0,0-7.972-7.955" transform="translate(-131.661 -125.397)" fill="#233863"/>
    <path id="Trazado_218780" data-name="Trazado 218780" d="M397.483,302.023l-63.506.133a8.887,8.887,0,0,1-8.88-8.843l-.088-41.353a8.887,8.887,0,0,1,8.844-8.88l63.505-.133a8.888,8.888,0,0,1,8.88,8.843l.087,41.353a8.887,8.887,0,0,1-8.842,8.88" transform="translate(-132.271 -126.008)" fill="#ffb44f"/>
    <path id="Trazado_218781" data-name="Trazado 218781" d="M333.348,302.436a9.778,9.778,0,0,1-9.751-9.73l-.087-41.353a9.762,9.762,0,0,1,9.73-9.771l63.506-.133h.02a9.762,9.762,0,0,1,9.751,9.73l.087,41.353a9.762,9.762,0,0,1-9.73,9.771l-63.506.133Zm63.525-1.023h0Zm-.106-58.186h-.016l-63.506.133a7.981,7.981,0,0,0-7.955,7.989l.087,41.353a8,8,0,0,0,7.971,7.955h.017l63.506-.133a8,8,0,0,0,7.955-7.989l-.087-41.353a7.981,7.981,0,0,0-7.972-7.955" transform="translate(-131.661 -125.397)" fill="#233863"/>
    <g id="Grupo_709761" data-name="Grupo 709761" transform="translate(192.739 116.939)" opacity="0.24">
      <g id="Grupo_709760" data-name="Grupo 709760">
        <g id="Grupo_709759" data-name="Grupo 709759" clip-path="url(#clip-path-2)">
          <path id="Trazado_218782" data-name="Trazado 218782" d="M397.483,302.023l-63.506.133a8.887,8.887,0,0,1-8.88-8.843l-.088-41.353a8.887,8.887,0,0,1,8.844-8.88l63.505-.133a8.888,8.888,0,0,1,8.88,8.843l.087,41.353a8.887,8.887,0,0,1-8.842,8.88" transform="translate(-325.011 -242.948)" fill="#233863"/>
        </g>
      </g>
    </g>
    <path id="Trazado_218783" data-name="Trazado 218783" d="M399.826,308.24l-68.2.143a6.534,6.534,0,0,1-6.529-6.5l-.1-46.044a6.535,6.535,0,0,1,6.5-6.53l68.2-.143a6.535,6.535,0,0,1,6.529,6.5l.1,46.044a6.535,6.535,0,0,1-6.5,6.529" transform="translate(-132.269 -128.538)" fill="#fff"/>
    <path id="Trazado_218784" data-name="Trazado 218784" d="M331.208,308.569a7.117,7.117,0,0,1-7.108-7.094l-.1-46.044a7.117,7.117,0,0,1,7.094-7.124l68.2-.143h.015a7.117,7.117,0,0,1,7.109,7.094l.1,46.044a7.117,7.117,0,0,1-7.094,7.124l-68.2.143Zm68.21-1.329v0a5.929,5.929,0,0,0,5.91-5.936l-.1-46.044a5.93,5.93,0,0,0-5.923-5.91H399.3l-68.2.143a5.929,5.929,0,0,0-5.91,5.936l.1,46.044a5.93,5.93,0,0,0,5.922,5.91h.013Z" transform="translate(-131.862 -128.131)" fill="#233863"/>
    <path id="Trazado_218785" data-name="Trazado 218785" d="M399.826,314.467l-68.2.143a6.534,6.534,0,0,1-6.529-6.5l-.1-46.043a6.535,6.535,0,0,1,6.5-6.53l68.2-.143a6.534,6.534,0,0,1,6.529,6.5l.1,46.044a6.535,6.535,0,0,1-6.5,6.529" transform="translate(-132.269 -131.073)" fill="#fff"/>
    <path id="Trazado_218786" data-name="Trazado 218786" d="M331.208,314.8A7.116,7.116,0,0,1,324.1,307.7l-.1-46.043a7.128,7.128,0,0,1,7.094-7.123l68.2-.143h.015a7.116,7.116,0,0,1,7.108,7.094l.1,46.044a7.116,7.116,0,0,1-7.094,7.123v0l-68.2.143Zm68.1-59.218H399.3l-68.2.143a5.942,5.942,0,0,0-5.909,5.935l.1,46.044a5.929,5.929,0,0,0,5.922,5.91h.013l68.2-.144a5.929,5.929,0,0,0,5.909-5.935l-.1-46.044a5.929,5.929,0,0,0-5.922-5.91" transform="translate(-131.862 -130.666)" fill="#233863"/>
    <path id="Trazado_218787" data-name="Trazado 218787" d="M400.382,236.711l-17.2.036a5.816,5.816,0,0,0-5.787,5.811l.017,8.231-43.568.092a8.887,8.887,0,0,0-8.843,8.88l.087,41.352a8.887,8.887,0,0,0,8.88,8.843l63.506-.133a8.888,8.888,0,0,0,8.843-8.88l-.085-40.506,0-.847-.036-17.093a5.816,5.816,0,0,0-5.811-5.787" transform="translate(-132.268 -123.47)" fill="#ffb44f"/>
    <path id="Trazado_218788" data-name="Trazado 218788" d="M333.339,310.236a9.762,9.762,0,0,1-9.752-9.73l-.087-41.353a9.761,9.761,0,0,1,9.73-9.771l42.678-.09-.015-7.342a6.706,6.706,0,0,1,6.675-6.7l17.2-.036h.014a6.7,6.7,0,0,1,6.688,6.674l.123,58.445a9.776,9.776,0,0,1-9.73,9.771l-63.506.134Zm66.434-73.246-17.2.036a4.925,4.925,0,0,0-4.9,4.92l.017,8.231a.889.889,0,0,1-.888.891l-43.568.092a7.98,7.98,0,0,0-7.955,7.988l.087,41.353a7.981,7.981,0,0,0,7.973,7.955h.016l63.506-.134a8,8,0,0,0,7.955-7.988l-.123-58.445a4.927,4.927,0,0,0-4.909-4.9Zm0-.889h0Z" transform="translate(-131.657 -122.859)" fill="#233863"/>
    <g id="Grupo_709764" data-name="Grupo 709764" transform="translate(199.902 119.837)" opacity="0.12">
      <g id="Grupo_709763" data-name="Grupo 709763">
        <g id="Grupo_709762" data-name="Grupo 709762" clip-path="url(#clip-path-3)">
          <path id="Trazado_218789" data-name="Trazado 218789" d="M404.538,247.833l-15.391.032a5.205,5.205,0,0,0-5.178,5.2l.015,7.367L345,260.514a7.954,7.954,0,0,0-7.912,7.947l.078,37.008a7.954,7.954,0,0,0,7.945,7.914l56.822-.12a7.952,7.952,0,0,0,7.912-7.947l-.076-36.25,0-.758-.032-15.3a5.2,5.2,0,0,0-5.2-5.179" transform="translate(-337.09 -247.833)" fill="#fff"/>
        </g>
      </g>
    </g>
    <path id="Trazado_218790" data-name="Trazado 218790" d="M448.359,343.632a2.9,2.9,0,1,1-2.9-2.9,2.9,2.9,0,0,1,2.9,2.9" transform="translate(-180.115 -165.806)" fill="#fff"/>
    <path id="Trazado_218791" data-name="Trazado 218791" d="M449.2,254.8a.592.592,0,0,1-.593-.593v-7.883a2.517,2.517,0,0,0-2.615-2.4h-5.744a.593.593,0,0,1,0-1.186h5.744a3.7,3.7,0,0,1,3.8,3.585v7.883a.593.593,0,0,1-.593.593" transform="translate(-178.927 -125.923)" fill="#fff"/>
    <path id="Trazado_218795" data-name="Trazado 218795" d="M365.076,184.479l-29.3-21.116a.758.758,0,0,1-.171-1.057l28.61-39.694a.757.757,0,0,1,1.057-.171l29.3,21.116a.758.758,0,0,1,.172,1.058l-28.61,39.694a.758.758,0,0,1-1.057.171" transform="translate(-136.526 -76.905)" fill="#fff"/>
    <path id="Trazado_218796" data-name="Trazado 218796" d="M364.906,184.9a1.633,1.633,0,0,1-.96-.311l-29.3-21.116a1.651,1.651,0,0,1-.373-2.3l28.61-39.694a1.646,1.646,0,0,1,2.3-.374l29.3,21.116a1.65,1.65,0,0,1,.374,2.3l-28.61,39.695a1.657,1.657,0,0,1-1.34.684m.081-1.755ZM335.8,162.107l29.083,20.962,28.455-39.48-29.082-20.962Z" transform="translate(-135.917 -76.295)" fill="#233863"/>
    <path id="Trazado_218797" data-name="Trazado 218797" d="M365.076,184.479l-29.3-21.116a.758.758,0,0,1-.171-1.057l28.61-39.694a.757.757,0,0,1,1.057-.171l29.3,21.116a.758.758,0,0,1,.172,1.058l-28.61,39.694a.758.758,0,0,1-1.057.171" transform="translate(-136.526 -76.905)" fill="#3aaed5"/>
    <path id="Trazado_218798" data-name="Trazado 218798" d="M364.906,184.9a1.633,1.633,0,0,1-.96-.311l-29.3-21.116a1.651,1.651,0,0,1-.373-2.3l28.61-39.694a1.646,1.646,0,0,1,2.3-.374l29.3,21.116a1.65,1.65,0,0,1,.374,2.3l-28.61,39.695a1.657,1.657,0,0,1-1.34.684m.081-1.755ZM335.8,162.107l29.083,20.962,28.455-39.48-29.082-20.962Z" transform="translate(-135.917 -76.295)" fill="#233863"/>
    <path id="Trazado_218799" data-name="Trazado 218799" d="M411.767,170.121a.589.589,0,0,1-.346-.112l-5.052-3.641a.593.593,0,0,1,.694-.962l5.052,3.641a.593.593,0,0,1-.348,1.074" transform="translate(-165.283 -94.405)" fill="#233863"/>
    <path id="Trazado_218800" data-name="Trazado 218800" d="M390.912,174.361a.593.593,0,0,1-.346-.112l-22.121-15.943a.593.593,0,0,1,.694-.962l22.121,15.943a.593.593,0,0,1-.347,1.075" transform="translate(-149.848 -91.123)" fill="#233863"/>
    <path id="Trazado_218801" data-name="Trazado 218801" d="M393.839,189.583a.594.594,0,0,1-.346-.112l-8.792-6.337a.593.593,0,1,1,.694-.963l8.792,6.337a.593.593,0,0,1-.348,1.075" transform="translate(-156.464 -101.228)" fill="#ffb44f"/>
    <path id="Trazado_218802" data-name="Trazado 218802" d="M367.955,170.926a.589.589,0,0,1-.346-.112l-5.382-3.879a.593.593,0,1,1,.694-.962l5.382,3.879a.593.593,0,0,1-.347,1.074" transform="translate(-147.317 -94.636)" fill="#ffb44f"/>
    <path id="Trazado_218803" data-name="Trazado 218803" d="M368.23,185.783a.593.593,0,0,1-.346-.111l-13.625-9.82a.593.593,0,0,1,.694-.962l13.625,9.82a.593.593,0,0,1-.347,1.074" transform="translate(-144.075 -98.264)" fill="#233863"/>
    <path id="Trazado_218804" data-name="Trazado 218804" d="M365.134,174.946l-36.157-13.909a.758.758,0,0,1-.435-.979l18.832-48.953a.757.757,0,0,1,.979-.435l36.157,13.909a.758.758,0,0,1,.435.979l-18.831,48.953a.758.758,0,0,1-.979.435" transform="translate(-133.688 -72.153)" fill="#fff"/>
    <path id="Trazado_218805" data-name="Trazado 218805" d="M364.794,175.276a1.642,1.642,0,0,1-.589-.109l-36.157-13.909a1.649,1.649,0,0,1-.946-2.13l18.83-48.952a1.65,1.65,0,0,1,2.128-.946l36.158,13.909a1.65,1.65,0,0,1,.946,2.128l-18.831,48.953a1.651,1.651,0,0,1-1.539,1.056M328.81,159.645l35.911,13.814,18.736-48.707-35.911-13.814Z" transform="translate(-133.078 -71.544)" fill="#233863"/>
    <path id="Trazado_218806" data-name="Trazado 218806" d="M365.134,174.946l-36.157-13.909a.758.758,0,0,1-.435-.979l18.832-48.953a.757.757,0,0,1,.979-.435l36.157,13.909a.758.758,0,0,1,.435.979l-18.831,48.953a.758.758,0,0,1-.979.435" transform="translate(-133.688 -72.153)" fill="#fff"/>
    <path id="Trazado_218807" data-name="Trazado 218807" d="M364.794,175.276a1.642,1.642,0,0,1-.589-.109l-36.157-13.909a1.649,1.649,0,0,1-.946-2.13l18.83-48.952a1.65,1.65,0,0,1,2.128-.946l36.158,13.909a1.65,1.65,0,0,1,.946,2.128l-18.831,48.953a1.651,1.651,0,0,1-1.539,1.056M328.81,159.645l35.911,13.814,18.736-48.707-35.911-13.814Z" transform="translate(-133.078 -71.544)" fill="#233863"/>
    <path id="Trazado_218808" data-name="Trazado 218808" d="M368.087,138.869a.6.6,0,0,1-.213-.04l-6.218-2.392a.593.593,0,1,1,.426-1.107l6.218,2.392a.593.593,0,0,1-.213,1.147" transform="translate(-147.031 -82.194)" fill="#233863"/>
    <path id="Trazado_218809" data-name="Trazado 218809" d="M381.5,162.824a.6.6,0,0,1-.213-.039l-27.226-10.474a.593.593,0,0,1,.426-1.107l27.226,10.473a.593.593,0,0,1-.213,1.146" transform="translate(-143.938 -88.655)" fill="#233863"/>
    <path id="Trazado_218810" data-name="Trazado 218810" d="M388.668,177.776a.6.6,0,0,1-.213-.04l-10.822-4.163a.593.593,0,1,1,.426-1.107l10.822,4.162a.593.593,0,0,1-.213,1.147" transform="translate(-153.534 -97.308)" fill="#ffb44f"/>
    <path id="Trazado_218811" data-name="Trazado 218811" d="M356.81,165.521a.6.6,0,0,1-.213-.04l-6.624-2.548a.593.593,0,1,1,.426-1.107l6.624,2.548a.593.593,0,0,1-.213,1.147" transform="translate(-142.276 -92.978)" fill="#ffb44f"/>
    <path id="Trazado_218812" data-name="Trazado 218812" d="M361.14,180.817a.6.6,0,0,1-.213-.039l-16.77-6.452a.593.593,0,1,1,.426-1.107l16.77,6.45a.593.593,0,0,1-.213,1.147" transform="translate(-139.909 -97.614)" fill="#233863"/>
    <path id="Trazado_218813" data-name="Trazado 218813" d="M247.835,131.469l-42.822-14.621a.937.937,0,0,1-.584-1.19L224.4,57.167a.936.936,0,0,1,1.19-.584L268.411,71.2a.937.937,0,0,1,.584,1.19l-19.971,58.491a.937.937,0,0,1-1.19.584" transform="translate(-83.177 -50.142)" fill="#ffb44f"/>
    <path id="Trazado_218814" data-name="Trazado 218814" d="M247.524,131.8a1.8,1.8,0,0,1-.588-.1l-42.822-14.621a1.827,1.827,0,0,1-1.14-2.319l19.971-58.491a1.83,1.83,0,0,1,2.32-1.138l42.82,14.621a1.824,1.824,0,0,1,1.139,2.319l-19.971,58.491a1.83,1.83,0,0,1-1.73,1.236M224.68,56.812a.055.055,0,0,0-.05.031l-19.971,58.491a.054.054,0,0,0,.03.061l42.822,14.621h0a.054.054,0,0,0,.06-.03L267.542,71.5a.053.053,0,0,0-.03-.06L224.691,56.814l-.011,0" transform="translate(-82.566 -49.53)" fill="#233863"/>
    <path id="Trazado_218815" data-name="Trazado 218815" d="M261.1,130.278l-45.1-3.613a.938.938,0,0,1-.86-1.009l4.935-61.609a.938.938,0,0,1,1.009-.859l45.1,3.613a.938.938,0,0,1,.86,1.009l-4.935,61.609a.937.937,0,0,1-1.009.859" transform="translate(-87.554 -52.849)" fill="#fff"/>
    <path id="Trazado_218816" data-name="Trazado 218816" d="M260.566,130.562c-.05,0-.1,0-.149-.006l-45.1-3.613a1.827,1.827,0,0,1-1.675-1.967l4.935-61.609a1.83,1.83,0,0,1,1.967-1.675L265.644,65.3a1.829,1.829,0,0,1,1.675,1.966l-4.935,61.609a1.827,1.827,0,0,1-1.818,1.681m-40.173-67.1a.048.048,0,0,0-.048.044l-4.934,61.609a.053.053,0,0,0,.044.052l45.1,3.613c.028-.006.05-.021.052-.044l4.935-61.609a.048.048,0,0,0-.045-.052l-45.1-3.613Z" transform="translate(-86.943 -52.239)" fill="#233863"/>
    <line id="Línea_142" data-name="Línea 142" x2="11.426" y2="0.915" transform="translate(160.596 22.825)" fill="#fff"/>
    <path id="Trazado_218817" data-name="Trazado 218817" d="M281.828,85.347l-.048,0-11.426-.916a.593.593,0,0,1-.544-.639.587.587,0,0,1,.639-.543l11.425.915a.593.593,0,0,1-.047,1.184" transform="translate(-109.806 -61.013)" fill="#ffb44f"/>
    <line id="Línea_143" data-name="Línea 143" x2="11.426" y2="0.915" transform="translate(160.304 26.476)" fill="#fff"/>
    <path id="Trazado_218818" data-name="Trazado 218818" d="M281.336,91.5l-.048,0-11.426-.915a.593.593,0,1,1,.095-1.182l11.426.915a.593.593,0,0,1-.047,1.184" transform="translate(-109.605 -63.518)" fill="#ffb44f"/>
    <line id="Línea_144" data-name="Línea 144" x2="11.426" y2="0.915" transform="translate(133.552 65.723)" fill="#fff"/>
    <path id="Trazado_218819" data-name="Trazado 218819" d="M236.226,157.683l-.048,0-11.426-.916a.593.593,0,1,1,.095-1.182l11.426.915a.593.593,0,0,1-.047,1.184" transform="translate(-91.247 -90.452)" fill="#ffb44f"/>
    <line id="Línea_145" data-name="Línea 145" x2="10.159" y2="0.814" transform="translate(135.32 45.97)" fill="#fff"/>
    <path id="Trazado_218820" data-name="Trazado 218820" d="M237.94,124.272l-.048,0-10.159-.814a.593.593,0,1,1,.095-1.182l10.159.814a.593.593,0,0,1-.047,1.184" transform="translate(-92.46 -76.896)" fill="#233863"/>
    <line id="Línea_146" data-name="Línea 146" x2="17.471" y2="1.4" transform="translate(134.236 59.512)" fill="#fff"/>
    <path id="Trazado_218821" data-name="Trazado 218821" d="M243.423,147.693l-.048,0-17.471-1.4A.593.593,0,1,1,226,145.11l17.471,1.4a.593.593,0,0,1-.047,1.184" transform="translate(-91.715 -86.189)" fill="#233863"/>
    <line id="Línea_147" data-name="Línea 147" x2="13.227" y2="1.059" transform="translate(134.778 52.741)" fill="#fff"/>
    <path id="Trazado_218822" data-name="Trazado 218822" d="M240.092,135.936l-.048,0-13.227-1.06a.593.593,0,0,1-.544-.639.586.586,0,0,1,.639-.543l13.227,1.059a.593.593,0,0,1-.047,1.184" transform="translate(-92.087 -81.543)" fill="#233863"/>
    <line id="Línea_148" data-name="Línea 148" x2="34.206" y2="2.74" transform="translate(135.766 39.741)" fill="#fff"/>
    <path id="Trazado_218823" data-name="Trazado 218823" d="M262.739,115.695a.329.329,0,0,1-.048,0l-34.206-2.739a.594.594,0,0,1-.544-.639.584.584,0,0,1,.639-.543l34.206,2.74a.593.593,0,0,1-.047,1.184" transform="translate(-92.766 -72.621)" fill="#233863"/>
    <line id="Línea_149" data-name="Línea 149" x2="16.344" y2="1.309" transform="translate(152.224 54.085)" fill="#fff"/>
    <path id="Trazado_218824" data-name="Trazado 218824" d="M272.628,138.452l-.048,0-16.345-1.309a.594.594,0,0,1-.544-.639.587.587,0,0,1,.639-.543l16.344,1.309a.593.593,0,0,1-.047,1.184" transform="translate(-104.06 -82.466)" fill="#233863"/>
    <line id="Línea_150" data-name="Línea 150" x2="20.961" y2="1.769" transform="translate(149.272 46.997)" fill="#fff"/>
    <path id="Trazado_218825" data-name="Trazado 218825" d="M272.268,126.961l-.05,0-20.961-1.77a.593.593,0,0,1,.1-1.182l20.961,1.769a.593.593,0,0,1-.049,1.184" transform="translate(-102.035 -77.602)" fill="#233863"/>
    <g id="Grupo_710349" data-name="Grupo 710349" transform="translate(219.065 139.768)">
      <g id="Grupo_710349-2" data-name="Grupo 710349" clip-path="url(#clip-path-6)">
        <path id="Trazado_242543" data-name="Trazado 242543" d="M.934,17.8C2.029,11.587,3.82,6.353,5.517,3.913a77.955,77.955,0,0,0,20.22,13.662L24.163,26.5a89.829,89.829,0,0,0-11.413,2l-.087.495a1.392,1.392,0,0,0,1.128,1.612L23.968,32.4a1.392,1.392,0,0,0,1.611-1.128l.9-5.106-.743-.131,1.322-7.492,4.564.805c.259.045.411.376.485.869l1.467.259c.965.17-.088,6.141-1.053,5.968l-1.467-.258c-.239.441-.5.7-.753.654L28,26.434l-.9,5.107a2.942,2.942,0,0,1-3.4,2.383l-10.177-1.8a2.939,2.939,0,0,1-2.406-3.22A75.135,75.135,0,0,0,.5,32.467c-.776-2.861-.672-8.42.43-14.671" transform="translate(4.215 -1.688)" fill="#fff"/>
        <path id="Trazado_242544" data-name="Trazado 242544" d="M59.409.014c.454.08.83.49,1.124,1.172-1.861,1.966-3.952,7.694-5.176,14.635-1.228,6.964-1.216,13.075-.131,15.545l-.063.028a1.675,1.675,0,0,1-1.406.666c-2.1-.371-2.545-7.847-.984-16.695S57.306-.357,59.409.014" transform="translate(-51.84 0)" fill="#fff"/>
      </g>
    </g>
    <rect id="Rectángulo_263188" data-name="Rectángulo 263188" width="309.89" height="214.51" transform="translate(0 -27.134)" fill="none"/>
  </g>
</svg>
