<svg xmlns="http://www.w3.org/2000/svg" xmlns:xlink="http://www.w3.org/1999/xlink" width="418" height="327" viewBox="0 0 418 327"><defs><filter id="a" x="0" y="0" width="418" height="327" filterUnits="userSpaceOnUse"><feOffset dy="3" input="SourceAlpha"/><feGaussianBlur stdDeviation="3" result="b"/><feFlood flood-opacity="0.161"/><feComposite operator="in" in2="b"/><feComposite in="SourceGraphic"/></filter><clipPath id="c"><rect width="103.402" height="103.389" fill="#fff" stroke="#fff" stroke-width="2"/></clipPath><clipPath id="d"><rect width="103.402" height="103.389" fill="#500c75"/></clipPath></defs><g transform="translate(-381 -6569)"><g transform="matrix(1, 0, 0, 1, 381, 6569)" filter="url(#a)"><rect width="400" height="309" rx="31" transform="translate(9 6)" fill="#bffcf8"/></g><text transform="translate(513 6783)" fill="#12263f" font-size="20" font-family="Roboto-Black, Roboto" font-weight="800"><tspan x="3.639" y="21">El fingerprinting</tspan></text><g transform="translate(535 6631)" clip-path="url(#c)"><path d="M16.683,59.592c0-2.39-.065-4.676.011-6.957.442-13.261,6.279-23.474,17.753-30.129,20.265-11.752,46.395-.118,51.392,22.783a54.4,54.4,0,0,1,.857,8.054c.132,2.034.026,4.083.026,6.248H87.91q6.618,0,13.236,0c1.711,0,2.248.534,2.252,2.228q.007,2.814,0,5.627c-.006,1.57-.57,2.144-2.126,2.146-4.793.006-9.586,0-14.548,0,0,.43,0,.829,0,1.227-.039,3.919.13,7.839-.574,11.738a35.027,35.027,0,0,1-68.767.734,53.758,53.758,0,0,1-.7-11.517c0-.687,0-1.375,0-2.182H15.488q-6.618,0-13.236,0c-1.71,0-2.245-.534-2.249-2.232Q0,64.55,0,61.737C.01,60.164.569,59.6,2.13,59.594c4.793-.006,9.587,0,14.553,0m13.324-.043c0-.678-.011-1.262,0-1.846.053-2.463-.087-4.949.2-7.384a21.631,21.631,0,0,1,34.037-15.07,21.1,21.1,0,0,1,9.138,17.5c.053,2.245.008,4.493.008,6.752H76.7c0-2.336.024-4.592,0-6.847A24.859,24.859,0,0,0,59.409,29.2a73.533,73.533,0,0,0-7.659-1.583v-3.1c1.031.074,1.994.118,2.951.217A28.406,28.406,0,0,1,79.471,47.126c.767,3.682.545,7.4.594,11.105.006.434,0,.869,0,1.279h3.419c-.122-3.57.031-7.1-.407-10.558A31.4,31.4,0,0,0,48.849,21.447c-12.033,1.18-20.631,7.511-25.937,18.336C19.867,46,19.876,52.666,20.076,59.355c0,.054.078.106.1.137h3.176V52.969h3.375v6.58Zm-3.486,10.1c.193,3.714.01,7.377.639,10.893,1.73,9.665,7.421,16.31,16.71,19.395,9.258,3.075,17.735,1.1,24.94-5.5,7.317-6.7,8.626-15.4,7.739-24.745H73.358v6.523H69.991V69.679H66.724c0,2.077.018,4.087-.008,6.1a21.157,21.157,0,0,1-.177,2.7,15,15,0,0,1-13.965,12.8C45.14,91.59,38.566,86.8,37.145,79.662c-.561-2.821-.337-5.8-.465-8.705-.019-.433,0-.869,0-1.278h-3.3c0,2.321-.022,4.574,0,6.826A18.266,18.266,0,0,0,47.168,93.987c1.463.367,2.982.51,4.471.756v3.195c-.42,0-.765.012-1.108,0-9.668-.392-18.453-7.9-20.044-17.44-.526-3.156-.342-6.43-.478-9.651-.017-.4,0-.8,0-1.2ZM69.87,59.525A82.954,82.954,0,0,0,69.82,50.7c-.93-8.563-7.405-14.824-16.243-16C45.794,33.663,37.8,38.506,34.692,46.053c-1.8,4.372-1.211,8.923-1.32,13.441h3.307c0-2.271-.012-4.458,0-6.645A14.978,14.978,0,0,1,47.8,38.431a38.469,38.469,0,0,1,3.845-.632v3.436c-.314.024-.556.04-.8.061a11.682,11.682,0,0,0-10.358,8.491c-.847,3.2-.288,6.47-.457,9.705H56.679c0-2.342.073-4.6-.022-6.854a4.677,4.677,0,0,0-2.9-4.241,4.744,4.744,0,0,0-5.021.535,5.185,5.185,0,0,0-2.066,3.953H43.382c0-.315-.024-.587,0-.852a8.356,8.356,0,0,1,14.941-4.19,8.631,8.631,0,0,1,1.734,5.551c-.035,2.036-.008,4.072-.008,6.131h3.324V52.982h3.366v6.543ZM20.04,69.665c0,.478-.009.888,0,1.3a90.1,90.1,0,0,0,.291,9.258,31.376,31.376,0,0,0,34.131,27.509c12.045-1.125,20.661-7.44,26-18.247,3.084-6.238,3.075-12.946,2.869-19.673,0-.053-.083-.1-.1-.128H80.065c0,2.079.033,4.09-.011,6.1a36.526,36.526,0,0,1-.271,4.466,28.37,28.37,0,0,1-56.461-4.217c.018-2.107,0-4.214,0-6.363ZM3.442,66.15H99.963V63.038H3.442Zm36.614,3.507c0,2.445-.066,4.773.013,7.1A11.654,11.654,0,0,0,50.649,87.88,11.355,11.355,0,0,0,62.9,79.117c.616-3.047.448-6.253.635-9.431H60.049c0,2.293.035,4.513-.007,6.731A8.34,8.34,0,0,1,48.6,84.011c-3.194-1.273-5.507-4.719-5.14-7.71h3.186c.065.351.111.658.18.961a4.988,4.988,0,0,0,5.031,3.988,4.79,4.79,0,0,0,4.719-4.2c.217-2.433.048-4.9.048-7.393Z" transform="translate(0 -12.9)" fill="#fff" stroke="#fff" stroke-width="2"/><path d="M10.01,10.007c0,3.7,0,7.266,0,10.836,0,2.054-.45,2.5-2.5,2.5-1.841,0-3.681.011-5.521,0C.625,23.333.01,22.73.008,21.372Q-.006,11.685.007,2C.009.625.612.009,1.966.007q9.688-.014,19.377,0c1.411,0,2,.612,2.006,2.052q.015,2.969,0,5.937C23.338,9.408,22.734,10,21.3,10c-3.712.008-7.424,0-11.286,0M3.46,3.44V19.9H6.641c0-3.754,0-7.432,0-11.109,0-1.572.569-2.147,2.118-2.152,2.188-.008,4.376,0,6.564,0H19.9V3.44Z" transform="translate(-0.001 0)" fill="#fff" stroke="#fff" stroke-width="2"/><path d="M301.435,10.007H290.572c-2.036,0-2.477-.45-2.478-2.524,0-1.806-.007-3.611,0-5.417.008-1.446.589-2.058,2-2.06q9.689-.012,19.377,0c1.357,0,1.966.617,1.968,1.984q.013,9.687,0,19.375c0,1.36-.617,1.968-1.976,1.978q-3.021.022-6.042,0c-1.363-.009-1.974-.614-1.979-1.973-.012-3.368,0-6.736,0-10.1V10.007m6.588-6.536H291.515V6.639h1.168q4.949,0,9.9,0c1.684,0,2.219.548,2.221,2.261q.005,4.949,0,9.9v1.09h3.219Z" transform="translate(-208.042 0)" fill="#fff" stroke="#fff" stroke-width="2"/><path d="M10.01,301.389h1.218c3.368,0,6.737-.006,10.105,0,1.381,0,2,.6,2.014,1.938q.025,3.073,0,6.146a1.7,1.7,0,0,1-1.935,1.913q-9.74.015-19.481,0a1.69,1.69,0,0,1-1.921-1.925q-.015-9.739,0-19.479a1.691,1.691,0,0,1,1.914-1.93c1.979-.018,3.959-.01,5.938,0,1.57.005,2.144.568,2.147,2.122q.01,5,0,10v1.216m-6.547-9.909v16.437H19.921v-3.159H18.738q-4.949,0-9.9,0c-1.637,0-2.2-.556-2.2-2.179q-.008-5,0-10v-1.1Z" transform="translate(-0.001 -208.008)" fill="#fff" stroke="#fff" stroke-width="2"/><path d="M301.428,301.394c0-3.749,0-7.356,0-10.962,0-1.9.484-2.376,2.414-2.377,1.875,0,3.751-.011,5.626,0,1.353.011,1.96.62,1.962,1.99q.013,9.687,0,19.375c0,1.357-.62,1.969-1.983,1.971q-9.689.013-19.377,0c-1.363,0-1.969-.614-1.979-1.973-.014-1.979-.01-3.958,0-5.938.006-1.5.582-2.084,2.075-2.087,3.334-.008,6.667,0,10,0h1.263m3.369-9.908v1.194c0,3.334.006,6.667,0,10,0,1.486-.6,2.076-2.089,2.079-3.369.008-6.738,0-10.107,0h-1.076v3.173h16.467V291.486Z" transform="translate(-208.035 -208.012)" fill="#fff" stroke="#fff" stroke-width="2"/><path d="M81.991,68.464H78.713v-6.58H75.338v6.523H72.162c-.024-.03-.1-.083-.1-.137-.2-6.689-.21-13.358,2.836-19.571C80.2,37.873,88.8,31.542,100.832,30.362a31.4,31.4,0,0,1,34.229,27.505c.438,3.457.285,6.988.406,10.558h-3.419c0-.41.005-.845,0-1.279-.049-3.709.173-7.423-.594-11.105a28.406,28.406,0,0,0-24.769-22.388c-.957-.1-1.92-.142-2.951-.217v3.1a73.462,73.462,0,0,1,7.659,1.583,24.859,24.859,0,0,1,17.285,23.451c.029,2.255,0,4.51,0,6.846h-3.305c0-2.258.045-4.506-.008-6.752a21.1,21.1,0,0,0-9.138-17.5,21.631,21.631,0,0,0-34.037,15.07c-.287,2.435-.148,4.921-.2,7.384-.012.584,0,1.168,0,1.846" transform="translate(-51.984 -21.815)" fill="#fff" stroke="#fff" stroke-width="2"/><path d="M95.448,204.221h3.486c0,.4-.014.8,0,1.2.136,3.22-.049,6.495.478,9.651,1.591,9.543,10.376,17.048,20.044,17.44.344.014.689,0,1.108,0v-3.195c-1.49-.246-3.008-.389-4.471-.756a18.265,18.265,0,0,1-13.79-17.482c-.026-2.252,0-4.505,0-6.826h3.3c0,.409-.016.844,0,1.278.127,2.907-.1,5.884.465,8.705,1.421,7.142,8,11.927,15.428,11.611a15,15,0,0,0,13.965-12.8,21.159,21.159,0,0,0,.177-2.7c.026-2.009.008-4.019.008-6.1h3.267v6.535h3.368v-6.523h3.191c.887,9.342-.422,18.048-7.739,24.745-7.2,6.595-15.682,8.572-24.94,5.5-9.29-3.085-14.981-9.73-16.71-19.4-.629-3.517-.445-7.178-.639-10.893" transform="translate(-68.927 -147.476)" fill="#fff" stroke="#fff" stroke-width="2"/><path d="M156.576,102.919H153.45V96.376h-3.365v6.544H146.76c0-2.059-.027-4.1.008-6.131a8.63,8.63,0,0,0-1.734-5.551,8.355,8.355,0,0,0-14.941,4.19c-.027.266,0,.537,0,.852h3.286a5.184,5.184,0,0,1,2.066-3.953,4.743,4.743,0,0,1,5.021-.535,4.677,4.677,0,0,1,2.9,4.241c.094,2.253.022,4.512.022,6.855H126.735c.169-3.235-.39-6.5.457-9.705a11.682,11.682,0,0,1,10.358-8.491c.242-.021.484-.037.8-.061V81.192a38.452,38.452,0,0,0-3.846.632,14.978,14.978,0,0,0-11.115,14.418c-.014,2.187,0,4.374,0,6.645h-3.307c.109-4.518-.478-9.069,1.32-13.441,3.1-7.547,11.1-12.39,18.886-11.353,8.838,1.178,15.313,7.439,16.243,16a82.957,82.957,0,0,1,.049,8.824" transform="translate(-86.707 -56.294)" fill="#fff" stroke="#fff" stroke-width="2"/><path d="M72.112,204.3H75.4c0,2.149.014,4.256,0,6.363a28.373,28.373,0,0,0,56.461,4.217,36.588,36.588,0,0,0,.271-4.466c.044-2.009.011-4.02.011-6.1h3.168c.02.024.1.075.1.128.206,6.727.215,13.434-2.869,19.673-5.342,10.807-13.958,17.122-26,18.247A31.376,31.376,0,0,1,72.405,214.85a90.108,90.108,0,0,1-.291-9.258c-.011-.409,0-.819,0-1.3" transform="translate(-52.073 -147.53)" fill="#fff" stroke="#fff" stroke-width="2"/><rect width="96.521" height="3.113" transform="translate(3.442 50.138)" fill="#fff" stroke="#fff" stroke-width="2"/><path d="M144.1,204.266h16.569c0,2.493.169,4.96-.048,7.393a4.79,4.79,0,0,1-4.719,4.2,4.988,4.988,0,0,1-5.031-3.988c-.068-.3-.115-.61-.18-.961H147.5c-.367,2.992,1.946,6.437,5.14,7.71a8.34,8.34,0,0,0,11.44-7.595c.041-2.218.007-4.438.007-6.731h3.486c-.188,3.179-.019,6.384-.635,9.431a11.355,11.355,0,0,1-12.25,8.763,11.654,11.654,0,0,1-10.579-11.127c-.079-2.323-.013-4.651-.013-7.1" transform="translate(-104.038 -147.509)" fill="#fff" stroke="#fff" stroke-width="2"/><path d="M12.448,12.38H28.893v3.2H24.313c-2.188,0-4.376-.006-6.564,0-1.549.005-2.115.58-2.118,2.152-.005,3.677,0,7.355,0,11.109H12.448Z" transform="translate(-8.989 -8.94)" fill="#fff" stroke="#fff" stroke-width="2"/><path d="M316.923,12.492V28.909H313.7v-1.09q0-4.949,0-9.9c0-1.713-.537-2.258-2.221-2.261q-4.949-.006-9.9,0h-1.168V12.492Z" transform="translate(-216.942 -9.021)" fill="#fff" stroke="#fff" stroke-width="2"/><path d="M12.46,300.41h3.178v1.1q0,5,0,10c0,1.624.561,2.177,2.2,2.179q4.949.007,9.9,0h1.183v3.159H12.46Z" transform="translate(-8.998 -216.938)" fill="#fff" stroke="#fff" stroke-width="2"/><path d="M313.74,300.416h3.192v16.449H300.466v-3.173h1.076c3.369,0,6.738.005,10.107,0,1.492,0,2.085-.593,2.089-2.079.008-3.334,0-6.667,0-10v-1.194" transform="translate(-216.979 -216.943)" fill="#fff" stroke="#fff" stroke-width="2"/></g><g transform="translate(541.58 6631)" clip-path="url(#d)"><path d="M16.683,59.592c0-2.39-.065-4.676.011-6.957.442-13.261,6.279-23.474,17.753-30.129,20.265-11.752,46.395-.118,51.392,22.783a54.4,54.4,0,0,1,.857,8.054c.132,2.034.026,4.083.026,6.248H87.91q6.618,0,13.236,0c1.711,0,2.248.534,2.252,2.228q.007,2.814,0,5.627c-.006,1.57-.57,2.144-2.126,2.146-4.793.006-9.586,0-14.548,0,0,.43,0,.829,0,1.227-.039,3.919.13,7.839-.574,11.738a35.027,35.027,0,0,1-68.767.734,53.758,53.758,0,0,1-.7-11.517c0-.687,0-1.375,0-2.182H15.488q-6.618,0-13.236,0c-1.71,0-2.245-.534-2.249-2.232Q0,64.55,0,61.737C.01,60.164.569,59.6,2.13,59.594c4.793-.006,9.587,0,14.553,0m13.324-.043c0-.678-.011-1.262,0-1.846.053-2.463-.087-4.949.2-7.384a21.631,21.631,0,0,1,34.037-15.07,21.1,21.1,0,0,1,9.138,17.5c.053,2.245.008,4.493.008,6.752H76.7c0-2.336.024-4.592,0-6.847A24.859,24.859,0,0,0,59.409,29.2a73.534,73.534,0,0,0-7.659-1.583v-3.1c1.031.074,1.994.118,2.951.217A28.406,28.406,0,0,1,79.471,47.126c.767,3.682.545,7.4.594,11.105.006.434,0,.869,0,1.279h3.419c-.122-3.57.031-7.1-.407-10.558A31.4,31.4,0,0,0,48.849,21.447c-12.033,1.18-20.631,7.511-25.937,18.336C19.867,46,19.876,52.666,20.076,59.355c0,.054.078.106.1.137h3.176V52.969h3.375v6.58Zm-3.486,10.1c.193,3.714.01,7.377.639,10.893,1.73,9.665,7.421,16.31,16.71,19.395,9.258,3.075,17.735,1.1,24.94-5.5,7.317-6.7,8.626-15.4,7.739-24.745H73.358v6.523H69.991V69.679H66.724c0,2.077.018,4.087-.008,6.1a21.158,21.158,0,0,1-.177,2.7,15,15,0,0,1-13.965,12.8C45.14,91.59,38.566,86.8,37.145,79.662c-.561-2.821-.337-5.8-.465-8.705-.019-.433,0-.869,0-1.278h-3.3c0,2.321-.022,4.574,0,6.826A18.266,18.266,0,0,0,47.168,93.987c1.463.367,2.982.51,4.471.756v3.195c-.42,0-.765.012-1.108,0-9.668-.392-18.453-7.9-20.044-17.44-.526-3.156-.342-6.43-.478-9.651-.017-.4,0-.8,0-1.2ZM69.87,59.525A82.961,82.961,0,0,0,69.82,50.7c-.93-8.563-7.405-14.824-16.243-16C45.794,33.663,37.8,38.506,34.692,46.053c-1.8,4.372-1.211,8.923-1.32,13.441h3.307c0-2.271-.012-4.458,0-6.645A14.978,14.978,0,0,1,47.8,38.431a38.47,38.47,0,0,1,3.845-.632v3.436c-.314.024-.556.04-.8.061a11.682,11.682,0,0,0-10.358,8.491c-.847,3.2-.288,6.47-.457,9.705H56.679c0-2.342.073-4.6-.022-6.854a4.677,4.677,0,0,0-2.9-4.241,4.744,4.744,0,0,0-5.021.535,5.185,5.185,0,0,0-2.066,3.953H43.382c0-.315-.024-.587,0-.852a8.356,8.356,0,0,1,14.941-4.19,8.631,8.631,0,0,1,1.734,5.551c-.035,2.036-.008,4.072-.008,6.131h3.324V52.982h3.366v6.543ZM20.04,69.665c0,.478-.009.888,0,1.3a90.1,90.1,0,0,0,.291,9.258,31.376,31.376,0,0,0,34.131,27.509c12.045-1.125,20.661-7.44,26-18.247,3.084-6.238,3.075-12.946,2.869-19.673,0-.053-.083-.1-.1-.128H80.065c0,2.079.033,4.09-.011,6.1a36.529,36.529,0,0,1-.271,4.466,28.37,28.37,0,0,1-56.461-4.217c.018-2.107,0-4.214,0-6.363ZM3.442,66.15H99.963V63.038H3.442Zm36.614,3.507c0,2.445-.066,4.773.013,7.1A11.654,11.654,0,0,0,50.649,87.88,11.355,11.355,0,0,0,62.9,79.117c.616-3.047.448-6.253.635-9.431H60.049c0,2.293.035,4.513-.007,6.731A8.34,8.34,0,0,1,48.6,84.011c-3.194-1.273-5.507-4.719-5.14-7.71h3.186c.065.351.111.658.18.961a4.988,4.988,0,0,0,5.031,3.988,4.79,4.79,0,0,0,4.719-4.2c.217-2.433.048-4.9.048-7.393Z" transform="translate(0 -12.9)" fill="#500c75"/><path d="M10.01,10.007c0,3.7,0,7.266,0,10.836,0,2.054-.45,2.5-2.5,2.5-1.841,0-3.681.011-5.521,0C.625,23.333.01,22.73.008,21.372Q-.006,11.685.007,2C.009.625.612.009,1.966.007q9.688-.014,19.377,0c1.411,0,2,.612,2.006,2.052q.015,2.969,0,5.937C23.338,9.408,22.734,10,21.3,10c-3.712.008-7.424,0-11.286,0M3.46,3.44V19.9H6.641c0-3.754,0-7.432,0-11.109,0-1.572.569-2.147,2.118-2.152,2.188-.008,4.376,0,6.564,0H19.9V3.44Z" transform="translate(-0.001 0)" fill="#500c75"/><path d="M301.435,10.007H290.572c-2.036,0-2.477-.45-2.478-2.524,0-1.806-.007-3.611,0-5.417.007-1.446.589-2.058,2-2.06q9.689-.012,19.377,0c1.357,0,1.966.617,1.968,1.984q.013,9.687,0,19.375c0,1.36-.617,1.968-1.976,1.978q-3.021.022-6.042,0c-1.363-.009-1.974-.614-1.979-1.973-.012-3.368,0-6.736,0-10.1V10.007m6.588-6.536H291.515V6.639h1.168q4.949,0,9.9,0c1.684,0,2.219.548,2.221,2.261q.005,4.949,0,9.9v1.09h3.219Z" transform="translate(-208.042 0)" fill="#500c75"/><path d="M10.01,301.389h1.218c3.368,0,6.737-.006,10.105,0,1.381,0,2,.6,2.014,1.938q.025,3.073,0,6.146a1.7,1.7,0,0,1-1.935,1.913q-9.74.015-19.481,0a1.69,1.69,0,0,1-1.921-1.925q-.015-9.739,0-19.479a1.691,1.691,0,0,1,1.914-1.93c1.979-.018,3.959-.01,5.938,0,1.57.005,2.144.568,2.147,2.122q.01,5,0,10v1.216m-6.547-9.909v16.437H19.921v-3.159H18.738q-4.949,0-9.9,0c-1.637,0-2.2-.556-2.2-2.179q-.008-5,0-10v-1.1Z" transform="translate(-0.001 -208.008)" fill="#500c75"/><path d="M301.428,301.394c0-3.749,0-7.356,0-10.962,0-1.9.484-2.376,2.414-2.377,1.875,0,3.751-.011,5.625,0,1.353.011,1.96.62,1.962,1.99q.013,9.687,0,19.375c0,1.357-.62,1.969-1.983,1.971q-9.689.013-19.377,0c-1.363,0-1.969-.614-1.979-1.973-.014-1.979-.01-3.958,0-5.938.006-1.5.582-2.084,2.075-2.087,3.334-.008,6.667,0,10,0h1.263m3.369-9.908v1.194c0,3.334.006,6.667,0,10,0,1.486-.6,2.076-2.089,2.079-3.369.008-6.738,0-10.107,0h-1.076v3.173h16.466V291.486Z" transform="translate(-208.035 -208.012)" fill="#500c75"/></g></g></svg>