<svg xmlns="http://www.w3.org/2000/svg" xmlns:xlink="http://www.w3.org/1999/xlink" width="261.27" height="202.583" viewBox="0 0 261.27 202.583">
  <defs>
    <clipPath id="clip-path">
      <rect id="Rectángulo_263202" data-name="Rectángulo 263202" width="261.27" height="202.583" fill="none"/>
    </clipPath>
    <clipPath id="clip-path-2">
      <rect id="Rectángulo_263201" data-name="Rectángulo 263201" width="271.536" height="233.381" fill="none"/>
    </clipPath>
    <clipPath id="clip-path-3">
      <rect id="Rectángulo_263199" data-name="Rectángulo 263199" width="5.349" height="5.356" fill="none"/>
    </clipPath>
    <clipPath id="clip-path-4">
      <rect id="Rectángulo_263200" data-name="Rectángulo 263200" width="9.575" height="23.9" fill="none"/>
    </clipPath>
  </defs>
  <g id="Grupo_715876" data-name="Grupo 715876" transform="translate(-8 -15)">
    <g id="Grupo_710358" data-name="Grupo 710358" transform="translate(8 15)" clip-path="url(#clip-path)">
      <g id="Grupo_710357" data-name="Grupo 710357" transform="translate(-8.213 -15.399)">
        <g id="Grupo_710356" data-name="Grupo 710356" clip-path="url(#clip-path-2)">
          <path id="Trazado_242545" data-name="Trazado 242545" d="M153.594,46.673c-2.961,0-6.087.109-9.29.326a134.5,134.5,0,0,0-20.261,2.977,131.257,131.257,0,0,0-20.84,6.583,129.778,129.778,0,0,0-18.284,9.258c-.2.121-.373.226-.544.334-2.03,1.257-4.018,2.561-5.929,3.886l-.315.22c-1.37.963-2.725,1.952-4.04,2.95-1.527,1.156-3.113,2.425-4.852,3.88-3.069,2.571-6.07,5.355-8.921,8.272-1.262,1.292-2.546,2.664-3.816,4.076-1.372,1.526-2.752,3.153-4.219,4.972a120.361,120.361,0,0,0-13.627,21.122c-.793,1.561-1.6,3.251-2.454,5.166-.966,2.155-1.9,4.45-2.856,7.018-.692,1.853-1.381,3.894-2.107,6.238-.658,2.128-1.279,4.4-1.9,6.954-.508,2.1-.97,4.322-1.412,6.8-.439,2.455-.8,5.033-1.109,7.881a116.229,116.229,0,0,0,.279,26.962,114.651,114.651,0,0,0,2.428,13.042c.844,3.453,1.88,6.926,3.166,10.616l.034.1.051.146c.558,1.57,1.15,3.136,1.767,4.678.53,1.325,1.132,2.736,1.838,4.315,1.184,2.645,2.5,5.294,4.029,8.1.056.1.1.189.149.276l.042.077.043.078q1.149,2.071,2.412,4.173c.844,1.4,1.753,2.832,2.777,4.375l.211.317c1.035,1.536,2.107,3.057,3.193,4.534a.355.355,0,0,0-.2.349.338.338,0,0,0,.283.373h.457l.464.617a.239.239,0,0,0,.4,0,.426.426,0,0,0,.082-.261.436.436,0,0,0-.082-.265l-.076-.1,72.639.008H256.842l-.032.037,0,0-.313.409-.306.4a.439.439,0,0,0-.082.265.445.445,0,0,0,.082.264.239.239,0,0,0,.4,0l.253-.328.253-.329.041-.058.027-.041,0,0c.095-.123.187-.247.28-.371l.035-.043.042-.056.057-.078.027-.035.989-.033a.388.388,0,0,0,0-.746h-.416l.051-.057.061-.086.415-.566.024-.041,0,0,.055-.075.21-.293.194-.268.047-.064c1.152-1.616,2.278-3.275,3.347-4.934l.134-.207.115-.18.054-.083.023-.04.09-.143.088-.138.327-.518a.445.445,0,0,0,.027-.047c1.24-1.991,2.425-4.017,3.522-6.021l.13-.237.221-.407.1-.19c.125-.232.232-.433.339-.634.195-.374.376-.721.557-1.07l.052-.1.047-.091.086-.167.084-.163c.529-1.047.988-1.981,1.419-2.884.594-1.244,1.21-2.61,1.886-4.178,1.09-2.53,2.113-5.191,3.125-8.132l.048-.138.074-.217c.006-.017.01-.032.015-.05.409-1.218.807-2.464,1.185-3.7.441-1.45.874-3.009,1.362-4.908a115.4,115.4,0,0,0,2.272-11.316c.528-3.48.891-7.094,1.109-11.05.189-3.433.21-6.967.064-10.8-.122-3.23-.4-6.553-.858-10.159a115.6,115.6,0,0,0-2.141-11.757c-.756-3.243-1.711-6.587-2.921-10.225-1.138-3.423-2.488-6.878-4.127-10.56q-.722-1.6-1.5-3.224c-.555-1.148-1.169-2.355-1.932-3.8-1.338-2.535-2.829-5.1-4.558-7.854-1.427-2.271-3-4.572-4.8-7.035-1.69-2.307-3.521-4.613-5.6-7.049a126.031,126.031,0,0,0-23.736-21.448l-.086-.059c-2.765-1.914-5.593-3.719-8.422-5.377-2.708-1.588-5.621-3.148-8.658-4.635a129.923,129.923,0,0,0-18.761-7.411l-.046-.014-.039-.013-.2-.061-.2-.059c-2.543-.768-5.134-1.47-7.723-2.092-2.3-.553-4.723-1.058-7.415-1.545a133.676,133.676,0,0,0-13.268-1.7c-.058-.005-.1-.009-.144-.011-3.305-.248-6.661-.379-9.973-.391-.145,0-.292,0-.437,0M32.107,133.109l0-.018.019-.034c-.042.128-.083.257-.124.385l.094-.3.007-.023h0v0l.006-.018Z" transform="translate(-13.981 -24.681)" fill="#cfe7e0"/>
          <path id="Trazado_242546" data-name="Trazado 242546" d="M80.711,439.338q-.4,0-.8.028a15.053,15.053,0,0,0-2.28.316,8.837,8.837,0,0,0-2.194.763,3.47,3.47,0,0,0-1.474,1.325,2.279,2.279,0,0,0-.273.911,2.678,2.678,0,0,0,.14,1.062,2.629,2.629,0,0,0,.248.563,2.132,2.132,0,0,0,.4.485,2.506,2.506,0,0,0,1.055.54,3.561,3.561,0,0,0,.9.107c.123,0,.246-.005.367-.015a5.537,5.537,0,0,0,1.287-.253,5.2,5.2,0,0,0,1.115-.5,4.945,4.945,0,0,0,1.209-1.053,11.776,11.776,0,0,0,1.445-2.357c.246-.481.5-.98.788-1.445a.162.162,0,0,0,.017-.125.165.165,0,0,0-.077-.1.168.168,0,0,0-.086-.024.339.339,0,0,0-.156-.095,9.393,9.393,0,0,0-1.632-.133" transform="translate(-39.364 -234.466)" fill="#fba92d"/>
          <path id="Trazado_242547" data-name="Trazado 242547" d="M45.453,352.692a1.942,1.942,0,0,0-.272.02,2.157,2.157,0,0,0-.959.4,3.43,3.43,0,0,0-.765.8,6.167,6.167,0,0,0-.6,1.078,8.844,8.844,0,0,0-.668,2.468,7.251,7.251,0,0,0-.053,1.15c.024.55.08,1.134.166,1.736a22.077,22.077,0,0,0,.824,3.55,25.325,25.325,0,0,0,1.98,4.6,20.583,20.583,0,0,0,2.555,3.666v.082c0,.057,0,.115,0,.172a.215.215,0,0,0,.065.157.25.25,0,0,0,.372,0,.255.255,0,0,0,.065-.181c0-.057,0-.08.006-.1.04-.408.082-.815.131-1.222.058-.46.128-.921.2-1.379.095-.612.2-1.224.3-1.836q.1-.6.2-1.2c.2-1.256.342-2.279.446-3.22a29.3,29.3,0,0,0,.193-3.217,14.264,14.264,0,0,0-.3-2.968,7.662,7.662,0,0,0-.988-2.507,6.045,6.045,0,0,0-.917-1.11,3.623,3.623,0,0,0-1.152-.776,2.238,2.238,0,0,0-.816-.164" transform="translate(-22.509 -188.174)" fill="#fba92d"/>
          <path id="Trazado_242548" data-name="Trazado 242548" d="M50.238,379.378c-.044,0-.089,0-.135,0a2.21,2.21,0,0,0-.926.275,2.886,2.886,0,0,0-.76.621,4.961,4.961,0,0,0-.619.881,7.868,7.868,0,0,0-.486,1.058,12.728,12.728,0,0,0-.628,2.295,12.281,12.281,0,0,0-.218,1.932c-.009.308,0,.6.014.93.017.415.052.84.108,1.3a21.881,21.881,0,0,0,.44,2.448,35.868,35.868,0,0,0,1.223,4l-.114-.131-.127-.121c-.245-.231-.5-.461-.744-.686-.591-.535-1.217-1.074-1.859-1.6a29.939,29.939,0,0,0-4.6-3.179,13.442,13.442,0,0,0-2.4-1.037,6.678,6.678,0,0,0-1.961-.326c-.095,0-.189,0-.282.007a3.585,3.585,0,0,0-2.809,1.53,2.773,2.773,0,0,0-.315.587,2.267,2.267,0,0,0-.146.64,2.516,2.516,0,0,0,.211,1.2,4.111,4.111,0,0,0,.7,1.116,7.094,7.094,0,0,0,1.043.992,10.309,10.309,0,0,0,1.176.814,9.9,9.9,0,0,0,1.136.584,12.4,12.4,0,0,0,1.6.553,18.842,18.842,0,0,0,3.887.64c.483.033.98.049,1.476.049a23.778,23.778,0,0,0,4.394-.417c0,.011.012.024.025.037a.264.264,0,0,0,.178.065.229.229,0,0,0,.185-.084c.066-.083.129-.167.191-.251l.1-.135c.093-.125.178-.257.26-.392a7.511,7.511,0,0,0,.471-.943c.109-.245.209-.5.307-.749l.052-.131c.073-.184.147-.369.224-.553l.065-.153.065-.156c.2-.48.4-.959.59-1.443a35.294,35.294,0,0,0,1.6-4.922,15.69,15.69,0,0,0,.394-2.57,6.95,6.95,0,0,0-.184-2.247,3.256,3.256,0,0,0-1-1.649,2.908,2.908,0,0,0-.878-.5,2.689,2.689,0,0,0-.931-.177" transform="translate(-17.572 -202.432)" fill="#fba92d"/>
          <path id="Trazado_242549" data-name="Trazado 242549" d="M65.2,404.659a1.67,1.67,0,0,0-.358.04,1.517,1.517,0,0,0-.453.2,2.081,2.081,0,0,0-.432.366,3.776,3.776,0,0,0-.649,1.009,6.766,6.766,0,0,0-.413,1.185,6.094,6.094,0,0,0-.178,1.137,10.388,10.388,0,0,0,.118,2.336,13.752,13.752,0,0,0,.588,2.345,13.925,13.925,0,0,0,.979,2.21,11.851,11.851,0,0,0,.868,1.363,4.55,4.55,0,0,0-.493-.258l-.493-.229-.337-.157c-.186-.086-.373-.165-.563-.242-.462-.192-.948-.373-1.486-.558a30.247,30.247,0,0,0-3.982-1.081,17.175,17.175,0,0,0-2.087-.287c-.25-.018-.5-.029-.748-.029a7.792,7.792,0,0,0-1.107.076,3.451,3.451,0,0,0-1.423.494,2.227,2.227,0,0,0-.277.217,2.035,2.035,0,0,0-.25.277,1.916,1.916,0,0,0-.3.623,2.487,2.487,0,0,0-.086.784,4.027,4.027,0,0,0,.153.951,5.824,5.824,0,0,0,1.1,2.18,4.87,4.87,0,0,0,1.823,1.349,6.659,6.659,0,0,0,2.292.506c.138.007.279.011.417.011a10.416,10.416,0,0,0,2.071-.225,12.831,12.831,0,0,0,2.462-.785,12.7,12.7,0,0,0,2.2-1.2,9.127,9.127,0,0,0,1.7-1.491c.088-.1.17-.2.249-.306a.257.257,0,0,0,.177-.182c.078-.258.146-.52.211-.782l.024-.091c.088-.351.171-.706.249-1.061.192-.877.355-1.749.484-2.59a27.847,27.847,0,0,0,.3-2.814,12.48,12.48,0,0,0-.1-2.566,4.21,4.21,0,0,0-.69-1.876,2.32,2.32,0,0,0-.813-.658,1.761,1.761,0,0,0-.545-.175,1.483,1.483,0,0,0-.2-.013" transform="translate(-27.584 -215.938)" fill="#fba92d"/>
          <path id="Trazado_242550" data-name="Trazado 242550" d="M69.957,402.772a6.737,6.737,0,0,0-.728-.912c-.264-.289-.54-.566-.817-.842-.255-.257-.513-.51-.768-.766s-.5-.52-.759-.779c-.931-.948-1.9-1.855-2.9-2.738-1.994-1.774-4.078-3.442-6.1-5.185l-.253-.221c.04-.354.059-.711.07-1.064.013-.42-.009-.841-.022-1.261s-.021-.844-.047-1.264c-.029-.453-.057-.906-.077-1.359q-.059-1.272-.155-2.54c-.065-.871-.153-1.739-.238-2.609a.119.119,0,0,0-.117-.106h-.01a.118.118,0,0,0-.106.126c.1.99.159,1.981.2,2.974.044,1.032.064,2.067.011,3.1,0-.02,0-.04,0-.062-.018.331-.049.659-.073.99q-.038.537-.1,1.075c-.054.428-.105.858-.148,1.288a48.119,48.119,0,0,1-5.4-5.483c-.149-.184-.292-.373-.437-.559,0-.006.006-.01.007-.015a5.081,5.081,0,0,0,.148-.808c.036-.311.068-.622.1-.933q.087-.87.147-1.741t.106-1.743c.035-.613.073-1.225.1-1.836.027-.582.053-1.164.081-1.745.029-.613.044-1.226.062-1.839.037-1.2.049-2.4.047-3.593a.134.134,0,0,0-.135-.129.133.133,0,0,0-.127.135c0,1.046-.048,2.09-.111,3.134-.033.523-.081,1.045-.126,1.565-.047.549-.094,1.1-.151,1.643q-.222,1.935-.484,3.866c-.087.644-.162,1.29-.229,1.936-.035.335-.066.672-.1,1.008-.006.072-.009.144-.014.217a42.341,42.341,0,0,1-4.709-8.008,40.123,40.123,0,0,1-2.924-10.031,48.785,48.785,0,0,1-.523-7.887.125.125,0,0,0-.133-.13.137.137,0,0,0-.143.138c-.015,1.3.006,2.592.075,3.888.068,1.263.189,2.523.351,3.778q.24,1.839.615,3.655c.124.605.26,1.21.409,1.808s.319,1.19.495,1.78c.349,1.183.766,2.341,1.226,3.484q.707,1.746,1.575,3.417c.562,1.076,1.177,2.121,1.836,3.14l-.07-.017c-.422-.1-.844-.193-1.265-.291-.394-.091-.786-.189-1.177-.286-.419-.1-.839-.208-1.254-.322-.8-.222-1.6-.454-2.4-.706-.384-.122-.766-.245-1.144-.376-.4-.141-.805-.293-1.2-.442-1.072-.41-2.131-.849-3.159-1.354a.14.14,0,0,0-.057-.013.113.113,0,0,0-.1.06.119.119,0,0,0,.048.158c1.007.5,2.022.99,3.054,1.439.5.217,1.008.422,1.513.629.524.215,1.052.424,1.584.622q.771.289,1.548.556c.548.188,1.093.377,1.645.553s1.1.346,1.657.506a9.523,9.523,0,0,0,1.506.355c.532.771,1.082,1.529,1.666,2.262a51.533,51.533,0,0,0,5.431,5.7c-.215.038-.43.078-.644.121-.26.053-.52.113-.78.162-.243.047-.485.084-.727.123-.464.066-.93.125-1.4.174-.5.051-1.006.076-1.51.094a21.666,21.666,0,0,1-2.986-.1,20.885,20.885,0,0,1-2.462-.41.121.121,0,0,0-.142.087.117.117,0,0,0,.087.14c.464.109.931.213,1.4.3s.939.15,1.41.206c.455.054.911.095,1.368.135.5.042,1.008.058,1.512.069.978.02,1.957-.009,2.932-.069.237-.014.473-.034.709-.051s.473-.033.708-.058a8.237,8.237,0,0,0,1.28-.23c1.382,1.249,2.79,2.467,4.2,3.689q-.384.158-.759.338a11.176,11.176,0,0,0-1.153.633c-.782.493-1.519,1.049-2.276,1.581a.163.163,0,0,0-.042.222.159.159,0,0,0,.222.041,21.54,21.54,0,0,1,2.41-1.524c.262-.131.527-.257.8-.368a5.365,5.365,0,0,1,.833-.262c.2-.041.406-.076.61-.1l.52.453c1.1.964,2.187,1.943,3.242,2.957q.824.794,1.61,1.624c.291.306.578.615.866.922a8.914,8.914,0,0,0,.9.883.609.609,0,0,0,.936-.762" transform="translate(-19.564 -190.817)" fill="#e38907"/>
          <path id="Trazado_242551" data-name="Trazado 242551" d="M84.718,356.484c.211,1.166.493,2.339.766,3.473l.1.415c.337,1.41.637,2.681.891,3.959a34.878,34.878,0,0,1,.584,4.037,39.012,39.012,0,0,1,.068,4.18l.011-.069,0-.068c-.058,1.626-.173,3.278-.284,4.874-.106,1.525-.215,3.1-.266,4.656a41.28,41.28,0,0,0,.075,4.779,26.6,26.6,0,0,0,.8,4.75,24.717,24.717,0,0,0,.913,2.773,21.051,21.051,0,0,0,1.41,2.907,13.933,13.933,0,0,0,1.621,2.247.306.306,0,0,0,.2.291l.1.033a8.753,8.753,0,0,0,2.427,1.792,6.642,6.642,0,0,0,2.209.625h.006a.312.312,0,0,0,.34-.249.321.321,0,0,0-.066-.238.267.267,0,0,0-.185-.107,6.342,6.342,0,0,1-1.09-.211,6.705,6.705,0,0,1-1.4-.63,8.134,8.134,0,0,1-.764-.542,60.31,60.31,0,0,0,14.653,2.109c1.175.043,2.414.065,3.682.065,4.3,0,8.547-.24,12.875-.506.431-.025.862-.051,1.3-.067.338-.013.677-.022,1.015-.029l.247-.007c.826-.022,1.712-.056,2.592-.15a11.169,11.169,0,0,0,2.476-.515,7.227,7.227,0,0,0,1.235-.548c-.026.209-.048.422-.071.635a.6.6,0,0,0,.493.682.493.493,0,0,0,.091.008.6.6,0,0,0,.593-.5,14.831,14.831,0,0,0,.109-1.77c.006-.542-.014-1.112-.063-1.745a23.7,23.7,0,0,0-.6-3.611,36.82,36.82,0,0,0-2.678-7.365,50.25,50.25,0,0,0-3.839-6.649c-.64-.939-1.317-1.854-2.014-2.718a36.076,36.076,0,0,0-2.7-2.976,41.036,41.036,0,0,0-12.8-8.337,76.541,76.541,0,0,0-7.34-2.672l-1.688-.524c-2.08-.64-4.23-1.3-6.3-2.085l-.174-.065a.126.126,0,0,1-.081-.013l-.382-.166q-.836-.327-1.616-.669c-1.37-.553-2.749-1.1-4.068-1.751q-.319-.142-.636-.29c-.762-.358-1.516-.74-2.245-1.164-.18-.1-.359-.211-.535-.32Z" transform="translate(-45.258 -190.18)" fill="#2fc3b0"/>
          <path id="Trazado_242552" data-name="Trazado 242552" d="M127.878,442.029c-.1-.075-.2-.145-.295-.217-.22-.156-.444-.305-.673-.447-.455-.284-.928-.538-1.4-.786a33.632,33.632,0,0,0-3.153-1.412c-.547-.215-1.1-.419-1.659-.608s-1.141-.369-1.714-.546-1.166-.327-1.752-.484l-.846-.222c-.307-.078-.615-.147-.922-.218-.939-.22-1.878-.433-2.822-.622-.906-.182-1.817-.342-2.731-.49-1.7-.275-3.411-.482-5.131-.6h-.01a.117.117,0,0,0-.007.233,48.38,48.38,0,0,1,5.94.829l-.04-.007c1.088.218,2.17.469,3.246.746.56.144,1.119.3,1.672.469s1.111.34,1.665.524,1.093.387,1.641.586,1.077.406,1.61.622,1.048.428,1.567.657c.479.209.951.433,1.422.661.724.354,1.438.725,2.138,1.123.349.2.693.406,1.039.61.16.093.318.187.476.284s.353.2.517.315a.466.466,0,0,0,.513-.779c-.1-.069-.193-.146-.287-.22" transform="translate(-55.913 -232.349)" fill="#208b7e"/>
          <path id="Trazado_242553" data-name="Trazado 242553" d="M127.757,388.534l0-.014v0l0,.011" transform="translate(-68.254 -207.316)" fill="#208b7e"/>
          <path id="Trazado_242554" data-name="Trazado 242554" d="M127.666,387.184a.193.193,0,0,0-.038,0,.2.2,0,0,0-.111.033.221.221,0,0,0-.086.127c-.053.151-.1.3-.156.453l.014-.038c-.211.6-.422,1.209-.625,1.815q-.333.993-.637,2c-.417,1.357-.791,2.729-1.1,4.115-.158.691-.293,1.388-.419,2.085s-.227,1.387-.3,2.083a21.185,21.185,0,0,0-.12,2.126c0,.334.008.668.035,1-.076-.167-.149-.334-.226-.5q-.423-.925-.877-1.837c-.606-1.223-1.25-2.431-1.923-3.619q-.97-1.71-2.023-3.368c-.04-.106-.082-.213-.121-.319-.158-.431-.3-.868-.435-1.308-.272-.9-.491-1.825-.679-2.751-.171-.866-.306-1.741-.417-2.618q-.169-1.353-.24-2.716-.071-1.337-.074-2.676c0-.846.034-1.692.089-2.536,0,.013,0,.025,0,.038.06-.881.149-1.76.287-2.631a.127.127,0,0,0-.1-.149l-.023,0a.127.127,0,0,0-.126.1c-.158,1-.265,2-.346,3.011-.042.546-.069,1.094-.091,1.641-.026.579-.046,1.159-.051,1.738-.009,1.193.038,2.385.113,3.575q.055.889.146,1.779c.058.578.143,1.157.233,1.733.1.618.221,1.231.362,1.84-.319-.473-.639-.944-.967-1.412-1.574-2.249-3.271-4.414-5.05-6.5q-.734-.863-1.495-1.7c-.275-.563-.545-1.13-.8-1.7-.285-.64-.551-1.29-.8-1.945a26.3,26.3,0,0,1-1.15-3.988v.006c0-.006,0-.011,0-.016v0c-.151-.753-.275-1.512-.353-2.278a17.947,17.947,0,0,1-.089-2.364.115.115,0,0,0-.116-.107h-.009a.117.117,0,0,0-.108.123,24.2,24.2,0,0,0,.124,3.166,25.307,25.307,0,0,0,.56,3.258,29.121,29.121,0,0,0,.948,3.215c.145.4.305.8.474,1.2-.894-.946-1.818-1.866-2.754-2.77-1.949-1.885-4-3.668-6.016-5.478-1.374-1.231-2.739-2.472-4.076-3.743a.229.229,0,0,0-.017-.044c-.035-.067-.07-.135-.1-.2a6.931,6.931,0,0,1-.308-.736,6.568,6.568,0,0,1-.215-.788l.005.033a7.28,7.28,0,0,1-.122-1.961.113.113,0,0,0-.038-.08.125.125,0,0,0-.079-.029h-.007a.12.12,0,0,0-.078.038.125.125,0,0,0-.029.088,7.453,7.453,0,0,0,.427,3.146c-.442-.426-.881-.856-1.314-1.291a48.47,48.47,0,0,1-4.3-4.894.1.1,0,0,0-.084-.038.118.118,0,0,0-.08.029.12.12,0,0,0-.009.166,61.156,61.156,0,0,0,5.124,5.888l-.009,0a13.872,13.872,0,0,0-1.414-.626,12.2,12.2,0,0,0-1.51-.458,10.072,10.072,0,0,0-1.5-.242h-.012a.117.117,0,0,0-.112.108.119.119,0,0,0,.107.124c.3.029.589.071.879.127a10.087,10.087,0,0,1,1.341.384,14.545,14.545,0,0,1,1.377.593l-.042-.022c.349.171.692.353,1.032.538l.827.452c.7.695,1.4,1.385,2.11,2.062.984.937,1.979,1.865,2.969,2.8s1.965,1.863,2.935,2.809,1.914,1.887,2.836,2.862q.715.754,1.412,1.529c-.335-.2-.675-.4-1.022-.588-.535-.286-1.083-.544-1.634-.793a32.583,32.583,0,0,0-3.411-1.31c-1.161-.375-2.345-.68-3.535-.945a51.65,51.65,0,0,0-5.273-.853h-.011a.117.117,0,0,0,0,.234c1.149.133,2.292.317,3.427.544h-.005a35.163,35.163,0,0,1,8.379,2.74,25.5,25.5,0,0,1,3.1,1.827c.491.335.968.69,1.437,1.053.239.186.47.383.7.576.6.712,1.193,1.428,1.77,2.158,1.366,1.726,2.655,3.511,3.888,5.334l-.037-.056c.63.935,1.237,1.885,1.829,2.845-.244-.175-.49-.345-.741-.509a30.531,30.531,0,0,0-2.925-1.667,41.161,41.161,0,0,0-12.238-3.917,28.17,28.17,0,0,0-4.075-.32q-.614,0-1.229.035a.12.12,0,0,0-.124.107.118.118,0,0,0,.109.124,25.621,25.621,0,0,1,6.44.555l-.038-.009a39.113,39.113,0,0,1,9.286,3.18,31.7,31.7,0,0,1,3.6,2.049q.814.538,1.6,1.123c.5.369.991.748,1.464,1.149l.028.026c.425.731.843,1.465,1.246,2.208q.958,1.763,1.834,3.571.442.917.866,1.843.2.445.4.89c.065.151.133.3.2.457a4.625,4.625,0,0,0,.247.548.691.691,0,0,0,.237.269.689.689,0,0,0,.952-.2.663.663,0,0,0,.1-.508c-.006-.021-.015-.04-.022-.06.006,0,.011,0,.017,0a.431.431,0,0,0,.3-.145.458.458,0,0,0,.111-.322c0-.191.006-.38.006-.571s-.006-.382-.009-.573c-.007-.411-.016-.824-.016-1.235,0-.8.023-1.6.072-2.4a37.427,37.427,0,0,1,.964-6.025c.233-.984.5-1.959.781-2.929.276-.939.562-1.874.877-2.8a.2.2,0,0,0-.155-.234" transform="translate(-47.834 -192.931)" fill="#208b7e"/>
          <path id="Trazado_242555" data-name="Trazado 242555" d="M328.789,103.363a4.943,4.943,0,0,0-2.062.512,8.512,8.512,0,0,0-2.087,1.43,12.885,12.885,0,0,0-1.786,1.991,13.9,13.9,0,0,0-1.358,2.248,7.26,7.26,0,0,0-.8,2.769.318.318,0,0,0,.093.236.374.374,0,0,0,.265.117.344.344,0,0,0,.314-.2,8.08,8.08,0,0,0,.687.847,5.872,5.872,0,0,0,1.3,1.07,3.973,3.973,0,0,0,.7.328,3.362,3.362,0,0,0,.8.177,2.689,2.689,0,0,0,.3.016,3.478,3.478,0,0,0,1.335-.288,7.368,7.368,0,0,0,2.168-1.593,17.537,17.537,0,0,0,1.789-2.036,11.5,11.5,0,0,0,1.449-2.419,4.651,4.651,0,0,0,.45-2.391,2.776,2.776,0,0,0-.366-1.093,3.317,3.317,0,0,0-.845-.895,4.5,4.5,0,0,0-.512-.342,4.168,4.168,0,0,0-.574-.261,3.638,3.638,0,0,0-1.1-.215c-.058,0-.116,0-.173,0" transform="translate(-171.337 -54.968)" fill="#db633c"/>
          <path id="Trazado_242556" data-name="Trazado 242556" d="M355.382,53.274a49.393,49.393,0,0,0-25.234,6.95l3.658,4.677,1.614,2.058L348.27,83.34l12.637,16.106a.116.116,0,0,1,.032.075.1.1,0,0,1-.014.054.117.117,0,0,1-.095.054l-8.784-2.7-6.066-1.865-10.206-3.137L325.569,88.8l-7.9-2.429-7.9-2.429a49.181,49.181,0,1,0,45.617-30.664" transform="translate(-163.539 -28.208)" fill="#206969"/>
          <path id="Trazado_242557" data-name="Trazado 242557" d="M309.148,50.94h0l0,0a48.849,48.849,0,0,0-19.781,22.612c-.111.257-.22.513-.326.771l.106.045,10.767,3.307,20.46,6.289,9.667,2.971,9.668,2.971-4.916-6.293-4.928-6.28L323.4,69.1l-6.433-8.2-3.9-4.969-3.915-4.99-.01,0" transform="translate(-154.422 -26.961)" fill="#fba92d"/>
          <path id="Trazado_242558" data-name="Trazado 242558" d="M143.386,41.07c-.513,0-1.024.011-1.536.031a43.476,43.476,0,0,0-4.749.459,36.516,36.516,0,0,0-3.972.808,33.657,33.657,0,0,0-6.507,2.445,23.869,23.869,0,0,0-5.7,3.943,18.6,18.6,0,0,0-1.787,1.951,20.355,20.355,0,0,0-1.627,2.4,38.069,38.069,0,0,0-2.651,5.584c-.738,1.882-1.38,3.835-2,5.724l-.063.192-.108.33c-.275.84-.549,1.679-.843,2.511-.322.912-.682,1.841-1.1,2.841a46.36,46.36,0,0,1-2.369,4.78,39.577,39.577,0,0,1-2.96,4.44c-.755.975-1.59,1.947-2.479,2.89-.843.9-1.685,1.794-2.515,2.7a60.454,60.454,0,0,0-4.572,5.557,34.108,34.108,0,0,0-1.936,3.026A28.573,28.573,0,0,0,92.353,96.9a26.924,26.924,0,0,0-1.754,6.7,25.408,25.408,0,0,0-.1,6.054,22.213,22.213,0,0,0,1.3,5.47,21.681,21.681,0,0,0,2.583,4.829,23.388,23.388,0,0,0,3.734,4.107,27.387,27.387,0,0,0,5.513,3.7,32.751,32.751,0,0,0,7.047,2.624.359.359,0,0,0,.435-.247l.009-.046a24.055,24.055,0,0,0,3.048.178,63.331,63.331,0,0,0,6.409-.438l.949-.1c1.543-.157,2.807-.305,3.977-.468,1.322-.181,2.672-.4,4.013-.648a70.189,70.189,0,0,0,16.211-4.934,38.328,38.328,0,0,0,13.357-9.534,28.164,28.164,0,0,0,2.418-3.243,30.021,30.021,0,0,0,2.367-4.584,34.838,34.838,0,0,0,2.4-10.073,45.467,45.467,0,0,0,.18-5.238c-.017-.916-.057-1.81-.12-2.658-.06-.821-.166-1.7-.326-2.692a57.952,57.952,0,0,0-2.939-10.252l-.257-.718c-.547-1.529-1.113-3.11-1.619-4.682a.376.376,0,0,0-.236-.243c-.088-.3-.176-.61-.257-.919a.36.36,0,0,0,.109-.358c-.068-.293-.126-.6-.171-.922a15.174,15.174,0,0,1,.076-3.9l.01-.065c.144-1.036.342-2.064.533-3.058.241-1.251.49-2.544.631-3.834a14.116,14.116,0,0,0,.006-3.376,9.722,9.722,0,0,0-.36-1.659,8.828,8.828,0,0,0-.687-1.6A8.017,8.017,0,0,0,159.9,48.7a6.093,6.093,0,0,0-1.163-1.027,6.84,6.84,0,0,0-2.2-.952c-.066-.152-.14-.305-.218-.454a7.406,7.406,0,0,0-1.233-1.67,9.894,9.894,0,0,0-3.609-2.266,18.38,18.38,0,0,0-4.621-1.07,29.338,29.338,0,0,0-3.477-.193" transform="translate(-48.278 -21.688)" fill="#021621"/>
          <path id="Trazado_242559" data-name="Trazado 242559" d="M235.433,88.409a2.342,2.342,0,0,0-.833.151,2.488,2.488,0,0,0-.627.353.208.208,0,0,0-.167.141,2.953,2.953,0,0,0-.285.286.265.265,0,0,0,.115.444,11.177,11.177,0,0,0,.047,4.29,10.4,10.4,0,0,0,.827,2.495,7.042,7.042,0,0,0,.63,1.053,4.827,4.827,0,0,0,.865.952l-.078.054c-.142.108-.286.212-.43.318s-.288.21-.43.318a.608.608,0,0,0-.256.333.573.573,0,0,0,.057.431.551.551,0,0,0,.48.272.6.6,0,0,0,.283-.072,6.755,6.755,0,0,0,2.662-2.6,7.481,7.481,0,0,0,.861-3.743,9.039,9.039,0,0,0-.24-1.958,7.319,7.319,0,0,0-.259-.854,6.469,6.469,0,0,0-.386-.869,3.8,3.8,0,0,0-1.082-1.2,3.058,3.058,0,0,0-1.394-.565,2.685,2.685,0,0,0-.359-.026" transform="translate(-124.72 -46.979)" fill="#cb5c37"/>
          <path id="Trazado_242560" data-name="Trazado 242560" d="M236.862,90.762a3.725,3.725,0,0,0-.979.293,2.852,2.852,0,0,0-.879.655,3.141,3.141,0,0,0-.316.435,2.727,2.727,0,0,0-.257.533,3.057,3.057,0,0,0-.14.52,2.937,2.937,0,0,0-.036.593.27.27,0,0,0,.222.24.278.278,0,0,0,.2-.044.262.262,0,0,0,.113-.177,3.662,3.662,0,0,1,.149-.763,3.928,3.928,0,0,1,.357-.757,3.773,3.773,0,0,1,.6-.719,2.849,2.849,0,0,1,.477-.332,1.928,1.928,0,0,1,.426-.15l-.04.007c.044-.009.088-.016.133-.024a.156.156,0,0,0,.14-.169.161.161,0,0,0-.15-.143h-.019m-1.937,2.316-.014.042c0-.014.009-.028.014-.042" transform="translate(-125.152 -48.236)" fill="#b54626"/>
          <path id="Trazado_242561" data-name="Trazado 242561" d="M188.331,58.114a.326.326,0,0,0-.19.059l-.507.362c-1.536,1.1-3.126,2.231-4.735,3.282-.935.611-1.863,1.179-2.76,1.69-.719.409-1.5.817-2.445,1.286-.746.367-1.506.727-2.266,1.086-1.455.688-2.958,1.4-4.4,2.18A29.6,29.6,0,0,0,167.9,70c-.5.362-.979.741-1.419,1.127a9.855,9.855,0,0,0-1.282,1.291,5.46,5.46,0,0,0-.829,1.5,6.757,6.757,0,0,0-.364,1.7,15.934,15.934,0,0,0,.209,3.611,7.1,7.1,0,0,0-2.106-.337c-.145,0-.291.006-.439.017a4.661,4.661,0,0,0-1.564.395,3.828,3.828,0,0,0-1.122.767,3.943,3.943,0,0,0-1.069,2.244,6.207,6.207,0,0,0,.233,2.667,7.214,7.214,0,0,0,3.616,4.347,7.361,7.361,0,0,0,1.4.539,7.216,7.216,0,0,0,1.543.244c.127.007.255.011.382.011a7.108,7.108,0,0,0,1.856-.251A29.9,29.9,0,0,1,168.73,93a22.168,22.168,0,0,1,1.848,5.331,15.948,15.948,0,0,1,.262,4.112v.032h0v.006l0,0v.023h.005a14.16,14.16,0,0,1-.717,3.291l.026-.049a11.587,11.587,0,0,1-1.216,2.413l-.025.04a9.874,9.874,0,0,1-.821,1.02.359.359,0,0,0-.024.442.3.3,0,0,0,.059.223,18.025,18.025,0,0,0,3.412,3.041,22.2,22.2,0,0,0,4.235,2.3,20.483,20.483,0,0,0,4.6,1.3,16.2,16.2,0,0,0,2.468.2,13.218,13.218,0,0,0,2.023-.151,9.946,9.946,0,0,0,3.966-1.478,8.82,8.82,0,0,0,2.905-3.245,11.168,11.168,0,0,0,.908-2.353,13.212,13.212,0,0,0,.289-1.354,8.393,8.393,0,0,0,.131-1.962.356.356,0,0,0-.354-.336.366.366,0,0,0-.284.149,6.477,6.477,0,0,1-1.448-.411,6.916,6.916,0,0,1-1.349-.8,8.675,8.675,0,0,1-1.456-1.48,12.484,12.484,0,0,1-1.526-2.675l.014.056a16.505,16.505,0,0,1-1-3.524,20.212,20.212,0,0,0,2.826-1,14.156,14.156,0,0,0,5.207-3.691,11.866,11.866,0,0,0,1.758-2.763,13.466,13.466,0,0,0,.979-3.092,17.989,17.989,0,0,0-.053-6.6,21.765,21.765,0,0,0-.848-3.2c-.172-.493-.361-.978-.55-1.463l-.153-.393c-.258-.664-.517-1.328-.769-2a42.127,42.127,0,0,1-1.328-4.049c-.206-.781-.373-1.585-.533-2.363-.1-.466-.193-.933-.3-1.4a22.75,22.75,0,0,0-1.052-3.539,13.043,13.043,0,0,0-.8-1.658,10.019,10.019,0,0,0-1.058-1.5l-.049-.055a.311.311,0,0,0-.24-.1.465.465,0,0,0-.053,0,.376.376,0,0,0-.316-.186" transform="translate(-84.336 -30.794)" fill="#db633c"/>
          <path id="Trazado_242562" data-name="Trazado 242562" d="M195.136,58.153l-.507.362-.088.062c-1.419,1.013-3.029,2.162-4.645,3.22-.953.62-1.881,1.188-2.76,1.69-.73.411-1.507.821-2.445,1.285-.746.367-1.5.727-2.265,1.088-1.373.647-2.929,1.383-4.4,2.18a28.958,28.958,0,0,0-3.136,1.941c-.486.348-.963.728-1.421,1.126a10.219,10.219,0,0,0-1.283,1.29,5.463,5.463,0,0,0-.828,1.506,6.785,6.785,0,0,0-.367,1.708c-.023.266-.034.531-.035.8l.4.048h0a26.753,26.753,0,0,0,3.148.167,22.755,22.755,0,0,0,3.033-.231l-.02,0a20.353,20.353,0,0,0,2.553-.542,21.714,21.714,0,0,0,2.545-.893l-.027.011c.416-.178.83-.366,1.235-.569.322-.16.639-.327.955-.5q.93-.5,1.835-1.059a37.5,37.5,0,0,0,3.63-2.529c-.007.007-.016.013-.023.02a27.52,27.52,0,0,0,5.094-5.168v0a18.78,18.78,0,0,0,1.274-1.976,16.577,16.577,0,0,0,.972-2.05v0l.047-.124a12.079,12.079,0,0,0-.554-1.086,10.082,10.082,0,0,0-1.059-1.5l-.049-.055a.329.329,0,0,0-.248-.105.466.466,0,0,0-.053,0,.37.37,0,0,0-.317-.186.332.332,0,0,0-.195.064m-23.8,18.3a.094.094,0,0,1,.024,0,.094.094,0,0,0-.024,0" transform="translate(-91.336 -30.78)" fill="#cb5c37"/>
          <path id="Trazado_242563" data-name="Trazado 242563" d="M193.641,140.013a12.37,12.37,0,0,0,1.139.877l-.025-.016a13.176,13.176,0,0,0,1.535.89,14.363,14.363,0,0,0,1.591.657l-.029-.011a14.085,14.085,0,0,0,1.861.5,14.546,14.546,0,0,0,1.841.233l-.031,0a13.417,13.417,0,0,0,1.71-.006,12.947,12.947,0,0,0,1.673-.226l-.023,0,.022,0a17.321,17.321,0,0,1-.606-2.475c.135-.035.269-.071.406-.111q-.425.087-.853.149a19.126,19.126,0,0,1-3.937.143,26.881,26.881,0,0,1-7.181-1.484,10.479,10.479,0,0,0,.908.887" transform="translate(-102.969 -74.075)" fill="#c94e2b"/>
          <path id="Trazado_242564" data-name="Trazado 242564" d="M168.692,108.2a.4.4,0,0,0-.128.146.408.408,0,0,0-.038.195,7.267,7.267,0,0,0,.522,3.247,5.366,5.366,0,0,0,.859,1.417,4.322,4.322,0,0,0,1.237,1,.182.182,0,1,0,.162-.326c-.1-.054-.2-.111-.289-.171a3.551,3.551,0,0,1-.578-.508,4.75,4.75,0,0,1-.629-.941l.021.04a5.961,5.961,0,0,1-.481-1.392,7.025,7.025,0,0,1-.141-1.779c0,.02,0,.041-.005.062a5.59,5.59,0,0,1,.074-.6.385.385,0,0,0-.3-.448.4.4,0,0,0-.074-.007.381.381,0,0,0-.216.067m2.3,5.492.022.014-.022-.014m.022.014.016.011-.016-.011" transform="translate(-90.029 -57.517)" fill="#c94e2b"/>
          <path id="Trazado_242565" data-name="Trazado 242565" d="M162.835,106.75a4.112,4.112,0,0,0-1.022.23,4.218,4.218,0,0,0-.988.507.136.136,0,0,0-.033.186.137.137,0,0,0,.186.033c.074-.051.15-.1.229-.141a3.355,3.355,0,0,1,.623-.232,3.258,3.258,0,0,1,.736-.074,4.187,4.187,0,0,1,.913.151,4.839,4.839,0,0,1,.553.211c.2.089.384.2.579.3A.369.369,0,0,0,165,107.3a2.806,2.806,0,0,0-1.028-.468,3.224,3.224,0,0,0-.817-.1c-.108,0-.216,0-.322.013m-1.61.8-.011.007.011-.007" transform="translate(-85.892 -56.771)" fill="#c94e2b"/>
          <path id="Trazado_242566" data-name="Trazado 242566" d="M191.559,54.284a10.827,10.827,0,0,0-1.441.1,12.948,12.948,0,0,0-1.985.446,26.676,26.676,0,0,0-3.9,1.581c-.615.3-1.224.608-1.832.919l-.168.085c-.532.272-1.063.543-1.59.826a43.7,43.7,0,0,0-6.689,4.352,30.98,30.98,0,0,0-2.944,2.678,18.7,18.7,0,0,0-2.453,3.033,9.885,9.885,0,0,0-.812,1.582,7.688,7.688,0,0,0-.45,1.644,7.462,7.462,0,0,0,.357,3.537c.133.4.3.826.509,1.311a6.379,6.379,0,0,0,.665,1.2,2.744,2.744,0,0,0,.4.447,2.138,2.138,0,0,0,.58.37,1.465,1.465,0,0,0,.574.11,1.921,1.921,0,0,0,1.36-.6,2.9,2.9,0,0,0,.479-.656,6.011,6.011,0,0,0,.6-1.792,11.449,11.449,0,0,0,.2-1.809c.007-.215.009-.429,0-.645A20.664,20.664,0,0,0,177,72.339a30.3,30.3,0,0,0,3.308-1.066,27.622,27.622,0,0,0,5.852-3.124,29.151,29.151,0,0,0,8.654-9.8c.378-.682.737-1.392,1.1-2.169a.34.34,0,0,0-.017-.268.36.36,0,0,0-.122-.14.369.369,0,0,0-.147-.233,6.272,6.272,0,0,0-1.693-.888,7.072,7.072,0,0,0-1.857-.348c-.173-.011-.348-.016-.523-.016" transform="translate(-89.336 -28.747)" fill="#021621"/>
          <path id="Trazado_242567" data-name="Trazado 242567" d="M337.654,113.807a9.751,9.751,0,0,0-1.161.078c-.464.054-.958.135-1.507.249a20.347,20.347,0,0,0-2.183.586.291.291,0,0,0-.1-.016.245.245,0,0,0-.1.019l-.552.2c-.576.209-1.17.425-1.737.687a7.069,7.069,0,0,0-1.143.652,4.83,4.83,0,0,0-.5.407,3.308,3.308,0,0,0-.426.5,2.369,2.369,0,0,0-.089,2.5,1.979,1.979,0,0,0,.953.821,3.41,3.41,0,0,0,1.3.244h.073c.067,0,.133,0,.2,0a.354.354,0,0,0,.31.188.321.321,0,0,0,.094-.013c.342-.1.682-.239,1.011-.37l.058-.023c.57-.227,1.146-.473,1.76-.75a33.759,33.759,0,0,0,3.929-2.032,11.563,11.563,0,0,0,1.567-1.128,2.751,2.751,0,0,0,.838-1.119,1.012,1.012,0,0,0,.014-.583,1.035,1.035,0,0,0-.347-.51,2.333,2.333,0,0,0-.713-.373,4.508,4.508,0,0,0-1.366-.21c-.064,0-.127,0-.191,0" transform="translate(-175.158 -60.548)" fill="#db633c"/>
          <path id="Trazado_242568" data-name="Trazado 242568" d="M340.116,113.594a9.19,9.19,0,0,0-1.612.336,7.206,7.206,0,0,0-.762.282c-.107.049-.211.1-.314.158a3.664,3.664,0,0,0-.36.23.3.3,0,0,0,.34.5c.474-.217.946-.433,1.439-.607a12.037,12.037,0,0,1,1.45-.394,12.9,12.9,0,0,1,1.588-.226h-.005a7.72,7.72,0,0,1,1.357.02.117.117,0,0,0,.015-.233c-.232-.027-.464-.054-.7-.078-.265-.027-.533-.04-.8-.051-.133-.005-.266-.007-.4-.007a10.565,10.565,0,0,0-1.238.074m1.808.272-.024,0,.024,0m-3.126.639-.025.009.025-.009" transform="translate(-180.027 -60.395)" fill="#c94e2b"/>
          <path id="Trazado_242569" data-name="Trazado 242569" d="M223.318,120.628c-.189,0-.378.007-.566.024a.346.346,0,0,0-.284.208.528.528,0,0,0-.074.131.38.38,0,0,0-.035.083q-.464,1.039-.932,2.076-.945,2.106-1.9,4.183c-1.245,2.712-2.555,5.513-3.889,8.325-1.04,2.192-2.139,4.477-3.268,6.791q-.822,1.692-1.654,3.378l-.813,1.643-.2.4c-.163.333-.326.665-.5,1l-.113-.111-.12-.11c-1.037-.943-2-1.781-2.95-2.56a42.573,42.573,0,0,0-6.361-4.4,28.147,28.147,0,0,0-7.644-2.938,35.02,35.02,0,0,0-7.5-.675c-.279,0-.555,0-.833.006-1.029.012-2.058.04-3.086.068l-.275.008a.9.9,0,0,0-.554.575,7.568,7.568,0,0,1,.1.88,6.328,6.328,0,0,1-.126,1.476,5.274,5.274,0,0,1-.441,1.2,6.921,6.921,0,0,1-.929,1.272A9.308,9.308,0,0,1,176.66,145a10.671,10.671,0,0,1-2.346,1.1,13.681,13.681,0,0,1-3.459.607l-.051.008v0q-.3.011-.6.011a17.839,17.839,0,0,1-3.844-.431A18.436,18.436,0,0,1,162,144.7l.007,0a14.876,14.876,0,0,1-2.991-2.065,11.9,11.9,0,0,1-1.064-1.115.344.344,0,0,0-.268-.124.371.371,0,0,0-.075.008.364.364,0,0,0-.145.035c-1.333.636-2.714,1.226-4.049,1.8-.722.309-1.444.618-2.162.935a37.41,37.41,0,0,0-5.724,3.033,19.662,19.662,0,0,0-2.509,2,17.791,17.791,0,0,0-2.224,2.553,19.11,19.11,0,0,0-1.85,3.241,18.663,18.663,0,0,0-1.272,3.867,16.394,16.394,0,0,0-.289,1.945,13.273,13.273,0,0,0-.011,2.007.207.207,0,0,0,.013.06c0,.164.009.332.021.5a8,8,0,0,0,.264,1.536,7.531,7.531,0,0,0,.483,1.275,7.691,7.691,0,0,0,.754,1.234,9.119,9.119,0,0,0,2.02,1.962,13.037,13.037,0,0,0,2.577,1.429,17.679,17.679,0,0,0,2.919.948c.512.124,1.024.218,1.592.318.741.133,1.481.253,2.223.366,2.708.416,5.522.734,8.6.972,4,.308,8.356.457,13.323.457,1.38,0,2.809-.011,4.366-.034,4.281-.062,8.633-.207,12.841-.347q2.193-.073,4.386-.142a80.509,80.509,0,0,0,12.164-1.077,32.023,32.023,0,0,0,5.97-1.666,23.389,23.389,0,0,0,2.749-1.288,19.029,19.029,0,0,0,2.469-1.64,16.021,16.021,0,0,0,2.177-2.067c.3-.346.6-.724.893-1.126.369-.506.695-1.039.965-1.494a29.282,29.282,0,0,0,1.679-3.359c.47-1.089.913-2.284,1.354-3.654.829-2.571,1.437-5.181,1.97-7.618.2-.928.4-1.858.593-2.787l.2-.962c.3-1.424.618-2.827.943-4.172.225-.936.457-1.872.69-2.808a89.333,89.333,0,0,0,2.6-13.39.327.327,0,0,0-.133-.281.6.6,0,0,0-.045-.045,14.4,14.4,0,0,0-1.716-1.259,16.068,16.068,0,0,0-2.133-1.13,12.222,12.222,0,0,0-2.2-.717,7.5,7.5,0,0,0-1.637-.185" transform="translate(-73.375 -64.192)" fill="#fba92d"/>
          <path id="Trazado_242570" data-name="Trazado 242570" d="M246.925,185.508a.185.185,0,0,0,.007.258,22.08,22.08,0,0,1,1.617,1.807l0-.006.005.007.011.013-.006-.007a45.735,45.735,0,0,1,5.992,10.381l-.015-.034c.17.39.338.782.508,1.172l0-.006.065.148c-.024-.053-.047-.107-.071-.16.42.965.817,1.938,1.219,2.909.024.056.049.115.075.171a.694.694,0,0,0,.262.251.693.693,0,0,0,.942-.28.659.659,0,0,0,.058-.52c-.5-1.192-1.032-2.373-1.6-3.531s-1.21-2.3-1.86-3.429-1.368-2.244-2.1-3.333c-.726-1.073-1.5-2.114-2.329-3.113a36.374,36.374,0,0,0-2.505-2.706.175.175,0,0,0-.124-.05.19.19,0,0,0-.136.057m7.556,12.3.046.1-.046-.1m.556,1.284-.066-.152c.021.05.044.1.066.152m-6.482-11.514-.005-.006h0l.006.007" transform="translate(-131.896 -98.825)" fill="#e38907"/>
          <path id="Trazado_242571" data-name="Trazado 242571" d="M232.832,157.13c-.577.031-1.151.089-1.727.144q-.447.041-.891.093c-.275.032-.55.076-.824.124l-.259.079a.269.269,0,0,0-.089.187.254.254,0,0,0,.245.259c.421-.038.841-.049,1.263-.068s.835-.031,1.252-.045c.82-.031,1.641-.038,2.461-.026a35.893,35.893,0,0,1,4.957.4l-.014,0a30.068,30.068,0,0,1,3.77.846,28.786,28.786,0,0,1,3.542,1.321l-.006,0a38.1,38.1,0,0,1,8.4,5.276l-.006,0a50.09,50.09,0,0,1,5.871,5.653.148.148,0,1,0,.217-.2,57.063,57.063,0,0,0-5.576-5.6,40.043,40.043,0,0,0-6.52-4.645,28.368,28.368,0,0,0-3.557-1.691c-.635-.248-1.281-.463-1.932-.662-.681-.211-1.367-.4-2.06-.564a33.99,33.99,0,0,0-4.237-.735,27.173,27.173,0,0,0-2.984-.166q-.644,0-1.29.033m6.3,1.134a.5.5,0,0,1,.056.009l-.056-.009" transform="translate(-122.367 -83.676)" fill="#e38907"/>
          <path id="Trazado_242572" data-name="Trazado 242572" d="M202.715,158.272a.282.282,0,0,0-.026.133,7.424,7.424,0,0,1,.042.826,6.36,6.36,0,0,1-.051.81,6.567,6.567,0,0,1-.406,1.483c-.006.011-.009.021-.014.034a7.094,7.094,0,0,1-.813,1.377,8.385,8.385,0,0,1-1.414,1.4A10.127,10.127,0,0,1,198,165.521l.006,0a12.5,12.5,0,0,1-3.131.826,15.533,15.533,0,0,1-4.048,0l.093.011a15.83,15.83,0,0,1-4.011-1.094l.084.036a16.715,16.715,0,0,1-3.626-2.11,17.492,17.492,0,0,1-2.205-2.049.349.349,0,0,0-.493.5,17.141,17.141,0,0,0,5.905,4.239,16.087,16.087,0,0,0,3.45,1.045,15.667,15.667,0,0,0,3.631.236,16.3,16.3,0,0,0,1.858-.209,13.14,13.14,0,0,0,1.712-.4,10.451,10.451,0,0,0,2.9-1.415,8.488,8.488,0,0,0,2.22-2.258,6.928,6.928,0,0,0,.7-1.408,6.662,6.662,0,0,0,.387-2.3c0-.251-.015-.508-.042-.759a.38.38,0,0,0-.1-.247.362.362,0,0,0-.057-.046l-.514.16m-4.747,7.261a.456.456,0,0,1-.048.02c.015-.007.031-.013.048-.02" transform="translate(-96.469 -84.218)" fill="#e38907"/>
          <path id="Trazado_242573" data-name="Trazado 242573" d="M227.165,165.446l.005-.011-.005.011" transform="translate(-121.365 -88.131)" fill="#e38907"/>
          <g id="Grupo_710366" data-name="Grupo 710366" transform="translate(90.272 42.936)">
            <path id="Trazado_242574" data-name="Trazado 242574" d="M205.4,118.655h0l-.016.055a5.774,5.774,0,0,0,.13,2.447,3.536,3.536,0,0,0,.526,1.1,2.58,2.58,0,0,0,1.594,1.031,2.111,2.111,0,0,0,.466.05c.1,0,.189-.006.283-.015a2.756,2.756,0,0,0,1.287-.524,3.989,3.989,0,0,0,.981-1.039,5.025,5.025,0,0,0,.649-1.416,3.77,3.77,0,0,0,.1-.409.3.3,0,0,0-.007-.127,21.539,21.539,0,0,1-3.015-.289,12.211,12.211,0,0,1-2.965-.86h0" transform="translate(-199.96 -106.074)" fill="#021621"/>
            <path id="Trazado_242575" data-name="Trazado 242575" d="M212.851,91.643a.164.164,0,0,0-.115.053.132.132,0,0,0-.036.1c.067.782.154,1.487.268,2.157a10.921,10.921,0,0,0,.6,2.221,5.862,5.862,0,0,0,.465.932,2.383,2.383,0,0,0,.291.386,2.8,2.8,0,0,0,.355.312,7.657,7.657,0,0,0,.8.5,7.35,7.35,0,0,1,.774.485,2.194,2.194,0,0,1,.308.3,1.492,1.492,0,0,1,.146.245,1.338,1.338,0,0,1,.058.218,1.49,1.49,0,0,1,0,.245,1.585,1.585,0,0,1-.086.307,2.043,2.043,0,0,1-.238.394,3.342,3.342,0,0,1-.478.474,4.406,4.406,0,0,1-.866.516c-.1.04-.208.075-.314.105a.4.4,0,0,0,.105.781.36.36,0,0,0,.107-.016,3.124,3.124,0,0,0,.8-.381,3.9,3.9,0,0,0,.792-.673,2.519,2.519,0,0,0,.728-1.783,1.525,1.525,0,0,0-.28-.793,2.338,2.338,0,0,0-.662-.6,7.405,7.405,0,0,0-.7-.392,6.057,6.057,0,0,1-.847-.5,1.91,1.91,0,0,1-.33-.333,5.477,5.477,0,0,1-.628-1.112,12.058,12.058,0,0,1-.762-3.015c-.041-.306-.077-.645-.1-.983a.156.156,0,0,0-.15-.151" transform="translate(-203.909 -91.643)" fill="#c94e2b"/>
            <path id="Trazado_242576" data-name="Trazado 242576" d="M205.65,122.451q-.115,0-.229.006a5.324,5.324,0,0,0,.151.73,3.534,3.534,0,0,0,.526,1.1,2.656,2.656,0,0,0,.931.8,2.606,2.606,0,0,0,.663.231,2.111,2.111,0,0,0,.465.05c.1,0,.19-.006.284-.015a2.71,2.71,0,0,0,1.222-.481l-.021-.036a5.993,5.993,0,0,0-.359-.533,4.927,4.927,0,0,0-.411-.469,5.49,5.49,0,0,0-.473-.421,4.81,4.81,0,0,0-.5-.343,5.151,5.151,0,0,0-.565-.282l.017.009a4.469,4.469,0,0,0-.544-.187,4.949,4.949,0,0,0-.578-.118l.026,0a4.455,4.455,0,0,0-.574-.041Zm1.7.341h0" transform="translate(-200.02 -108.101)" fill="#f68677"/>
            <path id="Trazado_242577" data-name="Trazado 242577" d="M194.644,102.352a.666.666,0,0,0-.1.008c-.272.05-.491.3-.616.7a3.148,3.148,0,0,0-.048,1.434c.182,1.016.728,1.782,1.269,1.782a.667.667,0,0,0,.1-.008c.272-.05.492-.3.618-.7a3.133,3.133,0,0,0,.048-1.434c-.183-1.016-.729-1.782-1.271-1.782" transform="translate(-193.825 -97.364)" fill="#021621"/>
            <path id="Trazado_242578" data-name="Trazado 242578" d="M225.007,95.281a.619.619,0,0,0-.093.008c-.265.048-.477.291-.6.682a3.016,3.016,0,0,0-.047,1.388c.179.983.707,1.725,1.23,1.725a.621.621,0,0,0,.093-.007c.264-.049.476-.291.6-.682a3.014,3.014,0,0,0,.047-1.387c-.177-.984-.705-1.726-1.229-1.726" transform="translate(-210.06 -93.586)" fill="#021621"/>
          </g>
          <path id="Trazado_242579" data-name="Trazado 242579" d="M218.909,77.08c-.993,0-1.687.27-1.767.689-.112.6,1.046,1.327,2.583,1.616a6.715,6.715,0,0,0,1.223.12c.993,0,1.686-.271,1.767-.689a.574.574,0,0,0-.117-.433,4.162,4.162,0,0,0-2.464-1.183,6.658,6.658,0,0,0-1.224-.12" transform="translate(-116.006 -40.926)" fill="#021621"/>
          <path id="Trazado_242580" data-name="Trazado 242580" d="M296.886,415.933c-20.444.166-19.543-20.4-19.543-20.4H243.917l-2.946,7.228,5.321,13.176Z" transform="translate(-128.741 -211.061)" fill="#8c969b"/>
          <path id="Trazado_242581" data-name="Trazado 242581" d="M241.545,395.53s-3.153,15.5,6.529,21.069v5.218s-13.137-1.2-11.382-26.287Z" transform="translate(-126.368 -211.061)" fill="#808a8e"/>
          <rect id="Rectángulo_263194" data-name="Rectángulo 263194" width="50.593" height="5.882" transform="translate(117.551 204.873)" fill="#808a8e"/>
          <path id="Trazado_242582" data-name="Trazado 242582" d="M274.465,286.288H113.347a3.5,3.5,0,0,1-3.5-3.5V188.951a3.5,3.5,0,0,1,3.5-3.5H274.465a3.5,3.5,0,0,1,3.5,3.5v93.836a3.5,3.5,0,0,1-3.5,3.5" transform="translate(-58.687 -98.825)" fill="#96a0a5"/>
          <path id="Trazado_242583" data-name="Trazado 242583" d="M277.965,268.576V188.951a3.5,3.5,0,0,0-3.5-3.5H113.347a3.5,3.5,0,0,0-3.5,3.5v79.625Z" transform="translate(-58.687 -98.825)" fill="#0f2737"/>
          <rect id="Rectángulo_263195" data-name="Rectángulo 263195" width="155.084" height="73.515" transform="translate(57.562 91.645)" fill="#fff"/>
          <rect id="Rectángulo_263196" data-name="Rectángulo 263196" width="9.373" height="32.828" transform="translate(67.575 110.306)" fill="#2fc3b0"/>
          <rect id="Rectángulo_263197" data-name="Rectángulo 263197" width="9.373" height="41.064" transform="translate(81.547 102.07)" fill="#206969"/>
          <rect id="Rectángulo_263198" data-name="Rectángulo 263198" width="9.373" height="27.094" transform="translate(95.519 116.04)" fill="#fba92d"/>
          <line id="Línea_151" data-name="Línea 151" x2="44.76" transform="translate(63.965 142.795)" fill="none" stroke="#b86f05" stroke-linecap="round" stroke-miterlimit="10" stroke-width="5"/>
          <line id="Línea_152" data-name="Línea 152" x2="44.76" transform="translate(63.965 148.383)" fill="none" stroke="#206969" stroke-linecap="round" stroke-miterlimit="10" stroke-width="2"/>
          <line id="Línea_153" data-name="Línea 153" x2="44.76" transform="translate(63.965 153.041)" fill="none" stroke="#206969" stroke-linecap="round" stroke-miterlimit="10" stroke-width="2"/>
          <line id="Línea_154" data-name="Línea 154" x2="44.76" transform="translate(63.965 157.698)" fill="none" stroke="#206969" stroke-linecap="round" stroke-miterlimit="10" stroke-width="2"/>
          <line id="Línea_155" data-name="Línea 155" x2="34.607" transform="translate(162.867 132.601)" fill="none" stroke="#206969" stroke-linecap="round" stroke-miterlimit="10" stroke-width="2"/>
          <line id="Línea_156" data-name="Línea 156" x2="34.607" transform="translate(162.867 137.258)" fill="none" stroke="#206969" stroke-linecap="round" stroke-miterlimit="10" stroke-width="2"/>
          <line id="Línea_157" data-name="Línea 157" x2="34.607" transform="translate(162.867 141.915)" fill="none" stroke="#206969" stroke-linecap="round" stroke-miterlimit="10" stroke-width="2"/>
          <line id="Línea_158" data-name="Línea 158" x2="14.775" transform="translate(182.7 146.573)" fill="none" stroke="#206969" stroke-linecap="round" stroke-miterlimit="10" stroke-width="2"/>
          <path id="Trazado_242584" data-name="Trazado 242584" d="M377.949,336.842a1.809,1.809,0,1,0-1.81,1.809,1.809,1.809,0,0,0,1.81-1.809" transform="translate(-199.989 -178.74)" fill="#fba92d"/>
          <path id="Trazado_242585" data-name="Trazado 242585" d="M391.949,336.842a1.809,1.809,0,1,0-1.809,1.809,1.809,1.809,0,0,0,1.809-1.809" transform="translate(-207.469 -178.74)" fill="#fba92d"/>
          <path id="Trazado_242586" data-name="Trazado 242586" d="M405.949,336.842a1.809,1.809,0,1,0-1.809,1.809,1.809,1.809,0,0,0,1.809-1.809" transform="translate(-214.948 -178.74)" fill="#fba92d"/>
          <path id="Trazado_242587" data-name="Trazado 242587" d="M396.762,176.415H374.141a1.366,1.366,0,0,0-1.3,1.39v31.78a1.367,1.367,0,0,0,1.3,1.391h22.621a1.367,1.367,0,0,0,1.3-1.391v-31.78a1.366,1.366,0,0,0-1.3-1.39" transform="translate(-199.192 -93.997)" fill="#2fc3b0"/>
          <path id="Trazado_242588" data-name="Trazado 242588" d="M354.782,165.374H342.956c-2.163,1.326-4.291,2.707-6.4,4.115v29.28a2.319,2.319,0,0,0,2.289,2.289h23.635a2.319,2.319,0,0,0,2.289-2.289V167.663a2.319,2.319,0,0,0-2.289-2.289Z" transform="translate(-179.807 -88.098)" fill="#cfe7e0"/>
          <path id="Trazado_242589" data-name="Trazado 242589" d="M336.97,169.391c.465.206.933.4,1.41.582a13.118,13.118,0,0,0,1.909.578l-.031-.005a5.5,5.5,0,0,0,1.213.127h0l-.007,0a.136.136,0,0,1,.027,0,1.845,1.845,0,0,0,.244-.031c.058-.013.118-.027.177-.046a1.744,1.744,0,0,0,.317-.147l.009-.006,0,0,.006,0a1.925,1.925,0,0,0,.308-.26l-.022.022a2.364,2.364,0,0,0,.315-.458.032.032,0,0,0,0,.013.1.1,0,0,1,.009-.02.029.029,0,0,1,.005-.009l0,0v0a3.981,3.981,0,0,0,.3-.9l-.006.031a6.754,6.754,0,0,0,.124-1.046c.016-.36.009-.721-.009-1.081v0a9.267,9.267,0,0,0-.151-1.29c-1.867,1.147-3.824,2.4-6.133,3.941m5.876.345,0,0h0l-.005.007a.016.016,0,0,1,.005-.008l0,0m-1.355.937h0Z" transform="translate(-180.029 -88.139)" fill="#e4fff7"/>
          <path id="Trazado_242590" data-name="Trazado 242590" d="M348.257,176.182l0,0,.007-.006,0,0" transform="translate(-186.058 -93.871)" fill="#e4fff7"/>
          <path id="Trazado_242591" data-name="Trazado 242591" d="M303.853,328.214a3.848,3.848,0,0,0-3.319,1.907,3.686,3.686,0,0,0-.388,2.97l5.057,12.451,2.392,5.887,4.774,11.747.388.919a3.852,3.852,0,0,0,6.651,0,3.685,3.685,0,0,0,.387-2.97l-6.069-14.94-6.071-14.942c-.008-.018-.014-.036-.024-.055l-.029-.074-.031-.075-.387-.918a3.817,3.817,0,0,0-1.381-1.381,3.856,3.856,0,0,0-1.95-.526" transform="translate(-160.265 -175.097)" fill="#b86f05"/>
          <path id="Trazado_242592" data-name="Trazado 242592" d="M302.827,321.325a.334.334,0,0,0-.175.048.351.351,0,0,0-.149.175c-.109-.007-.219-.008-.332-.008a11.815,11.815,0,0,0-2.659.328,16.45,16.45,0,0,0-3.175,1.108,15.847,15.847,0,0,0-2.857,1.691,13.229,13.229,0,0,0-1.207,1.019,9.558,9.558,0,0,0-.841.93.307.307,0,0,0-.19-.061.351.351,0,0,0-.093.012.359.359,0,0,0-.247.435,3.594,3.594,0,0,0,.982,1.656,4.1,4.1,0,0,0,1.661.912,6.371,6.371,0,0,0,1.8.237q.119,0,.239,0a10.18,10.18,0,0,0,2.232-.327,11.938,11.938,0,0,0,2.186-.8,10.258,10.258,0,0,0,1.909-1.186,6.593,6.593,0,0,0,1.4-1.48,3.978,3.978,0,0,0,.676-1.745,3.218,3.218,0,0,0-.04-.995,3.777,3.777,0,0,0-.317-.891,6.657,6.657,0,0,0-.5-.878.373.373,0,0,0-.309-.173" transform="translate(-155.41 -171.416)" fill="#021621"/>
          <path id="Trazado_242593" data-name="Trazado 242593" d="M242.719,250.1a21.214,21.214,0,1,0,27.894-11.045A21.225,21.225,0,0,0,242.719,250.1" transform="translate(-128.741 -126.53)" fill="#cfe7e0"/>
          <path id="Trazado_242594" data-name="Trazado 242594" d="M258,229.172c-.737,0-1.495.036-2.255.106l-.118.011-.071.008a25.553,25.553,0,0,0-3.139.519,24.584,24.584,0,0,0-5.4,1.94c-.181.091-.361.182-.538.275-.588.308-1.182.654-1.765,1.028-.266.167-.526.342-.782.518-.551.381-1.091.788-1.6,1.212a24.258,24.258,0,0,0-4.576,4.958c-.066.091-.129.184-.191.277a24.476,24.476,0,0,0-2.991,6.1l-.017.054c-.06.184-.119.367-.174.551-.206.677-.385,1.379-.531,2.088-.007.033-.015.066-.02.1a24.76,24.76,0,0,0-.446,3.365l-.007.136c-.006.078-.009.156-.013.233-.009.183-.015.339-.019.5a24.8,24.8,0,0,0,3.53,13.391,24.317,24.317,0,0,0,5.967,6.734,24.8,24.8,0,0,0,8.008,4.145,24.256,24.256,0,0,0,7.114,1.056c.721,0,1.451-.032,2.169-.1a24.793,24.793,0,0,0,8.818-2.484,24.53,24.53,0,0,0,11.75-12.5,24.636,24.636,0,0,0-11.74-31.642,25.142,25.142,0,0,0-4.342-1.673,24.79,24.79,0,0,0-4.615-.826c-.654-.056-1.326-.084-2-.084m-6.113,6.149.1-.032.05-.017c.038-.013.078-.026.118-.036l.164-.053a20.888,20.888,0,0,1,3.2-.707,20.546,20.546,0,0,1,2.623-.17h0a20.1,20.1,0,0,1,2.617.171,20.566,20.566,0,0,1,5.017,1.37l.045.015,0,0A19.778,19.778,0,0,1,277.684,251.4s0,.027.007.027.007.018.008.018h0a20.759,20.759,0,0,1-.013,5.263,20.434,20.434,0,0,1-1.4,5.064l.045-.08a20.889,20.889,0,0,1-2.591,4.433,19.719,19.719,0,0,1-7.955,6.115l.087-.026a21.015,21.015,0,0,1-5.14,1.408,20.6,20.6,0,0,1-2.643.171,20.358,20.358,0,0,1-2.632-.171l.091.021a20.9,20.9,0,0,1-5.184-1.428l.046.029a20.906,20.906,0,0,1-4.366-2.557,19.7,19.7,0,0,1-6.153-8.028l.014.056a20.806,20.806,0,0,1-1.369-5.06,20.416,20.416,0,0,1-.038-4.938c.008-.081.018-.16.027-.24v-.012c0,.006,0,.016,0,.016a20.337,20.337,0,0,1,1.4-5.129,20.822,20.822,0,0,1,1.044-2.1l.031-.062,0,0a20.865,20.865,0,0,1,1.421-2.145l.028-.037.028-.037.083-.105.033-.05,0,0a20.408,20.408,0,0,1,3.436-3.4c.55-.419,1.123-.812,1.7-1.17l.075-.045.06-.036.047-.029.044-.027.043-.027.069-.04.069-.04.04-.024.067-.044,0,0c.058-.033.087-.049.116-.068l.053-.029.044-.024.045-.025.053-.029c.029-.016.058-.033.088-.047s.036-.022.055-.031l.052-.028.061-.038,0,0,.1-.055c.026-.013.051-.025.075-.04l.063-.03c.028-.017.056-.031.086-.046a.481.481,0,0,0,.049-.026c.035-.016.068-.033.1-.051.073-.036.113-.056.153-.075.34-.167.671-.317,1-.458.276-.116.555-.224.836-.327l.08-.028.066-.023c.073-.027.109-.04.143-.051l.059-.026v0l.089-.029.078-.027.064-.026Z" transform="translate(-124.656 -122.183)" fill="#206969"/>
          <g id="Grupo_710352" data-name="Grupo 710352" transform="translate(124.644 142.795)" style="mix-blend-mode: soft-light;isolation: isolate">
            <g id="Grupo_710351" data-name="Grupo 710351">
              <g id="Grupo_710350" data-name="Grupo 710350" clip-path="url(#clip-path-3)">
                <path id="Trazado_242595" data-name="Trazado 242595" d="M269.364,306.051h0a1.618,1.618,0,0,0-1.051.416,2.131,2.131,0,0,0-.664,1.214,2.244,2.244,0,0,0,0,.658,2.907,2.907,0,0,0,.219.706,3.931,3.931,0,0,0,.892,1.2,4.362,4.362,0,0,0,1.12.762,3.251,3.251,0,0,0,.388.149q.145.06.295.109a2.711,2.711,0,0,0,.824.141,1.623,1.623,0,0,0,1-.314,1.5,1.5,0,0,0,.513-.834,2.274,2.274,0,0,0,.069-.5,2.67,2.67,0,0,0-.044-.623,3.19,3.19,0,0,0-.479-1.075,5.317,5.317,0,0,0-.85-.987,4.543,4.543,0,0,0-1.069-.743,3.052,3.052,0,0,0-.565-.208,2.247,2.247,0,0,0-.6-.073" transform="translate(-267.626 -306.051)" fill="#fefefe"/>
              </g>
            </g>
          </g>
          <g id="Grupo_710355" data-name="Grupo 710355" transform="translate(116.918 118.651)" style="mix-blend-mode: soft-light;isolation: isolate">
            <g id="Grupo_710354" data-name="Grupo 710354">
              <g id="Grupo_710353" data-name="Grupo 710353" clip-path="url(#clip-path-4)">
                <path id="Trazado_242596" data-name="Trazado 242596" d="M258.883,254.211a2.271,2.271,0,0,0-.728.131,4.2,4.2,0,0,0-1.253.71,10.194,10.194,0,0,0-1.371,1.3,15.36,15.36,0,0,0-2.209,3.265,21.25,21.25,0,0,0-1.933,5.987,18.791,18.791,0,0,0-.183,6.109,9.374,9.374,0,0,0,1.261,3.573c.076.127.157.251.242.373s.151.233.235.346a6.643,6.643,0,0,0,.457.537c.127.142.26.278.4.412l.04.041c.111.107.207.2.3.285a.3.3,0,0,0,.1.057,3.7,3.7,0,0,0,.536.369,3.092,3.092,0,0,0,.552.245,3.006,3.006,0,0,0,.648.14,2.231,2.231,0,0,0,.315.02,3.394,3.394,0,0,0,1.008-.164,3.974,3.974,0,0,0,.665-.272,3.358,3.358,0,0,0,.583-.384,2.965,2.965,0,0,0,.758-.942,4.557,4.557,0,0,0,.47-1.863,10.7,10.7,0,0,0-.128-2.079c-.1-.664-.23-1.32-.384-2.047l-.051-.237-.016-.076c-.1-.49-.2-.933-.258-1.38l-.007-.056a13.4,13.4,0,0,1,.038-3.4,34.662,34.662,0,0,1,.766-3.643,32.446,32.446,0,0,0,.832-4.085,5.888,5.888,0,0,0-.024-1.587,2.417,2.417,0,0,0-.428-1.061,1.725,1.725,0,0,0-.387-.372,1.392,1.392,0,0,0-.467-.2,1.484,1.484,0,0,0-.38-.046" transform="translate(-251.036 -254.211)" fill="#fefefe"/>
              </g>
            </g>
          </g>
          <path id="Trazado_242597" data-name="Trazado 242597" d="M440.922,224.4a9.577,9.577,0,0,0-2.208.253,9.1,9.1,0,0,0-2.536,1.027,7.482,7.482,0,0,0-3.184,3.551,8.939,8.939,0,0,0-.615,4.554,12.571,12.571,0,0,0,1.469,4.628,13.056,13.056,0,0,0,3.157,3.871,10.362,10.362,0,0,0,3.318,1.866.315.315,0,0,0,.1.016.384.384,0,0,0,.082-.009h.008a.278.278,0,0,0,.087-.011,14.252,14.252,0,0,0,3.445-1.576,19.037,19.037,0,0,0,3.037-2.382,23.694,23.694,0,0,0,2.526-2.848,10.126,10.126,0,0,0,.9-1.366,7.756,7.756,0,0,0,.57-1.352,6.579,6.579,0,0,0,.258-1.327,6.043,6.043,0,0,0-.023-1.289,6.508,6.508,0,0,0-.774-2.358,9.637,9.637,0,0,0-3.762-3.66,12.072,12.072,0,0,0-5.332-1.575c-.173-.009-.348-.014-.522-.014" transform="translate(-230.971 -119.636)" fill="#fba92d"/>
          <path id="Trazado_242598" data-name="Trazado 242598" d="M444.577,234.568a3,3,0,0,0-.311.02,2.421,2.421,0,0,0-.4.084c-.118.036-.231.076-.344.123l.027-.011a3.572,3.572,0,0,0-.415.217c-.116.073-.227.151-.336.231a6.591,6.591,0,0,0-1.143,1.157,6.192,6.192,0,0,0-.491.739,7.379,7.379,0,0,0-.377.761l.011-.027a8.017,8.017,0,0,0-.364,1.063,9.7,9.7,0,0,0-.222,1.124v0a12.113,12.113,0,0,0,.026,3.139c0-.006,0-.013,0-.02a16.781,16.781,0,0,0,1.166,4.212l-.011-.027q.182.429.384.85a10.274,10.274,0,0,0,2.713,1.4.375.375,0,0,0,.107.016.52.52,0,0,0,.086-.007.331.331,0,0,0,.089-.011,14.3,14.3,0,0,0,3.453-1.579,18.978,18.978,0,0,0,3.04-2.384q.289-.273.572-.564a31.72,31.72,0,0,0-1.365-4.1l.011.028a20.151,20.151,0,0,0-1.031-2.11,16.879,16.879,0,0,0-1.246-1.889,10.472,10.472,0,0,0-.74-.875,7.547,7.547,0,0,0-.814-.743h0l-.006,0,0,0-.014-.011,0,0-.007-.006v0h0c-.146-.108-.295-.213-.452-.307s-.306-.168-.466-.24l-.012,0a3.2,3.2,0,0,0-.434-.15,3.545,3.545,0,0,0-.368-.073h0l-.014,0h0a2.694,2.694,0,0,0-.281-.018Z" transform="translate(-235.139 -125.066)" fill="#e38907"/>
          <path id="Trazado_242599" data-name="Trazado 242599" d="M452.089,235.084l.012,0-.02-.009.008,0" transform="translate(-241.528 -125.339)" fill="#e38907"/>
          <path id="Trazado_242600" data-name="Trazado 242600" d="M454.115,236.288l-.008-.005.008.005" transform="translate(-242.611 -125.982)" fill="#e38907"/>
          <path id="Trazado_242601" data-name="Trazado 242601" d="M436.529,269.61a.364.364,0,0,0-.328.21,3.477,3.477,0,0,1-.184.347,12,12,0,0,1-1.371,1.712c-.348.381-.7.756-1.057,1.131-.278.294-.556.588-.83.884a24.746,24.746,0,0,0-1.787,2.116,10.671,10.671,0,0,0-.7,1.083,5.114,5.114,0,0,0-.435,1.009,3.288,3.288,0,0,0-.15.948,2.339,2.339,0,0,0,.166.873,3.01,3.01,0,0,0,.9,1.144,4.636,4.636,0,0,0,.662.461,4.469,4.469,0,0,0,.709.342.4.4,0,0,0,.142.027.35.35,0,0,0,.325-.209.374.374,0,0,0,0-.288,11.826,11.826,0,0,0,2.958-4.985,33.262,33.262,0,0,0,1.246-5.8.353.353,0,0,0-.072-.267c.046-.077.088-.161.128-.246a.34.34,0,0,0,.007-.264.346.346,0,0,0-.328-.23" transform="translate(-229.565 -143.787)" fill="#f6cfbe"/>
          <path id="Trazado_242602" data-name="Trazado 242602" d="M444.927,240.724H444.9a.39.39,0,0,0-.252.128,17.135,17.135,0,0,0-2.394,2.925,20.257,20.257,0,0,0-1.647,3.157,49.15,49.15,0,0,0-1.847,5.637q-.17.6-.342,1.2-.119.414-.242.827l.027-.057c-.189.6-.378,1.2-.577,1.8-.185.558-.4,1.147-.656,1.8-.291.743-.6,1.479-.908,2.215-.2.477-.4.955-.6,1.434a22.567,22.567,0,0,0-1.974,7.53,11.832,11.832,0,0,0,.082,1.946,11.194,11.194,0,0,0,.438,1.96,11.467,11.467,0,0,0,1.371,2.82,14.029,14.029,0,0,0,2.007,2.375,16.724,16.724,0,0,0,2.49,1.957,19.736,19.736,0,0,0,5.42,2.427c.559.156,1.12.285,1.669.384,0,.212,0,.429-.007.645l.011-.047,0-.048a23.013,23.013,0,0,1-.934,5.675h0a25.793,25.793,0,0,1-1.721,4.318.324.324,0,0,0-.013.256.363.363,0,0,0,.189.212.23.23,0,0,0,.07.022.329.329,0,0,0,.186.213,23.668,23.668,0,0,0,3.093,1.066,35.1,35.1,0,0,0,3.507.771,42.64,42.64,0,0,0,7.216.621,24.583,24.583,0,0,0,3.164-.173,7.507,7.507,0,0,0,1.742-.428,5.01,5.01,0,0,0,1.59-.978.391.391,0,0,0,.142-.23.357.357,0,0,0-.295-.406.335.335,0,0,0-.054,0,.41.41,0,0,0-.086.009,23.521,23.521,0,0,1-.724-2.334,21.976,21.976,0,0,1-.615-5.667l-.011.046,0,.047a25.524,25.524,0,0,1,.857-5.768.256.256,0,0,0,.114-.095l.277-.408c1.449-2.125,2.948-4.321,4.21-6.613a32.833,32.833,0,0,0,1.785-3.783,34.379,34.379,0,0,0,1.123-3.39,24.751,24.751,0,0,0,.938-6.5,16.272,16.272,0,0,0-1.091-6.021,14.436,14.436,0,0,0-1.445-2.743,15.523,15.523,0,0,0-2.111-2.5,23.372,23.372,0,0,0-5.5-3.749,45.9,45.9,0,0,0-6.389-2.755,31.08,31.08,0,0,0-6.874-1.616,18.2,18.2,0,0,0-1.924-.107,13.361,13.361,0,0,0-2.168.169.288.288,0,0,0-.08-.1.36.36,0,0,0-.223-.079" transform="translate(-231.595 -128.355)" fill="#f6cfbe"/>
          <path id="Trazado_242603" data-name="Trazado 242603" d="M455.152,240.7a.4.4,0,0,0-.259.131,17.125,17.125,0,0,0-2.227,2.671,17.458,17.458,0,0,0,1.381,1.848A18.253,18.253,0,0,0,455.656,247l-.022-.021a18.822,18.822,0,0,0,2.1,1.642,21.555,21.555,0,0,0,2.319,1.356c-.011,0-.02-.009-.029-.013a26.169,26.169,0,0,0,6.551,2.218l-.029-.006a34.069,34.069,0,0,0,8.661.575,36.44,36.44,0,0,0,5.586-.765q-.168-.275-.349-.545a15.251,15.251,0,0,0-2.113-2.5,23.316,23.316,0,0,0-5.5-3.747,45.489,45.489,0,0,0-6.39-2.754,31.194,31.194,0,0,0-6.875-1.621c-.709-.071-1.339-.107-1.924-.107a13.8,13.8,0,0,0-2.169.169.216.216,0,0,0-.073-.095.372.372,0,0,0-.229-.084Z" transform="translate(-241.841 -128.341)" fill="#f0bea9"/>
          <path id="Trazado_242604" data-name="Trazado 242604" d="M469.018,331.314a12.345,12.345,0,0,1-1.568.258,16.7,16.7,0,0,1-3.149.025c-.093-.007-.183-.016-.275-.025l-.122-.006c-.283-.015-.566-.035-.849-.067-.273-.017-.546-.04-.819-.072l-.008.3-.007.314.029-.043.005-.051q-.046,1.07-.2,2.161c.151,0,.3,0,.451-.006h-.031a13.882,13.882,0,0,0,3.609-.588,10.6,10.6,0,0,0,2.393-1.061.024.024,0,0,0,.007-.006s0,0,0,0h0a7.845,7.845,0,0,0,.755-.53,6.959,6.959,0,0,0,.642-.586c0,.006-.009.009-.012.014.118-.127.231-.256.34-.391a12.4,12.4,0,0,1-1.2.359" transform="translate(-246.859 -176.561)" fill="#da8c67"/>
          <path id="Trazado_242605" data-name="Trazado 242605" d="M475.822,334.187l.006,0-.006,0" transform="translate(-254.212 -178.286)" fill="#da8c67"/>
          <path id="Trazado_242606" data-name="Trazado 242606" d="M460.025,218.61c-.086,0-.171,0-.257,0a6.242,6.242,0,0,0-1.95.362,4.322,4.322,0,0,0-1.586.994,3.665,3.665,0,0,0-.926,1.648,4.56,4.56,0,0,0-.141,1.1,5.572,5.572,0,0,0,.028.6c.009.1.02.2.034.306h-.012a6.238,6.238,0,0,0-2.441.484,7.02,7.02,0,0,0-2.225,1.551.3.3,0,0,0-.085.231.375.375,0,0,0,.123.268.355.355,0,0,0,.144.073,18.431,18.431,0,0,0,1.658,2.842,20.433,20.433,0,0,0,2.279,2.668,23.881,23.881,0,0,0,5.706,4.148,24.978,24.978,0,0,0,7.295,2.531,27.5,27.5,0,0,0-2.505,6.309,9.314,9.314,0,0,0-.138,3.486,7.211,7.211,0,0,0,.5,1.7,7.69,7.69,0,0,0,.98,1.629c.033.042.066.084.1.124-.029.478-.065.949-.1,1.416l-.007.1a.391.391,0,0,0,.04.241.247.247,0,0,0-.082.107,24.279,24.279,0,0,0-1.561,5.3,18.106,18.106,0,0,0-.257,2.817,12.761,12.761,0,0,0,.248,2.688,10.842,10.842,0,0,0,.351,1.308,9.262,9.262,0,0,0,.532,1.227A7.987,7.987,0,0,0,467.375,269a8.846,8.846,0,0,0,2.44,1.613,10.614,10.614,0,0,0,1.526.555,6.922,6.922,0,0,0,1.335.23q.271.02.541.02a8.615,8.615,0,0,0,2.216-.306,11.914,11.914,0,0,0,2.674-1.123,18.543,18.543,0,0,0,2.557-1.74,29.549,29.549,0,0,0,2.428-2.19,45.766,45.766,0,0,0,4.145-4.829c.53-.7,1.075-1.458,1.617-2.244.645-.934,1.124-1.663,1.552-2.361a29.52,29.52,0,0,0,3.184-7.02,17.13,17.13,0,0,0,.638-7.5,12.715,12.715,0,0,0-1.126-3.615,16.012,16.012,0,0,0-2.176-3.245,22.728,22.728,0,0,0-2.637-2.66,26.254,26.254,0,0,0-2.973-2.183,38.137,38.137,0,0,0-6.625-3.272c-2.358-.924-4.8-1.7-7.1-2.407-.513-.158-1.025-.322-1.537-.485l-.808-.257a23.87,23.87,0,0,0-3.714-3.458,11.927,11.927,0,0,0-1.531-.935,9.485,9.485,0,0,0-1.564-.626,8.388,8.388,0,0,0-2.417-.353" transform="translate(-240.665 -116.54)" fill="#fba92d"/>
          <path id="Trazado_242607" data-name="Trazado 242607" d="M450.679,234.745a.117.117,0,0,0-.025.162,26.671,26.671,0,0,0,4.255,5.678,25.714,25.714,0,0,0,5.767,4.386,22.269,22.269,0,0,0,2.462,1.19,19.457,19.457,0,0,0,2.6.852c.435.111.877.2,1.319.28.512.09,1.026.151,1.541.211.57.068,1.139.12,1.71.14.309.011.618.012.928.006a7.453,7.453,0,0,0,.893-.08.419.419,0,0,0,.366-.457.413.413,0,0,0-.153-.277.449.449,0,0,0-.3-.089c-.393,0-.785.01-1.176.006l.028,0-.062,0h-.021a30.966,30.966,0,0,1-3.346-.259,19.184,19.184,0,0,1-2.687-.548,22.113,22.113,0,0,1-2.628-.932,21.762,21.762,0,0,1-2.573-1.318l0,0a25.391,25.391,0,0,1-5.245-4.233l.009.011a25.771,25.771,0,0,1-1.888-2.223,21.65,21.65,0,0,1-1.61-2.481.1.1,0,0,0-.091-.048.127.127,0,0,0-.073.022m20.149,12.008h0" transform="translate(-240.755 -125.149)" fill="#e38907"/>
          <path id="Trazado_242608" data-name="Trazado 242608" d="M473.351,247.9a.139.139,0,0,0,0,.2c.358.291.729.568,1.115.823a13.9,13.9,0,0,0,1.2.7,14.183,14.183,0,0,0,2.6,1.022,21.536,21.536,0,0,0,2.711.582c.46.073.924.131,1.388.191.49.064.98.129,1.475.148a.488.488,0,0,0,.033-.975c-.258-.009-.515-.009-.771-.007-.108,0-.215,0-.32,0-.388,0-.775-.011-1.164-.033a21.977,21.977,0,0,1-2.23-.238l.014,0-.05-.008-.027,0,.012,0a17.076,17.076,0,0,1-1.8-.4,13.9,13.9,0,0,1-1.79-.651c.015.006.029.013.046.018a10.667,10.667,0,0,1-2.272-1.381.105.105,0,0,0-.065-.021.157.157,0,0,0-.1.041m6,2.4.035.006-.05-.008.015,0" transform="translate(-252.869 -132.165)" fill="#e38907"/>
          <path id="Trazado_242609" data-name="Trazado 242609" d="M486.7,266.792a25.335,25.335,0,0,0-1.19,2.913,11.783,11.783,0,0,0-.364,1.5,9.187,9.187,0,0,0-.151,1.612.354.354,0,0,0,.6.269.333.333,0,0,0,.113-.251,9.15,9.15,0,0,1,.076-2.184,15.013,15.013,0,0,1,1.147-3.641l-.005.011c.01-.022.021-.044.031-.068a.153.153,0,0,0-.046-.206.154.154,0,0,0-.083-.023.133.133,0,0,0-.124.068m.228.217.007-.015Z" transform="translate(-259.111 -142.245)" fill="#e38907"/>
          <path id="Trazado_242610" data-name="Trazado 242610" d="M483.966,284.163a6.334,6.334,0,0,0-1.255.131,6.508,6.508,0,0,0-1.687.6,5.984,5.984,0,0,0-2.577,2.571,12.085,12.085,0,0,0-1.732,4.373,18.9,18.9,0,0,0-.306,5.006.344.344,0,0,0,.148.227.356.356,0,0,0,.2.06.323.323,0,0,0,.056,0,.315.315,0,0,0,.1.027,16.593,16.593,0,0,0,1.915.132h.139a9.738,9.738,0,0,0,1.572-.155,10.3,10.3,0,0,0,2.992-1.05,10.068,10.068,0,0,0,2.538-1.915,8.841,8.841,0,0,0,1.764-2.656,7.846,7.846,0,0,0,.468-1.547,7.312,7.312,0,0,0,.14-1.493,4.639,4.639,0,0,0-.583-2.273,3.911,3.911,0,0,0-1.46-1.435,4.854,4.854,0,0,0-2-.585q-.213-.016-.429-.016" transform="translate(-254.501 -151.562)" fill="#f6cfbe"/>
          <path id="Trazado_242611" data-name="Trazado 242611" d="M484.262,291.022a.336.336,0,0,0-.225.481c.052.113.1.228.144.343a6.4,6.4,0,0,1,.339,1.521,6.308,6.308,0,0,1-.074,1.552,6.66,6.66,0,0,1-.512,1.592l.012-.023a5.953,5.953,0,0,1-.787,1.231,5.77,5.77,0,0,1-.419.435.119.119,0,0,0-.009.164.117.117,0,0,0,.166.009,6.681,6.681,0,0,0,1.177-1.448,6.584,6.584,0,0,0,.733-1.8,7.211,7.211,0,0,0,.2-1.874,6.5,6.5,0,0,0-.093-.948,6.333,6.333,0,0,0-.255-.983.363.363,0,0,0-.143-.207.345.345,0,0,0-.186-.055.336.336,0,0,0-.071.008m.189,3.875,0,.014,0-.014m-1.3,2.826-.007.008Z" transform="translate(-257.889 -155.222)" fill="#da8c67"/>
          <path id="Trazado_242612" data-name="Trazado 242612" d="M488.709,288.253a5.165,5.165,0,0,0-1.645.348,4.225,4.225,0,0,0-.733.386,1.988,1.988,0,0,0-.571.537.257.257,0,0,0,.011.307.252.252,0,0,0,.3.071c.154-.085.3-.182.449-.276a6.118,6.118,0,0,1,1.374-.619,5.986,5.986,0,0,1,1.379-.224h.018a4.991,4.991,0,0,1,1.127.111,3.72,3.72,0,0,1,.786.286l-.006,0a3.1,3.1,0,0,1,.355.22.2.2,0,1,0,.229-.326,4.274,4.274,0,0,0-1.421-.651,5.57,5.57,0,0,0-.808-.146,4.792,4.792,0,0,0-.529-.027c-.1,0-.21,0-.315.006m-2.121,1.33-.062.039.062-.039m2.693-.8h0" transform="translate(-259.497 -153.744)" fill="#da8c67"/>
          <path id="Trazado_242613" data-name="Trazado 242613" d="M315.538,345.671a2.618,2.618,0,0,0-.263.015,1.736,1.736,0,0,0-1.206.73,2.978,2.978,0,0,0-.483,1.4,5.855,5.855,0,0,0,.036,1.553,5.384,5.384,0,0,0,.144.67c.034.124.073.246.116.366a27.747,27.747,0,0,0-2.921-.314c-.371-.02-.741-.029-1.112-.029s-.721.009-1.081.027a4.858,4.858,0,0,0-1.43.293,3.521,3.521,0,0,0-1.069.634,3.564,3.564,0,0,0-.4.421,3.165,3.165,0,0,0-.323.514,2.9,2.9,0,0,0-.3,1.055,3.292,3.292,0,0,0,.089,1.124,3.951,3.951,0,0,0,.807,1.547,4.305,4.305,0,0,0,.654.631,2.513,2.513,0,0,0-.12.755,2.679,2.679,0,0,0,.392,1.392,3.787,3.787,0,0,0,1.542,1.407,2.036,2.036,0,0,0,.035.319,1.993,1.993,0,0,0,.4.85,2.639,2.639,0,0,0,.716.609,4.948,4.948,0,0,0,.963.441,10.365,10.365,0,0,0,2.279.455,20.9,20.9,0,0,0,2.193.1c.1,0,.207,0,.311,0a.424.424,0,0,0,.048.007c.49.028.927.041,1.336.041.448,0,.859-.016,1.257-.049a8.961,8.961,0,0,0,1.353-.215,5.72,5.72,0,0,0,1.276-.455,4.272,4.272,0,0,0,.552-.337,3.732,3.732,0,0,0,.512-.455,3.1,3.1,0,0,0,.672-1.135,2.718,2.718,0,0,0,.146-.689,3.624,3.624,0,0,0-.042-.807,7.29,7.29,0,0,0-.49-1.617c-.2-.482-.427-.959-.65-1.42l-.067-.137c-.107-.222-.215-.444-.316-.67-.09-.2-.172-.4-.254-.6l-.108-.263c-.511-1.235-1.1-2.564-1.847-4.184l-.208-.452c-.141-.305-.281-.612-.427-.916a10.4,10.4,0,0,0-.717-1.285,3.615,3.615,0,0,0-.969-1.008,1.955,1.955,0,0,0-.616-.27,1.732,1.732,0,0,0-.41-.047" transform="translate(-163.072 -184.423)" fill="#f6cfbe"/>
          <path id="Trazado_242614" data-name="Trazado 242614" d="M308.953,368.342a.12.12,0,0,0,.086.142,5.49,5.49,0,0,0,2.3.2.192.192,0,0,0,.118-.053.171.171,0,0,0,.048-.123.168.168,0,0,0-.053-.117.164.164,0,0,0-.123-.047c-.264.031-.526.06-.791.076a4.944,4.944,0,0,1-.762-.016h.008l-.011,0-.023,0h.013c-.111-.014-.219-.031-.328-.051s-.231-.056-.344-.091a.1.1,0,0,0-.027,0,.122.122,0,0,0-.113.089m.822.058h0l-.013,0h.01" transform="translate(-165.059 -196.488)" fill="#da8c67"/>
          <path id="Trazado_242615" data-name="Trazado 242615" d="M312.646,375.654a.131.131,0,0,0,.095.154,4.508,4.508,0,0,0,1.9.2.239.239,0,0,0,.149-.066.22.22,0,0,0,.06-.158.217.217,0,0,0-.065-.147.206.206,0,0,0-.156-.06c-.228.036-.455.071-.684.093a3.554,3.554,0,0,1-.655,0c-.082-.011-.163-.023-.246-.041s-.165-.042-.249-.067a.105.105,0,0,0-.03,0,.132.132,0,0,0-.122.1" transform="translate(-167.032 -200.39)" fill="#da8c67"/>
          <path id="Trazado_242616" data-name="Trazado 242616" d="M396.991,344.986a22.415,22.415,0,0,0-3.767.322,26.083,26.083,0,0,0-5.88,1.787,40.909,40.909,0,0,0-5.487,2.939c-1.906,1.192-3.729,2.5-5.262,3.624-2.736,2.005-5.462,4.116-8.1,6.158q-1.649,1.277-3.3,2.549c-3.185,2.444-6.993,5.292-11.088,7.892-2.968-2.189-6.175-4.195-9.2-6.036q-1.215-.741-2.434-1.474c-2.922-1.764-5.943-3.589-8.814-5.541a.291.291,0,0,0-.168-.049l-.1,0a.271.271,0,0,0-.067.007,12.057,12.057,0,0,0-4.091,1.978,19.761,19.761,0,0,0-3.385,3.057.345.345,0,0,0-.061.26.394.394,0,0,0,.063.151.346.346,0,0,0,.038.09,96.723,96.723,0,0,0,5.816,8.526,64.69,64.69,0,0,0,7.078,7.905,41.958,41.958,0,0,0,8.282,6.15,19.439,19.439,0,0,0,4.276,1.743,19.793,19.793,0,0,0,4.387.657c.278.011.557.017.835.017a27.36,27.36,0,0,0,8.084-1.346,45.351,45.351,0,0,0,7.128-2.97,58.261,58.261,0,0,1-.974,7.037c-.267,1.349-.593,2.828-1,4.517a.352.352,0,0,0,.221.45.354.354,0,0,0,.108.017.375.375,0,0,0,.27-.111q3.726-.028,7.46-.027c5.976,0,11.888.051,16.883.1l4.584.047c6.557.067,13.336.136,20.006.146l1.9,0q2.185,0,4.369-.011,1.536-.008,3.071-.02l.8-.007.8-.007.5-.005c.3,0,.6-.005.9-.014a.349.349,0,0,0,.344.3.37.37,0,0,0,.271-.129.347.347,0,0,0,.081-.256,74.869,74.869,0,0,0-1.066-7.494c-.224-1.133-.485-2.248-.779-3.484-.278-1.168-.549-2.251-.828-3.313a81.153,81.153,0,0,0-4.339-12.663,55.2,55.2,0,0,0-6.614-11.122,36.655,36.655,0,0,0-8.332-8.046,26.129,26.129,0,0,0-5.068-2.686,23.546,23.546,0,0,0-5.725-1.446,21.462,21.462,0,0,0-2.624-.16" transform="translate(-174.053 -184.058)" fill="#2fc3b0"/>
          <path id="Trazado_242617" data-name="Trazado 242617" d="M516.378,362.243a44.715,44.715,0,0,1,4.364,8.1q.472,1.13.89,2.277c.3.828.58,1.661.848,2.5q.873,2.743,1.563,5.538t1.206,5.636q.256,1.416.473,2.838c.138.928.271,1.858.376,2.789.223,1.944.344,3.9.386,5.854.04,1.832.019,3.665-.039,5.5q1.457-.008,2.911-.019l.8-.007.8-.008.5,0,.18,0c.24,0,.48,0,.72-.011a.345.345,0,0,0,.344.295.387.387,0,0,0,.279-.131.36.36,0,0,0,.083-.264A75.446,75.446,0,0,0,532,395.628c-.213-1.066-.448-2.087-.781-3.488-.272-1.142-.544-2.227-.828-3.315a81.261,81.261,0,0,0-4.339-12.662,55.249,55.249,0,0,0-6.615-11.125,40.012,40.012,0,0,0-5.192-5.6q1.136,1.351,2.137,2.807" transform="translate(-274.738 -191.778)" fill="#2bb4a2"/>
          <path id="Trazado_242618" data-name="Trazado 242618" d="M448.712,399.758l.027-.016c-1.785,1.108-3.509,2.307-5.281,3.435-.877.559-1.763,1.1-2.672,1.6-.464.257-.933.5-1.4.746s-.962.493-1.446.735c-2.678,1.343-5.4,2.6-8.138,3.812q-2.06.908-4.13,1.794c-.622.267-1.242.541-1.862.811-.125,1.55-.326,3.172-.619,4.914l.4-.18a107.427,107.427,0,0,0,12.808-6.562l-.009.007a54.564,54.564,0,0,0,5.265-3.68c.837-.666,1.652-1.357,2.438-2.081s1.517-1.448,2.232-2.216l-.022.022a37.138,37.138,0,0,0,2.79-3.377l-.382.233m-12.3,11.083a.074.074,0,0,1-.016.009.074.074,0,0,0,.016-.009" transform="translate(-226.092 -213.195)" fill="#2bb4a2"/>
          <path id="Trazado_242619" data-name="Trazado 242619" d="M325.24,382.389a.444.444,0,0,0-.171.289.469.469,0,0,0,.086.335c.622.993,1.277,1.97,1.925,2.947s1.314,1.961,1.985,2.933,1.348,1.93,2.04,2.882c.61.841,1.23,1.672,1.874,2.485a42.663,42.663,0,0,0,8.181,8.036,31.227,31.227,0,0,0,4.9,2.94,25.292,25.292,0,0,0,5.862,2,23.484,23.484,0,0,0,6.6.331,33.155,33.155,0,0,0,6.466-1.27,61.053,61.053,0,0,0,6.329-2.285c1.852-.768,3.688-1.579,5.514-2.4.9-.4,1.793-.819,2.687-1.237s1.818-.852,2.718-1.3q2.724-1.345,5.392-2.8c1.87-1.028,3.7-2.121,5.472-3.313a45.97,45.97,0,0,0,5-3.837.154.154,0,0,0,.027-.213.15.15,0,0,0-.211-.029,38.673,38.673,0,0,1-3.569,2.822c-1.318.926-2.69,1.768-4.086,2.571l.033-.02q-2.623,1.5-5.358,2.785-1.37.647-2.76,1.256c-.917.4-1.835.806-2.759,1.2-1.794.76-3.6,1.5-5.392,2.256-.95.4-1.894.813-2.846,1.21-1.04.433-2.09.848-3.149,1.237-1.429.525-2.877.994-4.347,1.387l.021-.006a34.087,34.087,0,0,1-3.744.766,25.93,25.93,0,0,1-3.894.269,23.573,23.573,0,0,1-2.79-.209,21.927,21.927,0,0,1-2.968-.624l.027.008-.034-.01-.093-.026.063.017a27.254,27.254,0,0,1-6.2-2.733,35.624,35.624,0,0,1-6.869-5.5c.031.029.06.06.091.091q-1.454-1.482-2.774-3.086c-.968-1.168-1.87-2.387-2.763-3.611q-1.5-2.057-2.947-4.15-.726-1.042-1.443-2.1c-.5-.735-.992-1.477-1.5-2.208a.423.423,0,0,0-.351-.173.448.448,0,0,0-.271.088m38.409,23.2-.083.022.083-.022m-13.349.186.007,0-.036-.011.03.009" transform="translate(-173.668 -203.994)" fill="#208b7e"/>
          <path id="Trazado_242620" data-name="Trazado 242620" d="M451.36,277.087a.753.753,0,0,1,.1.01c.27.056.483.312.6.719a3.155,3.155,0,0,1,.015,1.435c-.206,1.012-.769,1.765-1.311,1.752a.663.663,0,0,1-.1-.01c-.271-.056-.484-.311-.6-.719a3.121,3.121,0,0,1-.015-1.434c.206-1.012.77-1.765,1.313-1.752" transform="translate(-240.402 -147.782)" fill="#021621"/>
          <path id="Trazado_242621" data-name="Trazado 242621" d="M457.721,259.4c.748.817.962,1.671.543,2.177-.605.724-2.308.531-3.8-.429a5.458,5.458,0,0,1-1.059-.882c-.749-.817-.961-1.671-.543-2.176a1.162,1.162,0,0,1,.584-.359,4.363,4.363,0,0,1,3.212.787,5.436,5.436,0,0,1,1.06.882" transform="translate(-241.834 -137.398)" fill="#fba92d"/>
          <path id="Trazado_242622" data-name="Trazado 242622" d="M435.526,300.354a2.82,2.82,0,0,0,3.7-1.458" transform="translate(-232.684 -159.434)" fill="none" stroke="#021621" stroke-linecap="round" stroke-miterlimit="10" stroke-width="1"/>
          <path id="Trazado_242623" data-name="Trazado 242623" d="M284.255,447.43H45.367a2.678,2.678,0,1,0,0,5.356H284.255a2.678,2.678,0,1,0,0-5.356" transform="translate(-22.807 -238.789)" fill="#206969"/>
        </g>
      </g>
    </g>
  </g>
</svg>
