<svg id="Grupo_715889" data-name="Grupo 715889" xmlns="http://www.w3.org/2000/svg" xmlns:xlink="http://www.w3.org/1999/xlink" width="257.432" height="237.091" viewBox="0 0 257.432 237.091">
  <defs>
    <clipPath id="clip-path">
      <rect id="Rectángulo_37989" data-name="Rectángulo 37989" width="255.616" height="235.96" fill="none"/>
    </clipPath>
    <clipPath id="clip-path-2">
      <rect id="Rectángulo_37985" data-name="Rectángulo 37985" width="300.323" height="235.96" fill="none"/>
    </clipPath>
    <clipPath id="clip-path-3">
      <rect id="Rectángulo_37981" data-name="Rectángulo 37981" width="118.273" height="195.48" fill="none"/>
    </clipPath>
    <clipPath id="clip-path-4">
      <rect id="Rectángulo_37982" data-name="Rectángulo 37982" width="7.257" height="6.978" fill="none"/>
    </clipPath>
    <clipPath id="clip-path-5">
      <rect id="Rectángulo_37983" data-name="Rectángulo 37983" width="17.137" height="20.528" fill="none"/>
    </clipPath>
    <clipPath id="clip-path-6">
      <rect id="Rectángulo_37984" data-name="Rectángulo 37984" width="9.31" height="8.296" fill="none"/>
    </clipPath>
    <clipPath id="clip-path-7">
      <path id="Trazado_179873" data-name="Trazado 179873" d="M166.516,115.834a10.144,10.144,0,0,0-8.269,11.308c.813,6.239,2.437,13.3,2.886,19.64.5,7.028.813,20.34.235,25.1,2.268,3.444,25.576,2.364,33.548-.538,1-22.855-1.474-38.1-3.359-46.894a11.819,11.819,0,0,0-10.953-9.4q-1.746-.077-3.464-.078a62.541,62.541,0,0,0-10.624.861" transform="translate(-158.162 -114.973)" fill="none"/>
    </clipPath>
    <clipPath id="clip-path-9">
      <rect id="Rectángulo_37986" data-name="Rectángulo 37986" width="4.968" height="8.189" fill="none"/>
    </clipPath>
    <clipPath id="clip-path-10">
      <rect id="Rectángulo_37987" data-name="Rectángulo 37987" width="45.739" height="38.162" fill="none"/>
    </clipPath>
  </defs>
  <g id="Grupo_112500" data-name="Grupo 112500" transform="translate(1.815 0.395)">
    <g id="Enmascarar_grupo_112499" data-name="Enmascarar grupo 112499" clip-path="url(#clip-path)">
      <rect id="Rectángulo_37972" data-name="Rectángulo 37972" width="300.323" height="0.152" transform="translate(-31.51 208.581)" fill="#ebebeb"/>
      <rect id="Rectángulo_37973" data-name="Rectángulo 37973" width="19.895" height="0.152" transform="translate(47.458 217.933)" fill="#ebebeb"/>
      <rect id="Rectángulo_37974" data-name="Rectángulo 37974" width="5.221" height="0.151" transform="translate(118.743 216.288)" fill="#ebebeb"/>
      <rect id="Rectángulo_37975" data-name="Rectángulo 37975" width="11.528" height="0.152" transform="translate(0 213.728)" fill="#ebebeb"/>
      <rect id="Rectángulo_37976" data-name="Rectángulo 37976" width="15.666" height="0.152" transform="translate(202.56 212.71)" fill="#ebebeb"/>
      <rect id="Rectángulo_37977" data-name="Rectángulo 37977" width="14.082" height="0.152" transform="translate(183.131 212.71)" fill="#ebebeb"/>
      <rect id="Rectángulo_37978" data-name="Rectángulo 37978" width="56.266" height="0.152" transform="translate(182.456 219.984)" fill="#ebebeb"/>
      <g id="Grupo_112488" data-name="Grupo 112488" transform="translate(-31.51)">
        <g id="Grupo_112487" data-name="Grupo 112487" clip-path="url(#clip-path-2)">
          <path id="Trazado_179769" data-name="Trazado 179769" d="M157.62,188.093H41.635a3.448,3.448,0,0,1-3.428-3.46V20.088a3.449,3.449,0,0,1,3.428-3.46H157.62a3.449,3.449,0,0,1,3.428,3.46V184.633a3.448,3.448,0,0,1-3.428,3.46M41.635,16.78a3.3,3.3,0,0,0-3.278,3.309V184.633a3.3,3.3,0,0,0,3.278,3.309H157.62a3.3,3.3,0,0,0,3.278-3.309V20.088a3.3,3.3,0,0,0-3.278-3.309Z" transform="translate(-15.258 -6.548)" fill="#ebebeb"/>
          <path id="Trazado_179770" data-name="Trazado 179770" d="M373.917,188.093H257.933a3.448,3.448,0,0,1-3.428-3.46V20.088a3.448,3.448,0,0,1,3.428-3.46H373.917a3.449,3.449,0,0,1,3.429,3.46V184.633a3.448,3.448,0,0,1-3.429,3.46M257.933,16.78a3.3,3.3,0,0,0-3.278,3.309V184.633a3.3,3.3,0,0,0,3.278,3.309H373.917a3.3,3.3,0,0,0,3.278-3.309V20.088a3.3,3.3,0,0,0-3.278-3.309Z" transform="translate(-101.638 -6.548)" fill="#ebebeb"/>
          <rect id="Rectángulo_37979" data-name="Rectángulo 37979" width="91.66" height="55.073" transform="translate(43.279 51.234)" fill="#f6f6f6"/>
          <path id="Trazado_179771" data-name="Trazado 179771" d="M117.883,114.553l45.83-30.039H72.053Z" transform="translate(-28.775 -33.281)" fill="#ffbd65"/>
          <path id="Trazado_179772" data-name="Trazado 179772" d="M123.612,40.043l40.1,26.285H72.054l40.1-26.285a10.435,10.435,0,0,1,11.455,0" transform="translate(-28.775 -15.094)" fill="#e8e8e8"/>
          <path id="Trazado_179773" data-name="Trazado 179773" d="M77.722,67.452l38.1-24.974a7.875,7.875,0,0,1,8.644,0l38.1,24.974Z" transform="translate(-31.039 -16.218)" fill="#ffbd65"/>
          <path id="Trazado_179774" data-name="Trazado 179774" d="M158.614,80.442,128,100.507,97.389,80.442v-31.6h61.225Z" transform="translate(-38.893 -19.235)" fill="#e8e8e8"/>
          <g id="Grupo_710385" data-name="Grupo 710385" transform="translate(75.437 34.418)">
            <path id="Trazado_179775" data-name="Trazado 179775" d="M149.26,83.88H129.27a3.694,3.694,0,0,1-3.677-3.711v-9.6a13.775,13.775,0,0,1,13.671-13.8h0a13.775,13.775,0,0,1,13.671,13.8v9.6a3.694,3.694,0,0,1-3.677,3.711" transform="translate(-125.593 -56.775)" fill="#e01650"/>
            <path id="Trazado_179776" data-name="Trazado 179776" d="M145.043,72.172h3.47a.641.641,0,0,1,.638.644V94.075a2.373,2.373,0,1,1-4.746,0V72.816a.641.641,0,0,1,.638-.644" transform="translate(-133.106 -62.838)" fill="#e01650"/>
            <path id="Trazado_179777" data-name="Trazado 179777" d="M151.988,72.172h3.47a.641.641,0,0,1,.638.644V94.075a2.373,2.373,0,1,1-4.746,0V72.816a.641.641,0,0,1,.638-.644" transform="translate(-135.879 -62.838)" fill="#e01650"/>
            <path id="Trazado_179778" data-name="Trazado 179778" d="M138.1,72.172h3.47a.641.641,0,0,1,.638.644V94.075a2.373,2.373,0,1,1-4.746,0V72.816a.641.641,0,0,1,.638-.644" transform="translate(-130.331 -62.838)" fill="#e01650"/>
            <path id="Trazado_179779" data-name="Trazado 179779" d="M145.535,88.767l-1.84,2.279a1.119,1.119,0,0,0,.858,1.824h3.68a1.119,1.119,0,0,0,.859-1.824l-1.84-2.279a1.1,1.1,0,0,0-1.718,0" transform="translate(-132.722 -69.211)" fill="#fff"/>
            <path id="Trazado_179780" data-name="Trazado 179780" d="M131.375,83.131c.525,1.815,2.813,2.738,5.11,2.061s3.733-2.7,3.208-4.512-2.813-2.738-5.11-2.061-3.733,2.7-3.208,4.512" transform="translate(-127.858 -65.289)" fill="#fff"/>
            <path id="Trazado_179781" data-name="Trazado 179781" d="M159.661,83.131c-.525,1.815-2.813,2.738-5.11,2.061s-3.733-2.7-3.208-4.512,2.813-2.738,5.11-2.061,3.733,2.7,3.208,4.512" transform="translate(-135.833 -65.289)" fill="#fff"/>
          </g>
          <path id="Trazado_179782" data-name="Trazado 179782" d="M110.068,123.83,72.053,154h91.66L125.7,123.83a12.555,12.555,0,0,0-15.631,0" transform="translate(-28.775 -47.688)" fill="#fff"/>
          <path id="Trazado_179783" data-name="Trazado 179783" d="M380.474,214.062l-30.954,54.11a6.772,6.772,0,0,0,5.811,10.158h61.908a6.772,6.772,0,0,0,5.811-10.158L392.1,214.062a6.679,6.679,0,0,0-11.622,0" transform="translate(-139.219 -82.962)" fill="#ffbd65"/>
          <path id="Trazado_179784" data-name="Trazado 179784" d="M406.157,241.766h3.222a3.769,3.769,0,0,1,3.752,3.786v4.288a3.852,3.852,0,0,1-.029.47l-1.631,13.147a3.747,3.747,0,0,1-7.446-.011l-1.592-13.141a3.907,3.907,0,0,1-.028-.459v-4.294a3.769,3.769,0,0,1,3.752-3.786m.37,29.441h2.507a3.769,3.769,0,0,1,3.752,3.786v1.36a3.769,3.769,0,0,1-3.752,3.786h-2.507a3.769,3.769,0,0,1-3.752-3.786v-1.36a3.769,3.769,0,0,1,3.752-3.786" transform="translate(-160.702 -95.205)" fill="#fff"/>
          <path id="Trazado_179785" data-name="Trazado 179785" d="M132.576,230.408H62.422a4.063,4.063,0,0,1-4.033-4.07v-5.449a4.063,4.063,0,0,1,4.033-4.07h70.154a4.063,4.063,0,0,1,4.033,4.07v5.449a4.063,4.063,0,0,1-4.033,4.07" transform="translate(-23.318 -85.381)" fill="#ffbd65"/>
          <path id="Trazado_179786" data-name="Trazado 179786" d="M132.576,262.431H62.422a4.063,4.063,0,0,1-4.033-4.071v-5.448a4.063,4.063,0,0,1,4.033-4.07h70.154a4.063,4.063,0,0,1,4.033,4.07v5.448a4.063,4.063,0,0,1-4.033,4.071" transform="translate(-23.318 -97.991)" fill="#ffbd65"/>
          <path id="Trazado_179787" data-name="Trazado 179787" d="M124.72,225.645a3.633,3.633,0,1,1-3.633-3.667,3.65,3.65,0,0,1,3.633,3.667" transform="translate(-46.905 -87.413)" fill="#fff"/>
          <path id="Trazado_179788" data-name="Trazado 179788" d="M146.068,225.645a3.633,3.633,0,1,1-3.633-3.667,3.65,3.65,0,0,1,3.633,3.667" transform="translate(-55.431 -87.413)" fill="#fff"/>
          <path id="Trazado_179789" data-name="Trazado 179789" d="M167.417,225.645a3.633,3.633,0,1,1-3.633-3.667,3.65,3.65,0,0,1,3.633,3.667" transform="translate(-63.957 -87.413)" fill="#fff"/>
          <path id="Trazado_179790" data-name="Trazado 179790" d="M103.371,225.645a3.633,3.633,0,1,1-3.633-3.667,3.65,3.65,0,0,1,3.633,3.667" transform="translate(-38.379 -87.413)" fill="#fff"/>
          <path id="Trazado_179791" data-name="Trazado 179791" d="M82.022,225.645a3.633,3.633,0,1,1-3.633-3.667,3.65,3.65,0,0,1,3.633,3.667" transform="translate(-29.854 -87.413)" fill="#fff"/>
          <path id="Trazado_179792" data-name="Trazado 179792" d="M124.72,257.667A3.633,3.633,0,1,1,121.086,254a3.65,3.65,0,0,1,3.633,3.666" transform="translate(-46.905 -100.023)" fill="#fff"/>
          <path id="Trazado_179793" data-name="Trazado 179793" d="M146.068,257.667A3.633,3.633,0,1,1,142.434,254a3.65,3.65,0,0,1,3.633,3.666" transform="translate(-55.431 -100.023)" fill="#fff"/>
          <path id="Trazado_179794" data-name="Trazado 179794" d="M167.417,257.667A3.633,3.633,0,1,1,163.783,254a3.65,3.65,0,0,1,3.633,3.666" transform="translate(-63.957 -100.023)" fill="#fff"/>
          <path id="Trazado_179795" data-name="Trazado 179795" d="M103.371,257.667A3.633,3.633,0,1,1,99.737,254a3.65,3.65,0,0,1,3.633,3.666" transform="translate(-38.379 -100.023)" fill="#fff"/>
          <path id="Trazado_179796" data-name="Trazado 179796" d="M82.022,257.667A3.633,3.633,0,1,1,78.388,254a3.65,3.65,0,0,1,3.633,3.666" transform="translate(-29.854 -100.023)" fill="#fff"/>
          <path id="Trazado_179797" data-name="Trazado 179797" d="M400.621,31.073a13.275,13.275,0,0,0-2.624.262A16.7,16.7,0,0,0,368.428,35.7a11.209,11.209,0,1,0-1.536,22.325h33.729a13.478,13.478,0,0,0,0-26.954" transform="translate(-142.081 -9.524)" fill="#d4d6dc"/>
          <path id="Trazado_179798" data-name="Trazado 179798" d="M423.12,99.237a7.4,7.4,0,0,1,1.462.146,9.3,9.3,0,0,1,16.476,2.433,6.246,6.246,0,1,1,.856,12.439H423.12a7.51,7.51,0,0,1,0-15.019" transform="translate(-166.003 -37.568)" fill="#d4d6dc"/>
          <path id="Trazado_179799" data-name="Trazado 179799" d="M69.344,3.436a6.613,6.613,0,0,1,1.309.131A8.33,8.33,0,0,1,85.407,5.746a5.593,5.593,0,1,1,.766,11.139H69.344a6.725,6.725,0,0,1,0-13.449" transform="translate(-25.032)" fill="#d4d6dc"/>
          <path id="Trazado_179800" data-name="Trazado 179800" d="M289.028,373.455c0,3.791-52.14,6.864-116.459,6.864s-116.459-3.073-116.459-6.864,52.14-6.864,116.459-6.864,116.459,3.073,116.459,6.864" transform="translate(-22.408 -144.36)" fill="#f5f5f5"/>
          <path id="Trazado_179801" data-name="Trazado 179801" d="M223.322,34.763h90.271a9.465,9.465,0,0,1,9.481,10.207L311.59,230.5a10.993,10.993,0,0,1-10.746,10.207h-90.27a9.466,9.466,0,0,1-9.482-10.207L212.577,44.97a10.992,10.992,0,0,1,10.745-10.207" transform="translate(-80.299 -13.689)" fill="#263238"/>
          <rect id="Rectángulo_37980" data-name="Rectángulo 37980" width="21.506" height="0.606" transform="translate(141.469 18.952)" fill="#7cc6c1"/>
          <path id="Trazado_179802" data-name="Trazado 179802" d="M220.768,36.24l-.428-.426a13.312,13.312,0,0,1,4.359-2.966l.229.561a12.7,12.7,0,0,0-4.16,2.831" transform="translate(-87.994 -12.935)" fill="#7cc6c1"/>
          <path id="Trazado_179803" data-name="Trazado 179803" d="M220.735,34.763h90.271a9.465,9.465,0,0,1,9.481,10.207L309,230.5a10.993,10.993,0,0,1-10.746,10.207h-90.27a9.466,9.466,0,0,1-9.482-10.207L209.99,44.97a10.992,10.992,0,0,1,10.745-10.207" transform="translate(-79.266 -13.689)" fill="#cfcfcf"/>
          <path id="Trazado_179804" data-name="Trazado 179804" d="M210.178,233.922a7.438,7.438,0,0,1-7.463-8.034L213.825,46.381a8.636,8.636,0,0,1,8.458-8.033h90.271a7.438,7.438,0,0,1,7.463,8.033L308.906,225.888a8.637,8.637,0,0,1-8.458,8.034Z" transform="translate(-80.949 -15.101)" fill="#fff"/>
          <g id="Grupo_112477" data-name="Grupo 112477" transform="translate(121.325 27.268)" opacity="0.1">
            <g id="Grupo_112476" data-name="Grupo 112476">
              <g id="Grupo_112475" data-name="Grupo 112475" clip-path="url(#clip-path-3)">
                <path id="Trazado_179805" data-name="Trazado 179805" d="M326.109,69.494H260.447a.3.3,0,0,1-.22-.1L251.6,60.115H220.5a.3.3,0,0,1,0-.606h31.235a.3.3,0,0,1,.219.1l8.624,9.284h65.532a.3.3,0,0,1,0,.606" transform="translate(-209.261 -50.702)" fill="#007cff"/>
                <path id="Trazado_179806" data-name="Trazado 179806" d="M353.294,65.587H287.631a.3.3,0,0,1,0-.606h65.663a.3.3,0,0,1,0,.606" transform="translate(-236.071 -52.857)" fill="#007cff"/>
                <path id="Trazado_179807" data-name="Trazado 179807" d="M350.174,51.649H284.512a.3.3,0,0,1-.22-.1l-5.631-6.062a.306.306,0,0,1,.014-.429.3.3,0,0,1,.425.014l5.542,5.966h65.532a.3.3,0,0,1,0,.606" transform="translate(-232.577 -44.981)" fill="#007cff"/>
                <path id="Trazado_179808" data-name="Trazado 179808" d="M327.6,45.587H221.405a.3.3,0,0,1,0-.606H327.6a.3.3,0,0,1,0,.606" transform="translate(-209.624 -44.981)" fill="#007cff"/>
                <path id="Trazado_179809" data-name="Trazado 179809" d="M325.484,79.495H259.822a.3.3,0,0,1-.22-.1l-8.624-9.283H219.873a.3.3,0,0,1,0-.606h31.235a.3.3,0,0,1,.219.1l8.623,9.284h65.532a.3.3,0,0,1,0,.606" transform="translate(-209.012 -54.64)" fill="#007cff"/>
                <path id="Trazado_179810" data-name="Trazado 179810" d="M324.859,89.495H259.2a.3.3,0,0,1-.22-.1l-8.623-9.284H219.248a.3.3,0,0,1,0-.606h31.236a.3.3,0,0,1,.219.1l8.623,9.284h65.533a.3.3,0,0,1,0,.606" transform="translate(-208.762 -58.578)" fill="#007cff"/>
                <path id="Trazado_179811" data-name="Trazado 179811" d="M324.235,99.494H258.572a.3.3,0,0,1-.22-.1l-8.623-9.284H218.624a.3.3,0,0,1,0-.606H249.86a.3.3,0,0,1,.219.1l8.623,9.284h65.533a.3.3,0,0,1,0,.606" transform="translate(-208.513 -62.516)" fill="#007cff"/>
                <path id="Trazado_179812" data-name="Trazado 179812" d="M323.61,109.494H257.948a.3.3,0,0,1-.22-.1l-8.624-9.284H218a.3.3,0,0,1,0-.606h31.235a.3.3,0,0,1,.219.1l8.623,9.284H323.61a.3.3,0,0,1,0,.606" transform="translate(-208.263 -66.454)" fill="#007cff"/>
                <path id="Trazado_179813" data-name="Trazado 179813" d="M246.677,134.966H215.441a.3.3,0,0,1,0-.606h31.116l9.787-9.3a.3.3,0,0,1,.206-.082h65.663a.3.3,0,0,1,0,.606H256.67l-9.787,9.3a.3.3,0,0,1-.205.082" transform="translate(-207.242 -76.484)" fill="#007cff"/>
                <path id="Trazado_179814" data-name="Trazado 179814" d="M247.927,121.059H216.691a.3.3,0,0,1,0-.606h31.235a.3.3,0,0,1,0,.606" transform="translate(-207.741 -74.701)" fill="#007cff"/>
                <path id="Trazado_179815" data-name="Trazado 179815" d="M247.3,123.183H216.065a.3.3,0,0,1,0-.606h30.954l.713-11.518H216.816a.3.3,0,0,1,0-.606h31.235a.3.3,0,0,1,.219.1.3.3,0,0,1,.081.226L247.6,122.9a.3.3,0,0,1-.3.284" transform="translate(-207.491 -70.763)" fill="#007cff"/>
                <path id="Trazado_179816" data-name="Trazado 179816" d="M279.23,164.966H213.568a.3.3,0,0,1,0-.606h65.543l9.787-9.3a.3.3,0,0,1,.205-.082h31.235a.3.3,0,0,1,0,.606H289.223l-9.787,9.3a.3.3,0,0,1-.206.082" transform="translate(-206.494 -88.298)" fill="#007cff"/>
                <path id="Trazado_179817" data-name="Trazado 179817" d="M285.861,161.059H214.192a.3.3,0,0,1,0-.606h71.669a.3.3,0,0,1,0,.606" transform="translate(-206.743 -90.453)" fill="#007cff"/>
                <path id="Trazado_179818" data-name="Trazado 179818" d="M253.224,147.121H214.817a.3.3,0,0,1,0-.606h38.288l6.295-5.98a.3.3,0,0,1,.206-.082h61.778a.3.3,0,0,1,0,.606H259.725l-6.295,5.98a.3.3,0,0,1-.206.082" transform="translate(-206.993 -82.577)" fill="#007cff"/>
                <path id="Trazado_179819" data-name="Trazado 179819" d="M278.605,174.966H212.943a.3.3,0,0,1,0-.606h65.543l9.787-9.3a.3.3,0,0,1,.205-.082h31.236a.3.3,0,0,1,0,.606H288.6l-9.787,9.3a.3.3,0,0,1-.206.082" transform="translate(-206.244 -92.236)" fill="#007cff"/>
                <path id="Trazado_179820" data-name="Trazado 179820" d="M277.981,184.966H212.318a.3.3,0,0,1,0-.606h65.544l9.787-9.3a.3.3,0,0,1,.206-.082H319.09a.3.3,0,0,1,0,.606H287.974l-9.787,9.3a.3.3,0,0,1-.206.082" transform="translate(-205.995 -96.174)" fill="#007cff"/>
                <path id="Trazado_179821" data-name="Trazado 179821" d="M277.356,194.967H211.694a.3.3,0,0,1,0-.606h65.543l9.787-9.3a.3.3,0,0,1,.206-.082h31.235a.3.3,0,0,1,0,.606H287.349l-9.787,9.3a.3.3,0,0,1-.206.082" transform="translate(-205.746 -100.111)" fill="#007cff"/>
                <path id="Trazado_179822" data-name="Trazado 179822" d="M276.731,204.966H211.069a.3.3,0,0,1,0-.606h65.543l9.787-9.3a.3.3,0,0,1,.206-.082h31.235a.3.3,0,0,1,0,.606H286.724l-9.787,9.3a.3.3,0,0,1-.206.082" transform="translate(-205.496 -104.049)" fill="#007cff"/>
                <path id="Trazado_179823" data-name="Trazado 179823" d="M316.055,230.438H284.819a.3.3,0,0,1-.219-.1l-8.624-9.283H210.444a.3.3,0,0,1,0-.606h65.663a.3.3,0,0,1,.219.1l8.623,9.284h31.105a.3.3,0,0,1,0,.606" transform="translate(-205.246 -114.08)" fill="#007cff"/>
                <path id="Trazado_179824" data-name="Trazado 179824" d="M366.755,216.531H335.519a.3.3,0,0,1,0-.606h31.235a.3.3,0,0,1,0,.606" transform="translate(-255.196 -112.297)" fill="#007cff"/>
                <path id="Trazado_179825" data-name="Trazado 179825" d="M366.13,218.655H334.894a.3.3,0,0,1-.219-.1.3.3,0,0,1-.081-.226l.75-12.124a.3.3,0,0,1,.3-.284H366.88a.3.3,0,0,1,0,.606H335.927l-.713,11.518H366.13a.3.3,0,0,1,0,.606" transform="translate(-254.946 -108.359)" fill="#007cff"/>
                <path id="Trazado_179826" data-name="Trazado 179826" d="M307.9,360.956H276.665a.3.3,0,0,1-.219-.1l-8.624-9.283H202.29a.3.3,0,0,1,0-.606h65.662a.3.3,0,0,1,.219.1l8.624,9.284H307.9a.3.3,0,0,1,0,.606" transform="translate(-201.99 -165.477)" fill="#007cff"/>
                <path id="Trazado_179827" data-name="Trazado 179827" d="M268.578,335.484H202.916a.3.3,0,0,1,0-.606h65.543l9.787-9.3a.3.3,0,0,1,.205-.083h31.236a.3.3,0,0,1,0,.606H278.571l-9.787,9.3a.3.3,0,0,1-.206.082" transform="translate(-202.24 -155.446)" fill="#007cff"/>
                <path id="Trazado_179828" data-name="Trazado 179828" d="M358.66,346.105H327.424a.3.3,0,0,1,0-.606H358.66a.3.3,0,0,1,0,.606" transform="translate(-251.963 -163.322)" fill="#007cff"/>
                <path id="Trazado_179829" data-name="Trazado 179829" d="M358.035,348.229H326.8a.3.3,0,0,1-.219-.1.3.3,0,0,1-.081-.226l.75-12.124a.3.3,0,0,1,.3-.284h31.236a.3.3,0,0,1,0,.606H327.832l-.713,11.518h30.916a.3.3,0,0,1,0,.606" transform="translate(-251.713 -159.384)" fill="#007cff"/>
                <path id="Trazado_179830" data-name="Trazado 179830" d="M236.025,305.484H204.789a.3.3,0,0,1,0-.606h31.116l9.787-9.3a.3.3,0,0,1,.206-.082h65.662a.3.3,0,0,1,0,.606H246.018l-9.787,9.3a.3.3,0,0,1-.206.082" transform="translate(-202.988 -143.632)" fill="#007cff"/>
                <path id="Trazado_179831" data-name="Trazado 179831" d="M334.275,306.105H262.606a.3.3,0,0,1,0-.606h71.669a.3.3,0,0,1,0,.606" transform="translate(-226.077 -147.57)" fill="#007cff"/>
                <path id="Trazado_179832" data-name="Trazado 179832" d="M265.659,322.167H203.882a.3.3,0,0,1,0-.606H265.54l6.295-5.98a.3.3,0,0,1,.206-.082h38.407a.3.3,0,0,1,0,.606H272.16l-6.295,5.98a.3.3,0,0,1-.206.083" transform="translate(-202.626 -151.508)" fill="#007cff"/>
                <path id="Trazado_179833" data-name="Trazado 179833" d="M236.649,295.484H205.413a.3.3,0,0,1,0-.606H236.53l9.787-9.3a.3.3,0,0,1,.206-.082h65.662a.3.3,0,0,1,0,.606H246.642l-9.787,9.3a.3.3,0,0,1-.206.082" transform="translate(-203.237 -139.694)" fill="#007cff"/>
                <path id="Trazado_179834" data-name="Trazado 179834" d="M237.274,285.484H206.038a.3.3,0,0,1,0-.606h31.117l9.787-9.3a.3.3,0,0,1,.205-.082H312.81a.3.3,0,0,1,0,.606H247.267l-9.787,9.3a.3.3,0,0,1-.206.082" transform="translate(-203.487 -135.757)" fill="#007cff"/>
                <path id="Trazado_179835" data-name="Trazado 179835" d="M237.9,275.484H206.663a.3.3,0,0,1,0-.606H237.78l9.787-9.3a.3.3,0,0,1,.205-.082h65.663a.3.3,0,0,1,0,.606H247.892l-9.787,9.3a.3.3,0,0,1-.206.082" transform="translate(-203.736 -131.819)" fill="#007cff"/>
                <path id="Trazado_179836" data-name="Trazado 179836" d="M238.523,265.484H207.287a.3.3,0,0,1,0-.606H238.4l9.787-9.3a.3.3,0,0,1,.205-.082h65.663a.3.3,0,0,1,0,.606H248.516l-9.787,9.3a.3.3,0,0,1-.206.082" transform="translate(-203.986 -127.881)" fill="#007cff"/>
                <path id="Trazado_179837" data-name="Trazado 179837" d="M315.457,240.012H249.794a.3.3,0,0,1-.219-.1l-8.623-9.283H209.846a.3.3,0,0,1,0-.606h31.235a.3.3,0,0,1,.219.1l8.624,9.283h65.532a.3.3,0,0,1,0,.606" transform="translate(-205.008 -117.85)" fill="#007cff"/>
                <path id="Trazado_179838" data-name="Trazado 179838" d="M239.832,250.633H208.6a.3.3,0,0,1,0-.606h31.236a.3.3,0,0,1,0,.606" transform="translate(-204.508 -125.726)" fill="#007cff"/>
                <path id="Trazado_179839" data-name="Trazado 179839" d="M239.208,252.757H207.972a.3.3,0,0,1,0-.606h30.953l.713-11.518H208.722a.3.3,0,0,1,0-.606h31.235a.3.3,0,0,1,.219.1.3.3,0,0,1,.081.226l-.75,12.124a.3.3,0,0,1-.3.284" transform="translate(-204.259 -121.788)" fill="#007cff"/>
              </g>
            </g>
          </g>
          <path id="Trazado_179840" data-name="Trazado 179840" d="M304.141,260.787h-1.993a.362.362,0,0,1,0-.724h1.993a2.557,2.557,0,0,0,.759-.116.362.362,0,0,1,.211.692,3.262,3.262,0,0,1-.969.148m-4.863,0h-2.87a.362.362,0,0,1,0-.724h2.87a.362.362,0,0,1,0,.724m-5.741,0h-2.87a.362.362,0,0,1,0-.724h2.87a.362.362,0,0,1,0,.724m-5.742,0h-2.869a.362.362,0,0,1,0-.724H287.8a.362.362,0,0,1,0,.724m-5.74,0h-2.871a.362.362,0,0,1,0-.724h2.871a.362.362,0,0,1,0,.724m-5.742,0h-2.87a.362.362,0,0,1,0-.724h2.87a.362.362,0,0,1,0,.724m-5.74,0H267.7a.362.362,0,0,1,0-.724h2.871a.362.362,0,0,1,0,.724m-5.742,0h-2.871a.362.362,0,0,1,0-.724h2.871a.362.362,0,0,1,0,.724m-5.74,0H256.22a.362.362,0,0,1,0-.724h2.871a.362.362,0,0,1,0,.724m-5.742,0h-2.871a.362.362,0,0,1,0-.724h2.871a.362.362,0,0,1,0,.724m-5.74,0h-2.87a.362.362,0,0,1,0-.724h2.87a.362.362,0,0,1,0,.724m-5.741,0H239a.362.362,0,0,1,0-.724h2.87a.362.362,0,0,1,0,.724m-5.521-.815a.357.357,0,0,1-.258-.111,3.065,3.065,0,0,1-.841-2.131c0-.067,0-.135.005-.2l.04-.64a.359.359,0,1,1,.717.044l-.039.639c0,.053,0,.107,0,.16a2.342,2.342,0,0,0,.639,1.628.365.365,0,0,1-.008.512.358.358,0,0,1-.249.1m70.658-1.251a.354.354,0,0,1-.121-.021.362.362,0,0,1-.217-.463,2.544,2.544,0,0,0,.145-.712l.127-2.062a.369.369,0,0,1,.381-.339.36.36,0,0,1,.335.384l-.127,2.062a3.294,3.294,0,0,1-.186.91.359.359,0,0,1-.338.241m-71.174-4.342h-.023a.361.361,0,0,1-.336-.384l.178-2.891a.365.365,0,0,1,.381-.339.361.361,0,0,1,.336.384l-.179,2.892a.361.361,0,0,1-.358.339m71.646-1.423h-.023a.36.36,0,0,1-.335-.384l.179-2.892a.359.359,0,1,1,.717.046l-.18,2.891a.36.36,0,0,1-.358.34m-71.288-4.36h-.023a.361.361,0,0,1-.336-.384l.179-2.892a.366.366,0,0,1,.381-.339.361.361,0,0,1,.336.384l-.178,2.891a.362.362,0,0,1-.358.34m71.646-1.423h-.022a.361.361,0,0,1-.336-.384l.179-2.891a.359.359,0,1,1,.717.045l-.179,2.892a.361.361,0,0,1-.359.339m-71.288-4.36h-.023a.361.361,0,0,1-.336-.384l.179-2.891a.367.367,0,0,1,.381-.339.361.361,0,0,1,.336.384l-.179,2.892a.361.361,0,0,1-.357.34m71.646-1.423h-.023a.361.361,0,0,1-.336-.384l.179-2.892a.359.359,0,1,1,.717.045l-.178,2.891a.361.361,0,0,1-.358.339M236.9,237.031h-.023a.361.361,0,0,1-.336-.384l.179-2.892a.359.359,0,1,1,.717.045l-.179,2.891a.361.361,0,0,1-.358.34m71.647-1.423h-.023a.362.362,0,0,1-.336-.384l.18-2.891a.359.359,0,1,1,.716.045l-.179,2.892a.361.361,0,0,1-.357.339m-71.288-4.36h-.023a.362.362,0,0,1-.336-.384l.179-2.891a.359.359,0,1,1,.717.045l-.179,2.892a.362.362,0,0,1-.358.339m71.646-1.423h-.023a.361.361,0,0,1-.335-.384l.178-2.892a.368.368,0,0,1,.381-.339.362.362,0,0,1,.336.384l-.18,2.892a.36.36,0,0,1-.358.339m-71.288-4.36H237.6a.361.361,0,0,1-.336-.384l.179-2.892a.359.359,0,1,1,.716.045l-.179,2.891a.36.36,0,0,1-.357.339m71.646-1.423h-.022a.361.361,0,0,1-.336-.384l.179-2.891a.369.369,0,0,1,.381-.339.361.361,0,0,1,.336.384l-.178,2.892a.362.362,0,0,1-.359.339m-71.288-4.36h-.023a.361.361,0,0,1-.336-.384l.179-2.892a.359.359,0,1,1,.717.045l-.179,2.892a.361.361,0,0,1-.358.339m71.589-1.423a.361.361,0,0,1-.355-.313,2.289,2.289,0,0,0-1.479-1.854.363.363,0,0,1-.215-.463.357.357,0,0,1,.458-.218,3.012,3.012,0,0,1,1.947,2.436.362.362,0,0,1-.306.408.354.354,0,0,1-.05,0M305,215.95h-2.87a.362.362,0,0,1,0-.724H305a.362.362,0,0,1,0,.724m-5.74,0h-2.871a.362.362,0,0,1,0-.724h2.871a.362.362,0,0,1,0,.724m-5.742,0h-2.871a.362.362,0,0,1,0-.724h2.871a.362.362,0,0,1,0,.724m-5.74,0h-2.871a.362.362,0,0,1,0-.724h2.871a.362.362,0,0,1,0,.724m-5.742,0h-2.871a.362.362,0,0,1,0-.724h2.871a.362.362,0,0,1,0,.724m-5.742,0h-2.87a.362.362,0,0,1,0-.724h2.87a.362.362,0,0,1,0,.724m-5.74-.021h-.029a6.577,6.577,0,0,1-2.87-.907.365.365,0,0,1-.127-.5.357.357,0,0,1,.492-.128,5.862,5.862,0,0,0,2.561.809.362.362,0,0,1-.028.723M238.337,213.9h-.023a.361.361,0,0,1-.336-.384l.156-2.517a3.446,3.446,0,0,1,.052-.417.359.359,0,1,1,.705.135,2.55,2.55,0,0,0-.04.327l-.156,2.517a.361.361,0,0,1-.358.339m27.463-.82a.358.358,0,0,1-.3-.167,6.642,6.642,0,0,1-.936-2.476,2.287,2.287,0,0,0-1.531-1.81.362.362,0,0,1-.229-.457.358.358,0,0,1,.453-.231,3.011,3.011,0,0,1,2.015,2.378,5.921,5.921,0,0,0,.834,2.207.365.365,0,0,1-.111.5.355.355,0,0,1-.192.056M240.236,208.8a.359.359,0,0,1-.323-.206.364.364,0,0,1,.168-.483,3.275,3.275,0,0,1,1.44-.335h1.541a.362.362,0,0,1,0,.724h-1.541a2.571,2.571,0,0,0-1.129.263.357.357,0,0,1-.156.036m20.048-.3h-2.87a.362.362,0,0,1,0-.724h2.87a.362.362,0,0,1,0,.724m-5.742,0h-2.87a.362.362,0,0,1,0-.724h2.87a.362.362,0,0,1,0,.724m-5.74,0h-2.87a.362.362,0,0,1,0-.724h2.87a.362.362,0,0,1,0,.724" transform="translate(-93.947 -81.822)" fill="#afafaf"/>
          <path id="Trazado_179841" data-name="Trazado 179841" d="M300.736,251.711a13.382,13.382,0,0,1-13.122,12.464,11.526,11.526,0,0,1-11.578-12.464,13.382,13.382,0,0,1,13.121-12.464,11.526,11.526,0,0,1,11.579,12.464" transform="translate(-110.226 -94.213)" fill="#ffbd65"/>
          <path id="Trazado_179842" data-name="Trazado 179842" d="M294,245.239h2.962a1.042,1.042,0,0,1,1.046,1.126l-.175,2.829a1.125,1.125,0,0,1-.017.14l-1.307,7.03a1.209,1.209,0,0,1-1.168.986H294.1a1.037,1.037,0,0,1-1.046-.989l-.416-7.028a1.028,1.028,0,0,1,0-.136l.175-2.83A1.209,1.209,0,0,1,294,245.239m-.31,13.657h1.9a1.04,1.04,0,0,1,1.046,1.126l-.089,1.439a1.208,1.208,0,0,1-1.185,1.126h-1.9a1.041,1.041,0,0,1-1.046-1.126l.089-1.439a1.208,1.208,0,0,1,1.185-1.126" transform="translate(-116.778 -96.572)"/>
          <path id="Trazado_179843" data-name="Trazado 179843" d="M307.745,110.907l-3.625-2.655,6.691-9.31a10.228,10.228,0,0,0,1.752-7.622,8.739,8.739,0,0,0-3.657-5.745c-4.265-2.914-10.345-1.588-13.552,2.959l-2.475,3.508-3.648-2.622,2.475-3.508c4.606-6.529,13.449-8.36,19.711-4.08a13.224,13.224,0,0,1,5.554,8.686,14.817,14.817,0,0,1-2.523,11.063Z" transform="translate(-115.505 -31.314)" fill="#ffbd65"/>
          <path id="Trazado_179844" data-name="Trazado 179844" d="M303.23,153.465H275.86a5.193,5.193,0,0,1-5.2-5.6l1.057-17.077a6.031,6.031,0,0,1,5.9-5.6h27.37a5.193,5.193,0,0,1,5.2,5.6l-1.057,17.077a6.03,6.03,0,0,1-5.895,5.6" transform="translate(-108.084 -49.298)" fill="#263238"/>
          <path id="Trazado_179845" data-name="Trazado 179845" d="M305.195,140.027a3.5,3.5,0,0,0-3.518-3.787,4.065,4.065,0,0,0-3.986,3.787,3.524,3.524,0,0,0,1.838,3.371l-1.3,7.719h5.064l-.349-7.719a4.09,4.09,0,0,0,2.255-3.371" transform="translate(-118.881 -53.65)" fill="#fff"/>
          <path id="Trazado_179846" data-name="Trazado 179846" d="M149.813,364.258l-5.718-.09-2.982-13.362,5.718.09Z" transform="translate(-56.354 -138.143)" fill="#ffb570"/>
          <path id="Trazado_179847" data-name="Trazado 179847" d="M139.132,370.158l6.236.1a.528.528,0,0,1,.5.4l1.279,5.137a.8.8,0,0,1-.791,1.011c-2.251-.074-5.506-.258-8.333-.3-3.306-.052-2.107.365-5.984.3-2.344-.037-3.065-2.438-2.091-2.639,4.438-.915,4.034-1.243,7.823-3.583a2.539,2.539,0,0,1,1.363-.427" transform="translate(-51.726 -145.764)" fill="#263238"/>
          <g id="Grupo_112480" data-name="Grupo 112480" transform="translate(84.76 212.666)" opacity="0.2">
            <g id="Grupo_112479" data-name="Grupo 112479">
              <g id="Grupo_112478" data-name="Grupo 112478" clip-path="url(#clip-path-4)">
                <path id="Trazado_179848" data-name="Trazado 179848" d="M141.115,350.812l1.536,6.887,5.721.09-1.536-6.887Z" transform="translate(-141.115 -350.812)"/>
              </g>
            </g>
          </g>
          <path id="Trazado_179849" data-name="Trazado 179849" d="M134.064,250.437c14.5-10.393,34.9-27.884,32.278-42.469l-20.119.242s-26.966,26.451-26.952,41.639c.016,18.019,12.1,47.452,12.1,47.452l9.185.132s-3.063-26.968-6.492-47" transform="translate(-47.631 -81.896)" fill="#263238"/>
          <g id="Grupo_112483" data-name="Grupo 112483" transform="translate(99.544 137.675)" opacity="0.2">
            <g id="Grupo_112482" data-name="Grupo 112482">
              <g id="Grupo_112481" data-name="Grupo 112481" clip-path="url(#clip-path-5)">
                <path id="Trazado_179850" data-name="Trazado 179850" d="M182.865,227.107c-3.343,7.1-10,14.266-17.138,20.528,2.573-10.085,7.435-19.578,17.138-20.528" transform="translate(-165.728 -227.107)"/>
              </g>
            </g>
          </g>
          <path id="Trazado_179851" data-name="Trazado 179851" d="M135.988,351.934l1.836,3.974,10.156.182-.608-3.755Z" transform="translate(-54.307 -138.588)" fill="#263238"/>
          <path id="Trazado_179852" data-name="Trazado 179852" d="M251.452,356.717l-4.917,2.932-8.519-10.4,4.917-2.932Z" transform="translate(-95.053 -136.375)" fill="#ffb570"/>
          <path id="Trazado_179853" data-name="Trazado 179853" d="M245.566,364.1l5.358-3.195a.437.437,0,0,1,.583.11l3.12,4.1a.943.943,0,0,1-.275,1.356c-1.949,1.117-2.645,1.331-5.075,2.78-2.84,1.693-4.454,3.6-8.323,3.537-2.339-.037-2.714-2.427-1.712-2.639a6.912,6.912,0,0,0,5.331-4.932,2.025,2.025,0,0,1,.994-1.114" transform="translate(-95.334 -142.093)" fill="#263238"/>
          <g id="Grupo_112486" data-name="Grupo 112486" transform="translate(142.966 209.94)" opacity="0.2">
            <g id="Grupo_112485" data-name="Grupo 112485">
              <g id="Grupo_112484" data-name="Grupo 112484" clip-path="url(#clip-path-6)">
                <path id="Trazado_179854" data-name="Trazado 179854" d="M238.021,349.248l4.39,5.363,4.919-2.933-4.39-5.363Z" transform="translate(-238.021 -346.315)"/>
              </g>
            </g>
          </g>
          <path id="Trazado_179855" data-name="Trazado 179855" d="M199.69,259.009c3.126-29.4,8.261-36.995,3.737-51.579L180.561,208s2.154,34.805,4.7,52.314c1.936,13.31,29.8,37.464,29.8,37.464l7.917-4.736s-11.345-19.8-23.29-34.031" transform="translate(-72.108 -81.684)" fill="#263238"/>
          <path id="Trazado_179856" data-name="Trazado 179856" d="M234.323,351.019l2.57,3.072,8.893-5.281-1.445-3.51Z" transform="translate(-93.578 -135.976)" fill="#263238"/>
          <path id="Trazado_179857" data-name="Trazado 179857" d="M155.322,129.18c-.658,2.244-1.376,4.35-2.152,6.5-.783,2.131-1.6,4.254-2.519,6.358s-1.883,4.2-3.02,6.292c-.571,1.044-1.159,2.1-1.854,3.142a23.3,23.3,0,0,1-2.487,3.2l.329-.415a7.659,7.659,0,0,1-1.521,1.563,6.541,6.541,0,0,1-.594.4,6.152,6.152,0,0,1-.726.356,5.271,5.271,0,0,1-1.766.373,5.388,5.388,0,0,1-3-.818,7.109,7.109,0,0,1-1.53-1.3,11.029,11.029,0,0,1-1.583-2.35,20.8,20.8,0,0,1-.976-2.176,34.252,34.252,0,0,1-1.281-4.233,37.236,37.236,0,0,1-.759-4.261,2.171,2.171,0,0,1,4.07-1.291l.046.088c.6,1.138,1.214,2.35,1.837,3.488s1.252,2.268,1.914,3.282a16.721,16.721,0,0,0,.989,1.4,4.9,4.9,0,0,0,.876.892c.1.065.16.061.053-.032a1.709,1.709,0,0,0-1.066-.3,2.313,2.313,0,0,0-.785.141,1.819,1.819,0,0,0-.275.124,1.739,1.739,0,0,0-.179.1c-.181.122-.184.128-.161.056l0-.009.324-.406a16.457,16.457,0,0,0,1.4-2.157c.461-.838.923-1.737,1.356-2.662s.854-1.882,1.256-2.855.81-1.952,1.194-2.947c.766-1.991,1.515-4.009,2.231-6.045s1.427-4.11,2.1-6.092l.017-.053a4.316,4.316,0,0,1,5.489-2.725,4.382,4.382,0,0,1,2.753,5.372" transform="translate(-51.864 -48.662)" fill="#263238"/>
          <path id="Trazado_179858" data-name="Trazado 179858" d="M128.45,153.646l-4.948-4.117,6.2-3.108s4.147,3.515,2.1,6.166Z" transform="translate(-49.321 -57.659)" fill="#ffb570"/>
          <path id="Trazado_179859" data-name="Trazado 179859" d="M122.539,142.992l2.356-1.659a1.8,1.8,0,0,1,2.556.509l1.56,2.445-6.2,3.108-.906-2.208a1.836,1.836,0,0,1,.637-2.2" transform="translate(-48.627 -55.526)" fill="#ffb570"/>
          <path id="Trazado_179860" data-name="Trazado 179860" d="M166.516,115.835a65.758,65.758,0,0,1,14.089-.783,11.817,11.817,0,0,1,10.953,9.4c1.885,8.794,4.356,24.039,3.359,46.894-7.972,2.9-31.28,3.983-33.548.538.578-4.765.262-18.075-.235-25.1-.449-6.343-2.073-13.4-2.886-19.64a10.144,10.144,0,0,1,8.269-11.308" transform="translate(-63.163 -45.275)" fill="#263238"/>
        </g>
      </g>
      <g id="Grupo_112490" data-name="Grupo 112490" transform="translate(63.49 69.698)">
        <g id="Grupo_112489" data-name="Grupo 112489" clip-path="url(#clip-path-7)">
          <path id="Trazado_179861" data-name="Trazado 179861" d="M171.761,211.067c-6.459,0-13.241-.531-14.741-2.638a1.174,1.174,0,0,1,.264-1.628,1.149,1.149,0,0,1,1.614.267c.55.766,5.394,1.886,16.069,1.625,8.783-.215,17.346-1.256,21.308-2.59a1.153,1.153,0,0,1,1.463.738,1.17,1.17,0,0,1-.731,1.476c-4.8,1.618-14.507,2.526-21.992,2.709-1.056.025-2.151.041-3.254.041" transform="translate(-157.619 -150.835)" fill="#fff"/>
          <path id="Trazado_179862" data-name="Trazado 179862" d="M157,197.625a1.15,1.15,0,0,1,1.613.267c.58.807,5.668,1.873,16.139,1.622,8.748-.208,17.38-1.231,21.408-2.587a1.153,1.153,0,0,1,1.463.738,1.17,1.17,0,0,1-.731,1.476c-4.729,1.593-14.441,2.522-22.077,2.71-1.063.026-2.162.042-3.265.042-6.566,0-13.327-.549-14.814-2.638a1.174,1.174,0,0,1,.264-1.629" transform="translate(-157.506 -147.222)" fill="#fff"/>
          <path id="Trazado_179863" data-name="Trazado 179863" d="M156.72,188.45a1.151,1.151,0,0,1,1.613.267c.612.847,5.942,1.859,16.208,1.619,8.712-.2,17.413-1.206,21.508-2.584a1.153,1.153,0,0,1,1.463.738,1.169,1.169,0,0,1-.731,1.476c-4.654,1.567-14.374,2.518-22.161,2.711-1.072.026-2.173.042-3.277.042-6.672,0-13.412-.568-14.888-2.64a1.173,1.173,0,0,1,.264-1.628" transform="translate(-157.393 -143.609)" fill="#fff"/>
          <path id="Trazado_179864" data-name="Trazado 179864" d="M156.438,179.274a1.153,1.153,0,0,1,1.614.267c.643.887,6.216,1.846,16.277,1.616,8.677-.2,17.448-1.18,21.608-2.581a1.152,1.152,0,0,1,1.463.738,1.17,1.17,0,0,1-.73,1.476c-4.579,1.542-14.308,2.514-22.246,2.712-1.08.027-2.185.042-3.288.042-6.779,0-13.5-.586-14.962-2.641a1.173,1.173,0,0,1,.264-1.628" transform="translate(-157.281 -139.995)" fill="#fff"/>
          <path id="Trazado_179865" data-name="Trazado 179865" d="M156.155,170.1a1.154,1.154,0,0,1,1.614.267c.675.927,6.49,1.833,16.347,1.613,8.641-.189,17.481-1.155,21.708-2.578a1.153,1.153,0,0,1,1.463.738,1.17,1.17,0,0,1-.731,1.476c-4.5,1.516-14.241,2.51-22.33,2.712-1.087.027-2.2.043-3.3.043-6.885,0-13.584-.6-15.035-2.642a1.173,1.173,0,0,1,.264-1.628" transform="translate(-157.168 -136.382)" fill="#fff"/>
          <path id="Trazado_179866" data-name="Trazado 179866" d="M155.873,160.924a1.155,1.155,0,0,1,1.614.267c.706.968,6.764,1.819,16.416,1.61,8.605-.182,17.514-1.129,21.808-2.575a1.153,1.153,0,0,1,1.463.738,1.17,1.17,0,0,1-.731,1.476c-4.428,1.491-14.175,2.505-22.414,2.713-1.095.027-2.207.043-3.312.043-6.992,0-13.67-.623-15.109-2.644a1.173,1.173,0,0,1,.264-1.628" transform="translate(-157.055 -132.769)" fill="#fff"/>
          <path id="Trazado_179867" data-name="Trazado 179867" d="M155.591,151.748a1.155,1.155,0,0,1,1.614.267c.738,1.007,7.038,1.805,16.485,1.608,8.571-.176,17.548-1.1,21.909-2.573a1.153,1.153,0,0,1,1.463.738,1.17,1.17,0,0,1-.731,1.476c-4.353,1.466-14.109,2.5-22.5,2.714-1.1.028-2.218.043-3.323.043-7.1,0-13.756-.641-15.182-2.644a1.174,1.174,0,0,1,.264-1.629" transform="translate(-156.943 -129.156)" fill="#fff"/>
          <path id="Trazado_179868" data-name="Trazado 179868" d="M155.308,142.573a1.156,1.156,0,0,1,1.614.267c.77,1.048,7.312,1.792,16.555,1.6,8.535-.17,17.582-1.079,22.008-2.57a1.153,1.153,0,0,1,1.463.738,1.169,1.169,0,0,1-.731,1.476c-4.278,1.44-14.042,2.5-22.583,2.715-1.111.028-2.228.044-3.335.044-7.206,0-13.842-.66-15.256-2.645a1.174,1.174,0,0,1,.264-1.629" transform="translate(-156.83 -125.543)" fill="#fff"/>
          <path id="Trazado_179869" data-name="Trazado 179869" d="M155.026,133.4a1.157,1.157,0,0,1,1.614.267c.8,1.088,7.586,1.779,16.625,1.6,8.5-.164,17.616-1.054,22.109-2.567a1.153,1.153,0,0,1,1.463.738,1.17,1.17,0,0,1-.731,1.476c-4.2,1.415-13.975,2.493-22.667,2.716-1.118.028-2.24.044-3.347.044-7.312,0-13.928-.678-15.329-2.646a1.174,1.174,0,0,1,.264-1.629" transform="translate(-156.717 -121.93)" fill="#fff"/>
          <path id="Trazado_179870" data-name="Trazado 179870" d="M154.744,124.222a1.157,1.157,0,0,1,1.614.267c.833,1.128,7.86,1.765,16.694,1.6,8.464-.158,17.65-1.029,22.209-2.564a1.152,1.152,0,0,1,1.463.738,1.17,1.17,0,0,1-.73,1.476c-4.128,1.389-13.909,2.489-22.752,2.716-1.126.029-2.251.044-3.359.044-7.419,0-14.013-.7-15.4-2.647a1.174,1.174,0,0,1,.264-1.629" transform="translate(-156.604 -118.316)" fill="#fff"/>
          <path id="Trazado_179871" data-name="Trazado 179871" d="M154.461,115.047a1.157,1.157,0,0,1,1.614.267c.865,1.168,8.134,1.752,16.763,1.6,8.428-.151,17.683-1,22.309-2.561a1.153,1.153,0,0,1,1.463.738,1.17,1.17,0,0,1-.731,1.476c-4.052,1.365-13.842,2.485-22.836,2.717-1.134.029-2.262.045-3.37.045-7.526,0-14.1-.715-15.476-2.649a1.173,1.173,0,0,1,.264-1.628" transform="translate(-156.491 -114.703)" fill="#fff"/>
          <path id="Trazado_179872" data-name="Trazado 179872" d="M169.464,110.151c-7.632,0-14.185-.733-15.55-2.65a1.174,1.174,0,0,1,.265-1.629,1.149,1.149,0,0,1,1.613.267c1.84,2.373,29.841,2.2,39.242-.965a1.154,1.154,0,0,1,1.463.738,1.17,1.17,0,0,1-.731,1.477c-4.473,1.506-16.312,2.762-26.3,2.762" transform="translate(-156.378 -111.09)" fill="#fff"/>
        </g>
      </g>
      <g id="Grupo_112498" data-name="Grupo 112498" transform="translate(-31.51)">
        <g id="Grupo_112497" data-name="Grupo 112497" clip-path="url(#clip-path-2)">
          <path id="Trazado_179874" data-name="Trazado 179874" d="M182.162,97.027c.569,4.285,1.317,9.2,3.336,12.376-1.121,2.961-4.889,4.955-8.842,4.04-4.434-1.026-3.059-1.631-2.308-3.569,1.93-2.185,1-4.618.516-6.347Z" transform="translate(-69.304 -38.208)" fill="#ffb570"/>
          <g id="Grupo_112493" data-name="Grupo 112493" transform="translate(105.562 60.794)" opacity="0.2">
            <g id="Grupo_112492" data-name="Grupo 112492">
              <g id="Grupo_112491" data-name="Grupo 112491" clip-path="url(#clip-path-9)">
                <path id="Trazado_179875" data-name="Trazado 179875" d="M180.689,101.1c-.028-.273-.071-.545-.114-.81l-4.828,4.528a10.576,10.576,0,0,1,.64,3.66c2.4-1.622,4.593-4.78,4.3-7.378" transform="translate(-175.748 -100.285)"/>
              </g>
            </g>
          </g>
          <path id="Trazado_179876" data-name="Trazado 179876" d="M177.756,82.082c-.715,5.664-.848,9.019-3.887,11.726-4.571,4.071-11.366.943-12.344-4.839-.881-5.2.437-13.592,6.106-15.442a7.82,7.82,0,0,1,10.125,8.555" transform="translate(-64.406 -28.798)" fill="#ffb570"/>
          <path id="Trazado_179878" data-name="Trazado 179878" d="M176.832,73.162c3.949.409,7.676,1.181,9.109,6.02,1.278,4.314-.726,7.356-2.464,8.447a4.345,4.345,0,0,1-3.549.426Z" transform="translate(-70.619 -28.81)" fill="#ffb570"/>
          <path id="Trazado_179879" data-name="Trazado 179879" d="M176.832,73.162c3.949.409,7.676,1.181,9.109,6.02,1.278,4.314-.726,7.356-2.464,8.447a12.844,12.844,0,0,1-3.19-3.489l2.153-3.432c.275-2.259-2.278-6.276-5.607-7.547" transform="translate(-70.619 -28.81)" fill="#93989c"/>
          <path id="Trazado_179881" data-name="Trazado 179881" d="M190.166,90.046c.927-.538,2.525-.327,2.177.444.687.358,1.2,1.472-.78,1.559s-1.4-2-1.4-2" transform="translate(-75.912 -35.341)" fill="#263238"/>
          <path id="Trazado_179882" data-name="Trazado 179882" d="M190.542,89.065c1.417.189,2.852-1.634,3.232-2.322-1.68.541-3.24,1.188-3.232,2.322" transform="translate(-76.094 -34.158)" fill="#263238"/>
          <path id="Trazado_179883" data-name="Trazado 179883" d="M187.981,94.939a4.651,4.651,0,0,1-2.873,2.149c-1.6.388-2.355-1.072-1.872-2.566.435-1.344,1.792-3.166,3.381-2.889a2.148,2.148,0,0,1,1.363,3.306" transform="translate(-73.118 -36.073)" fill="#ffb570"/>
          <path id="Trazado_179887" data-name="Trazado 179887" d="M175.619,84.135a.271.271,0,0,0-.146-.446,2.694,2.694,0,0,0-2.407.592.271.271,0,0,0,.381.387,2.153,2.153,0,0,1,1.911-.448.272.272,0,0,0,.261-.085" transform="translate(-69.083 -32.929)" fill="#263238"/>
          <path id="Trazado_179888" data-name="Trazado 179888" d="M164.708,83.786a.267.267,0,0,0-.219-.132,2.119,2.119,0,0,1-1.721-.918.267.267,0,0,0-.369-.092.276.276,0,0,0-.093.374,2.656,2.656,0,0,0,2.161,1.183.272.272,0,0,0,.281-.262.275.275,0,0,0-.038-.153" transform="translate(-64.802 -32.529)" fill="#263238"/>
          <path id="Trazado_179889" data-name="Trazado 179889" d="M162.73,140.408h0a1.782,1.782,0,0,1,2.072-.829l12.466,3.82a1.81,1.81,0,0,1,1.192,2.254l-8.41,27.948a1.787,1.787,0,0,1-2.233,1.2L128.26,162.68a1.809,1.809,0,0,1-1.192-2.253l7.064-23.476a1.788,1.788,0,0,1,2.233-1.2l21.526,6.6a4.163,4.163,0,0,0,4.841-1.937" transform="translate(-50.714 -53.425)" fill="#ffbd65"/>
          <path id="Trazado_179890" data-name="Trazado 179890" d="M171.211,171.275s6.263-23.3,6.943-28.285c-4.482-1.044-33.85-8.31-40.645-11.614-3.027,10.411-6.62,27.347-6.62,27.347s33.466,11.929,40.322,12.552" transform="translate(-52.271 -51.734)" fill="#e7e7e7"/>
          <path id="Trazado_179891" data-name="Trazado 179891" d="M171.211,172s4.94-22.178,5.62-27.166c-4.482-1.044-33.85-8.31-40.645-11.614-3.027,10.411-5.3,26.228-5.3,26.228S164.355,171.379,171.211,172" transform="translate(-52.271 -52.461)" fill="#fff"/>
          <path id="Trazado_179892" data-name="Trazado 179892" d="M168.629,173.549s4.94-22.178,5.62-27.166c-4.482-1.044-33.85-8.309-40.645-11.614-3.027,10.411-5.3,26.228-5.3,26.228" transform="translate(-51.24 -53.071)" fill="#e7e7e7"/>
          <g id="Grupo_112496" data-name="Grupo 112496" transform="translate(75.356 83.092)" opacity="0.5">
            <g id="Grupo_112495" data-name="Grupo 112495">
              <g id="Grupo_112494" data-name="Grupo 112494" clip-path="url(#clip-path-10)">
                <path id="Trazado_179893" data-name="Trazado 179893" d="M155.382,141.617h0a1.4,1.4,0,0,1,1.812-.909l12.466,3.82a2.3,2.3,0,0,1,1.527,2.356l-2.735,26.965a1.432,1.432,0,0,1-1.9,1.306L127,163.031a2.3,2.3,0,0,1-1.527-2.356l2.254-22.227a1.432,1.432,0,0,1,1.9-1.306l21.526,6.6a3.284,3.284,0,0,0,4.235-2.123" transform="translate(-125.459 -137.068)" fill="#263238"/>
              </g>
            </g>
          </g>
          <path id="Trazado_179894" data-name="Trazado 179894" d="M203.2,119.044l.732.583.661.55c.436.364.85.746,1.266,1.123q1.241,1.139,2.414,2.333a58.3,58.3,0,0,1,4.43,5.058,46.412,46.412,0,0,1,6.849,11.909c.21.548.395,1.113.584,1.671l.258.854.131.439c.064.254.132.5.176.764a7.647,7.647,0,0,1-.1,3.224,8.336,8.336,0,0,1-1.2,2.609,12.4,12.4,0,0,1-3.156,3.07,22.347,22.347,0,0,1-3.209,1.8,37.683,37.683,0,0,1-6.37,2.221,46.954,46.954,0,0,1-6.447,1.217,2.178,2.178,0,0,1-1.06-4.177l.086-.035a66.553,66.553,0,0,0,10.616-5.182,15.769,15.769,0,0,0,2.07-1.565,4.859,4.859,0,0,0,1.186-1.423c.074-.171.066-.269.043-.269s-.056.081-.069.1-.016,0-.016,0l-.118-.308-.243-.641c-.181-.423-.351-.848-.548-1.267A43.524,43.524,0,0,0,206,134.159c-1.227-1.5-2.558-2.926-3.916-4.327q-1.024-1.046-2.1-2.034l-1.072-.97-.531-.469-.481-.41-.174-.148a4.391,4.391,0,0,1-.512-6.148,4.3,4.3,0,0,1,5.981-.608" transform="translate(-78.354 -46.51)" fill="#263238"/>
          <path id="Trazado_179895" data-name="Trazado 179895" d="M201.466,176.486l-5.733.7,2.726,6.426s5.115-1.271,4.886-4.123Z" transform="translate(-78.167 -69.498)" fill="#ffb570"/>
          <path id="Trazado_179896" data-name="Trazado 179896" d="M189.3,182.378l1.332,2.09a1.991,1.991,0,0,0,2.479.761l2.653-1.16-2.726-6.426-3.1,1.922a2.031,2.031,0,0,0-.636,2.814" transform="translate(-75.47 -69.953)" fill="#ffb570"/>
          <path id="Trazado_179897" data-name="Trazado 179897" d="M181.724,80.045c.688.583.22,1.714-.42,2.285-1.443-1.1-10.1-4.333-16.844-4.322-.608-.9.01-2.15.936-3.023,5,.5,13.054,2.286,16.328,5.06" transform="translate(-65.581 -29.528)" fill="#263238"/>
          <path id="Trazado_179898" data-name="Trazado 179898" d="M166.395,73.514c.674-1.528,5.31-5.05,13-2.743,6.255,1.877,2.934,7.886,2.934,7.886Z" transform="translate(-66.45 -27.569)" fill="#263238"/>
          <g id="Grupo_710384" data-name="Grupo 710384" transform="translate(98.637 53.751)">
            <path id="Trazado_242574" data-name="Trazado 242574" d="M208.877,118.655h0l.01.033a3.438,3.438,0,0,1-.077,1.457,2.1,2.1,0,0,1-.313.653,1.536,1.536,0,0,1-.949.614,1.255,1.255,0,0,1-.277.03c-.057,0-.113,0-.169-.009a1.641,1.641,0,0,1-.766-.312,2.376,2.376,0,0,1-.584-.619,2.994,2.994,0,0,1-.386-.843,2.253,2.253,0,0,1-.057-.244.177.177,0,0,1,0-.076,12.826,12.826,0,0,0,1.795-.172,7.27,7.27,0,0,0,1.765-.512h0" transform="translate(-203.337 -111.164)" fill="#021621"/>
            <path id="Trazado_242575" data-name="Trazado 242575" d="M215.359,91.643a.1.1,0,0,1,.068.031.079.079,0,0,1,.021.059c-.04.466-.091.886-.159,1.284a6.5,6.5,0,0,1-.356,1.322,3.49,3.49,0,0,1-.277.555,1.419,1.419,0,0,1-.173.23,1.666,1.666,0,0,1-.212.186,4.555,4.555,0,0,1-.474.3,4.38,4.38,0,0,0-.461.289,1.307,1.307,0,0,0-.183.176.894.894,0,0,0-.087.146.805.805,0,0,0-.035.13.883.883,0,0,0,0,.146.946.946,0,0,0,.051.183,1.211,1.211,0,0,0,.141.234,1.99,1.99,0,0,0,.285.282,2.624,2.624,0,0,0,.516.307c.061.024.124.045.187.063a.237.237,0,0,1-.063.465.213.213,0,0,1-.063-.01,1.86,1.86,0,0,1-.478-.227,2.319,2.319,0,0,1-.472-.4,1.5,1.5,0,0,1-.433-1.062.908.908,0,0,1,.167-.472,1.392,1.392,0,0,1,.394-.357,4.416,4.416,0,0,1,.415-.233,3.611,3.611,0,0,0,.5-.3,1.139,1.139,0,0,0,.2-.2,3.261,3.261,0,0,0,.374-.662,7.178,7.178,0,0,0,.454-1.8c.024-.182.046-.384.062-.585a.093.093,0,0,1,.09-.09" transform="translate(-211.904 -91.643)" fill="#cb9059"/>
            <path id="Trazado_242577" data-name="Trazado 242577" d="M.488,2.339a.4.4,0,0,1-.057,0C.269,2.3.139,2.156.064,1.915a1.875,1.875,0,0,1-.029-.854C.143.456.468,0,.791,0A.4.4,0,0,1,.848,0c.162.03.293.179.368.42a1.866,1.866,0,0,1,.029.854C1.136,1.883.81,2.339.488,2.339" transform="translate(7.968 2.671) rotate(172)" fill="#021621"/>
            <path id="Trazado_242624" data-name="Trazado 242624" d="M.488,2.339a.4.4,0,0,1-.057,0C.269,2.3.139,2.156.064,1.915a1.875,1.875,0,0,1-.029-.854C.143.456.468,0,.791,0A.4.4,0,0,1,.848,0c.162.03.293.179.368.42a1.866,1.866,0,0,1,.029.854C1.136,1.883.81,2.339.488,2.339" transform="translate(1.593 2.671) rotate(172)" fill="#021621"/>
          </g>
        </g>
      </g>
    </g>
  </g>
  <rect id="Rectángulo_38491" data-name="Rectángulo 38491" width="256.221" height="237.091" fill="none"/>
</svg>
