<svg xmlns="http://www.w3.org/2000/svg" xmlns:xlink="http://www.w3.org/1999/xlink" width="418" height="327" viewBox="0 0 418 327"><defs><filter id="a" x="0" y="0" width="418" height="327" filterUnits="userSpaceOnUse"><feOffset dy="3" input="SourceAlpha"/><feGaussianBlur stdDeviation="3" result="b"/><feFlood flood-opacity="0.161"/><feComposite operator="in" in2="b"/><feComposite in="SourceGraphic"/></filter></defs><g transform="translate(-801 -6569)"><g transform="translate(0 120)"><g transform="matrix(1, 0, 0, 1, 801, 6449)" filter="url(#a)"><rect width="400" height="309" rx="31" transform="translate(9 6)" fill="#e7defc"/></g><text transform="translate(883 6663)" fill="#12263f" font-size="20" font-family="Roboto-Black, Roboto" font-weight="800"><tspan x="0.496" y="21">La actividad del footprinting</tspan></text><g transform="translate(3.982 -105.354)"><path d="M-7110.277-5522.52s11.971-2.358,13.06-12.7-4.535-23.213-11.608-26.66-10.519-3.446-10.519-3.446l9.067-5.259s6.892-9.068,4.534-17.956a75.419,75.419,0,0,0-7.436-17.229s-10.339-23.758-23.4-21.944-19.95,7.617-22.126,16.685-10.7,21.4-10.7,21.4-3.447,13.6,5.984,19.044,7.979,5.259,7.979,5.259-14.69,2.9-16.5,7.436-7.07,15.6-5.8,19.225.905,10.156,5.8,12.333,6.53,3.809,6.53,3.809-.544,5.078,3.628,6.348,45.175,1.088,45.175,1.088l4.882-1.088Z" transform="translate(8136.957 12239.49)" fill="#fff"/><g transform="translate(968.184 6609.354)"><path d="M105.642,95.148l-.991-5.993a24.727,24.727,0,0,0-19.43-20.211L88.6,67.038a18.271,18.271,0,0,0,4.639-28.1L83.606,18.123a22,22,0,0,0-39.951,0L34.019,38.936a18.27,18.27,0,0,0,4.643,28.1l3.378,1.909A24.731,24.731,0,0,0,22.61,89.159l-.991,5.99A16.545,16.545,0,0,0,35.208,114.19v2.437a5.017,5.017,0,0,0,5.011,5.011H87.038a5.017,5.017,0,0,0,5.012-5.011V114.19A16.555,16.555,0,0,0,105.642,95.15ZM46.806,19.582a18.532,18.532,0,0,1,33.65,0l6.38,13.779L83.457,30.57a31.048,31.048,0,0,0-2.5-1.85,1.662,1.662,0,0,0-.188-.117,31.161,31.161,0,0,0-34.293.016,1.58,1.58,0,0,0-.147.091A31.215,31.215,0,0,0,43.8,30.569l-3.385,2.8Zm2.264,11.5a27.54,27.54,0,0,1,29.123,0v11.76a15.373,15.373,0,0,1-4.957,11.29,14.149,14.149,0,0,1-10.86,3.775A14.64,14.64,0,0,1,49.07,43.4ZM32.891,52.42a14.613,14.613,0,0,1,5.32-12.728l7.388-6.1V43.4A18.13,18.13,0,0,0,62.079,61.364q.759.063,1.513.064A17.605,17.605,0,0,0,75.58,56.687a18.847,18.847,0,0,0,6.083-13.845V33.591l7.386,6.1a15.312,15.312,0,0,1,1.414,1.333l.021.025a14.81,14.81,0,0,1-3.59,22.962l-3.85,2.172a39.723,39.723,0,0,1-38.827,0l-3.849-2.172A14.615,14.615,0,0,1,32.891,52.42ZM88.58,116.627a1.543,1.543,0,0,1-1.543,1.542H40.222a1.544,1.544,0,0,1-1.542-1.542v-30.3a1.545,1.545,0,0,1,1.542-1.543H87.038a1.545,1.545,0,0,1,1.543,1.543ZM99.561,106a13.086,13.086,0,0,1-7.511,4.649V86.332a5.018,5.018,0,0,0-5.012-5.012H40.222a5.017,5.017,0,0,0-5.011,5.012v24.313a13.085,13.085,0,0,1-7.52-4.659,12.918,12.918,0,0,1-2.646-10.271l.991-5.99A21.3,21.3,0,0,1,47.11,71.881h1.128a43.094,43.094,0,0,0,30.782,0h1.132a21.294,21.294,0,0,1,21.073,17.844l.991,5.992A12.947,12.947,0,0,1,99.561,106Z" transform="translate(-21.391 -5.342)" fill="#500c75"/><path d="M63.939,95.265a6.993,6.993,0,1,0,6.992,6.992,6.993,6.993,0,0,0-6.992-6.992Zm0,10.515a3.523,3.523,0,1,1,3.522-3.523,3.523,3.523,0,0,1-3.522,3.523Z" transform="translate(-21.699 -6.121)" fill="#500c75"/></g></g></g></g></svg>