<svg xmlns="http://www.w3.org/2000/svg" width="406.972" height="105.127" viewBox="0 0 406.972 105.127">
  <g id="Grupo_715849" data-name="Grupo 715849" transform="translate(-861.66 -6896)">
    <g id="Grupo_711882" data-name="Grupo 711882" transform="translate(77.34 -285)">
      <g id="Grupo_711877" data-name="Grupo 711877" transform="translate(784.32 7184.753)">
        <path id="Trazado_190926" data-name="Trazado 190926" d="M374.329,48.446H368.77a1.751,1.751,0,0,1,0-3.5h5.558a1.751,1.751,0,1,1,0,3.5" transform="translate(-312.866 5.588)" fill="#dad0cd"/>
        <path id="Trazado_190927" data-name="Trazado 190927" d="M364.488,48.446h-5.557a1.751,1.751,0,1,1,0-3.5h5.557a1.751,1.751,0,1,1,0,3.5" transform="translate(-315.336 5.588)" fill="#dad0cd"/>
        <path id="Trazado_190928" data-name="Trazado 190928" d="M416.342,9.055V96.98a4.5,4.5,0,0,1-4.5,4.5H376.6a4.5,4.5,0,0,1-4.5-4.5V9.055a4.5,4.5,0,0,1,4.5-4.5h35.239a4.5,4.5,0,0,1,4.5,4.5Z" transform="translate(-311.592 -4.551)" fill="#50758e"/>
        <path id="Trazado_190929" data-name="Trazado 190929" d="M409.693,9.058V96.979a4.5,4.5,0,0,1-4.5,4.5h-6.61a4.5,4.5,0,0,0,4.5-4.5V9.058a4.5,4.5,0,0,0-4.5-4.5h6.61a4.5,4.5,0,0,1,4.5,4.5" transform="translate(-304.944 -4.55)" fill="#2b597f"/>
        <path id="Trazado_190930" data-name="Trazado 190930" d="M407.986,22.907H378.24a1.751,1.751,0,1,1,0-3.5h29.745a1.751,1.751,0,1,1,0,3.5" transform="translate(-310.489 -0.823)" fill="#2b597f"/>
        <path id="Trazado_190931" data-name="Trazado 190931" d="M407.986,29.571H378.24a1.751,1.751,0,1,1,0-3.5h29.745a1.751,1.751,0,1,1,0,3.5" transform="translate(-310.489 0.85)" fill="#2b597f"/>
        <path id="Trazado_190932" data-name="Trazado 190932" d="M396.987,70.844a6,6,0,1,1-6-6,6,6,0,0,1,6,6" transform="translate(-308.358 10.583)" fill="#14f2d7"/>
        <path id="Trazado_190933" data-name="Trazado 190933" d="M408.433,41.914v3.5h-3.085a1.751,1.751,0,1,1,0-3.5Z" transform="translate(-303.684 4.828)" fill="#197ae5"/>
        <path id="Trazado_190934" data-name="Trazado 190934" d="M408.433,47.02v3.5h-3.085a1.751,1.751,0,1,1,0-3.5Z" transform="translate(-303.684 6.11)" fill="#197ae5"/>
        <path id="Trazado_190935" data-name="Trazado 190935" d="M408.432,52.125v3.5h-3.085a1.751,1.751,0,0,1,0-3.5Z" transform="translate(-303.683 7.391)" fill="#197ae5"/>
        <path id="Trazado_190936" data-name="Trazado 190936" d="M408.432,57.229v3.5h-3.085a1.751,1.751,0,0,1,0-3.5Z" transform="translate(-303.683 8.672)" fill="#197ae5"/>
        <path id="Trazado_190937" data-name="Trazado 190937" d="M376.928,43.666a1.752,1.752,0,0,1-1.751,1.751h-3.084v-3.5h3.084a1.752,1.752,0,0,1,1.751,1.751" transform="translate(-311.592 4.828)" fill="#27bef4"/>
        <path id="Trazado_190938" data-name="Trazado 190938" d="M376.928,48.772a1.752,1.752,0,0,1-1.751,1.751h-3.084v-3.5h3.084a1.752,1.752,0,0,1,1.751,1.751" transform="translate(-311.592 6.11)" fill="#27bef4"/>
        <path id="Trazado_190939" data-name="Trazado 190939" d="M376.928,53.877a1.752,1.752,0,0,1-1.751,1.751h-3.084v-3.5h3.084a1.752,1.752,0,0,1,1.751,1.751" transform="translate(-311.592 7.391)" fill="#27bef4"/>
        <path id="Trazado_190940" data-name="Trazado 190940" d="M376.928,58.978a1.752,1.752,0,0,1-1.751,1.751h-3.084v-3.5h3.084a1.752,1.752,0,0,1,1.751,1.751" transform="translate(-311.592 8.672)" fill="#27bef4"/>
        <path id="Trazado_190941" data-name="Trazado 190941" d="M379.254,12.364h-.024a1.751,1.751,0,1,1,0-3.5h.025a1.751,1.751,0,1,1,0,3.5h0Z" transform="translate(-310.241 -3.469)" fill="#f1eded"/>
        <path id="Trazado_190942" data-name="Trazado 190942" d="M383.052,12.364a1.762,1.762,0,0,1-1.764-1.751,1.743,1.743,0,0,1,1.734-1.751h.029a1.751,1.751,0,1,1,0,3.5h0Z" transform="translate(-309.284 -3.469)" fill="#f1eded"/>
        <path id="Trazado_190943" data-name="Trazado 190943" d="M386.856,12.364h-.024a1.751,1.751,0,1,1,0-3.5h.026a1.751,1.751,0,0,1,0,3.5" transform="translate(-308.332 -3.469)" fill="#f1eded"/>
        <path id="Trazado_190944" data-name="Trazado 190944" d="M393.648,60.735h-5.863a1.751,1.751,0,0,1-.01-3.5h5.868a1.751,1.751,0,1,1,.01,3.5h-.005Z" transform="translate(-308.094 8.673)" fill="#2b597f"/>
        <path id="Trazado_190945" data-name="Trazado 190945" d="M402.859,41.566H381.822a2.252,2.252,0,0,1-2.252-2.252V36.383a2.252,2.252,0,0,1,2.252-2.252H402.86a2.252,2.252,0,0,1,2.252,2.252v2.929a2.252,2.252,0,0,1-2.249,2.254Z" transform="translate(-309.715 2.874)" fill="#2b597f"/>
        <path id="Trazado_190946" data-name="Trazado 190946" d="M367.982,9.055V96.98a4.5,4.5,0,0,1-4.5,4.5H328.236a4.5,4.5,0,0,1-4.5-4.5V9.055a4.5,4.5,0,0,1,4.5-4.5h35.239a4.5,4.5,0,0,1,4.5,4.5Z" transform="translate(-323.732 -4.551)" fill="#50758e"/>
        <path id="Trazado_190947" data-name="Trazado 190947" d="M361.34,9.058V96.979a4.5,4.5,0,0,1-4.5,4.5h-6.618a4.5,4.5,0,0,0,4.5-4.5V9.058a4.5,4.5,0,0,0-4.5-4.5h6.612a4.5,4.5,0,0,1,4.51,4.5Z" transform="translate(-317.083 -4.55)" fill="#2b597f"/>
        <path id="Trazado_190948" data-name="Trazado 190948" d="M359.626,22.907H329.88a1.751,1.751,0,1,1,0-3.5h29.746a1.751,1.751,0,1,1,0,3.5" transform="translate(-322.628 -0.823)" fill="#2b597f"/>
        <path id="Trazado_190949" data-name="Trazado 190949" d="M359.626,29.571H329.88a1.751,1.751,0,1,1,0-3.5h29.746a1.751,1.751,0,1,1,0,3.5" transform="translate(-322.628 0.85)" fill="#2b597f"/>
        <path id="Trazado_190950" data-name="Trazado 190950" d="M348.627,70.844a6,6,0,1,1-6-6,6,6,0,0,1,6,6" transform="translate(-320.498 10.583)" fill="#14f2d7"/>
        <path id="Trazado_190951" data-name="Trazado 190951" d="M360.072,41.914v3.5h-3.085a1.751,1.751,0,0,1,0-3.5h3.085Z" transform="translate(-315.824 4.828)" fill="#197ae5"/>
        <path id="Trazado_190952" data-name="Trazado 190952" d="M360.072,47.02v3.5h-3.085a1.751,1.751,0,0,1,0-3.5Z" transform="translate(-315.824 6.11)" fill="#197ae5"/>
        <path id="Trazado_190953" data-name="Trazado 190953" d="M360.073,52.126v3.5h-3.085a1.751,1.751,0,0,1-.01-3.5h3.1Z" transform="translate(-315.825 7.391)" fill="#197ae5"/>
        <path id="Trazado_190954" data-name="Trazado 190954" d="M360.073,57.23v3.5h-3.085a1.751,1.751,0,0,1-.01-3.5h3.1Z" transform="translate(-315.825 8.673)" fill="#197ae5"/>
        <path id="Trazado_190955" data-name="Trazado 190955" d="M328.567,43.666a1.752,1.752,0,0,1-1.751,1.751h-3.084v-3.5h3.084a1.752,1.752,0,0,1,1.751,1.751" transform="translate(-323.732 4.828)" fill="#27bef4"/>
        <path id="Trazado_190956" data-name="Trazado 190956" d="M328.567,48.772a1.752,1.752,0,0,1-1.751,1.751h-3.084v-3.5h3.084A1.752,1.752,0,0,1,328.567,48.772Z" transform="translate(-323.732 6.11)" fill="#27bef4"/>
        <path id="Trazado_190957" data-name="Trazado 190957" d="M328.567,53.877a1.752,1.752,0,0,1-1.751,1.751h-3.084v-3.5h3.084a1.752,1.752,0,0,1,1.751,1.751" transform="translate(-323.732 7.391)" fill="#27bef4"/>
        <path id="Trazado_190958" data-name="Trazado 190958" d="M328.567,58.978a1.752,1.752,0,0,1-1.751,1.751h-3.084v-3.5h3.084a1.752,1.752,0,0,1,1.751,1.751" transform="translate(-323.732 8.672)" fill="#27bef4"/>
        <path id="Trazado_190959" data-name="Trazado 190959" d="M330.893,12.364a1.764,1.764,0,0,1-1.765-1.751,1.743,1.743,0,0,1,1.734-1.751h.03a1.751,1.751,0,0,1,0,3.5Z" transform="translate(-322.378 -3.469)" fill="#f1eded"/>
        <path id="Trazado_190960" data-name="Trazado 190960" d="M334.693,12.364a1.764,1.764,0,0,1-1.765-1.751,1.743,1.743,0,0,1,1.734-1.751h.03a1.751,1.751,0,0,1,0,3.5Z" transform="translate(-321.424 -3.469)" fill="#f1eded"/>
        <path id="Trazado_190961" data-name="Trazado 190961" d="M338.5,12.364h-.023a1.751,1.751,0,0,1,0-3.5h.025a1.751,1.751,0,0,1,0,3.5Z" transform="translate(-320.472 -3.469)" fill="#f1eded"/>
        <path id="Trazado_190962" data-name="Trazado 190962" d="M345.285,60.735h-5.859a1.751,1.751,0,0,1,0-3.5h5.859a1.751,1.751,0,0,1,.01,3.5Z" transform="translate(-320.231 8.673)" fill="#2b597f"/>
        <path id="Trazado_190963" data-name="Trazado 190963" d="M354.5,41.566H333.462a2.252,2.252,0,0,1-2.252-2.252V36.383a2.252,2.252,0,0,1,2.252-2.252H354.5a2.252,2.252,0,0,1,2.252,2.252v2.929a2.252,2.252,0,0,1-2.249,2.254Z" transform="translate(-321.855 2.874)" fill="#2b597f"/>
        <path id="Trazado_190964" data-name="Trazado 190964" d="M370.894,47.227a4.411,4.411,0,1,1-4.411-4.411,4.412,4.412,0,0,1,4.411,4.411Z" transform="translate(-314.108 5.054)" fill="#2ee0fd"/>
      </g>
      <g id="Grupo_711880" data-name="Grupo 711880" transform="translate(943.347 7182.251)">
        <g id="Grupo_711879" data-name="Grupo 711879" transform="translate(0 0)">
          <path id="Trazado_190965" data-name="Trazado 190965" d="M611.589,118.013a1.544,1.544,0,0,1-.772-.206L602.2,112.83a1.544,1.544,0,1,1,1.544-2.675l8.62,4.977a1.544,1.544,0,0,1-.773,2.877Z" transform="translate(-593.935 -81.239)" fill="#197ae5"/>
          <path id="Trazado_190968" data-name="Trazado 190968" d="M602.971,147.465a1.543,1.543,0,0,1-.773-2.876l8.625-4.982a1.544,1.544,0,1,1,1.544,2.675l-8.62,4.977a1.543,1.543,0,0,1-.771.206Z" transform="translate(-593.933 -73.846)" fill="#197ae5"/>
          <path id="Trazado_190980" data-name="Trazado 190980" d="M637.2,91.65a4.65,4.65,0,1,1-4.65-4.65,4.65,4.65,0,0,1,4.65,4.65Z" transform="translate(-587.29 -87)" fill="#fab03c"/>
          <path id="Trazado_190982" data-name="Trazado 190982" d="M604.738,110.042a4.65,4.65,0,1,1-4.65-4.65,4.65,4.65,0,0,1,4.65,4.65" transform="translate(-595.438 -82.383)" fill="#fab03c"/>
          <g id="Grupo_711878" data-name="Grupo 711878" transform="translate(3.106 2.732)">
            <path id="Trazado_190966" data-name="Trazado 190966" d="M662.6,147.465a1.543,1.543,0,0,1-.771-.206l-8.618-4.977a1.544,1.544,0,1,1,1.544-2.675l8.62,4.977a1.544,1.544,0,0,1-.773,2.877Z" transform="translate(-584.235 -76.579)" fill="#197ae5"/>
            <path id="Trazado_190967" data-name="Trazado 190967" d="M653.987,118.012a1.544,1.544,0,0,1-.773-2.877l8.62-4.977a1.544,1.544,0,0,1,1.544,2.675l-8.618,4.977a1.547,1.547,0,0,1-.772.2" transform="translate(-584.234 -83.971)" fill="#197ae5"/>
            <path id="Trazado_190969" data-name="Trazado 190969" d="M631.923,165.179a1.543,1.543,0,0,1-1.544-1.544v-9.952a1.544,1.544,0,1,1,3.087,0v9.952a1.543,1.543,0,0,1-1.544,1.544" transform="translate(-589.773 -73.381)" fill="#197ae5"/>
            <path id="Trazado_190970" data-name="Trazado 190970" d="M631.923,106.274a1.543,1.543,0,0,1-1.544-1.544V94.777a1.544,1.544,0,1,1,3.087,0v9.953a1.544,1.544,0,0,1-1.543,1.544Z" transform="translate(-589.773 -88.168)" fill="#197ae5"/>
            <path id="Trazado_190971" data-name="Trazado 190971" d="M669.1,134.168a31.207,31.207,0,1,1-2.877-13.122,31.206,31.206,0,0,1,2.877,13.122" transform="translate(-595.721 -85.734)" fill="#27bef4"/>
            <path id="Trazado_190972" data-name="Trazado 190972" d="M663.581,134.166a31.233,31.233,0,0,1-34.9,31.009,31.226,31.226,0,0,0-.009-62.017,31.207,31.207,0,0,1,34.916,31.008Z" transform="translate(-590.203 -85.732)" fill="#209ced"/>
            <path id="Trazado_190973" data-name="Trazado 190973" d="M633.51,153.646c-.193,0-.383-.01-.572-.024a5,5,0,0,0-4.8,2.737c-.149.285-.309.565-.48.836a31.273,31.273,0,0,1-20.672-24.409,8.072,8.072,0,0,1,14.981,4.023,4.851,4.851,0,0,0,2.153,3.992c.1.07.207.139.308.21a4.942,4.942,0,0,0,5.492.081,6.789,6.789,0,1,1,3.59,12.553Z" transform="translate(-595.645 -79.219)" fill="#00e2c7"/>
            <path id="Trazado_190974" data-name="Trazado 190974" d="M663.363,121.044A14.875,14.875,0,0,1,657.9,126.4c-.164.093-.329.181-.5.268a5.4,5.4,0,0,0-2.934,4.688,7.558,7.558,0,0,1-.061.876,8.632,8.632,0,1,1-16.146-5.192,5.405,5.405,0,0,0-.108-5.535l-.042-.07a5.4,5.4,0,0,0-5.716-2.4,11.788,11.788,0,0,1-14.342-11.082,31.242,31.242,0,0,1,45.309,13.1Z" transform="translate(-592.868 -85.731)" fill="#00e2c7"/>
            <path id="Trazado_190975" data-name="Trazado 190975" d="M660.7,121.044a14.874,14.874,0,0,1-5.463,5.356,31.233,31.233,0,0,0-26.569-23.244,31.257,31.257,0,0,1,32.026,17.89Z" transform="translate(-590.203 -85.731)" fill="#00c6a9"/>
            <path id="Trazado_190976" data-name="Trazado 190976" d="M626.047,124.359a1.553,1.553,0,0,1-1.554-1.544,1.537,1.537,0,0,1,1.529-1.544h.026a1.544,1.544,0,0,1,0,3.089Z" transform="translate(-591.251 -81.129)" fill="#00e2c7"/>
            <path id="Trazado_190977" data-name="Trazado 190977" d="M637.2,146.667a1.552,1.552,0,0,1-1.554-1.544,1.534,1.534,0,0,1,1.526-1.543h.028a1.544,1.544,0,0,1,0,3.088Z" transform="translate(-588.451 -75.529)" fill="#00e2c7"/>
            <path id="Trazado_190978" data-name="Trazado 190978" d="M640.07,186.053a1.547,1.547,0,0,1-.772-.206L598.693,162.4a1.543,1.543,0,0,1-.772-1.337V114.172a1.543,1.543,0,0,1,.772-1.337L639.3,89.39a1.546,1.546,0,0,1,1.544,0l40.607,23.444a1.545,1.545,0,0,1,.772,1.337V161.06a1.545,1.545,0,0,1-.772,1.337l-40.607,23.444a1.536,1.536,0,0,1-.772.211m-39.062-25.885,39.062,22.553,39.063-22.553v-45.1L640.07,92.51l-39.062,22.553Z" transform="translate(-597.921 -89.184)" fill="#209ced"/>
            <path id="Trazado_190979" data-name="Trazado 190979" d="M637.2,166.012a4.65,4.65,0,1,1-4.65-4.65,4.65,4.65,0,0,1,4.65,4.65" transform="translate(-590.396 -71.066)" fill="#fab03c"/>
            <path id="Trazado_190981" data-name="Trazado 190981" d="M669.656,147.522a4.65,4.65,0,1,1-4.65-4.65A4.65,4.65,0,0,1,669.656,147.522Z" transform="translate(-582.248 -75.707)" fill="#fab03c"/>
            <path id="Trazado_190983" data-name="Trazado 190983" d="M669.656,110.14a4.65,4.65,0,1,1-4.65-4.65A4.65,4.65,0,0,1,669.656,110.14Z" transform="translate(-582.248 -85.091)" fill="#fab03c"/>
          </g>
          <path id="Trazado_190984" data-name="Trazado 190984" d="M604.738,147.619a4.65,4.65,0,1,1-4.65-4.65,4.65,4.65,0,0,1,4.65,4.65Z" transform="translate(-595.438 -72.951)" fill="#fab03c"/>
        </g>
      </g>
      <g id="Grupo_711881" data-name="Grupo 711881" transform="translate(1092.474 7181)">
        <path id="Trazado_190985" data-name="Trazado 190985" d="M836.28,176.508v-2.2a14.785,14.785,0,0,0-.625-4.246l-9.258-30.94a8.494,8.494,0,0,0-5.708-5.7l-29.806-8.892h-8.025l-29.149,9.735c-2.742.818-3.545,2.233-4.366,4.975l-8.526,30.823a14.789,14.789,0,0,0-.626,4.246v2.2a4.649,4.649,0,0,0,4.341,4.938c.08.005.16.007.24.009H757.2l30.734-24.295,28.611,24.294h14.793a4.947,4.947,0,0,0,4.945-4.945" transform="translate(-737.462 -76.327)" fill="#3a67c1"/>
        <path id="Trazado_190986" data-name="Trazado 190986" d="M743.083,176.508v-2.64a11.789,11.789,0,0,1,.5-3.378l9.383-31.362a8.494,8.494,0,0,1,5.708-5.7l29.8-8.9H783.4l-29.8,8.891a8.494,8.494,0,0,0-5.708,5.7l-9.258,30.94a14.785,14.785,0,0,0-.625,4.246v2.2a4.946,4.946,0,0,0,4.946,4.947h5.077a4.946,4.946,0,0,1-4.947-4.947Z" transform="translate(-738.008 -76.327)" fill="#30569f"/>
        <path id="Trazado_190987" data-name="Trazado 190987" d="M783.455,106.915l-26.1,8.316-3.567,6.13c0,2.65,1.268,5.287,1.993,7.836l2.877,12.115c1.446,5.088,3.525,10.232,2.8,15.46l-.609,2h48.384a38.152,38.152,0,0,1,.8-17.464l3.444-12.115a28.674,28.674,0,0,0,1.092-7.836v-3.652Z" transform="translate(-734.047 -80.748)" fill="#26447e"/>
        <path id="Trazado_190988" data-name="Trazado 190988" d="M761.928,139.482l-3.444-12.115a28.674,28.674,0,0,1-1.092-7.836v-5.306l-4.765,1.654v3.652a28.674,28.674,0,0,0,1.092,7.836l3.444,12.115a38.153,38.153,0,0,1,.8,17.464h4.765a38.153,38.153,0,0,0-.8-17.464" transform="translate(-734.338 -78.913)" fill="#20396b"/>
        <path id="Trazado_190989" data-name="Trazado 190989" d="M765.963,121.6H760a2.316,2.316,0,0,1-2.316-2.316v-5.312A2.316,2.316,0,0,1,760,111.661h5.965Z" transform="translate(-733.069 -79.557)" fill="#e3a76f"/>
        <path id="Trazado_190990" data-name="Trazado 190990" d="M790.7,111.661h5.962a2.316,2.316,0,0,1,2.316,2.316v5.312a2.316,2.316,0,0,1-2.316,2.316H790.7Z" transform="translate(-724.781 -79.557)" fill="#e3a76f"/>
        <path id="Trazado_190991" data-name="Trazado 190991" d="M787.453,145.966H770.878v-6.846l7.171-15.027h5.88l3.525,15.027Z" transform="translate(-729.757 -76.436)" fill="#e3a76f"/>
        <path id="Trazado_190992" data-name="Trazado 190992" d="M770.878,139.123a18.974,18.974,0,0,0,16.575,0V124.1H770.878Z" transform="translate(-729.757 -76.435)" fill="#d6995c"/>
        <path id="Trazado_190993" data-name="Trazado 190993" d="M791.307,136.09l4.178-4.973a16.408,16.408,0,0,0,3.837-10.008c0-.184-2.1-2.877-2.1-3.06l-7.3-14.75h-20L764.9,117.4c0,.185-.751,3.522-.741,3.706.125,3.664.478,6.831,2.842,9.645l4.214,5.025c2.595,3.089,5.6,5.177,9.633,5.177a13.655,13.655,0,0,0,10.457-4.864" transform="translate(-731.443 -81.656)" fill="#f2d1a5"/>
        <path id="Trazado_190994" data-name="Trazado 190994" d="M762.729,103.3l.014,17.808a16.4,16.4,0,0,0,3.837,10.008l4.178,4.973a13.62,13.62,0,0,0,11.879,4.8,13.658,13.658,0,0,1-9.035-4.8l-4.178-4.973a16.4,16.4,0,0,1-3.837-10.008,3.342,3.342,0,0,1-.029-.652l6.234-1.449a41.688,41.688,0,0,1,18.847,0l9.045,2.1c0-.184.013-.368.013-.553V103.3Z" transform="translate(-731.802 -81.655)" fill="#f2bb88"/>
        <path id="Trazado_190995" data-name="Trazado 190995" d="M772.265,90.674l-11.32,9.189c-4.72,3.5-6.092,7.893-6.092,13.769l.3,6.435,1.678,1.784,15.735-3.653a46.978,46.978,0,0,1,21.239,0l20.5,4.754v-9.32A18.558,18.558,0,0,0,806.8,98.726l-11.995-8.9a19.472,19.472,0,0,0-9.652-3.738c-4.723-.478-8.882,1.614-12.886,4.584Z" transform="translate(-733.78 -85.992)" fill="#3a67c1"/>
        <path id="Trazado_190996" data-name="Trazado 190996" d="M757.393,113.639a18.56,18.56,0,0,1,7.506-14.9l11.995-8.9a19.465,19.465,0,0,1,9.236-3.693,19.5,19.5,0,0,0-14,3.692l-11.995,8.9a18.558,18.558,0,0,0-7.506,14.906v9.325l4.765-1.106Z" transform="translate(-734.339 -85.999)" fill="#30569f"/>
        <path id="Trazado_190997" data-name="Trazado 190997" d="M773.111,124.293a3.336,3.336,0,0,1-2.144-.782l-1.025-.854a1.586,1.586,0,1,1,2.032-2.437l1.025.854a.177.177,0,0,0,.223,0l.916-.706a5.442,5.442,0,0,1,3.3-1.126h4.218a5.442,5.442,0,0,1,3.3,1.126l.916.706a.177.177,0,0,0,.223,0l1.025-.854a1.586,1.586,0,0,1,2.032,2.437l-1.025.854a3.328,3.328,0,0,1-4.19.08l-.916-.706a2.235,2.235,0,0,0-1.362-.463h-4.221a2.245,2.245,0,0,0-1.362.463l-.916.706a3.346,3.346,0,0,1-2.045.7" transform="translate(-730.135 -77.654)" fill="#c7865b"/>
        <path id="Trazado_190998" data-name="Trazado 190998" d="M778.3,128a8.2,8.2,0,0,1-2.964-.554,1.587,1.587,0,0,1,1.147-2.96,5,5,0,0,0,3.628,0,1.587,1.587,0,0,1,1.147,2.96A8.194,8.194,0,0,1,778.3,128" transform="translate(-728.892 -76.364)" fill="#d6995c"/>
        <path id="Trazado_190999" data-name="Trazado 190999" d="M806.656,159.729h-8.351a1.586,1.586,0,0,1,0-3.173h8.351a1.586,1.586,0,1,1,0,3.173" transform="translate(-723.27 -68.287)" fill="#30569f"/>
        <path id="Trazado_191000" data-name="Trazado 191000" d="M756.366,159.729h-5.7a1.586,1.586,0,1,1,0-3.173h5.7a1.586,1.586,0,1,1,0,3.173" transform="translate(-735.23 -68.287)" fill="#30569f"/>
        <path id="Trazado_191001" data-name="Trazado 191001" d="M812.42,177.68H757.954L756.6,144.009a4.388,4.388,0,0,1,4.3-4.474h47.048a4.474,4.474,0,0,1,4.475,4.474Z" transform="translate(-733.342 -72.56)" fill="#dce6eb"/>
        <path id="Trazado_191002" data-name="Trazado 191002" d="M763.136,139.539h-4.879a4.476,4.476,0,0,0-4.475,4.476v33.664h4.879V144.015a4.475,4.475,0,0,1,4.475-4.476" transform="translate(-734.048 -72.559)" fill="#c8d2dc"/>
      </g>
      <line id="Línea_1655" data-name="Línea 1655" x2="32.911" transform="translate(900.506 7234.168)" fill="none" stroke="#8f52f5" stroke-width="3"/>
      <line id="Línea_1656" data-name="Línea 1656" x2="32.911" transform="translate(1048.127 7234.168)" fill="none" stroke="#8f52f5" stroke-width="3"/>
    </g>
  </g>
</svg>
