<svg xmlns="http://www.w3.org/2000/svg" xmlns:xlink="http://www.w3.org/1999/xlink" width="104" height="104" viewBox="0 0 104 104">
  <defs>
    <clipPath id="clip-path">
      <rect id="Rectángulo_264041" data-name="Rectángulo 264041" width="104" height="104" transform="translate(0 0.303)" fill="none"/>
    </clipPath>
  </defs>
  <g id="Grupo_715851" data-name="Grupo 715851" transform="translate(-748 -8756)">
    <g id="Grupo_711911" data-name="Grupo 711911" transform="translate(748 8755.697)">
      <g id="Grupo_711911-2" data-name="Grupo 711911" transform="translate(0 0)" clip-path="url(#clip-path)">
        <path id="Trazado_245646" data-name="Trazado 245646" d="M0,86.172V63.356c1.4-3.406,2.691-4.262,6.4-4.262H24.331v-1.38c0-4.038-.02-8.077.006-12.115.029-4.454,2.908-7.315,7.339-7.335,2.1-.01,4.208.012,6.312-.007,1.71-.015,3.16-.832,3.468-2.29a34.346,34.346,0,0,0,.368-4.662H40.251q-17.206,0-34.412.006a5.207,5.207,0,0,1-4.181-1.482A17.334,17.334,0,0,1,0,27.094V4.278A5.828,5.828,0,0,1,4.278,0h95.747A5.834,5.834,0,0,1,104.3,4.278V27.094c-1.035,3.191-3.311,4.267-6.551,4.243-11.267-.085-22.534-.033-33.8-.033H62.567c0,1.116-.006,2.093,0,3.069a3.556,3.556,0,0,0,3.847,3.885c2,.015,4,0,6.007,0,4.695.008,7.535,2.838,7.548,7.54.011,4,0,8.009,0,12.014v1.277H81.2q8.654,0,17.308,0a8.256,8.256,0,0,1,1.418.09c2.376.417,3.673,1.984,4.375,4.168V86.172c-1.457,3.434-2.7,4.241-6.526,4.241H90.506V93.9c.7,0,1.309-.016,1.916,0A6.9,6.9,0,0,1,98.8,98.873c.775,2.693.069,4.264-2.443,5.431H67.023c-2.248-1.081-2.914-2.209-2.633-4.46a6.946,6.946,0,0,1,6.417-5.935c.7-.031,1.4,0,2.137,0V90.414H71.8c-2.343,0-4.685.007-7.028,0C61.285,90.4,59.1,88.23,59.1,84.763q-.012-10.033,0-20.065a5.252,5.252,0,0,1,5.615-5.6c3.531-.01,7.062,0,10.593,0h1.068a2.5,2.5,0,0,0,.1-.414c0-4.515.042-9.031-.014-13.546A3.329,3.329,0,0,0,72.9,41.742c-2.173-.021-4.346.006-6.519-.008a7,7,0,0,1-7.287-7.33c-.005-1.007,0-2.014,0-3.02H45.209c0,1.092.008,2.106,0,3.12a6.991,6.991,0,0,1-7.183,7.228c-2.071.021-4.142,0-6.213,0-2.681,0-3.983,1.3-3.989,4q-.013,6.162,0,12.325c0,.322.042.645.068,1.027H29.1c3.6,0,7.2-.023,10.8.008a5.109,5.109,0,0,1,5.28,4.983c.076,7.1.064,14.192.008,21.287a4.961,4.961,0,0,1-4.44,4.922,44.146,44.146,0,0,1-4.879.117c-1.484.015-2.967,0-4.473,0V93.9c.69,0,1.3-.016,1.9,0a6.9,6.9,0,0,1,6.34,4.757c.9,2.738.2,4.414-2.351,5.646H7.945c-2.3-1.065-2.988-2.279-2.632-4.639a6.933,6.933,0,0,1,6.465-5.759c.669-.026,1.339,0,2.037,0V90.413c-2.818,0-5.562,0-8.306,0A5.177,5.177,0,0,1,.967,88.161,14.273,14.273,0,0,1,0,86.172M41.7,22.6c-.634,0-1.173.015-1.71,0a3.447,3.447,0,0,1-3.483-3.406q-.093-3.562,0-7.127a3.356,3.356,0,0,1,3.41-3.342q3.512-.063,7.026,0a3.3,3.3,0,0,1,3.425,3.3q.108,3.611,0,7.228A3.383,3.383,0,0,1,46.861,22.6c-.529.014-1.059,0-1.607,0v5.155H59.027V22.6c-.6,0-1.142.017-1.679,0a3.377,3.377,0,0,1-3.42-3.336q-.1-3.612,0-7.229a3.3,3.3,0,0,1,3.418-3.312q3.512-.058,7.026,0a3.356,3.356,0,0,1,3.418,3.334c.071,2.374.067,4.753,0,7.127A3.454,3.454,0,0,1,64.214,22.6c-.528.012-1.056,0-1.59,0v5.144h27.7V3.528H13.945v24.2H41.7ZM22.613,86.936q8.4,0,16.806,0c1.72,0,2.316-.61,2.317-2.345q.005-9.829,0-19.657c0-1.79-.584-2.364-2.4-2.364q-16.755,0-33.51,0c-1.8,0-2.357.571-2.358,2.392q0,9.778,0,19.556c0,1.868.552,2.418,2.438,2.419q8.352,0,16.7,0M81.69,62.567q-8.4,0-16.806,0c-1.725,0-2.315.6-2.316,2.34q-.005,9.829,0,19.658c0,1.785.588,2.369,2.394,2.369q16.755,0,33.51,0c1.8,0,2.36-.576,2.361-2.4q0-9.778,0-19.556c0-1.868-.553-2.416-2.438-2.416q-8.352,0-16.7,0M10.363,3.471c-1.6,0-3.149-.006-4.7,0-1.59.008-2.189.618-2.192,2.237q-.009,4.628,0,9.255c0,3.594.005,7.187,0,10.781,0,.939.29,1.855,1.26,1.931,1.865.147,3.749.043,5.636.043Zm83.6,0V27.792c1.8,0,3.521.051,5.241-.019a1.651,1.651,0,0,0,1.622-1.849c.027-1.321.008-2.644.008-3.966q0-8.187,0-16.374c0-1.337-.615-2.073-1.808-2.1-1.657-.039-3.315-.01-5.059-.01m-85.173,97.3h27.64a3.31,3.31,0,0,0-3.349-3.4c-2.546-.035-5.092-.011-7.638-.011-4.413,0-8.827-.015-13.24.008a3.268,3.268,0,0,0-3.413,3.4m86.723.012A3.29,3.29,0,0,0,92,97.367c-4.854-.016-9.709-.006-14.564-.005-2.1,0-4.21-.032-6.314.015a3.17,3.17,0,0,0-3.184,3.409ZM41.653,19.1c.222-.941.706-1.658,1.738-1.7,1.142-.044,1.635.765,1.892,1.656h1.586V12.251h-6.83V19.1Zm17.377-.011c.254-.982.77-1.721,1.87-1.686a1.812,1.812,0,0,1,1.735,1.662h1.62V12.243h-6.8v6.845ZM27.753,90.483h-10.3v3.358h10.3Zm48.824,3.352H86.865v-3.38H76.576Z" transform="translate(0 0)"/>
        <path id="Trazado_245647" data-name="Trazado 245647" d="M70.429,38.955c0-1.186-.025-2.374.007-3.56a3.33,3.33,0,0,1,3.271-3.352q3.66-.084,7.322,0A3.315,3.315,0,0,1,84.3,35.4q.056,3.559,0,7.12A3.381,3.381,0,0,1,80.927,45.9q-3.558.077-7.119,0a3.41,3.41,0,0,1-3.375-3.485c-.023-1.152,0-2.306,0-3.458m3.553,3.43h6.791V35.534H73.982Z" transform="translate(-51.292 -23.309)"/>
        <path id="Trazado_245648" data-name="Trazado 245648" d="M262.432,38.807c0-1.085-.015-2.17,0-3.255a3.374,3.374,0,0,1,3.423-3.521q3.508-.062,7.018,0a3.364,3.364,0,0,1,3.432,3.512q.036,3.407,0,6.815a3.429,3.429,0,0,1-3.523,3.548q-3.407.048-6.814,0a3.438,3.438,0,0,1-3.534-3.538c-.02-1.186,0-2.373,0-3.56m10.346-3.236h-6.792v6.847h6.792Z" transform="translate(-191.145 -23.309)"/>
        <path id="Trazado_245649" data-name="Trazado 245649" d="M41.393,244.883a8.318,8.318,0,0,1-.9,1.461q-5.91,5.961-11.866,11.876a1.751,1.751,0,0,1-2.614.124,1.733,1.733,0,0,1,.2-2.607q5.887-5.911,11.793-11.8a1.648,1.648,0,0,1,2.1-.5,6.52,6.52,0,0,1,1.287,1.452" transform="translate(-18.584 -177.159)"/>
        <path id="Trazado_245650" data-name="Trazado 245650" d="M27.523,250.32c-.441-.345-1.123-.627-1.332-1.112a2.019,2.019,0,0,1,.127-1.759,46.925,46.925,0,0,1,3.777-3.827,1.616,1.616,0,0,1,2.22.122,1.633,1.633,0,0,1,.148,2.295c-1.2,1.29-2.46,2.519-3.73,3.737a4.723,4.723,0,0,1-1.21.545" transform="translate(-18.975 -177.167)"/>
        <path id="Trazado_245651" data-name="Trazado 245651" d="M259.04,244.833a8.148,8.148,0,0,1-.911,1.516q-5.876,5.934-11.8,11.818a1.75,1.75,0,0,1-2.613.184,1.708,1.708,0,0,1,.14-2.608q5.927-5.955,11.877-11.887a1.6,1.6,0,0,1,2.027-.427,6.753,6.753,0,0,1,1.282,1.4" transform="translate(-177.123 -177.156)"/>
        <path id="Trazado_245652" data-name="Trazado 245652" d="M248.552,242.735c.425.361,1.1.672,1.29,1.169a2.058,2.058,0,0,1-.2,1.761,47.886,47.886,0,0,1-3.706,3.754,1.661,1.661,0,0,1-2.228-.082,1.617,1.617,0,0,1-.189-2.289c1.215-1.317,2.507-2.564,3.8-3.8a4.44,4.44,0,0,1,1.224-.513" transform="translate(-177.091 -176.803)"/>
        <path id="Trazado_245653" data-name="Trazado 245653" d="M22.762,27.331A1.736,1.736,0,0,1,21,29.05a1.665,1.665,0,0,1-1.682-1.663A1.714,1.714,0,0,1,21,25.6a1.777,1.777,0,0,1,1.763,1.733" transform="translate(-14.072 -18.645)"/>
        <path id="Trazado_245654" data-name="Trazado 245654" d="M21.012,76.838a1.749,1.749,0,0,1,1.747,1.735,1.721,1.721,0,0,1-1.766,1.7A1.666,1.666,0,0,1,19.32,78.6a1.707,1.707,0,0,1,1.692-1.767" transform="translate(-14.072 -55.967)"/>
        <path id="Trazado_245655" data-name="Trazado 245655" d="M355.447,27.382a1.674,1.674,0,0,1-1.779,1.669,1.738,1.738,0,0,1-1.663-1.712,1.773,1.773,0,0,1,1.756-1.739,1.716,1.716,0,0,1,1.686,1.782" transform="translate(-256.392 -18.646)"/>
        <path id="Trazado_245656" data-name="Trazado 245656" d="M353.794,80.271a1.726,1.726,0,0,1-1.783-1.685,1.752,1.752,0,0,1,1.732-1.751,1.707,1.707,0,0,1,1.708,1.65,1.671,1.671,0,0,1-1.657,1.786" transform="translate(-256.397 -55.965)"/>
      </g>
    </g>
  </g>
</svg>
