<svg xmlns="http://www.w3.org/2000/svg" xmlns:xlink="http://www.w3.org/1999/xlink" width="110" height="104" viewBox="0 0 110 104">
  <defs>
    <clipPath id="clip-path">
      <rect id="Rectángulo_264052" data-name="Rectángulo 264052" width="99" height="104" transform="translate(0.383 0)" fill="#fff" stroke="#fff" stroke-width="1"/>
    </clipPath>
    <clipPath id="clip-path-2">
      <rect id="Rectángulo_264041" data-name="Rectángulo 264041" width="104" height="104" transform="translate(0 0.303)" fill="none"/>
    </clipPath>
  </defs>
  <g id="Grupo_715903" data-name="Grupo 715903" transform="translate(-742 -8770)">
    <g id="Grupo_711927" data-name="Grupo 711927" transform="translate(0 14)">
      <g id="Grupo_711922" data-name="Grupo 711922" transform="translate(741.786 8756.169)">
        <g id="Grupo_711921" data-name="Grupo 711921" transform="translate(-0.169 -0.169)" clip-path="url(#clip-path)">
          <path id="Trazado_245674" data-name="Trazado 245674" d="M0,85.808V63.088c1.336-3.391,2.56-4.244,6.094-4.244H23.153V57.47c0-4.021-.019-8.043.006-12.064.028-4.435,2.767-7.284,6.983-7.3,2-.01,4,.012,6.007-.007a3.122,3.122,0,0,0,3.3-2.28,35.757,35.757,0,0,0,.35-4.642H38.3q-16.373,0-32.746.006A4.827,4.827,0,0,1,1.578,29.7,17.432,17.432,0,0,1,0,26.98V4.26A5.68,5.68,0,0,1,4.071,0h91.11a5.686,5.686,0,0,1,4.071,4.26V26.98c-.985,3.178-3.15,4.249-6.234,4.225-10.721-.085-21.443-.033-32.165-.033H59.537c0,1.111-.005,2.084,0,3.056.016,2.432,1.35,3.85,3.661,3.868,1.905.015,3.811,0,5.716,0,4.468.008,7.17,2.826,7.182,7.508.01,3.988,0,7.976,0,11.963v1.272H77.27q8.235,0,16.47,0a7.514,7.514,0,0,1,1.349.09c2.261.415,3.5,1.976,4.163,4.15v22.72c-1.387,3.42-2.568,4.223-6.21,4.223H86.123V93.5c.666,0,1.245-.016,1.823,0a6.627,6.627,0,0,1,6.07,4.95c.738,2.682.065,4.246-2.324,5.408H63.777c-2.139-1.076-2.773-2.2-2.505-4.441a6.738,6.738,0,0,1,6.106-5.91c.666-.031,1.334,0,2.033,0V90.032H68.326c-2.229,0-4.459.007-6.688,0-3.321-.014-5.4-2.172-5.4-5.625q-.011-9.99,0-19.981c0-3.4,2.088-5.569,5.343-5.578,3.36-.009,6.72,0,10.08,0h1.017a2.592,2.592,0,0,0,.091-.412c0-4.5.04-8.993-.013-13.489a3.236,3.236,0,0,0-3.382-3.377c-2.067-.021-4.136.006-6.2-.008-4.106-.028-6.912-2.987-6.934-7.3,0-1,0-2.005,0-3.007H43.02c0,1.088.007,2.1,0,3.106-.035,4.185-2.849,7.156-6.835,7.2-1.971.021-3.942,0-5.912,0-2.551,0-3.79,1.3-3.8,3.988q-.012,6.136,0,12.273c0,.321.04.642.065,1.023h1.148c3.424,0,6.849-.023,10.274.008a4.964,4.964,0,0,1,5.024,4.962c.072,7.065.06,14.132.007,21.2a4.863,4.863,0,0,1-4.225,4.9,40.152,40.152,0,0,1-4.643.117c-1.412.015-2.824,0-4.256,0V93.5c.657,0,1.233-.016,1.809,0a6.614,6.614,0,0,1,6.033,4.737c.855,2.726.191,4.4-2.238,5.622H7.56c-2.188-1.06-2.844-2.269-2.5-4.619a6.712,6.712,0,0,1,6.152-5.734c.636-.025,1.274,0,1.939,0V90.031c-2.682,0-5.292,0-7.9,0A4.858,4.858,0,0,1,.92,87.789,14.5,14.5,0,0,1,0,85.808m39.685-63.3c-.6,0-1.116.015-1.627,0a3.356,3.356,0,0,1-3.314-3.391q-.088-3.547,0-7.1A3.267,3.267,0,0,1,37.99,8.688q3.342-.062,6.686,0a3.206,3.206,0,0,1,3.259,3.29q.1,3.6,0,7.2a3.289,3.289,0,0,1-3.343,3.334c-.5.014-1.008,0-1.529,0v5.133H56.169V22.507c-.574,0-1.086.017-1.6,0a3.286,3.286,0,0,1-3.255-3.322q-.1-3.6,0-7.2a3.209,3.209,0,0,1,3.252-3.3q3.342-.058,6.686,0a3.265,3.265,0,0,1,3.252,3.32c.067,2.364.064,4.733,0,7.1a3.358,3.358,0,0,1-3.4,3.4c-.5.012-1,0-1.513,0v5.122h26.36V3.513H13.27v24.1H39.685ZM21.518,86.569q8,0,15.992,0c1.636,0,2.2-.607,2.2-2.335q.005-9.787,0-19.574c0-1.782-.555-2.354-2.28-2.354q-15.944,0-31.887,0c-1.711,0-2.243.569-2.244,2.382q0,9.737,0,19.473c0,1.86.525,2.408,2.32,2.409q7.948,0,15.895,0M77.734,62.3q-8,0-15.992,0c-1.642,0-2.2.6-2.2,2.33q-.005,9.787,0,19.575c0,1.777.56,2.359,2.278,2.359q15.944,0,31.887,0c1.712,0,2.246-.574,2.246-2.385q0-9.736,0-19.473c0-1.86-.526-2.405-2.32-2.406q-7.948,0-15.895,0M9.861,3.456c-1.522,0-3-.006-4.471,0-1.513.008-2.083.615-2.086,2.228Q3.3,10.294,3.3,14.9c0,3.578.005,7.157,0,10.735,0,.935.276,1.847,1.2,1.923,1.775.146,3.568.042,5.363.042Zm79.55,0V27.675c1.708,0,3.35.05,4.987-.019.987-.042,1.522-.742,1.543-1.841.026-1.316.008-2.633.008-3.949q0-8.152,0-16.3c0-1.331-.585-2.065-1.721-2.093-1.576-.039-3.154-.01-4.814-.01M8.363,100.348h26.3a3.228,3.228,0,0,0-3.187-3.387c-2.422-.034-4.846-.011-7.268-.011-4.2,0-8.4-.015-12.6.008a3.185,3.185,0,0,0-3.248,3.39m82.523.012a3.2,3.2,0,0,0-3.337-3.405c-4.619-.016-9.239-.006-13.858-.005-2,0-4.007-.032-6.008.015a3.1,3.1,0,0,0-3.03,3.4ZM39.636,19.019c.212-.937.672-1.651,1.654-1.691,1.087-.044,1.555.762,1.8,1.649H44.6V12.2H38.1v6.82Zm16.536-.011c.242-.978.733-1.714,1.78-1.679.977.033,1.457.733,1.651,1.655h1.541V12.191H54.668v6.817ZM26.409,90.1h-9.8v3.343h9.8Zm46.459,3.338h9.791V90.073H72.868Z" transform="translate(0.131 0.137)" fill="#fff" stroke="#fff" stroke-width="1"/>
          <path id="Trazado_245675" data-name="Trazado 245675" d="M77.754,31.982v5.1H51.339v-24.1H124.02V37.107H97.661V31.984c.508,0,1.011.01,1.513,0a3.358,3.358,0,0,0,3.4-3.4c.061-2.364.065-4.733,0-7.1a3.265,3.265,0,0,0-3.252-3.32q-3.342-.062-6.686,0a3.208,3.208,0,0,0-3.252,3.3q-.1,3.6,0,7.2a3.287,3.287,0,0,0,3.255,3.322c.511.02,1.023,0,1.6,0v5.135H81.132V31.984c.521,0,1.025.012,1.529,0A3.289,3.289,0,0,0,86,28.648q.1-3.6,0-7.2a3.205,3.205,0,0,0-3.259-3.29q-3.342-.056-6.686,0a3.267,3.267,0,0,0-3.245,3.328q-.095,3.546,0,7.1a3.356,3.356,0,0,0,3.315,3.391c.511.018,1.024,0,1.627,0M56.279,25.055c0,1.148-.018,2.3,0,3.443a3.328,3.328,0,0,0,3.212,3.47q3.386.077,6.775,0A3.3,3.3,0,0,0,69.475,28.6q.055-3.544,0-7.089a3.234,3.234,0,0,0-3.109-3.339q-3.482-.084-6.968,0a3.249,3.249,0,0,0-3.112,3.338c-.03,1.181-.006,2.363-.007,3.545m49.625-.147c0,1.182-.015,2.364,0,3.545a3.35,3.35,0,0,0,3.363,3.523q3.242.045,6.485,0a3.342,3.342,0,0,0,3.352-3.533q.034-3.393,0-6.786a3.281,3.281,0,0,0-3.265-3.5q-3.338-.06-6.678,0a3.291,3.291,0,0,0-3.257,3.506c-.017,1.08,0,2.161,0,3.241" transform="translate(-37.938 -9.338)" fill="#fff" stroke="#fff" stroke-width="1"/>
          <path id="Trazado_245676" data-name="Trazado 245676" d="M30.99,254.609q-7.948,0-15.9,0c-1.794,0-2.319-.549-2.32-2.409q0-9.736,0-19.473c0-1.814.533-2.382,2.244-2.382q15.944,0,31.887,0c1.725,0,2.279.572,2.28,2.354q0,9.787,0,19.575c0,1.727-.568,2.333-2.2,2.335q-8,.009-15.992,0m.186-19.13a6.4,6.4,0,0,0-1.225-1.446c-.719-.452-1.415-.108-1.994.5q-5.607,5.882-11.222,11.755a1.778,1.778,0,0,0-.19,2.6,1.618,1.618,0,0,0,2.487-.124q5.664-5.894,11.291-11.826a8.372,8.372,0,0,0,.853-1.455m-13.57,5.406a4.4,4.4,0,0,0,1.151-.543c1.209-1.213,2.412-2.437,3.55-3.721a1.68,1.68,0,0,0-.141-2.285,1.489,1.489,0,0,0-2.113-.121,45.789,45.789,0,0,0-3.594,3.811,2.093,2.093,0,0,0-.121,1.752c.2.483.848.763,1.268,1.107" transform="translate(-9.341 -167.903)" fill="#fff" stroke="#fff" stroke-width="1"/>
          <path id="Trazado_245677" data-name="Trazado 245677" d="M248.538,230.342q7.947,0,15.895,0c1.794,0,2.32.546,2.32,2.406q0,9.737,0,19.473c0,1.811-.534,2.385-2.246,2.385q-15.943.005-31.887,0c-1.718,0-2.277-.582-2.278-2.359q0-9.787,0-19.575c0-1.734.562-2.329,2.2-2.33q8-.007,15.992,0m.216,5.089a6.621,6.621,0,0,0-1.219-1.4,1.474,1.474,0,0,0-1.928.425q-5.652,5.917-11.3,11.836a1.753,1.753,0,0,0-.133,2.6,1.617,1.617,0,0,0,2.486-.183q5.631-5.867,11.23-11.768a8.191,8.191,0,0,0,.867-1.509m-9.95-1.738a4.127,4.127,0,0,0-1.165.511c-1.235,1.232-2.465,2.474-3.621,3.785a1.662,1.662,0,0,0,.18,2.279,1.529,1.529,0,0,0,2.12.082,46.731,46.731,0,0,0,3.526-3.739,2.132,2.132,0,0,0,.187-1.754c-.184-.495-.823-.8-1.228-1.164" transform="translate(-170.673 -167.902)" fill="#fff" stroke="#fff" stroke-width="1"/>
          <path id="Trazado_245678" data-name="Trazado 245678" d="M19.326,12.772V36.918c-1.8,0-3.589.1-5.363-.043-.923-.076-1.2-.988-1.2-1.923q.012-5.368,0-10.735,0-4.608,0-9.216c0-1.613.573-2.22,2.086-2.228,1.475-.008,2.95,0,4.471,0m-1.592,5.194a1.73,1.73,0,0,0-1.678-1.726,1.675,1.675,0,0,0-1.6,1.781,1.621,1.621,0,0,0,1.6,1.656,1.69,1.69,0,0,0,1.674-1.711M16.069,30.1a1.667,1.667,0,0,0-1.61,1.759,1.623,1.623,0,0,0,1.592,1.662,1.674,1.674,0,0,0,1.681-1.693A1.7,1.7,0,0,0,16.069,30.1" transform="translate(-9.334 -9.179)" fill="#fff" stroke="#fff" stroke-width="1"/>
          <path id="Trazado_245679" data-name="Trazado 245679" d="M345.927,12.759c1.66,0,3.238-.029,4.814.01,1.136.028,1.719.761,1.721,2.093q.01,8.152,0,16.3c0,1.317.018,2.634-.008,3.949-.022,1.1-.556,1.8-1.544,1.841-1.637.069-3.279.019-4.987.019ZM350.773,18a1.678,1.678,0,0,0-1.6-1.775,1.727,1.727,0,0,0-1.671,1.732,1.7,1.7,0,0,0,1.582,1.705A1.626,1.626,0,0,0,350.773,18M349.2,33.5a1.635,1.635,0,0,0,1.577-1.778,1.66,1.66,0,0,0-1.625-1.643,1.709,1.709,0,0,0-1.648,1.744,1.677,1.677,0,0,0,1.7,1.677" transform="translate(-256.384 -9.163)" fill="#fff" stroke="#fff" stroke-width="1"/>
          <path id="Trazado_245680" data-name="Trazado 245680" d="M32.353,361.82a3.185,3.185,0,0,1,3.248-3.39c4.2-.023,8.4-.008,12.6-.008,2.423,0,4.846-.023,7.268.011a3.228,3.228,0,0,1,3.187,3.388Z" transform="translate(-23.86 -261.334)" fill="#fff" stroke="#fff" stroke-width="1"/>
          <path id="Trazado_245681" data-name="Trazado 245681" d="M276.315,361.826H250.082a3.1,3.1,0,0,1,3.03-3.4c2-.047,4.005-.015,6.008-.015,4.619,0,9.239-.011,13.858.005a3.2,3.2,0,0,1,3.337,3.4" transform="translate(-185.298 -261.328)" fill="#fff" stroke="#fff" stroke-width="1"/>
          <path id="Trazado_245682" data-name="Trazado 245682" d="M148.942,51.923h-1.536V45.1h6.5v6.778H152.4c-.245-.887-.714-1.693-1.8-1.649-.981.04-1.442.754-1.654,1.691" transform="translate(-109.175 -32.767)" fill="#fff" stroke="#fff" stroke-width="1"/>
          <path id="Trazado_245683" data-name="Trazado 245683" d="M213.011,51.89h-1.5V45.073h6.475v6.793h-1.541c-.194-.922-.674-1.622-1.651-1.655-1.047-.035-1.538.7-1.78,1.679" transform="translate(-156.708 -32.745)" fill="#fff" stroke="#fff" stroke-width="1"/>
          <rect id="Rectángulo_264048" data-name="Rectángulo 264048" width="9.798" height="3.343" transform="translate(16.742 90.238)" fill="#fff" stroke="#fff" stroke-width="1"/>
          <rect id="Rectángulo_264049" data-name="Rectángulo 264049" width="9.791" height="3.365" transform="translate(72.999 90.21)" fill="#fff" stroke="#fff" stroke-width="1"/>
          <path id="Trazado_245684" data-name="Trazado 245684" d="M70.429,38.925c0-1.181-.024-2.364.006-3.545a3.249,3.249,0,0,1,3.112-3.338q3.482-.084,6.968,0a3.234,3.234,0,0,1,3.109,3.338q.054,3.544,0,7.09a3.3,3.3,0,0,1-3.206,3.368q-3.386.076-6.774,0a3.328,3.328,0,0,1-3.212-3.47c-.021-1.147,0-2.3,0-3.444m3.381,3.416h6.463V35.519H73.81Z" transform="translate(-52.087 -23.209)" fill="#fff" stroke="#fff" stroke-width="1"/>
          <path id="Trazado_245685" data-name="Trazado 245685" d="M262.431,38.779c0-1.08-.014-2.161,0-3.241a3.292,3.292,0,0,1,3.257-3.506q3.338-.062,6.678,0a3.282,3.282,0,0,1,3.266,3.5q.034,3.393,0,6.786a3.343,3.343,0,0,1-3.352,3.533q-3.242.047-6.484,0a3.35,3.35,0,0,1-3.363-3.523c-.019-1.181,0-2.363,0-3.545m9.845-3.223h-6.463v6.818h6.463Z" transform="translate(-194.465 -23.208)" fill="#fff" stroke="#fff" stroke-width="1"/>
          <path id="Trazado_245686" data-name="Trazado 245686" d="M40.624,244.876a8.358,8.358,0,0,1-.853,1.455q-5.624,5.936-11.291,11.826a1.618,1.618,0,0,1-2.487.124,1.778,1.778,0,0,1,.19-2.6q5.6-5.886,11.222-11.755c.579-.607,1.276-.952,1.995-.5a6.406,6.406,0,0,1,1.225,1.446" transform="translate(-18.789 -177.3)" fill="#fff" stroke="#fff" stroke-width="1"/>
          <path id="Trazado_245687" data-name="Trazado 245687" d="M27.452,250.29c-.42-.344-1.068-.624-1.268-1.107a2.093,2.093,0,0,1,.121-1.752A45.789,45.789,0,0,1,29.9,243.62a1.489,1.489,0,0,1,2.113.121,1.68,1.68,0,0,1,.141,2.285c-1.138,1.284-2.34,2.509-3.55,3.721a4.4,4.4,0,0,1-1.151.543" transform="translate(-19.186 -177.308)" fill="#fff" stroke="#fff" stroke-width="1"/>
          <path id="Trazado_245688" data-name="Trazado 245688" d="M258.272,244.826a8.193,8.193,0,0,1-.867,1.509q-5.591,5.909-11.23,11.768a1.617,1.617,0,0,1-2.487.183,1.753,1.753,0,0,1,.133-2.6q5.64-5.93,11.3-11.836a1.474,1.474,0,0,1,1.928-.425,6.622,6.622,0,0,1,1.219,1.4" transform="translate(-180.19 -177.297)" fill="#fff" stroke="#fff" stroke-width="1"/>
          <path id="Trazado_245689" data-name="Trazado 245689" d="M248.289,242.735c.4.36,1.044.669,1.228,1.164a2.132,2.132,0,0,1-.187,1.754,46.728,46.728,0,0,1-3.526,3.739,1.53,1.53,0,0,1-2.12-.082,1.662,1.662,0,0,1-.18-2.279c1.156-1.311,2.386-2.554,3.621-3.785a4.127,4.127,0,0,1,1.165-.511" transform="translate(-180.158 -176.944)" fill="#fff" stroke="#fff" stroke-width="1"/>
          <path id="Trazado_245690" data-name="Trazado 245690" d="M22.6,27.324a1.69,1.69,0,0,1-1.674,1.711,1.622,1.622,0,0,1-1.6-1.656,1.675,1.675,0,0,1,1.6-1.781A1.73,1.73,0,0,1,22.6,27.324" transform="translate(-14.195 -18.538)" fill="#fff" stroke="#fff" stroke-width="1"/>
          <path id="Trazado_245691" data-name="Trazado 245691" d="M20.93,76.838a1.7,1.7,0,0,1,1.663,1.728,1.674,1.674,0,0,1-1.681,1.693A1.623,1.623,0,0,1,19.32,78.6a1.667,1.667,0,0,1,1.61-1.759" transform="translate(-14.195 -55.918)" fill="#fff" stroke="#fff" stroke-width="1"/>
          <path id="Trazado_245692" data-name="Trazado 245692" d="M355.28,27.374a1.626,1.626,0,0,1-1.693,1.662A1.7,1.7,0,0,1,352,27.331a1.727,1.727,0,0,1,1.671-1.731,1.677,1.677,0,0,1,1.6,1.775" transform="translate(-260.891 -18.538)" fill="#fff" stroke="#fff" stroke-width="1"/>
          <path id="Trazado_245693" data-name="Trazado 245693" d="M353.708,80.256a1.677,1.677,0,0,1-1.7-1.677,1.709,1.709,0,0,1,1.648-1.744,1.66,1.66,0,0,1,1.625,1.643,1.635,1.635,0,0,1-1.577,1.778" transform="translate(-260.896 -55.916)" fill="#fff" stroke="#fff" stroke-width="1"/>
          <rect id="Rectángulo_264050" data-name="Rectángulo 264050" width="6.463" height="6.822" transform="translate(21.722 12.311)" fill="#fff" stroke="#fff" stroke-width="1"/>
          <rect id="Rectángulo_264051" data-name="Rectángulo 264051" width="6.463" height="6.818" transform="translate(71.348 12.348)" fill="#fff" stroke="#fff" stroke-width="1"/>
        </g>
      </g>
      <g id="Grupo_711911" data-name="Grupo 711911" transform="translate(748 8755.697)">
        <g id="Grupo_711911-2" data-name="Grupo 711911" transform="translate(0 0)" clip-path="url(#clip-path-2)">
          <path id="Trazado_245646" data-name="Trazado 245646" d="M0,86.172V63.356c1.4-3.406,2.691-4.262,6.4-4.262H24.331v-1.38c0-4.038-.02-8.077.006-12.115.029-4.454,2.908-7.315,7.339-7.335,2.1-.01,4.208.012,6.312-.007,1.71-.015,3.16-.832,3.468-2.29a34.346,34.346,0,0,0,.368-4.662H40.251q-17.206,0-34.412.006a5.207,5.207,0,0,1-4.181-1.482A17.334,17.334,0,0,1,0,27.094V4.278A5.828,5.828,0,0,1,4.278,0h95.747A5.834,5.834,0,0,1,104.3,4.278V27.094c-1.035,3.191-3.311,4.267-6.551,4.243-11.267-.085-22.534-.033-33.8-.033H62.567c0,1.116-.006,2.093,0,3.069a3.556,3.556,0,0,0,3.847,3.885c2,.015,4,0,6.007,0,4.695.008,7.535,2.838,7.548,7.54.011,4,0,8.009,0,12.014v1.277H81.2q8.654,0,17.308,0a8.256,8.256,0,0,1,1.418.09c2.376.417,3.673,1.984,4.375,4.168V86.172c-1.457,3.434-2.7,4.241-6.526,4.241H90.506V93.9c.7,0,1.309-.016,1.916,0A6.9,6.9,0,0,1,98.8,98.873c.775,2.693.069,4.264-2.443,5.431H67.023c-2.248-1.081-2.914-2.209-2.633-4.46a6.946,6.946,0,0,1,6.417-5.935c.7-.031,1.4,0,2.137,0V90.414H71.8c-2.343,0-4.685.007-7.028,0C61.285,90.4,59.1,88.23,59.1,84.763q-.012-10.033,0-20.065a5.252,5.252,0,0,1,5.615-5.6c3.531-.01,7.062,0,10.593,0h1.068a2.5,2.5,0,0,0,.1-.414c0-4.515.042-9.031-.014-13.546A3.329,3.329,0,0,0,72.9,41.742c-2.173-.021-4.346.006-6.519-.008a7,7,0,0,1-7.287-7.33c-.005-1.007,0-2.014,0-3.02H45.209c0,1.092.008,2.106,0,3.12a6.991,6.991,0,0,1-7.183,7.228c-2.071.021-4.142,0-6.213,0-2.681,0-3.983,1.3-3.989,4q-.013,6.162,0,12.325c0,.322.042.645.068,1.027H29.1c3.6,0,7.2-.023,10.8.008a5.109,5.109,0,0,1,5.28,4.983c.076,7.1.064,14.192.008,21.287a4.961,4.961,0,0,1-4.44,4.922,44.146,44.146,0,0,1-4.879.117c-1.484.015-2.967,0-4.473,0V93.9c.69,0,1.3-.016,1.9,0a6.9,6.9,0,0,1,6.34,4.757c.9,2.738.2,4.414-2.351,5.646H7.945c-2.3-1.065-2.988-2.279-2.632-4.639a6.933,6.933,0,0,1,6.465-5.759c.669-.026,1.339,0,2.037,0V90.413c-2.818,0-5.562,0-8.306,0A5.177,5.177,0,0,1,.967,88.161,14.273,14.273,0,0,1,0,86.172M41.7,22.6c-.634,0-1.173.015-1.71,0a3.447,3.447,0,0,1-3.483-3.406q-.093-3.562,0-7.127a3.356,3.356,0,0,1,3.41-3.342q3.512-.063,7.026,0a3.3,3.3,0,0,1,3.425,3.3q.108,3.611,0,7.228A3.383,3.383,0,0,1,46.861,22.6c-.529.014-1.059,0-1.607,0v5.155H59.027V22.6c-.6,0-1.142.017-1.679,0a3.377,3.377,0,0,1-3.42-3.336q-.1-3.612,0-7.229a3.3,3.3,0,0,1,3.418-3.312q3.512-.058,7.026,0a3.356,3.356,0,0,1,3.418,3.334c.071,2.374.067,4.753,0,7.127A3.454,3.454,0,0,1,64.214,22.6c-.528.012-1.056,0-1.59,0v5.144h27.7V3.528H13.945v24.2H41.7ZM22.613,86.936q8.4,0,16.806,0c1.72,0,2.316-.61,2.317-2.345q.005-9.829,0-19.657c0-1.79-.584-2.364-2.4-2.364q-16.755,0-33.51,0c-1.8,0-2.357.571-2.358,2.392q0,9.778,0,19.556c0,1.868.552,2.418,2.438,2.419q8.352,0,16.7,0M81.69,62.567q-8.4,0-16.806,0c-1.725,0-2.315.6-2.316,2.34q-.005,9.829,0,19.658c0,1.785.588,2.369,2.394,2.369q16.755,0,33.51,0c1.8,0,2.36-.576,2.361-2.4q0-9.778,0-19.556c0-1.868-.553-2.416-2.438-2.416q-8.352,0-16.7,0M10.363,3.471c-1.6,0-3.149-.006-4.7,0-1.59.008-2.189.618-2.192,2.237q-.009,4.628,0,9.255c0,3.594.005,7.187,0,10.781,0,.939.29,1.855,1.26,1.931,1.865.147,3.749.043,5.636.043Zm83.6,0V27.792c1.8,0,3.521.051,5.241-.019a1.651,1.651,0,0,0,1.622-1.849c.027-1.321.008-2.644.008-3.966q0-8.187,0-16.374c0-1.337-.615-2.073-1.808-2.1-1.657-.039-3.315-.01-5.059-.01m-85.173,97.3h27.64a3.31,3.31,0,0,0-3.349-3.4c-2.546-.035-5.092-.011-7.638-.011-4.413,0-8.827-.015-13.24.008a3.268,3.268,0,0,0-3.413,3.4m86.723.012A3.29,3.29,0,0,0,92,97.367c-4.854-.016-9.709-.006-14.564-.005-2.1,0-4.21-.032-6.314.015a3.17,3.17,0,0,0-3.184,3.409ZM41.653,19.1c.222-.941.706-1.658,1.738-1.7,1.142-.044,1.635.765,1.892,1.656h1.586V12.251h-6.83V19.1Zm17.377-.011c.254-.982.77-1.721,1.87-1.686a1.812,1.812,0,0,1,1.735,1.662h1.62V12.243h-6.8v6.845ZM27.753,90.483h-10.3v3.358h10.3Zm48.824,3.352H86.865v-3.38H76.576Z" transform="translate(0 0)"/>
          <path id="Trazado_245647" data-name="Trazado 245647" d="M70.429,38.955c0-1.186-.025-2.374.007-3.56a3.33,3.33,0,0,1,3.271-3.352q3.66-.084,7.322,0A3.315,3.315,0,0,1,84.3,35.4q.056,3.559,0,7.12A3.381,3.381,0,0,1,80.927,45.9q-3.558.077-7.119,0a3.41,3.41,0,0,1-3.375-3.485c-.023-1.152,0-2.306,0-3.458m3.553,3.43h6.791V35.534H73.982Z" transform="translate(-51.292 -23.309)"/>
          <path id="Trazado_245648" data-name="Trazado 245648" d="M262.432,38.807c0-1.085-.015-2.17,0-3.255a3.374,3.374,0,0,1,3.423-3.521q3.508-.062,7.018,0a3.364,3.364,0,0,1,3.432,3.512q.036,3.407,0,6.815a3.429,3.429,0,0,1-3.523,3.548q-3.407.048-6.814,0a3.438,3.438,0,0,1-3.534-3.538c-.02-1.186,0-2.373,0-3.56m10.346-3.236h-6.792v6.847h6.792Z" transform="translate(-191.145 -23.309)"/>
          <path id="Trazado_245649" data-name="Trazado 245649" d="M41.393,244.883a8.318,8.318,0,0,1-.9,1.461q-5.91,5.961-11.866,11.876a1.751,1.751,0,0,1-2.614.124,1.733,1.733,0,0,1,.2-2.607q5.887-5.911,11.793-11.8a1.648,1.648,0,0,1,2.1-.5,6.52,6.52,0,0,1,1.287,1.452" transform="translate(-18.584 -177.159)"/>
          <path id="Trazado_245650" data-name="Trazado 245650" d="M27.523,250.32c-.441-.345-1.123-.627-1.332-1.112a2.019,2.019,0,0,1,.127-1.759,46.925,46.925,0,0,1,3.777-3.827,1.616,1.616,0,0,1,2.22.122,1.633,1.633,0,0,1,.148,2.295c-1.2,1.29-2.46,2.519-3.73,3.737a4.723,4.723,0,0,1-1.21.545" transform="translate(-18.975 -177.167)"/>
          <path id="Trazado_245651" data-name="Trazado 245651" d="M259.04,244.833a8.148,8.148,0,0,1-.911,1.516q-5.876,5.934-11.8,11.818a1.75,1.75,0,0,1-2.613.184,1.708,1.708,0,0,1,.14-2.608q5.927-5.955,11.877-11.887a1.6,1.6,0,0,1,2.027-.427,6.753,6.753,0,0,1,1.282,1.4" transform="translate(-177.123 -177.156)"/>
          <path id="Trazado_245652" data-name="Trazado 245652" d="M248.552,242.735c.425.361,1.1.672,1.29,1.169a2.058,2.058,0,0,1-.2,1.761,47.886,47.886,0,0,1-3.706,3.754,1.661,1.661,0,0,1-2.228-.082,1.617,1.617,0,0,1-.189-2.289c1.215-1.317,2.507-2.564,3.8-3.8a4.44,4.44,0,0,1,1.224-.513" transform="translate(-177.091 -176.803)"/>
          <path id="Trazado_245653" data-name="Trazado 245653" d="M22.762,27.331A1.736,1.736,0,0,1,21,29.05a1.665,1.665,0,0,1-1.682-1.663A1.714,1.714,0,0,1,21,25.6a1.777,1.777,0,0,1,1.763,1.733" transform="translate(-14.072 -18.645)"/>
          <path id="Trazado_245654" data-name="Trazado 245654" d="M21.012,76.838a1.749,1.749,0,0,1,1.747,1.735,1.721,1.721,0,0,1-1.766,1.7A1.666,1.666,0,0,1,19.32,78.6a1.707,1.707,0,0,1,1.692-1.767" transform="translate(-14.072 -55.967)"/>
          <path id="Trazado_245655" data-name="Trazado 245655" d="M355.447,27.382a1.674,1.674,0,0,1-1.779,1.669,1.738,1.738,0,0,1-1.663-1.712,1.773,1.773,0,0,1,1.756-1.739,1.716,1.716,0,0,1,1.686,1.782" transform="translate(-256.392 -18.646)"/>
          <path id="Trazado_245656" data-name="Trazado 245656" d="M353.794,80.271a1.726,1.726,0,0,1-1.783-1.685,1.752,1.752,0,0,1,1.732-1.751,1.707,1.707,0,0,1,1.708,1.65,1.671,1.671,0,0,1-1.657,1.786" transform="translate(-256.397 -55.965)"/>
        </g>
      </g>
    </g>
  </g>
</svg>
