<svg xmlns="http://www.w3.org/2000/svg" xmlns:xlink="http://www.w3.org/1999/xlink" width="107.638" height="107.585" viewBox="0 0 107.638 107.585">
  <defs>
    <clipPath id="clip-path">
      <rect id="Rectángulo_264040" data-name="Rectángulo 264040" width="107.638" height="107.585" fill="none"/>
    </clipPath>
  </defs>
  <g id="Grupo_715852" data-name="Grupo 715852" transform="translate(-1166 -8752.231)">
    <g id="Grupo_711910" data-name="Grupo 711910" transform="translate(1166 8752.231)">
      <g id="Grupo_711910-2" data-name="Grupo 711910" clip-path="url(#clip-path)">
        <path id="Trazado_245641" data-name="Trazado 245641" d="M7.024,107.571V104.2h3.341V100.7c-1.55,0-3.092,0-4.634,0-3.545-.007-5.7-2.133-5.7-5.646q-.009-8.245,0-16.489c0-3.471,2.15-5.628,5.6-5.639,1.732-.006,3.463,0,5.271,0a5.287,5.287,0,0,0-.173-.682A46.19,46.19,0,0,1,7.237,49.136c.286-2.609.929-5.182,1.472-7.758a1.263,1.263,0,0,0-.459-1.453C1.309,33.841-1.461,26.211.741,17.233,2.9,8.41,8.692,2.706,17.552.66c8.877-2.05,16.381.74,22.38,7.57.388.442.658.687,1.335.5a46.178,46.178,0,0,1,27.727.753,3.226,3.226,0,0,0,.456.063c0-1.316,0-2.6,0-3.877C69.462,2.189,71.6.021,75.04.018q13.5-.01,27.006,0a5.217,5.217,0,0,1,5.586,5.542q.016,8.353,0,16.706a5.216,5.216,0,0,1-5.5,5.524c-1.587.009-3.174,0-4.836,0V31.22H100.6v3.468H96.666a47.538,47.538,0,0,1,.006,38.24c1.825,0,3.5,0,5.185,0,3.683,0,5.773,2.1,5.776,5.789q.005,8.136,0,16.272c0,3.6-2.132,5.708-5.745,5.714-1.512,0-3.024,0-4.6,0v3.448h3.328v3.433H76.483v-3.377H79.8v-3.5c-1.435,0-2.9-.049-4.364.011a5.563,5.563,0,0,1-5.424-2.865,47.186,47.186,0,0,1-32.368-.01c-1.308,2.283-3.323,3.016-5.793,2.877-1.295-.073-2.6-.013-3.976-.013v3.458h3.338v3.409ZM38.211,94.283a43.858,43.858,0,0,0,30.422.358,1.093,1.093,0,0,0,.834-1.247c-.029-4.954-.021-9.907-.014-14.861.005-3.449,2.168-5.6,5.634-5.6,5.6-.006,11.207-.014,16.809.014a1.185,1.185,0,0,0,1.284-.83c5.394-12.178,5.45-24.346.022-36.531a1.257,1.257,0,0,0-1.374-.865c-4.735.034-9.471.018-14.207.018H76.473v-3.5H79.8V27.792c-1.653,0-3.238.007-4.823,0a5.217,5.217,0,0,1-5.519-5.5c-.011-2.639-.032-5.28.016-7.918a1.2,1.2,0,0,0-.948-1.382,42.85,42.85,0,0,0-19.414-2.283c-2.2.249-4.372.747-6.626,1.143,5.034,10.05,2.449,20.289-3.654,26.326-7.819,7.733-16.886,8.815-26.837,4.459a4.859,4.859,0,0,0-.208.561,43.141,43.141,0,0,0,2.731,28.985,1.128,1.128,0,0,0,1.218.761c5.495-.023,10.989-.014,16.484-.013,3.987,0,5.994,2.01,5.995,6,0,5.1,0,10.192,0,15.35m65.952-76.945c0-3.977.006-7.84,0-11.7,0-1.541-.62-2.144-2.188-2.144q-13.438-.007-26.877,0c-1.559,0-2.166.608-2.17,2.162q-.012,5.474,0,10.948a7.14,7.14,0,0,0,.077.737ZM34.739,90.247c0-3.981.006-7.844,0-11.707,0-1.536-.623-2.136-2.2-2.137Q19.1,76.4,5.663,76.4c-1.554,0-2.159.611-2.162,2.17q-.012,5.42,0,10.84c0,.275.048.549.074.834Zm69.424,0c0-3.963.006-7.823,0-11.684,0-1.552-.614-2.162-2.17-2.162q-13.438-.007-26.877,0c-1.6,0-2.187.608-2.189,2.252q-.008,5.365,0,10.731c0,.277.039.553.063.863ZM72.922,20.884c0,.356,0,.6,0,.854-.015,2.071.48,2.581,2.513,2.583q2.6,0,5.2,0,10.672,0,21.344,0c1.383,0,2.09-.558,2.171-1.72.039-.56.007-1.126.007-1.714ZM34.739,93.832H3.567c-.257,2.948.149,3.4,2.984,3.4H27.895c1.625,0,3.251.016,4.876-.006A1.764,1.764,0,0,0,34.736,95.3c.015-.464,0-.93,0-1.464M73,93.8c-.292,2.935.152,3.434,2.959,3.434H96.223c1.878,0,3.756,0,5.634,0,1.748,0,2.307-.577,2.3-2.357,0-.348-.032-.7-.051-1.076ZM29.581,20.791c-.275-2.337-.542-4.6-.807-6.851H16.393c-.261,2.277-.52,4.538-.785,6.851ZM16.4,31.216h12.39l.791-6.827H15.6l.8,6.827m-12.9-6.84c.337,1.443.575,2.823.987,4.15.855,2.751.893,2.74,3.755,2.74h4.6l-.7-6.889Zm9.338-10.47c-2.288,0-4.489-.011-6.689.016a.9.9,0,0,0-.685.355,16.485,16.485,0,0,0-1.815,6.507h8.5l.693-6.879m19.521,0,.693,6.873h8.5a16.963,16.963,0,0,0-1.714-6.3,1.1,1.1,0,0,0-.777-.551c-2.2-.044-4.4-.025-6.7-.025m.695,10.47c-.231,2.288-.457,4.535-.695,6.888,2.279,0,4.514.016,6.747-.022a.993.993,0,0,0,.7-.5,16.965,16.965,0,0,0,1.748-6.371ZM27.778,10.4a14.108,14.108,0,0,0-3.151-5.889c-1.37-1.369-2.7-1.372-4.067-.01A14.169,14.169,0,0,0,17.4,10.4Zm-.005,24.395H17.48a13.908,13.908,0,0,0,2.876,5.683c1.537,1.6,2.945,1.618,4.455,0a14.646,14.646,0,0,0,2.962-5.685m55.588-3.617H93.676v-3.3H83.361ZM13.962,104.1H24.239v-3.341H13.962ZM93.7,100.78H83.422v3.342H93.7ZM7.895,10.432c1.917,0,3.539.022,5.158-.021a1.053,1.053,0,0,0,.8-.462c.7-1.68,1.326-3.387,2.017-5.189a18.916,18.916,0,0,0-7.978,5.672M29.3,4.747c.694,1.8,1.326,3.482,1.994,5.145.087.217.36.508.552.512,1.738.04,3.477.023,5.44.023A19.183,19.183,0,0,0,29.3,4.747M7.889,34.737a19.079,19.079,0,0,0,7.99,5.675c-.689-1.788-1.313-3.466-2-5.118a1.035,1.035,0,0,0-.749-.533c-1.65-.048-3.3-.024-5.244-.024M29.3,40.431a18.521,18.521,0,0,0,7.934-5.694c-1.866,0-3.487-.022-5.106.021a1.051,1.051,0,0,0-.8.464c-.7,1.678-1.327,3.385-2.026,5.209" transform="translate(0 -0.001)"/>
        <path id="Trazado_245642" data-name="Trazado 245642" d="M125.447,142.106l-2.308-2.36c9.126-9.822,26.5-10.431,36.467-.018l-2.372,2.293a22.783,22.783,0,0,0-31.787.086" transform="translate(-87.532 -93.934)"/>
        <path id="Trazado_245643" data-name="Trazado 245643" d="M142.189,164.2l-2.415-2.389a18.967,18.967,0,0,1,26.858,0l-2.585,2.232a15.713,15.713,0,0,0-21.858.16" transform="translate(-99.356 -111.062)"/>
        <path id="Trazado_245644" data-name="Trazado 245644" d="M178.57,209.34a5.2,5.2,0,1,1-5.2-5.155,5.229,5.229,0,0,1,5.2,5.155m-3.477.074a1.727,1.727,0,1,0-1.752,1.7,1.745,1.745,0,0,0,1.752-1.7" transform="translate(-119.537 -145.142)"/>
        <path id="Trazado_245645" data-name="Trazado 245645" d="M174.22,183.662l-2.256,2.388c-4.891-3.289-7.934-3.293-12.233-.059l-2.244-2.444c3.762-4.346,12.145-4.809,16.733.114" transform="translate(-111.947 -128.041)"/>
      </g>
    </g>
  </g>
</svg>
