<svg xmlns="http://www.w3.org/2000/svg" xmlns:xlink="http://www.w3.org/1999/xlink" width="733" height="420" viewBox="0 0 733 420">
  <defs>
    <filter id="Trazado_247848" x="0" y="0" width="733" height="420" filterUnits="userSpaceOnUse">
      <feOffset dy="3" input="SourceAlpha"/>
      <feGaussianBlur stdDeviation="3" result="blur"/>
      <feFlood flood-opacity="0.161"/>
      <feComposite operator="in" in2="blur"/>
      <feComposite in="SourceGraphic"/>
    </filter>
  </defs>
  <g id="Grupo_715851" data-name="Grupo 715851" transform="translate(2990 8555)">
    <g transform="matrix(1, 0, 0, 1, -2990, -8555)" filter="url(#Trazado_247848)">
      <path id="Trazado_247848-2" data-name="Trazado 247848" d="M19,0H696a19,19,0,0,1,19,19V383a19,19,0,0,1-19,19H19A19,19,0,0,1,0,383V19A19,19,0,0,1,19,0Z" transform="translate(9 6)" fill="#f6f6f6"/>
    </g>
    <path id="Trazado_184124" data-name="Trazado 184124" d="M562.047,167.151H429.478a4.551,4.551,0,0,0-4.552,4.552v.985a4.551,4.551,0,0,0,4.552,4.552H562.047a4.551,4.551,0,0,0,4.552-4.552V171.7a4.551,4.551,0,0,0-4.552-4.552" transform="translate(-3333.195 -8425.293)" fill="#9c9da0"/>
    <path id="Trazado_184125" data-name="Trazado 184125" d="M550.211,167.151H533.443v10.088h16.768a4.551,4.551,0,0,0,4.552-4.552V171.7a4.551,4.551,0,0,0-4.552-4.552" transform="translate(-3321.359 -8425.293)" fill="#8d8f93"/>
    <path id="Trazado_184112" data-name="Trazado 184112" d="M561.618,84.188c0-.019,0-.037,0-.055C561.62,72.87,531.935,0,495.317,0s-66.3,72.87-66.3,84.133c0,.019,0,.037,0,.055s0,.034,0,.052c0,10.492,44.705,65.646,66.3,65.646,21.133,0,66.3-55.154,66.3-65.646,0-.018,0-.037,0-.053Z" transform="translate(-3332.75 -8443.523)" fill="#415e6f"/>
    <path id="Trazado_184113" data-name="Trazado 184113" d="M529.482,76.713h-7.531V54.874h7.531a7.026,7.026,0,0,1,7.026,7.026v7.787a7.026,7.026,0,0,1-7.026,7.026" transform="translate(-3322.613 -8437.538)" fill="#f4c892"/>
    <path id="Trazado_184114" data-name="Trazado 184114" d="M449.543,76.713h7.531V54.874h-7.531a7.026,7.026,0,0,0-7.026,7.026v7.787a7.026,7.026,0,0,0,7.026,7.026" transform="translate(-3331.277 -8437.538)" fill="#f4c892"/>
    <path id="Trazado_184115" data-name="Trazado 184115" d="M516.969,111.093l-4.75-.955a7.217,7.217,0,0,1-5.795-7.076V96.218H475.353v7.017a7.217,7.217,0,0,1-5.795,7.076l-3.889.782v26.125h51.3Z" transform="translate(-3328.751 -8433.029)" fill="#fed9a8"/>
    <path id="Trazado_184116" data-name="Trazado 184116" d="M492.79,109.974h0a40.616,40.616,0,0,1-40.615-40.615V57.945a40.615,40.615,0,0,1,81.23,0V69.359a40.615,40.615,0,0,1-40.615,40.615" transform="translate(-3330.223 -8441.633)" fill="#fed9a8"/>
    <path id="Trazado_184117" data-name="Trazado 184117" d="M489.838,17.33h0a40.642,40.642,0,0,0-10.594,1.4,40.631,40.631,0,0,1,30.02,39.217V69.359a40.632,40.632,0,0,1-30.02,39.217,40.639,40.639,0,0,0,51.209-39.217V57.945A40.615,40.615,0,0,0,489.838,17.33" transform="translate(-3327.271 -8441.633)" fill="#f4ce9f"/>
    <path id="Trazado_184118" data-name="Trazado 184118" d="M495.316,61.04c36.558,0,66.2,12.667,66.3,23.148,0-.018,0-.037,0-.055C561.62,72.87,531.934,0,495.316,0s-66.3,72.87-66.3,84.133c0,.019,0,.037,0,.055.1-10.482,29.742-23.148,66.3-23.148" transform="translate(-3332.75 -8443.523)" fill="#5498c8"/>
    <path id="Trazado_184119" data-name="Trazado 184119" d="M489.73,0a29.807,29.807,0,0,0-9.5,1.606c23.649,7.915,43.268,43.342,51.972,65.579,14.517,4.629,23.771,11.156,23.824,17,0-.018,0-.037,0-.055C556.033,72.87,526.348,0,489.73,0" transform="translate(-3327.163 -8443.523)" fill="#415e6f"/>
    <path id="Trazado_184120" data-name="Trazado 184120" d="M587.135,179.064c-1.766-12.984-8.942-50.636-33.593-60.526l-28.115-8.766H469.781l-28.115,8.766c-24.65,9.891-31.827,47.541-33.593,60.526a3.911,3.911,0,0,0,3.88,4.433h171.3a3.91,3.91,0,0,0,3.878-4.433" transform="translate(-3335.037 -8431.551)" fill="#5498c8"/>
    <path id="Trazado_184121" data-name="Trazado 184121" d="M577.719,179.064c-1.766-12.984-8.942-50.636-33.593-60.526l-28.115-8.766H494.364l28.115,8.766c29.934,12.011,34.1,64.959,34.1,64.959h17.26a3.91,3.91,0,0,0,3.878-4.433" transform="translate(-3325.622 -8431.551)" fill="#415e6f"/>
    <path id="Trazado_184122" data-name="Trazado 184122" d="M550.5,108.49H439.334a6.681,6.681,0,0,0-6.68,6.68v63.348H557.186V115.17a6.682,6.682,0,0,0-6.681-6.68" transform="translate(-3332.353 -8431.691)" fill="#cfcfcf"/>
    <path id="Trazado_184123" data-name="Trazado 184123" d="M541,108.49H519.81a6.68,6.68,0,0,1,6.681,6.68v63.348h21.188V115.17A6.68,6.68,0,0,0,541,108.49" transform="translate(-3322.846 -8431.691)" fill="#c2c4c6"/>
    <path id="Trazado_184126" data-name="Trazado 184126" d="M489.715,131.789a9.347,9.347,0,1,1-9.346,9.346,9.346,9.346,0,0,1,9.346-9.346" transform="translate(-3327.148 -8429.149)" fill="#fff"/>
    <path id="Trazado_184127" data-name="Trazado 184127" d="M499.909,64.91c-7.345-2.723-12.826-2.746-20.235,0,.529,1.079.793,1.62,1.322,2.7.15.3.316.6.489.889,6.314-2.164,10.348-2.159,16.656.021l1.768-3.61" transform="translate(-3327.224 -8436.668)" fill="#4d4d4d"/>
    <path id="Trazado_184128" data-name="Trazado 184128" d="M526.79,64.451V62.327H512.83v3.006c0,.34.019.678.045,1.015h13.87q.043-.943.044-1.9" transform="translate(-3323.608 -8436.726)" fill="#4d4d4d"/>
    <path id="Trazado_184129" data-name="Trazado 184129" d="M452.176,62.327v2.124c0,.637.019,1.268.048,1.9h13.911v-4.02Z" transform="translate(-3330.223 -8436.726)" fill="#4d4d4d"/>
    <path id="Trazado_184130" data-name="Trazado 184130" d="M480.066,75.545H465.022a3,3,0,0,1-3-3V63.98a3,3,0,0,1,3-3h18.752a3,3,0,0,1,3,3v4.857a6.709,6.709,0,0,1-6.709,6.709" transform="translate(-3329.149 -8436.873)" fill="#4d4d4d"/>
    <path id="Trazado_184131" data-name="Trazado 184131" d="M499.961,75.545h15.044a3,3,0,0,0,3-3V63.98a3,3,0,0,0-3-3H496.253a3,3,0,0,0-3,3v4.857a6.708,6.708,0,0,0,6.709,6.709" transform="translate(-3325.743 -8436.873)" fill="#4d4d4d"/>
    <path id="Trazado_184132" data-name="Trazado 184132" d="M514.656,60.979H496.441V74.748a6.67,6.67,0,0,0,3.171.8h15.044a3,3,0,0,0,3-3V63.98a3,3,0,0,0-3-3" transform="translate(-3325.395 -8436.873)" fill="#353535"/>
    <path id="Trazado_184133" data-name="Trazado 184133" d="M483.427,60.979H465.2V75.545H479.72a6.708,6.708,0,0,0,6.709-6.709V63.98a3,3,0,0,0-3-3" transform="translate(-3328.802 -8436.873)" fill="#353535"/>
    <path id="Trazado_242704" data-name="Trazado 242704" d="M814.077,296.761H800.768v-2.7h13.309Zm-26.618,0H774.15v-2.7h13.309Zm-26.618,0H747.533v-2.7h13.309Zm-26.618,0H720.915v-2.7h13.309Zm-26.618,0H694.3v-2.7h13.309Zm-26.618,0H667.68v-2.7h13.309Zm-26.618,0H641.062v-2.7h13.309Zm-26.618,0H614.444v-2.7h13.309Zm-26.618,0H587.827v-2.7h13.309Zm-26.618,0H561.209v-2.7h13.309Z" transform="translate(-3281.48 -8543.469)" fill="#7142c1"/>
    <path id="Trazado_242705" data-name="Trazado 242705" d="M791.567,308.933l-1.838-1.974,9.734-9.047-9.734-9.049,1.838-1.973,11.854,11.022Z" transform="translate(-3256.431 -8545.964)" fill="#7142c1" stroke="#707070" stroke-width="1"/>
    <path id="Trazado_242704-2" data-name="Trazado 242704" d="M808.54,296.761H795.523v-2.7H808.54Zm-26.035,0H769.488v-2.7h13.017Zm-26.035,0H743.453v-2.7h13.017Zm-26.035,0H717.418v-2.7h13.017Zm-26.035,0H691.384v-2.7H704.4Zm-26.035,0H665.349v-2.7h13.017Zm-26.035,0H639.314v-2.7h13.017Zm-26.035,0H613.279v-2.7H626.3Zm-26.035,0H587.244v-2.7h13.017Zm-26.035,0H561.209v-2.7h13.017Z" transform="translate(-3286.103 -8710.971)" fill="#7142c1"/>
    <path id="Trazado_242705-2" data-name="Trazado 242705" d="M791.567,308.933l-1.838-1.974,9.734-9.047-9.734-9.049,1.838-1.973,11.854,11.022Z" transform="translate(-3266.59 -8713.466)" fill="#7142c1"/>
    <path id="Trazado_242704-3" data-name="Trazado 242704" d="M561.209,296.761h13.017v-2.7H561.209Zm26.035,0h13.017v-2.7H587.244Zm26.035,0H626.3v-2.7H613.279Zm26.035,0h13.018v-2.7H639.314Zm26.035,0h13.017v-2.7H665.349Zm26.035,0H704.4v-2.7H691.383Zm26.035,0h13.017v-2.7H717.418Zm26.035,0h13.017v-2.7H743.453Zm26.035,0h13.017v-2.7H769.488Zm26.035,0H808.54v-2.7H795.523Z" transform="translate(-3271.709 -8625.197)" fill="#7142c1"/>
    <path id="Trazado_242705-3" data-name="Trazado 242705" d="M801.583,308.933l1.838-1.974-9.734-9.047,9.734-9.049-1.838-1.973-11.854,11.022Z" transform="translate(-3514.623 -8627.692)" fill="#7142c1"/>
    <path id="Trazado_242706" data-name="Trazado 242706" d="M80.926,195.891H7.332A7.332,7.332,0,0,1,0,188.558V7.333A7.332,7.332,0,0,1,7.332,0H80.926a7.333,7.333,0,0,1,7.333,7.333V188.558a7.333,7.333,0,0,1-7.333,7.333" transform="translate(-2422 -8438.469)" fill="#464f60" stroke="#7496a6" stroke-width="1"/>
    <path id="Trazado_242707" data-name="Trazado 242707" d="M88.258,161.729v28.576a7.338,7.338,0,0,1-7.33,7.346H7.341A7.339,7.339,0,0,1,.01,190.305V161.729A16.268,16.268,0,0,0,16.284,178h55.7a16.268,16.268,0,0,0,16.274-16.274" transform="translate(-2422 -8440.225)" fill="#a2a9bc"/>
    <path id="Trazado_242708" data-name="Trazado 242708" d="M79.77,48.776H9.674a4.642,4.642,0,0,1-4.642-4.642V23.684a4.642,4.642,0,0,1,4.642-4.642h70.1a4.642,4.642,0,0,1,4.642,4.642v20.45a4.642,4.642,0,0,1-4.642,4.642" transform="translate(-2422.055 -8438.676)" fill="#343847"/>
    <path id="Trazado_242709" data-name="Trazado 242709" d="M77.578,35.131H11.261a3.1,3.1,0,0,1-3.1-3.1V29.351a3.1,3.1,0,0,1,3.1-3.1H77.578a3.1,3.1,0,0,1,3.1,3.1V32.03a3.1,3.1,0,0,1-3.1,3.1" transform="translate(-2422.089 -8438.754)" fill="#464f60"/>
    <path id="Trazado_242710" data-name="Trazado 242710" d="M20.168,32.331H13.036a1.883,1.883,0,0,1,0-3.767h7.132a1.883,1.883,0,0,1,0,3.767" transform="translate(-2422.121 -8438.779)" fill="#cecece"/>
    <path id="Trazado_242711" data-name="Trazado 242711" d="M67.026,30.594a2.371,2.371,0,1,1-2.371-2.371,2.371,2.371,0,0,1,2.371,2.371" transform="translate(-2422.676 -8438.775)" fill="#4098cd"/>
    <path id="Trazado_242712" data-name="Trazado 242712" d="M76.308,30.594a2.371,2.371,0,1,1-2.371-2.371,2.371,2.371,0,0,1,2.371,2.371" transform="translate(-2422.777 -8438.775)" fill="#4098cd"/>
    <path id="Trazado_242713" data-name="Trazado 242713" d="M80.038,10.318H60.058a2.422,2.422,0,0,1,0-4.844h19.98a2.422,2.422,0,0,1,0,4.844" transform="translate(-2422.626 -8438.528)" fill="#fff"/>
    <path id="Trazado_242714" data-name="Trazado 242714" d="M80.836,98.88H7.377a3.3,3.3,0,0,1-3.3-3.3V89.395a3.3,3.3,0,0,1,3.3-3.3H80.836a3.3,3.3,0,0,1,3.3,3.3v6.189a3.3,3.3,0,0,1-3.3,3.3" transform="translate(-2422.044 -8439.403)" fill="#343847"/>
    <path id="Trazado_242715" data-name="Trazado 242715" d="M77.264,94.818H68.6a.546.546,0,0,1-.546-.546V90.453a.546.546,0,0,1,.546-.546h8.663a.546.546,0,0,1,.546.546v3.819a.546.546,0,0,1-.546.546" transform="translate(-2422.739 -8439.445)" fill="#fff"/>
    <path id="Trazado_242716" data-name="Trazado 242716" d="M76.551,92.11H69.332a.453.453,0,0,1-.452-.452v-.551a.452.452,0,0,1,.452-.452h7.219a.452.452,0,0,1,.452.452v.551a.453.453,0,0,1-.452.452" transform="translate(-2422.748 -8439.453)" fill="#343847"/>
    <path id="Trazado_242717" data-name="Trazado 242717" d="M64.852,94.818H56.189a.546.546,0,0,1-.546-.546V90.453a.546.546,0,0,1,.546-.546h8.663a.546.546,0,0,1,.546.546v3.819a.546.546,0,0,1-.546.546" transform="translate(-2422.604 -8439.445)" fill="#fff"/>
    <path id="Trazado_242718" data-name="Trazado 242718" d="M64.139,92.11H56.92a.453.453,0,0,1-.452-.452v-.551a.452.452,0,0,1,.452-.452h7.219a.451.451,0,0,1,.452.452v.551a.452.452,0,0,1-.452.452" transform="translate(-2422.613 -8439.453)" fill="#343847"/>
    <path id="Trazado_242719" data-name="Trazado 242719" d="M43.5,94.8a2.366,2.366,0,1,1,2.365-2.366A2.369,2.369,0,0,1,43.5,94.8m0-3.9a1.537,1.537,0,1,0,1.535,1.536A1.539,1.539,0,0,0,43.5,90.895" transform="translate(-2422.447 -8439.446)" fill="#ff5e4c"/>
    <path id="Trazado_242720" data-name="Trazado 242720" d="M50.1,94.8a2.366,2.366,0,1,1,2.366-2.366A2.368,2.368,0,0,1,50.1,94.8m0-3.9a1.537,1.537,0,1,0,1.536,1.536A1.538,1.538,0,0,0,50.1,90.895" transform="translate(-2422.518 -8439.446)" fill="#46c596"/>
    <path id="Trazado_242721" data-name="Trazado 242721" d="M41.213,173.448H37.176a1.917,1.917,0,0,1,0-3.835h4.037a1.917,1.917,0,0,1,0,3.835" transform="translate(-2422.383 -8440.311)" fill="#fff"/>
    <path id="Trazado_242722" data-name="Trazado 242722" d="M51.975,173.448H47.938a1.917,1.917,0,0,1,0-3.835h4.037a1.917,1.917,0,0,1,0,3.835" transform="translate(-2422.5 -8440.311)" fill="#fff"/>
    <path id="Trazado_242723" data-name="Trazado 242723" d="M58.264,128.968a13.319,13.319,0,1,1-13.32-13.32,13.321,13.321,0,0,1,13.32,13.32" transform="translate(-2422.343 -8439.725)" fill="#343847"/>
    <path id="Trazado_242724" data-name="Trazado 242724" d="M53.753,129.018a8.76,8.76,0,1,1-8.76-8.76,8.76,8.76,0,0,1,8.76,8.76" transform="translate(-2422.393 -8439.774)" fill="#fff"/>
    <path id="Trazado_242725" data-name="Trazado 242725" d="M45.03,134.873a5.442,5.442,0,0,1-3.6-9.523,1.02,1.02,0,0,1,1.35,1.53,3.4,3.4,0,1,0,4.5,0,1.02,1.02,0,1,1,1.352-1.528,5.442,5.442,0,0,1-3.6,9.52" transform="translate(-2422.43 -8439.827)" fill="#343847"/>
    <path id="Trazado_242726" data-name="Trazado 242726" d="M45.079,128.859h0a1.02,1.02,0,0,1-1.02-1.02v-3.571a1.02,1.02,0,1,1,2.04,0v3.571a1.02,1.02,0,0,1-1.02,1.02" transform="translate(-2422.478 -8439.807)" fill="#343847"/>
    <rect id="Rectángulo_263290" data-name="Rectángulo 263290" width="88.258" height="195.896" transform="translate(-2422 -8438.469)" fill="none"/>
    <path id="Trazado_247851" data-name="Trazado 247851" d="M5.256-5.7A7.935,7.935,0,0,1,2.1-7.238a2.93,2.93,0,0,1-.989-2.246,3.1,3.1,0,0,1,1.208-2.5,4.8,4.8,0,0,1,3.142-.989,5.243,5.243,0,0,1,2.351.51,3.866,3.866,0,0,1,1.6,1.406A3.6,3.6,0,0,1,9.976-9.1h-1.7a2.34,2.34,0,0,0-.738-1.83,3,3,0,0,0-2.083-.666,3.074,3.074,0,0,0-1.947.55,1.836,1.836,0,0,0-.7,1.528A1.652,1.652,0,0,0,3.476-8.19,6.509,6.509,0,0,0,5.735-7.2a10.481,10.481,0,0,1,2.5.99A3.788,3.788,0,0,1,9.567-4.948,3.219,3.219,0,0,1,10-3.252,2.99,2.99,0,0,1,8.789-.76,5.171,5.171,0,0,1,5.546.176,6.015,6.015,0,0,1,3.085-.33,4.142,4.142,0,0,1,1.323-1.714a3.378,3.378,0,0,1-.62-2H2.4a2.2,2.2,0,0,0,.857,1.833,3.608,3.608,0,0,0,2.29.672,3.317,3.317,0,0,0,2.048-.545,1.77,1.77,0,0,0,.712-1.485,1.738,1.738,0,0,0-.659-1.455A7.6,7.6,0,0,0,5.256-5.7Zm10.811-.668,3.34-6.425h1.916L16.91-4.772V0H15.223V-4.772L10.811-12.8h1.934ZM32.81,0h-1.7L24.671-9.861V0h-1.7V-12.8h1.7l6.46,9.905V-12.8H32.81Z" transform="translate(-2617 -8452.033)" fill="#500c75"/>
    <path id="Trazado_247853" data-name="Trazado 247853" d="M5.256-5.7A7.935,7.935,0,0,1,2.1-7.238a2.93,2.93,0,0,1-.989-2.246,3.1,3.1,0,0,1,1.208-2.5,4.8,4.8,0,0,1,3.142-.989,5.243,5.243,0,0,1,2.351.51,3.866,3.866,0,0,1,1.6,1.406A3.6,3.6,0,0,1,9.976-9.1h-1.7a2.34,2.34,0,0,0-.738-1.83,3,3,0,0,0-2.083-.666,3.074,3.074,0,0,0-1.947.55,1.836,1.836,0,0,0-.7,1.528A1.652,1.652,0,0,0,3.476-8.19,6.509,6.509,0,0,0,5.735-7.2a10.481,10.481,0,0,1,2.5.99A3.788,3.788,0,0,1,9.567-4.948,3.219,3.219,0,0,1,10-3.252,2.99,2.99,0,0,1,8.789-.76,5.171,5.171,0,0,1,5.546.176,6.015,6.015,0,0,1,3.085-.33,4.142,4.142,0,0,1,1.323-1.714a3.378,3.378,0,0,1-.62-2H2.4a2.2,2.2,0,0,0,.857,1.833,3.608,3.608,0,0,0,2.29.672,3.317,3.317,0,0,0,2.048-.545,1.77,1.77,0,0,0,.712-1.485,1.738,1.738,0,0,0-.659-1.455A7.6,7.6,0,0,0,5.256-5.7Zm10.811-.668,3.34-6.425h1.916L16.91-4.772V0H15.223V-4.772L10.811-12.8h1.934ZM32.81,0h-1.7L24.671-9.861V0h-1.7V-12.8h1.7l6.46,9.905V-12.8H32.81Zm3.067,1.1h-1.4l5.344-13.9h1.389ZM50.291-3.349H44.93L43.726,0h-1.74l4.887-12.8h1.477L53.244,0H51.513Zm-4.852-1.38H49.79l-2.18-5.985Zm18.94.668a4.708,4.708,0,0,1-1.5,3.133,4.911,4.911,0,0,1-3.353,1.1A4.509,4.509,0,0,1,55.894-1.45,6.542,6.542,0,0,1,54.527-5.8v-1.23a7.291,7.291,0,0,1,.637-3.138,4.76,4.76,0,0,1,1.806-2.079,5.029,5.029,0,0,1,2.707-.725,4.624,4.624,0,0,1,3.27,1.138A4.765,4.765,0,0,1,64.38-8.684h-1.7a3.677,3.677,0,0,0-.954-2.222,2.885,2.885,0,0,0-2.052-.688,3.019,3.019,0,0,0-2.536,1.2,5.492,5.492,0,0,0-.918,3.4v1.24a5.645,5.645,0,0,0,.87,3.316A2.812,2.812,0,0,0,59.528-1.2a3.247,3.247,0,0,0,2.158-.637,3.536,3.536,0,0,0,1-2.219Zm5.555-1.89L68.37-4.324V0H66.683V-12.8H68.37v6.328L74.057-12.8H76.1L71.06-7.146,76.491,0H74.47Z" transform="translate(-2638 -8344.291)" fill="#500c75"/>
    <path id="Trazado_247854" data-name="Trazado 247854" d="M8.552-3.349H3.19L1.986,0H.246L5.133-12.8H6.609L11.5,0H9.773ZM3.7-4.729H8.051l-2.18-5.985Zm18.94.668a4.708,4.708,0,0,1-1.5,3.133,4.911,4.911,0,0,1-3.353,1.1A4.509,4.509,0,0,1,14.155-1.45,6.542,6.542,0,0,1,12.788-5.8v-1.23a7.291,7.291,0,0,1,.637-3.138,4.76,4.76,0,0,1,1.806-2.079,5.029,5.029,0,0,1,2.707-.725,4.624,4.624,0,0,1,3.27,1.138,4.765,4.765,0,0,1,1.433,3.151h-1.7a3.677,3.677,0,0,0-.954-2.222,2.885,2.885,0,0,0-2.052-.688A3.019,3.019,0,0,0,15.4-10.4a5.492,5.492,0,0,0-.918,3.4v1.24a5.645,5.645,0,0,0,.87,3.316A2.812,2.812,0,0,0,17.789-1.2a3.247,3.247,0,0,0,2.158-.637,3.536,3.536,0,0,0,1-2.219ZM28.2-5.95,26.631-4.324V0H24.943V-12.8h1.688v6.328L32.317-12.8h2.039L29.32-7.146,34.752,0H32.73Z" transform="translate(-2617 -8219.031)" fill="#500c75"/>
    <path id="Trazado_247850" data-name="Trazado 247850" d="M10.9-4.061A4.708,4.708,0,0,1,9.4-.927,4.911,4.911,0,0,1,6.047.176,4.509,4.509,0,0,1,2.413-1.45,6.542,6.542,0,0,1,1.046-5.8v-1.23a7.291,7.291,0,0,1,.637-3.138,4.76,4.76,0,0,1,1.806-2.079A5.029,5.029,0,0,1,6.2-12.973a4.624,4.624,0,0,1,3.27,1.138A4.765,4.765,0,0,1,10.9-8.684H9.2a3.677,3.677,0,0,0-.954-2.222A2.885,2.885,0,0,0,6.2-11.593a3.019,3.019,0,0,0-2.536,1.2,5.492,5.492,0,0,0-.918,3.4v1.24a5.645,5.645,0,0,0,.87,3.316A2.812,2.812,0,0,0,6.047-1.2,3.247,3.247,0,0,0,8.2-1.841a3.536,3.536,0,0,0,1-2.219ZM14.713,0H13.087V-13.5h1.626Zm4.368,0H17.455V-9.51h1.626ZM17.323-12.032a.971.971,0,0,1,.242-.668.907.907,0,0,1,.716-.272A.922.922,0,0,1,19-12.7a.96.96,0,0,1,.246.668.929.929,0,0,1-.246.659.938.938,0,0,1-.721.264.924.924,0,0,1-.716-.264A.938.938,0,0,1,17.323-12.032ZM25.629.176a4.155,4.155,0,0,1-3.146-1.27,4.714,4.714,0,0,1-1.213-3.4v-.3a5.707,5.707,0,0,1,.541-2.527,4.217,4.217,0,0,1,1.512-1.74,3.8,3.8,0,0,1,2.1-.628A3.562,3.562,0,0,1,28.31-8.464a5.289,5.289,0,0,1,1.028,3.5v.677H22.9a3.38,3.38,0,0,0,.822,2.272,2.583,2.583,0,0,0,2,.866A2.832,2.832,0,0,0,27.176-1.5a3.666,3.666,0,0,0,1.046-.932l.993.773A3.993,3.993,0,0,1,25.629.176Zm-.2-8.525a2.169,2.169,0,0,0-1.652.716,3.482,3.482,0,0,0-.826,2.008h4.764v-.123a3.1,3.1,0,0,0-.668-1.92A2.042,2.042,0,0,0,25.427-8.35Zm7.33-1.16.053,1.2a3.465,3.465,0,0,1,2.848-1.371q3.015,0,3.041,3.4V0H37.072V-6.293a2.189,2.189,0,0,0-.47-1.521,1.884,1.884,0,0,0-1.437-.492,2.347,2.347,0,0,0-1.389.422,2.865,2.865,0,0,0-.932,1.107V0H31.219V-9.51Zm10.6-2.3v2.3h1.775v1.257H43.356v5.9a1.32,1.32,0,0,0,.237.858A1,1,0,0,0,44.4-1.2a3.937,3.937,0,0,0,.773-.105V0a4.742,4.742,0,0,1-1.248.175,2.025,2.025,0,0,1-1.644-.659,2.832,2.832,0,0,1-.554-1.872v-5.9H40V-9.51H41.73v-2.3Z" transform="translate(-2861 -8463.968)" fill="#500c75"/>
    <path id="Trazado_247852" data-name="Trazado 247852" d="M5.256-5.7A7.935,7.935,0,0,1,2.1-7.238a2.93,2.93,0,0,1-.989-2.246,3.1,3.1,0,0,1,1.208-2.5,4.8,4.8,0,0,1,3.142-.989,5.243,5.243,0,0,1,2.351.51,3.866,3.866,0,0,1,1.6,1.406A3.6,3.6,0,0,1,9.976-9.1h-1.7a2.34,2.34,0,0,0-.738-1.83,3,3,0,0,0-2.083-.666,3.074,3.074,0,0,0-1.947.55,1.836,1.836,0,0,0-.7,1.528A1.652,1.652,0,0,0,3.476-8.19,6.509,6.509,0,0,0,5.735-7.2a10.481,10.481,0,0,1,2.5.99A3.788,3.788,0,0,1,9.567-4.948,3.219,3.219,0,0,1,10-3.252,2.99,2.99,0,0,1,8.789-.76,5.171,5.171,0,0,1,5.546.176,6.015,6.015,0,0,1,3.085-.33,4.142,4.142,0,0,1,1.323-1.714a3.378,3.378,0,0,1-.62-2H2.4a2.2,2.2,0,0,0,.857,1.833,3.608,3.608,0,0,0,2.29.672,3.317,3.317,0,0,0,2.048-.545,1.77,1.77,0,0,0,.712-1.485,1.738,1.738,0,0,0-.659-1.455A7.6,7.6,0,0,0,5.256-5.7Zm10.6,5.88a4.155,4.155,0,0,1-3.146-1.27,4.714,4.714,0,0,1-1.213-3.4v-.3a5.707,5.707,0,0,1,.541-2.527,4.217,4.217,0,0,1,1.512-1.74,3.8,3.8,0,0,1,2.1-.628,3.562,3.562,0,0,1,2.883,1.222,5.289,5.289,0,0,1,1.028,3.5v.677H13.122a3.38,3.38,0,0,0,.822,2.272,2.583,2.583,0,0,0,2,.866A2.832,2.832,0,0,0,17.4-1.5a3.666,3.666,0,0,0,1.046-.932l.993.773A3.993,3.993,0,0,1,15.855.176Zm-.2-8.525A2.169,2.169,0,0,0,14-7.633a3.482,3.482,0,0,0-.826,2.008h4.764v-.123a3.1,3.1,0,0,0-.668-1.92A2.042,2.042,0,0,0,15.653-8.35Zm10.389.3a4.873,4.873,0,0,0-.8-.062A2.143,2.143,0,0,0,23.071-6.75V0H21.445V-9.51h1.582l.026,1.1a2.532,2.532,0,0,1,2.268-1.274,1.661,1.661,0,0,1,.721.123Zm4.79,5.845,2.355-7.3h1.661L31.438,0H30.2L26.754-9.51h1.661ZM40.359.176a4.155,4.155,0,0,1-3.146-1.27A4.714,4.714,0,0,1,36-4.491v-.3a5.707,5.707,0,0,1,.541-2.527,4.217,4.217,0,0,1,1.512-1.74,3.8,3.8,0,0,1,2.1-.628A3.562,3.562,0,0,1,43.04-8.464a5.289,5.289,0,0,1,1.028,3.5v.677H37.626a3.38,3.38,0,0,0,.822,2.272,2.583,2.583,0,0,0,2,.866A2.832,2.832,0,0,0,41.906-1.5a3.666,3.666,0,0,0,1.046-.932l.993.773A3.993,3.993,0,0,1,40.359.176Zm-.2-8.525a2.169,2.169,0,0,0-1.652.716,3.482,3.482,0,0,0-.826,2.008h4.764v-.123a3.1,3.1,0,0,0-.668-1.92A2.042,2.042,0,0,0,40.157-8.35Zm10.389.3a4.873,4.873,0,0,0-.8-.062A2.143,2.143,0,0,0,47.575-6.75V0H45.949V-9.51h1.582l.026,1.1a2.532,2.532,0,0,1,2.268-1.274,1.661,1.661,0,0,1,.721.123Z" transform="translate(-2404 -8457.968)" fill="#500c75"/>
  </g>
</svg>
