<svg xmlns="http://www.w3.org/2000/svg" xmlns:xlink="http://www.w3.org/1999/xlink" width="733" height="420" viewBox="0 0 733 420">
  <defs>
    <filter id="Trazado_245835" x="0" y="0" width="733" height="420" filterUnits="userSpaceOnUse">
      <feOffset dy="3" input="SourceAlpha"/>
      <feGaussianBlur stdDeviation="3" result="blur"/>
      <feFlood flood-opacity="0.161"/>
      <feComposite operator="in" in2="blur"/>
      <feComposite in="SourceGraphic"/>
    </filter>
    <filter id="Rectángulo_263283" x="107" y="263" width="532" height="85" filterUnits="userSpaceOnUse">
      <feOffset dy="3" input="SourceAlpha"/>
      <feGaussianBlur stdDeviation="3" result="blur-2"/>
      <feFlood flood-opacity="0.161"/>
      <feComposite operator="in" in2="blur-2"/>
      <feComposite in="SourceGraphic"/>
    </filter>
    <filter id="Rectángulo_263284" x="107" y="219" width="532" height="55" filterUnits="userSpaceOnUse">
      <feOffset dy="3" input="SourceAlpha"/>
      <feGaussianBlur stdDeviation="3" result="blur-3"/>
      <feFlood flood-opacity="0.161"/>
      <feComposite operator="in" in2="blur-3"/>
      <feComposite in="SourceGraphic"/>
    </filter>
    <filter id="Rectángulo_263285" x="107" y="164" width="131" height="65" filterUnits="userSpaceOnUse">
      <feOffset dy="3" input="SourceAlpha"/>
      <feGaussianBlur stdDeviation="3" result="blur-4"/>
      <feFlood flood-opacity="0.161"/>
      <feComposite operator="in" in2="blur-4"/>
      <feComposite in="SourceGraphic"/>
    </filter>
    <filter id="Rectángulo_263286" x="223" y="164" width="152" height="65" filterUnits="userSpaceOnUse">
      <feOffset dy="3" input="SourceAlpha"/>
      <feGaussianBlur stdDeviation="3" result="blur-5"/>
      <feFlood flood-opacity="0.161"/>
      <feComposite operator="in" in2="blur-5"/>
      <feComposite in="SourceGraphic"/>
    </filter>
    <filter id="Trazado_242684" x="360" y="164" width="279" height="65" filterUnits="userSpaceOnUse">
      <feOffset dy="3" input="SourceAlpha"/>
      <feGaussianBlur stdDeviation="3" result="blur-6"/>
      <feFlood flood-opacity="0.161"/>
      <feComposite operator="in" in2="blur-6"/>
      <feComposite in="SourceGraphic"/>
    </filter>
  </defs>
  <g id="Grupo_715902" data-name="Grupo 715902" transform="translate(2934 9738)">
    <g transform="matrix(1, 0, 0, 1, -2934, -9738)" filter="url(#Trazado_245835)">
      <path id="Trazado_245835-2" data-name="Trazado 245835" d="M19,0H696a19,19,0,0,1,19,19V383a19,19,0,0,1-19,19H19A19,19,0,0,1,0,383V19A19,19,0,0,1,19,0Z" transform="translate(9 6)" fill="#f6f6f6"/>
    </g>
    <g id="Grupo_710515" data-name="Grupo 710515" transform="translate(43 -790)">
      <path id="Trazado_247845" data-name="Trazado 247845" d="M40.335,18.988V25H36.819V7.938h6.656a7.7,7.7,0,0,1,3.381.7,5.181,5.181,0,0,1,2.244,2,5.571,5.571,0,0,1,.785,2.947,4.9,4.9,0,0,1-1.717,3.955,7.15,7.15,0,0,1-4.752,1.447Zm0-2.848h3.141a3.088,3.088,0,0,0,2.127-.656,2.387,2.387,0,0,0,.732-1.875,2.814,2.814,0,0,0-.738-2.027,2.758,2.758,0,0,0-2.039-.8H40.335ZM59.3,25a3.761,3.761,0,0,1-.34-1.137,4.1,4.1,0,0,1-3.2,1.371,4.5,4.5,0,0,1-3.088-1.078,3.467,3.467,0,0,1-1.225-2.719,3.583,3.583,0,0,1,1.494-3.094,7.373,7.373,0,0,1,4.318-1.09h1.559v-.727a2.089,2.089,0,0,0-.451-1.406,1.775,1.775,0,0,0-1.424-.527A2.018,2.018,0,0,0,55.6,15a1.393,1.393,0,0,0-.486,1.125H51.725a3.4,3.4,0,0,1,.68-2.039,4.493,4.493,0,0,1,1.922-1.471,7,7,0,0,1,2.789-.533,5.534,5.534,0,0,1,3.721,1.178,4.12,4.12,0,0,1,1.377,3.311v5.5a6.062,6.062,0,0,0,.5,2.73V25Zm-2.8-2.355a2.917,2.917,0,0,0,1.383-.334,2.194,2.194,0,0,0,.938-.9v-2.18H57.55q-2.543,0-2.707,1.758l-.012.2a1.356,1.356,0,0,0,.445,1.043A1.73,1.73,0,0,0,56.495,22.645Zm7.793-4.1a7.579,7.579,0,0,1,1.33-4.723,4.348,4.348,0,0,1,3.65-1.734,3.893,3.893,0,0,1,3.246,1.559l.223-1.324h2.977V29.875h-3.4V23.91a3.9,3.9,0,0,1-3.07,1.324,4.316,4.316,0,0,1-3.609-1.758A7.951,7.951,0,0,1,64.288,18.543Zm3.387.24a4.972,4.972,0,0,0,.639,2.77,2.045,2.045,0,0,0,1.8.951,2.278,2.278,0,0,0,2.2-1.244V16.014a2.259,2.259,0,0,0-2.18-1.2,2.069,2.069,0,0,0-1.816.951A5.491,5.491,0,0,0,67.675,18.783Zm18.293,4.928A4.247,4.247,0,0,1,82.5,25.234a4.005,4.005,0,0,1-3.111-1.172,5,5,0,0,1-1.1-3.434V12.32h3.387v8.2q0,1.983,1.8,1.983a2.445,2.445,0,0,0,2.367-1.2V12.32h3.4V25H86.061ZM97.64,25.234A6.225,6.225,0,0,1,93.1,23.523a6.082,6.082,0,0,1-1.752-4.559v-.328a7.66,7.66,0,0,1,.738-3.416,5.418,5.418,0,0,1,2.092-2.32,5.871,5.871,0,0,1,3.088-.814,5.262,5.262,0,0,1,4.1,1.641,6.667,6.667,0,0,1,1.494,4.652v1.383H94.78a3.146,3.146,0,0,0,.99,1.992,2.993,2.993,0,0,0,2.092.75,3.656,3.656,0,0,0,3.059-1.418l1.664,1.863a5.084,5.084,0,0,1-2.062,1.682A6.767,6.767,0,0,1,97.64,25.234Zm-.387-10.418a2.116,2.116,0,0,0-1.635.683,3.535,3.535,0,0,0-.8,1.954h4.711v-.271a2.521,2.521,0,0,0-.609-1.748A2.183,2.183,0,0,0,97.253,14.816ZM108.831,9.2V12.32H111V14.8h-2.168v6.328a1.511,1.511,0,0,0,.27,1.008,1.354,1.354,0,0,0,1.031.3,5.4,5.4,0,0,0,1-.082V24.93a6.972,6.972,0,0,1-2.051.3q-3.562,0-3.633-3.6V14.8h-1.852V12.32h1.852V9.2Zm9.891,16.031a6.225,6.225,0,0,1-4.541-1.711,6.082,6.082,0,0,1-1.752-4.559v-.328a7.66,7.66,0,0,1,.738-3.416,5.418,5.418,0,0,1,2.092-2.32,5.871,5.871,0,0,1,3.088-.814,5.262,5.262,0,0,1,4.1,1.641,6.667,6.667,0,0,1,1.494,4.652v1.383h-8.074a3.146,3.146,0,0,0,.99,1.992,2.993,2.993,0,0,0,2.092.75A3.656,3.656,0,0,0,122,21.086l1.664,1.863a5.084,5.084,0,0,1-2.062,1.682A6.767,6.767,0,0,1,118.722,25.234Zm-.387-10.418a2.116,2.116,0,0,0-1.635.683,3.535,3.535,0,0,0-.8,1.954h4.711v-.271A2.521,2.521,0,0,0,120,15.434,2.183,2.183,0,0,0,118.335,14.816ZM135.8,25H132.28V7.938H135.8Zm16.652-5.684a6.038,6.038,0,0,1-2.033,4.336,7.141,7.141,0,0,1-4.834,1.582,6.421,6.421,0,0,1-5.162-2.209,9.058,9.058,0,0,1-1.881-6.064V15.918a10.228,10.228,0,0,1,.867-4.336,6.5,6.5,0,0,1,2.479-2.877,7.746,7.746,0,0,1,8.5.58,6.488,6.488,0,0,1,2.086,4.441h-3.516a3.563,3.563,0,0,0-.92-2.4,3.407,3.407,0,0,0-2.408-.744A2.987,2.987,0,0,0,143,11.846a7.06,7.06,0,0,0-.9,3.908v1.289a7.556,7.556,0,0,0,.838,4.043,2.932,2.932,0,0,0,2.643,1.277,3.471,3.471,0,0,0,2.432-.744,3.361,3.361,0,0,0,.92-2.3Zm5.824-.328V25h-3.516V7.938h6.656a7.7,7.7,0,0,1,3.381.7,5.181,5.181,0,0,1,2.244,2,5.571,5.571,0,0,1,.785,2.947,4.9,4.9,0,0,1-1.717,3.955,7.15,7.15,0,0,1-4.752,1.447Zm0-2.848h3.141a3.088,3.088,0,0,0,2.127-.656,2.387,2.387,0,0,0,.732-1.875,2.814,2.814,0,0,0-.738-2.027,2.758,2.758,0,0,0-2.039-.8h-3.223Zm16.559-8.2,4.383,12.375,4.359-12.375h4.617V25h-3.527V20.336l.352-8.051L180.409,25h-2.414L173.4,12.3l.352,8.039V25h-3.516V7.938Z" transform="translate(-2714 -8859)" fill="#12263f"/>
      <g transform="matrix(1, 0, 0, 1, -2977, -8948)" filter="url(#Rectángulo_263283)">
        <rect id="Rectángulo_263283-2" data-name="Rectángulo 263283" width="514" height="67" transform="translate(116 269)" fill="#e2e7f1"/>
      </g>
      <g transform="matrix(1, 0, 0, 1, -2977, -8948)" filter="url(#Rectángulo_263284)">
        <rect id="Rectángulo_263284-2" data-name="Rectángulo 263284" width="514" height="37" transform="translate(116 225)" fill="#fff"/>
      </g>
      <g transform="matrix(1, 0, 0, 1, -2977, -8948)" filter="url(#Rectángulo_263285)">
        <rect id="Rectángulo_263285-2" data-name="Rectángulo 263285" width="113" height="47" transform="translate(116 170)" fill="#ffebf1"/>
      </g>
      <g transform="matrix(1, 0, 0, 1, -2977, -8948)" filter="url(#Rectángulo_263286)">
        <rect id="Rectángulo_263286-2" data-name="Rectángulo 263286" width="134" height="47" transform="translate(232 170)" fill="#fff"/>
      </g>
      <g transform="matrix(1, 0, 0, 1, -2977, -8948)" filter="url(#Trazado_242684)">
        <path id="Trazado_242684-2" data-name="Trazado 242684" d="M0,0H261V47H0Z" transform="translate(369 170)" fill="#fff"/>
      </g>
      <path id="Trazado_247851" data-name="Trazado 247851" d="M3.352-8.406A2.641,2.641,0,0,1,2.9-6.891,3.057,3.057,0,0,1,1.688-5.852,3.26,3.26,0,0,1,3.1-4.734a2.811,2.811,0,0,1,.52,1.664,2.972,2.972,0,0,1-1,2.352A3.827,3.827,0,0,1,0,.156,3.81,3.81,0,0,1-2.629-.723,2.986,2.986,0,0,1-3.617-3.07a2.9,2.9,0,0,1,.5-1.664A3.136,3.136,0,0,1-1.719-5.859,2.981,2.981,0,0,1-2.914-6.9a2.679,2.679,0,0,1-.437-1.508,2.94,2.94,0,0,1,.922-2.281A3.458,3.458,0,0,1,0-11.531a3.461,3.461,0,0,1,2.426.844A2.934,2.934,0,0,1,3.352-8.406ZM2.172-3.1a2.1,2.1,0,0,0-.605-1.555,2.147,2.147,0,0,0-1.582-.6,2.11,2.11,0,0,0-1.566.594A2.12,2.12,0,0,0-2.172-3.1,2.019,2.019,0,0,0-1.6-1.578,2.2,2.2,0,0,0,0-1.023a2.2,2.2,0,0,0,1.594-.559A2.014,2.014,0,0,0,2.172-3.1ZM0-10.344a1.865,1.865,0,0,0-1.379.527,1.937,1.937,0,0,0-.527,1.434,1.928,1.928,0,0,0,.52,1.4A1.844,1.844,0,0,0,0-6.445,1.844,1.844,0,0,0,1.387-6.98a1.928,1.928,0,0,0,.52-1.4A1.929,1.929,0,0,0,1.367-9.8,1.839,1.839,0,0,0,0-10.344Z" transform="translate(-2752 -8783)" fill="#12263f"/>
      <path id="Trazado_247852" data-name="Trazado 247852" d="M-3.289,0H-4.742V-9.633l-2.914,1.07V-9.875l4.141-1.555h.227ZM6.617-11.383v1.227H6.352a3.805,3.805,0,0,0-2.687,1A4.161,4.161,0,0,0,2.508-6.43,3.085,3.085,0,0,1,4.961-7.461,2.95,2.95,0,0,1,7.332-6.414a4.038,4.038,0,0,1,.887,2.7A4.025,4.025,0,0,1,7.262-.9,3.3,3.3,0,0,1,4.7.156,3.247,3.247,0,0,1,2.047-1.1a4.97,4.97,0,0,1-1.016-3.23v-.555a7.488,7.488,0,0,1,1.34-4.8,4.921,4.921,0,0,1,3.988-1.7Zm-1.9,5.125a2.306,2.306,0,0,0-1.367.445A2.32,2.32,0,0,0,2.484-4.7v.531A3.731,3.731,0,0,0,3.117-1.9,1.9,1.9,0,0,0,4.7-1.039,1.838,1.838,0,0,0,6.23-1.758a2.982,2.982,0,0,0,.559-1.883,2.983,2.983,0,0,0-.566-1.895A1.816,1.816,0,0,0,4.719-6.258Z" transform="translate(-2621 -8783)" fill="#12263f"/>
      <path id="Trazado_247853" data-name="Trazado 247853" d="M-5.937-6.391h1.086A2.387,2.387,0,0,0-3.242-6.93a1.8,1.8,0,0,0,.586-1.414,1.764,1.764,0,0,0-1.992-2,2.072,2.072,0,0,0-1.5.535A1.873,1.873,0,0,0-6.7-8.391H-8.148a2.9,2.9,0,0,1,.988-2.246,3.6,3.6,0,0,1,2.512-.895,3.558,3.558,0,0,1,2.523.852,3.076,3.076,0,0,1,.914,2.367,2.5,2.5,0,0,1-.48,1.438A2.9,2.9,0,0,1-3-5.836a2.8,2.8,0,0,1,1.449.984,2.734,2.734,0,0,1,.512,1.68,3.1,3.1,0,0,1-1,2.43,3.745,3.745,0,0,1-2.6.9A3.844,3.844,0,0,1-7.246-.711,2.877,2.877,0,0,1-8.25-3H-6.8a1.859,1.859,0,0,0,.586,1.438,2.229,2.229,0,0,0,1.57.539,2.187,2.187,0,0,0,1.6-.547,2.108,2.108,0,0,0,.555-1.57,1.912,1.912,0,0,0-.609-1.523,2.655,2.655,0,0,0-1.758-.547H-5.937ZM8.4,0H.945V-1.039L4.883-5.414A9.354,9.354,0,0,0,6.09-7.027a2.693,2.693,0,0,0,.332-1.285,2.041,2.041,0,0,0-.539-1.461,1.885,1.885,0,0,0-1.437-.57A2.232,2.232,0,0,0,2.77-9.73a2.343,2.343,0,0,0-.6,1.707H.727a3.355,3.355,0,0,1,1.012-2.539,3.751,3.751,0,0,1,2.707-.969,3.6,3.6,0,0,1,2.508.832,2.838,2.838,0,0,1,.922,2.215q0,1.68-2.141,4L2.688-1.18H8.4Z" transform="translate(-2356 -8783)" fill="#12263f"/>
      <path id="Trazado_247846" data-name="Trazado 247846" d="M-6.449-9.258H-9.863V0h-2.742V-9.258h-3.352v-2.117h9.508ZM-2.637,0H-5.277V-8.453h2.641Zm-2.8-10.633a1.175,1.175,0,0,1,.406-.922,1.533,1.533,0,0,1,1.055-.359,1.533,1.533,0,0,1,1.055.359,1.175,1.175,0,0,1,.406.922,1.175,1.175,0,0,1-.406.922,1.533,1.533,0,0,1-1.055.359,1.533,1.533,0,0,1-1.055-.359A1.175,1.175,0,0,1-5.434-10.633ZM6.832-4.164A5.1,5.1,0,0,1,5.945-1.02,2.843,2.843,0,0,1,3.551.156,2.437,2.437,0,0,1,1.637-.7V3.25H-1v-11.7H1.465l.078.781a2.437,2.437,0,0,1,1.992-.937,2.866,2.866,0,0,1,2.43,1.152,5.16,5.16,0,0,1,.867,3.168ZM4.2-4.328q0-2.25-1.312-2.25a1.239,1.239,0,0,0-1.25.672v3.328a1.279,1.279,0,0,0,1.266.7q1.258,0,1.3-2.172ZM7.66-4.3a4.989,4.989,0,0,1,.492-2.254,3.52,3.52,0,0,1,1.414-1.52,4.259,4.259,0,0,1,2.164-.531,3.887,3.887,0,0,1,2.992,1.176,4.512,4.512,0,0,1,1.094,3.2v.094A4.378,4.378,0,0,1,14.719-1,3.9,3.9,0,0,1,11.746.156a3.942,3.942,0,0,1-2.9-1.082,4.232,4.232,0,0,1-1.18-2.934Zm2.633.164a3.145,3.145,0,0,0,.367,1.719,1.223,1.223,0,0,0,1.086.547q1.406,0,1.438-2.164V-4.3q0-2.273-1.453-2.273-1.32,0-1.43,1.961Z" transform="translate(-2803 -8746.5)" fill="#12263f"/>
      <path id="Trazado_247847" data-name="Trazado 247847" d="M-19.273-3.852a4.154,4.154,0,0,1-.641,2.1,3.866,3.866,0,0,1-1.645,1.41,5.6,5.6,0,0,1-2.418.5A4.467,4.467,0,0,1-27.508-1.3,6.032,6.032,0,0,1-28.8-5.43v-.562a6.885,6.885,0,0,1,.582-2.926,4.41,4.41,0,0,1,1.676-1.937,4.676,4.676,0,0,1,2.531-.684,4.9,4.9,0,0,1,3.328,1.09,4.306,4.306,0,0,1,1.43,3h-2.734a2.037,2.037,0,0,0-.523-1.492,2.153,2.153,0,0,0-1.5-.453,1.638,1.638,0,0,0-1.5.766,4.921,4.921,0,0,0-.5,2.445v.8a5.445,5.445,0,0,0,.457,2.6,1.672,1.672,0,0,0,1.574.781,2.106,2.106,0,0,0,1.445-.445A1.89,1.89,0,0,0-22-3.852Zm10.93-1.6a6.708,6.708,0,0,1-.617,2.945A4.561,4.561,0,0,1-10.715-.535,4.884,4.884,0,0,1-13.3.156a4.953,4.953,0,0,1-2.578-.668,4.554,4.554,0,0,1-1.754-1.91,6.515,6.515,0,0,1-.66-2.852v-.641a6.737,6.737,0,0,1,.613-2.949,4.55,4.55,0,0,1,1.758-1.973,4.918,4.918,0,0,1,2.605-.7,4.87,4.87,0,0,1,2.578.688A4.632,4.632,0,0,1-8.98-8.887a6.544,6.544,0,0,1,.637,2.91Zm-2.789-.477A4.783,4.783,0,0,0-11.7-8.5a1.817,1.817,0,0,0-1.621-.879q-2.062,0-2.18,3.094l-.008.836a4.92,4.92,0,0,0,.555,2.57,1.814,1.814,0,0,0,1.648.9,1.792,1.792,0,0,0,1.6-.883,4.785,4.785,0,0,0,.57-2.539ZM-6.93,0V-11.375h3.664a5.39,5.39,0,0,1,2.711.684,4.805,4.805,0,0,1,1.879,1.93,5.826,5.826,0,0,1,.684,2.793v.523a5.86,5.86,0,0,1-.66,2.8A4.826,4.826,0,0,1-.512-.707,5.271,5.271,0,0,1-3.187,0Zm2.742-9.258v7.148h.953a2.133,2.133,0,0,0,1.813-.84,4.116,4.116,0,0,0,.633-2.5v-.492a4.082,4.082,0,0,0-.633-2.484,2.17,2.17,0,0,0-1.844-.836ZM6.336,0H3.6V-11.375H6.336ZM17.555-1.406A4.409,4.409,0,0,1,15.7-.273a7.986,7.986,0,0,1-2.672.43,4.764,4.764,0,0,1-3.57-1.367,5.534,5.534,0,0,1-1.43-3.8L8.023-6a6.788,6.788,0,0,1,.594-2.934,4.409,4.409,0,0,1,1.7-1.93,4.807,4.807,0,0,1,2.559-.676,5.039,5.039,0,0,1,3.3.973,4.121,4.121,0,0,1,1.371,2.9H14.906A2.157,2.157,0,0,0,14.3-9.023a1.966,1.966,0,0,0-1.328-.406,1.789,1.789,0,0,0-1.594.875,4.672,4.672,0,0,0-.57,2.5v.688a4.574,4.574,0,0,0,.582,2.559,2.059,2.059,0,0,0,1.832.855,2.3,2.3,0,0,0,1.594-.477V-4.2H12.906V-6.078h4.648ZM28.781-5.453a6.708,6.708,0,0,1-.617,2.945A4.561,4.561,0,0,1,26.41-.535a4.884,4.884,0,0,1-2.59.691,4.953,4.953,0,0,1-2.578-.668,4.554,4.554,0,0,1-1.754-1.91,6.515,6.515,0,0,1-.66-2.852v-.641a6.737,6.737,0,0,1,.613-2.949A4.55,4.55,0,0,1,21.2-10.836a4.918,4.918,0,0,1,2.605-.7,4.87,4.87,0,0,1,2.578.688,4.632,4.632,0,0,1,1.762,1.957,6.544,6.544,0,0,1,.637,2.91ZM25.992-5.93A4.783,4.783,0,0,0,25.426-8.5,1.817,1.817,0,0,0,23.8-9.383q-2.062,0-2.18,3.094l-.008.836a4.92,4.92,0,0,0,.555,2.57,1.814,1.814,0,0,0,1.648.9,1.792,1.792,0,0,0,1.6-.883,4.785,4.785,0,0,0,.57-2.539Zm-79.566,18.3a11.939,11.939,0,0,1,.508-3.547,8.56,8.56,0,0,1,1.4-2.781,4.98,4.98,0,0,1,1.988-1.594l.5,1.3a5.093,5.093,0,0,0-1.691,2.512,12.25,12.25,0,0,0-.605,4v.344a12.49,12.49,0,0,0,.6,4.078,5.072,5.072,0,0,0,1.7,2.531l-.5,1.3a4.931,4.931,0,0,1-1.988-1.6,8.43,8.43,0,0,1-1.4-2.77,12,12,0,0,1-.508-3.422Zm14.5-4.633h-3.414V17H-45.23V7.742h-3.352V5.625h9.508ZM-35.262,17H-37.9V8.547h2.641Zm-2.8-10.633a1.175,1.175,0,0,1,.406-.922A1.533,1.533,0,0,1-36.6,5.086a1.533,1.533,0,0,1,1.055.359,1.175,1.175,0,0,1,.406.922,1.175,1.175,0,0,1-.406.922,1.533,1.533,0,0,1-1.055.359,1.533,1.533,0,0,1-1.055-.359A1.175,1.175,0,0,1-38.059,6.367Zm12.266,6.469a5.1,5.1,0,0,1-.887,3.145,2.843,2.843,0,0,1-2.395,1.176,2.437,2.437,0,0,1-1.914-.852V20.25h-2.633V8.547h2.461l.078.781a2.437,2.437,0,0,1,1.992-.937,2.866,2.866,0,0,1,2.43,1.152,5.16,5.16,0,0,1,.867,3.168Zm-2.633-.164q0-2.25-1.312-2.25a1.239,1.239,0,0,0-1.25.672v3.328a1.279,1.279,0,0,0,1.266.7q1.258,0,1.3-2.172Zm3.461.023a4.989,4.989,0,0,1,.492-2.254,3.52,3.52,0,0,1,1.414-1.52,4.259,4.259,0,0,1,2.164-.531A3.887,3.887,0,0,1-17.9,9.566a4.512,4.512,0,0,1,1.094,3.2v.094A4.378,4.378,0,0,1-17.906,16a3.9,3.9,0,0,1-2.973,1.16,3.942,3.942,0,0,1-2.9-1.082,4.232,4.232,0,0,1-1.18-2.934Zm2.633.164a3.145,3.145,0,0,0,.367,1.719,1.223,1.223,0,0,0,1.086.547q1.406,0,1.438-2.164V12.7q0-2.273-1.453-2.273-1.32,0-1.43,1.961ZM-12,12.711a5.164,5.164,0,0,1,.867-3.164A2.854,2.854,0,0,1-8.707,8.391,2.428,2.428,0,0,1-6.8,9.281V5H-4.16V17H-6.527l-.133-.906a2.493,2.493,0,0,1-2.062,1.063A2.849,2.849,0,0,1-11.113,16,5.327,5.327,0,0,1-12,12.711Zm2.633.164q0,2.25,1.313,2.25a1.3,1.3,0,0,0,1.25-.734V11.172a1.261,1.261,0,0,0-1.234-.75q-1.219,0-1.32,1.969ZM1.426,17.156A4.345,4.345,0,0,1-1.723,16a4.006,4.006,0,0,1-1.2-3.02v-.219a5.191,5.191,0,0,1,.48-2.289,3.516,3.516,0,0,1,1.4-1.535,4.233,4.233,0,0,1,2.188-.543A3.659,3.659,0,0,1,3.957,9.5a4.344,4.344,0,0,1,1.031,3.082V13.6H-.246a1.9,1.9,0,0,0,.617,1.117,1.836,1.836,0,0,0,1.234.406,2.366,2.366,0,0,0,1.953-.875l1.2,1.422a3.363,3.363,0,0,1-1.395,1.082A4.713,4.713,0,0,1,1.426,17.156Zm-.3-6.734q-1.156,0-1.375,1.531H2.41v-.2a1.3,1.3,0,0,0-.32-.98A1.275,1.275,0,0,0,1.129,10.422Zm12.992,6.734A4.345,4.345,0,0,1,10.973,16a4.006,4.006,0,0,1-1.2-3.02v-.219a5.191,5.191,0,0,1,.48-2.289,3.516,3.516,0,0,1,1.4-1.535,4.233,4.233,0,0,1,2.188-.543A3.659,3.659,0,0,1,16.652,9.5a4.344,4.344,0,0,1,1.031,3.082V13.6H12.449a1.9,1.9,0,0,0,.617,1.117,1.836,1.836,0,0,0,1.234.406,2.366,2.366,0,0,0,1.953-.875l1.2,1.422a3.363,3.363,0,0,1-1.395,1.082A4.713,4.713,0,0,1,14.121,17.156Zm-.3-6.734q-1.156,0-1.375,1.531h2.656v-.2a1.3,1.3,0,0,0-.32-.98A1.275,1.275,0,0,0,13.824,10.422Zm10.031.508-.867-.062a1.558,1.558,0,0,0-1.594.781V17H18.762V8.547H21.23l.086,1.086a2.039,2.039,0,0,1,1.852-1.242,2.567,2.567,0,0,1,.734.094Zm6.063,0-.867-.062a1.558,1.558,0,0,0-1.594.781V17H24.824V8.547h2.469l.086,1.086A2.039,2.039,0,0,1,29.23,8.391a2.567,2.567,0,0,1,.734.094Zm.336,1.766a4.989,4.989,0,0,1,.492-2.254,3.52,3.52,0,0,1,1.414-1.52,4.259,4.259,0,0,1,2.164-.531,3.887,3.887,0,0,1,2.992,1.176,4.512,4.512,0,0,1,1.094,3.2v.094A4.378,4.378,0,0,1,37.313,16a3.9,3.9,0,0,1-2.973,1.16,3.942,3.942,0,0,1-2.9-1.082,4.232,4.232,0,0,1-1.18-2.934Zm2.633.164a3.145,3.145,0,0,0,.367,1.719,1.223,1.223,0,0,0,1.086.547q1.406,0,1.438-2.164V12.7q0-2.273-1.453-2.273-1.32,0-1.43,1.961Zm11.8-1.93-.867-.062a1.558,1.558,0,0,0-1.594.781V17H39.59V8.547h2.469l.086,1.086A2.039,2.039,0,0,1,44,8.391a2.567,2.567,0,0,1,.734.094Zm5.1,1.664a11.14,11.14,0,0,1-.539,3.484,8.9,8.9,0,0,1-1.488,2.832,4.955,4.955,0,0,1-2.051,1.605l-.5-1.3a5.144,5.144,0,0,0,1.68-2.5,12.068,12.068,0,0,0,.617-3.883v-.477a12.49,12.49,0,0,0-.6-4.078,5.072,5.072,0,0,0-1.7-2.531l.5-1.3a5.046,5.046,0,0,1,2.035,1.59,8.787,8.787,0,0,1,1.484,2.789,11.046,11.046,0,0,1,.559,3.418Z" transform="translate(-2677 -8756)" fill="#12263f"/>
      <path id="Trazado_247848" data-name="Trazado 247848" d="M-28.09-3.852a4.154,4.154,0,0,1-.641,2.1,3.866,3.866,0,0,1-1.645,1.41,5.6,5.6,0,0,1-2.418.5A4.467,4.467,0,0,1-36.324-1.3,6.032,6.032,0,0,1-37.613-5.43v-.562a6.885,6.885,0,0,1,.582-2.926,4.41,4.41,0,0,1,1.676-1.937,4.676,4.676,0,0,1,2.531-.684,4.9,4.9,0,0,1,3.328,1.09,4.306,4.306,0,0,1,1.43,3H-30.8a2.037,2.037,0,0,0-.523-1.492,2.153,2.153,0,0,0-1.5-.453,1.638,1.638,0,0,0-1.5.766,4.921,4.921,0,0,0-.5,2.445v.8a5.445,5.445,0,0,0,.457,2.6,1.672,1.672,0,0,0,1.574.781,2.106,2.106,0,0,0,1.445-.445,1.89,1.89,0,0,0,.531-1.414Zm3.75-3.7a2.635,2.635,0,0,1,2.156-1.062,2.627,2.627,0,0,1,2.109.828,3.721,3.721,0,0,1,.727,2.445V0h-2.641V-5.273a1.488,1.488,0,0,0-.273-.988,1.175,1.175,0,0,0-.93-.316,1.266,1.266,0,0,0-1.148.516V0h-2.633V-12h2.633Zm10.547,7.7A4.345,4.345,0,0,1-16.941-1a4.006,4.006,0,0,1-1.2-3.02v-.219a5.191,5.191,0,0,1,.48-2.289,3.516,3.516,0,0,1,1.4-1.535,4.233,4.233,0,0,1,2.188-.543A3.659,3.659,0,0,1-11.262-7.5,4.344,4.344,0,0,1-10.23-4.422V-3.4h-5.234a1.9,1.9,0,0,0,.617,1.117,1.836,1.836,0,0,0,1.234.406A2.366,2.366,0,0,0-11.66-2.75l1.2,1.422A3.363,3.363,0,0,1-11.852-.246,4.713,4.713,0,0,1-13.793.156Zm-.3-6.734q-1.156,0-1.375,1.531h2.656v-.2a1.3,1.3,0,0,0-.32-.98A1.275,1.275,0,0,0-14.09-6.578Zm8.492,4.7a1.171,1.171,0,0,0,.859-.3,1.1,1.1,0,0,0,.3-.84h2.469a2.922,2.922,0,0,1-1,2.281A3.705,3.705,0,0,1-5.535.156,3.751,3.751,0,0,1-8.441-1,4.556,4.556,0,0,1-9.5-4.2v-.109a5.149,5.149,0,0,1,.473-2.262A3.441,3.441,0,0,1-7.668-8.082a4.065,4.065,0,0,1,2.109-.527A3.658,3.658,0,0,1-2.941-7.7a3.242,3.242,0,0,1,.969,2.477H-4.441a1.445,1.445,0,0,0-.32-1.008,1.106,1.106,0,0,0-.859-.352q-1.023,0-1.2,1.3a9.206,9.206,0,0,0-.055,1.141,3.616,3.616,0,0,0,.3,1.766A1.055,1.055,0,0,0-5.6-1.875ZM2.535-3.148l-.742.742V0H-.84V-12.008H1.793v6.375l.266-.352L4.043-8.453H7.2L4.238-4.977,7.395,0H4.379Zm9.781.773a.608.608,0,0,0-.352-.539,5.348,5.348,0,0,0-1.336-.422A6.092,6.092,0,0,1,9-3.91a2.722,2.722,0,0,1-.977-.863,2.061,2.061,0,0,1-.336-1.164,2.336,2.336,0,0,1,.961-1.918,3.958,3.958,0,0,1,2.516-.754,4.386,4.386,0,0,1,2.688.758,2.37,2.37,0,0,1,1.016,1.992H12.23q0-1.016-1.07-1.016a1.061,1.061,0,0,0-.7.23.714.714,0,0,0-.281.574.655.655,0,0,0,.344.57,3.248,3.248,0,0,0,1.1.359,9.485,9.485,0,0,1,1.324.336,2.406,2.406,0,0,1,1.906,2.352A2.214,2.214,0,0,1,13.828-.57a4.505,4.505,0,0,1-2.66.727A4.6,4.6,0,0,1,9.23-.234,3.24,3.24,0,0,1,7.9-1.3a2.406,2.406,0,0,1-.477-1.414H9.887a1.017,1.017,0,0,0,.391.855,1.607,1.607,0,0,0,.961.27,1.264,1.264,0,0,0,.809-.219A.7.7,0,0,0,12.316-2.375Zm8.8,1.461A2.714,2.714,0,0,1,18.863.156a2.662,2.662,0,0,1-2.105-.809,3.4,3.4,0,0,1-.715-2.324V-8.453h2.633v5.492A.946.946,0,0,0,19.73-1.875a1.376,1.376,0,0,0,1.289-.648v-5.93h2.648V0H21.2ZM27.6-8.453l.086.992A2.906,2.906,0,0,1,30.1-8.609a2.14,2.14,0,0,1,2.164,1.273,2.813,2.813,0,0,1,2.484-1.273q2.57,0,2.641,3.109V0H34.746V-5.336a1.611,1.611,0,0,0-.219-.945.931.931,0,0,0-.8-.3,1.247,1.247,0,0,0-1.164.7l.008.109V0H29.934V-5.32a1.694,1.694,0,0,0-.211-.961.929.929,0,0,0-.8-.3,1.263,1.263,0,0,0-1.156.7V0H25.129V-8.453Z" transform="translate(-2477 -8744.824)" fill="#12263f"/>
      <path id="Trazado_247849" data-name="Trazado 247849" d="M10.063,17H8.555L2.828,8.234V17H1.32V5.625H2.828l5.742,8.8v-8.8h1.492Zm2.055-4.3a4.993,4.993,0,0,1,.488-2.234A3.643,3.643,0,0,1,13.965,8.93a3.7,3.7,0,0,1,1.988-.539,3.565,3.565,0,0,1,2.793,1.2,4.6,4.6,0,0,1,1.066,3.18v.1a5.036,5.036,0,0,1-.473,2.215,3.589,3.589,0,0,1-1.352,1.527,3.743,3.743,0,0,1-2.02.547,3.556,3.556,0,0,1-2.785-1.2A4.575,4.575,0,0,1,12.117,12.8Zm1.453.172a3.616,3.616,0,0,0,.652,2.258,2.211,2.211,0,0,0,3.5-.012,3.955,3.955,0,0,0,.648-2.418,3.61,3.61,0,0,0-.66-2.254,2.1,2.1,0,0,0-1.754-.863,2.075,2.075,0,0,0-1.727.852A3.925,3.925,0,0,0,13.57,12.867ZM33.82,5.625v7.734a3.628,3.628,0,0,1-1.012,2.633,4.077,4.077,0,0,1-2.723,1.148l-.4.016a4.258,4.258,0,0,1-2.977-1.008,3.6,3.6,0,0,1-1.125-2.773V5.625H27.07v7.7a2.6,2.6,0,0,0,.68,1.918,2.612,2.612,0,0,0,1.938.684,2.63,2.63,0,0,0,1.949-.68,2.6,2.6,0,0,0,.676-1.914V5.625Zm7.063,9.133a1.064,1.064,0,0,0-.441-.91,4.249,4.249,0,0,0-1.539-.559,7.277,7.277,0,0,1-1.742-.562,2.479,2.479,0,0,1-.953-.781,1.869,1.869,0,0,1-.309-1.078,2.193,2.193,0,0,1,.879-1.758,3.432,3.432,0,0,1,2.246-.719,3.532,3.532,0,0,1,2.332.742,2.357,2.357,0,0,1,.895,1.9H40.8a1.3,1.3,0,0,0-.5-1.023,1.888,1.888,0,0,0-1.27-.43,1.976,1.976,0,0,0-1.234.344,1.082,1.082,0,0,0-.445.9.877.877,0,0,0,.414.789,5.1,5.1,0,0,0,1.5.508,7.8,7.8,0,0,1,1.754.578,2.558,2.558,0,0,1,1,.809,1.988,1.988,0,0,1,.324,1.152,2.163,2.163,0,0,1-.906,1.816,3.8,3.8,0,0,1-2.352.684,4.257,4.257,0,0,1-1.8-.359,2.922,2.922,0,0,1-1.223-1,2.42,2.42,0,0,1-.441-1.395h1.445a1.5,1.5,0,0,0,.582,1.152,2.258,2.258,0,0,0,1.434.426,2.331,2.331,0,0,0,1.316-.332A1.02,1.02,0,0,0,40.883,14.758ZM49.43,17a3.036,3.036,0,0,1-.2-.891,3.225,3.225,0,0,1-2.406,1.047,2.984,2.984,0,0,1-2.051-.707,2.287,2.287,0,0,1-.8-1.793,2.39,2.39,0,0,1,1-2.051,4.733,4.733,0,0,1,2.824-.73H49.2v-.664A1.623,1.623,0,0,0,48.75,10a1.821,1.821,0,0,0-1.336-.449,2.107,2.107,0,0,0-1.3.391,1.151,1.151,0,0,0-.523.945H44.141a2,2,0,0,1,.449-1.223,3.066,3.066,0,0,1,1.219-.934A4.1,4.1,0,0,1,47.5,8.391a3.342,3.342,0,0,1,2.289.73,2.635,2.635,0,0,1,.859,2.012v3.891a4.757,4.757,0,0,0,.3,1.852V17Zm-2.4-1.1a2.54,2.54,0,0,0,1.289-.352,2.127,2.127,0,0,0,.883-.914V12.9H48.07q-2.656,0-2.656,1.555a1.316,1.316,0,0,0,.453,1.063A1.742,1.742,0,0,0,47.031,15.9Zm5.531-3.2a4.952,4.952,0,0,1,.922-3.129,3.137,3.137,0,0,1,4.766-.168V5H59.7V17H58.367l-.07-.906a2.943,2.943,0,0,1-2.414,1.063,2.887,2.887,0,0,1-2.395-1.2,5.008,5.008,0,0,1-.926-3.141Zm1.445.164a3.749,3.749,0,0,0,.594,2.25,1.92,1.92,0,0,0,1.641.813A2.108,2.108,0,0,0,58.25,14.7V10.813a2.125,2.125,0,0,0-1.992-1.2,1.929,1.929,0,0,0-1.656.82A4.128,4.128,0,0,0,54.008,12.867Zm7.547-.172a4.993,4.993,0,0,1,.488-2.234A3.643,3.643,0,0,1,63.4,8.93a3.7,3.7,0,0,1,1.988-.539,3.565,3.565,0,0,1,2.793,1.2,4.6,4.6,0,0,1,1.066,3.18v.1a5.036,5.036,0,0,1-.473,2.215,3.589,3.589,0,0,1-1.352,1.527,3.743,3.743,0,0,1-2.02.547,3.556,3.556,0,0,1-2.785-1.2A4.575,4.575,0,0,1,61.555,12.8Zm1.453.172a3.616,3.616,0,0,0,.652,2.258,2.211,2.211,0,0,0,3.5-.012A3.955,3.955,0,0,0,67.8,12.7a3.61,3.61,0,0,0-.66-2.254,2.1,2.1,0,0,0-1.754-.863,2.075,2.075,0,0,0-1.727.852A3.925,3.925,0,0,0,63.008,12.867Z" transform="translate(-2640.602 -8714)" fill="#12263f"/>
      <path id="Trazado_247850" data-name="Trazado 247850" d="M4.062,12.547V17h-1.5V5.625h4.2a4.215,4.215,0,0,1,2.926.953A3.231,3.231,0,0,1,10.742,9.1a3.189,3.189,0,0,1-1.035,2.551,4.4,4.4,0,0,1-2.965.895Zm0-1.227h2.7A2.7,2.7,0,0,0,8.6,10.753a2.075,2.075,0,0,0,.641-1.64A2.143,2.143,0,0,0,8.6,7.485a2.525,2.525,0,0,0-1.758-.634H4.062ZM17.562,17a3.036,3.036,0,0,1-.2-.891,3.225,3.225,0,0,1-2.406,1.047,2.984,2.984,0,0,1-2.051-.707,2.287,2.287,0,0,1-.8-1.793,2.39,2.39,0,0,1,1-2.051,4.733,4.733,0,0,1,2.824-.73h1.406v-.664A1.623,1.623,0,0,0,16.883,10a1.821,1.821,0,0,0-1.336-.449,2.107,2.107,0,0,0-1.3.391,1.151,1.151,0,0,0-.523.945H12.273a2,2,0,0,1,.449-1.223,3.066,3.066,0,0,1,1.219-.934,4.1,4.1,0,0,1,1.691-.344,3.342,3.342,0,0,1,2.289.73,2.635,2.635,0,0,1,.859,2.012v3.891a4.757,4.757,0,0,0,.3,1.852V17Zm-2.4-1.1a2.54,2.54,0,0,0,1.289-.352,2.127,2.127,0,0,0,.883-.914V12.9H16.2q-2.656,0-2.656,1.555A1.316,1.316,0,0,0,14,15.516,1.742,1.742,0,0,0,15.164,15.9ZM20.7,12.7a4.961,4.961,0,0,1,.914-3.152A3.226,3.226,0,0,1,26.43,9.4l.063-.852H27.82v11.7H26.375V16.219a3.033,3.033,0,0,1-2.328.938,2.915,2.915,0,0,1-2.441-1.191,5.072,5.072,0,0,1-.91-3.16Zm1.445.164a3.761,3.761,0,0,0,.613,2.281,1.951,1.951,0,0,0,1.652.828,2.164,2.164,0,0,0,1.969-1.141V10.7a2.171,2.171,0,0,0-1.953-1.117,1.965,1.965,0,0,0-1.664.832A4.094,4.094,0,0,0,22.141,12.867Zm13.219,3.3a3.07,3.07,0,0,1-2.477.992,2.628,2.628,0,0,1-2.059-.785,3.4,3.4,0,0,1-.715-2.324v-5.5h1.445v5.461q0,1.922,1.563,1.922a2.163,2.163,0,0,0,2.2-1.234V8.547h1.445V17H35.391Zm7.109.992a3.693,3.693,0,0,1-2.8-1.129,4.19,4.19,0,0,1-1.078-3.02v-.266a5.073,5.073,0,0,1,.48-2.246,3.748,3.748,0,0,1,1.344-1.547,3.378,3.378,0,0,1,1.871-.559,3.166,3.166,0,0,1,2.563,1.086,4.7,4.7,0,0,1,.914,3.109v.6H40.039a3,3,0,0,0,.73,2.02,2.3,2.3,0,0,0,1.777.77,2.517,2.517,0,0,0,1.3-.312,3.259,3.259,0,0,0,.93-.828l.883.688A3.55,3.55,0,0,1,42.469,17.156Zm-.18-7.578a1.928,1.928,0,0,0-1.469.637A3.1,3.1,0,0,0,40.086,12H44.32v-.109a2.753,2.753,0,0,0-.594-1.707A1.815,1.815,0,0,0,42.289,9.578ZM49.4,6.5V8.547h1.578V9.664H49.4v5.249a1.173,1.173,0,0,0,.211.763.888.888,0,0,0,.719.254,3.5,3.5,0,0,0,.688-.094V17a4.215,4.215,0,0,1-1.109.155,1.8,1.8,0,0,1-1.461-.586,2.517,2.517,0,0,1-.492-1.664V9.664H46.414V8.547h1.539V6.5Zm6.773,10.656a3.693,3.693,0,0,1-2.8-1.129,4.19,4.19,0,0,1-1.078-3.02v-.266a5.073,5.073,0,0,1,.48-2.246,3.748,3.748,0,0,1,1.344-1.547,3.378,3.378,0,0,1,1.871-.559,3.166,3.166,0,0,1,2.563,1.086,4.7,4.7,0,0,1,.914,3.109v.6H53.742a3,3,0,0,0,.73,2.02,2.3,2.3,0,0,0,1.777.77,2.517,2.517,0,0,0,1.3-.312,3.259,3.259,0,0,0,.93-.828l.883.688A3.55,3.55,0,0,1,56.172,17.156Zm-.18-7.578a1.928,1.928,0,0,0-1.469.637A3.1,3.1,0,0,0,53.789,12h4.234v-.109a2.753,2.753,0,0,0-.594-1.707A1.815,1.815,0,0,0,55.992,9.578ZM66.937,17h-1.5V5.625h1.5Zm4.242-4.453V17h-1.5V5.625h4.2a4.215,4.215,0,0,1,2.926.953A3.231,3.231,0,0,1,77.859,9.1a3.189,3.189,0,0,1-1.035,2.551,4.4,4.4,0,0,1-2.965.895Zm0-1.227h2.7a2.7,2.7,0,0,0,1.844-.567,2.075,2.075,0,0,0,.641-1.64,2.143,2.143,0,0,0-.641-1.628,2.525,2.525,0,0,0-1.758-.634H71.18ZM83.125,12.7a4.993,4.993,0,0,1,.488-2.234A3.643,3.643,0,0,1,84.973,8.93a3.7,3.7,0,0,1,1.988-.539,3.565,3.565,0,0,1,2.793,1.2,4.6,4.6,0,0,1,1.066,3.18v.1a5.036,5.036,0,0,1-.473,2.215A3.589,3.589,0,0,1,89,16.609a3.743,3.743,0,0,1-2.02.547,3.556,3.556,0,0,1-2.785-1.2A4.575,4.575,0,0,1,83.125,12.8Zm1.453.172a3.616,3.616,0,0,0,.652,2.258,2.211,2.211,0,0,0,3.5-.012,3.955,3.955,0,0,0,.648-2.418,3.61,3.61,0,0,0-.66-2.254,2.1,2.1,0,0,0-1.754-.863,2.075,2.075,0,0,0-1.727.852A3.925,3.925,0,0,0,84.578,12.867ZM96.719,9.844a4.331,4.331,0,0,0-.711-.055A1.9,1.9,0,0,0,94.078,11v6H92.633V8.547h1.406l.023.977a2.251,2.251,0,0,1,2.016-1.133,1.477,1.477,0,0,1,.641.109ZM99.617,17H98.172V8.547h1.445ZM98.055,6.3a.863.863,0,0,1,.215-.594.807.807,0,0,1,.637-.242.819.819,0,0,1,.641.242.854.854,0,0,1,.219.594.826.826,0,0,1-.219.586.834.834,0,0,1-.641.234.821.821,0,0,1-.637-.234A.834.834,0,0,1,98.055,6.3Zm3.531,6.4a4.968,4.968,0,0,1,.914-3.145,3.151,3.151,0,0,1,4.836-.074l.07-.937h1.32V16.8a3.439,3.439,0,0,1-.973,2.586,3.589,3.589,0,0,1-2.613.945,4.348,4.348,0,0,1-1.789-.391,3.08,3.08,0,0,1-1.336-1.07l.75-.867a2.826,2.826,0,0,0,2.273,1.148,2.214,2.214,0,0,0,1.645-.594,2.269,2.269,0,0,0,.59-1.672v-.727a2.971,2.971,0,0,1-2.367,1,2.887,2.887,0,0,1-2.4-1.2A5.224,5.224,0,0,1,101.586,12.7Zm1.453.164a3.79,3.79,0,0,0,.586,2.246,1.9,1.9,0,0,0,1.641.816,2.117,2.117,0,0,0,2.008-1.242V10.828a2.142,2.142,0,0,0-1.992-1.211,1.921,1.921,0,0,0-1.648.82A4.128,4.128,0,0,0,103.039,12.867ZM112.477,17h-1.445V8.547h1.445ZM110.914,6.3a.863.863,0,0,1,.215-.594.807.807,0,0,1,.637-.242.819.819,0,0,1,.641.242.854.854,0,0,1,.219.594.826.826,0,0,1-.219.586.834.834,0,0,1-.641.234.821.821,0,0,1-.637-.234A.834.834,0,0,1,110.914,6.3Zm5.242,2.242.047,1.063a3.08,3.08,0,0,1,2.531-1.219q2.68,0,2.7,3.023V17h-1.445V11.406a1.946,1.946,0,0,0-.418-1.352,1.675,1.675,0,0,0-1.277-.437,2.086,2.086,0,0,0-1.234.375,2.546,2.546,0,0,0-.828.984V17h-1.445V8.547ZM128.836,17a3.036,3.036,0,0,1-.2-.891,3.225,3.225,0,0,1-2.406,1.047,2.984,2.984,0,0,1-2.051-.707,2.288,2.288,0,0,1-.8-1.793,2.39,2.39,0,0,1,1-2.051,4.733,4.733,0,0,1,2.824-.73h1.406v-.664A1.623,1.623,0,0,0,128.156,10a1.821,1.821,0,0,0-1.336-.449,2.108,2.108,0,0,0-1.3.391,1.151,1.151,0,0,0-.523.945h-1.453A2,2,0,0,1,124,9.668a3.066,3.066,0,0,1,1.219-.934,4.1,4.1,0,0,1,1.691-.344,3.342,3.342,0,0,1,2.289.73,2.635,2.635,0,0,1,.859,2.012v3.891a4.757,4.757,0,0,0,.3,1.852V17Zm-2.4-1.1a2.54,2.54,0,0,0,1.289-.352,2.127,2.127,0,0,0,.883-.914V12.9h-1.133q-2.656,0-2.656,1.555a1.316,1.316,0,0,0,.453,1.063A1.742,1.742,0,0,0,126.437,15.9Zm7.453,1.1h-1.445V5h1.445Z" transform="translate(-2665.676 -8656)" fill="#12263f"/>
    </g>
  </g>
</svg>
