<svg xmlns="http://www.w3.org/2000/svg" xmlns:xlink="http://www.w3.org/1999/xlink" width="418" height="148.415" viewBox="0 0 418 148.415">
  <defs>
    <filter id="Rect치ngulo_44851" x="0" y="45.66" width="418" height="102.755" filterUnits="userSpaceOnUse">
      <feOffset dy="3" input="SourceAlpha"/>
      <feGaussianBlur stdDeviation="3" result="blur"/>
      <feFlood flood-opacity="0.161"/>
      <feComposite operator="in" in2="blur"/>
      <feComposite in="SourceGraphic"/>
    </filter>
    <filter id="Trazado_200043" x="0" y="0" width="418" height="79.252" filterUnits="userSpaceOnUse">
      <feOffset dy="3" input="SourceAlpha"/>
      <feGaussianBlur stdDeviation="3" result="blur-2"/>
      <feFlood flood-opacity="0.161"/>
      <feComposite operator="in" in2="blur-2"/>
      <feComposite in="SourceGraphic"/>
    </filter>
  </defs>
  <g id="Grupo_715849" data-name="Grupo 715849" transform="translate(-1009 -3304.296)">
    <g id="Grupo_715814" data-name="Grupo 715814" transform="translate(6664 11170)">
      <g id="Grupo_711773" data-name="Grupo 711773" transform="translate(-5646 -7860)">
        <g transform="matrix(1, 0, 0, 1, -9, -5.7)" filter="url(#Rect치ngulo_44851)">
          <rect id="Rect치ngulo_44851-2" data-name="Rect치ngulo 44851" width="400" height="84.755" transform="translate(9 51.66)" fill="#f6f6f6"/>
        </g>
        <g transform="matrix(1, 0, 0, 1, -9, -5.7)" filter="url(#Trazado_200043)">
          <path id="Trazado_200043-2" data-name="Trazado 200043" d="M0,0H400V61.252H0Z" transform="translate(9 6)" fill="#c0d9fa"/>
        </g>
        <path id="Trazado_247821" data-name="Trazado 247821" d="M-6.983-12.8v8.376a4.814,4.814,0,0,1-.606,2.465A3.929,3.929,0,0,1-9.33-.369,6.131,6.131,0,0,1-12.01.176a5.3,5.3,0,0,1-3.683-1.213,4.326,4.326,0,0,1-1.371-3.322V-12.8h3.1v8.5q.053,2.1,1.951,2.1a1.889,1.889,0,0,0,1.45-.527,2.465,2.465,0,0,0,.492-1.714V-12.8ZM-.3-4.526h-1.67V0H-5.058V-12.8H-.022a5.621,5.621,0,0,1,3.56,1.01A3.421,3.421,0,0,1,4.821-8.934,4.155,4.155,0,0,1,4.28-6.721,3.837,3.837,0,0,1,2.588-5.3L5.26-.132V0h-3.3ZM-1.973-6.9H-.022A1.751,1.751,0,0,0,1.3-7.362a1.788,1.788,0,0,0,.444-1.291,1.809,1.809,0,0,0-.448-1.3,1.735,1.735,0,0,0-1.318-.471H-1.973ZM17.161-1.582A4.96,4.96,0,0,1,15.078-.308a8.984,8.984,0,0,1-3.006.483A5.36,5.36,0,0,1,8.055-1.362a6.226,6.226,0,0,1-1.608-4.28L6.438-6.75a7.637,7.637,0,0,1,.668-3.3,4.96,4.96,0,0,1,1.912-2.171,5.407,5.407,0,0,1,2.878-.76,5.669,5.669,0,0,1,3.713,1.094,4.637,4.637,0,0,1,1.542,3.265H14.181a2.426,2.426,0,0,0-.686-1.529A2.212,2.212,0,0,0,12-10.608a2.013,2.013,0,0,0-1.793.984,5.256,5.256,0,0,0-.642,2.813v.773a5.145,5.145,0,0,0,.655,2.878,2.316,2.316,0,0,0,2.061.962,2.592,2.592,0,0,0,1.793-.536V-4.72H11.931V-6.838h5.229Z" transform="translate(41.93 37.296)" fill="#12263f"/>
        <path id="Trazado_247825" data-name="Trazado 247825" d="M-10.037-3.4a1.268,1.268,0,0,0-.479-1.055A5.954,5.954,0,0,0-12.2-5.238a16.147,16.147,0,0,1-1.969-.782q-2.487-1.222-2.487-3.357a3.011,3.011,0,0,1,.62-1.876,4.008,4.008,0,0,1,1.753-1.266,6.823,6.823,0,0,1,2.549-.453,5.969,5.969,0,0,1,2.474.492,3.917,3.917,0,0,1,1.7,1.4A3.661,3.661,0,0,1-6.952-9h-3.076a1.547,1.547,0,0,0-.479-1.213,1.867,1.867,0,0,0-1.3-.431,2.106,2.106,0,0,0-1.305.365,1.119,1.119,0,0,0-.479.927,1.127,1.127,0,0,0,.527.892,6.65,6.65,0,0,0,1.854.826,11.36,11.36,0,0,1,2.18.918,3.663,3.663,0,0,1,2.074,3.3A3.125,3.125,0,0,1-8.218-.782a5.629,5.629,0,0,1-3.472.958,6.888,6.888,0,0,1-2.817-.558,4.247,4.247,0,0,1-1.9-1.529,3.985,3.985,0,0,1-.637-2.237h3.094a1.963,1.963,0,0,0,.532,1.516,2.513,2.513,0,0,0,1.727.488,1.985,1.985,0,0,0,1.208-.33A1.088,1.088,0,0,0-10.037-3.4ZM-.686-7.242,1.67-12.8H5L.879-4.6V0H-2.25V-4.6l-4.113-8.2H-3.05ZM16.62,0H13.553L9.018-7.963V0H5.933V-12.8H9.018l4.526,7.963V-12.8H16.62Z" transform="translate(301.399 37.296)" fill="#12263f"/>
        <path id="Trazado_247822" data-name="Trazado 247822" d="M-9.558-2.391h-4.228L-14.524,0h-3.3l4.693-12.8h2.9L-5.5,0H-8.811Zm-3.489-2.382H-10.3l-1.38-4.438Zm18.835.439a4.673,4.673,0,0,1-.721,2.36A4.35,4.35,0,0,1,3.217-.387,6.3,6.3,0,0,1,.5.176,5.025,5.025,0,0,1-3.476-1.468a6.786,6.786,0,0,1-1.45-4.641v-.633a7.746,7.746,0,0,1,.655-3.292,4.961,4.961,0,0,1,1.885-2.18,5.26,5.26,0,0,1,2.848-.769,5.516,5.516,0,0,1,3.744,1.226A4.844,4.844,0,0,1,5.814-8.376H2.738a2.292,2.292,0,0,0-.589-1.679,2.422,2.422,0,0,0-1.687-.51A1.843,1.843,0,0,0-1.226-9.7a5.536,5.536,0,0,0-.562,2.751v.905A6.125,6.125,0,0,0-1.274-3.12,1.882,1.882,0,0,0,.5-2.241a2.369,2.369,0,0,0,1.626-.5,2.126,2.126,0,0,0,.6-1.591Zm5.81-.431L10.332-3.375V0H7.247V-12.8h3.085v5.643L11.4-8.78l2.76-4.017h3.814l-4.324,5.66L17.978,0H14.322Z" transform="translate(110.533 37.296)" fill="#12263f"/>
        <path id="Trazado_247823" data-name="Trazado 247823" d="M-13.764-4.342V0h-3.085V-12.8h5.106a5.948,5.948,0,0,1,2.6.541A4.074,4.074,0,0,1-7.4-10.718a4.2,4.2,0,0,1,.62,2.263,3.7,3.7,0,0,1-1.34,2.993,5.561,5.561,0,0,1-3.678,1.121Zm0-2.382h2.021a1.906,1.906,0,0,0,1.367-.448,1.665,1.665,0,0,0,.47-1.266,2.059,2.059,0,0,0-.483-1.433,1.712,1.712,0,0,0-1.318-.545h-2.057ZM1.468-3.4A1.268,1.268,0,0,0,.989-4.456,5.954,5.954,0,0,0-.694-5.238a16.147,16.147,0,0,1-1.969-.782Q-5.15-7.242-5.15-9.378a3.011,3.011,0,0,1,.62-1.876A4.008,4.008,0,0,1-2.777-12.52a6.823,6.823,0,0,1,2.549-.453,5.969,5.969,0,0,1,2.474.492,3.917,3.917,0,0,1,1.7,1.4A3.661,3.661,0,0,1,4.553-9H1.477A1.547,1.547,0,0,0,1-10.213a1.867,1.867,0,0,0-1.3-.431,2.106,2.106,0,0,0-1.305.365,1.119,1.119,0,0,0-.479.927,1.127,1.127,0,0,0,.527.892A6.65,6.65,0,0,0,.3-7.633a11.36,11.36,0,0,1,2.18.918,3.663,3.663,0,0,1,2.074,3.3A3.125,3.125,0,0,1,3.287-.782,5.629,5.629,0,0,1-.185.176,6.888,6.888,0,0,1-3-.382,4.247,4.247,0,0,1-4.9-1.912a3.985,3.985,0,0,1-.637-2.237h3.094a1.963,1.963,0,0,0,.532,1.516,2.513,2.513,0,0,0,1.727.488,1.985,1.985,0,0,0,1.208-.33A1.088,1.088,0,0,0,1.468-3.4ZM16.831,0H13.764V-5.344H9.22V0H6.135V-12.8H9.22v5.08h4.544V-12.8h3.067Z" transform="translate(171.917 37.296)" fill="#12263f"/>
        <path id="Trazado_247824" data-name="Trazado 247824" d="M-11.457-4.526h-1.67V0h-3.085V-12.8h5.036a5.621,5.621,0,0,1,3.56,1.01A3.421,3.421,0,0,1-6.333-8.934a4.155,4.155,0,0,1-.541,2.213A3.837,3.837,0,0,1-8.565-5.3L-5.893-.132V0H-9.2ZM-13.126-6.9h1.951a1.751,1.751,0,0,0,1.323-.463,1.788,1.788,0,0,0,.444-1.291,1.809,1.809,0,0,0-.448-1.3,1.735,1.735,0,0,0-1.318-.471h-1.951ZM2.131-3.4a1.268,1.268,0,0,0-.479-1.055A5.954,5.954,0,0,0-.031-5.238,16.147,16.147,0,0,1-2-6.021Q-4.487-7.242-4.487-9.378a3.011,3.011,0,0,1,.62-1.876A4.008,4.008,0,0,1-2.114-12.52a6.823,6.823,0,0,1,2.549-.453,5.969,5.969,0,0,1,2.474.492,3.917,3.917,0,0,1,1.7,1.4A3.661,3.661,0,0,1,5.216-9H2.14a1.547,1.547,0,0,0-.479-1.213,1.867,1.867,0,0,0-1.3-.431,2.106,2.106,0,0,0-1.305.365,1.119,1.119,0,0,0-.479.927,1.127,1.127,0,0,0,.527.892,6.65,6.65,0,0,0,1.854.826,11.36,11.36,0,0,1,2.18.918,3.663,3.663,0,0,1,2.074,3.3A3.125,3.125,0,0,1,3.951-.782,5.629,5.629,0,0,1,.479.176,6.888,6.888,0,0,1-2.338-.382a4.247,4.247,0,0,1-1.9-1.529,3.985,3.985,0,0,1-.637-2.237H-1.78a1.963,1.963,0,0,0,.532,1.516,2.513,2.513,0,0,0,1.727.488,1.985,1.985,0,0,0,1.208-.33A1.088,1.088,0,0,0,2.131-3.4Zm14.713-7.014H13V0H9.918V-10.415H6.148V-12.8h10.7Z" transform="translate(237.739 37.296)" fill="#12263f"/>
        <path id="Trazado_247826" data-name="Trazado 247826" d="M-4.931-5.1H-9.905V0H-12.99V-12.8H-4.43v2.382H-9.905v2.944h4.975ZM.141,0H-2.936V-12.8H.141ZM12.973,0H9.905L5.37-7.963V0H2.285V-12.8H5.37L9.9-4.834V-12.8h3.076Z" transform="translate(366.982 37.296)" fill="#12263f"/>
        <path id="Trazado_245434" data-name="Trazado 245434" d="M-4755.683-8278.3v61.641" transform="translate(4835 8278.296)" fill="none" stroke="#f5f5f5" stroke-width="1"/>
        <path id="Trazado_245435" data-name="Trazado 245435" d="M-4755.683-8278.3v61.641" transform="translate(4898.603 8278.296)" fill="none" stroke="#f5f5f5" stroke-width="1"/>
        <path id="Trazado_245436" data-name="Trazado 245436" d="M-4755.683-8278.3v61.641" transform="translate(4959.986 8278.296)" fill="none" stroke="#f5f5f5" stroke-width="1"/>
        <path id="Trazado_245437" data-name="Trazado 245437" d="M-4755.683-8278.3v61.641" transform="translate(5024.809 8278.296)" fill="none" stroke="#f5f5f5" stroke-width="1"/>
        <path id="Trazado_245438" data-name="Trazado 245438" d="M-4755.683-8278.3v61.641" transform="translate(5090.518 8278.296)" fill="none" stroke="#f5f5f5" stroke-width="1"/>
      </g>
    </g>
  </g>
</svg>
