<svg id="Grupo_715885" data-name="Grupo 715885" xmlns="http://www.w3.org/2000/svg" xmlns:xlink="http://www.w3.org/1999/xlink" width="216.563" height="236.313" viewBox="0 0 216.563 236.313">
  <defs>
    <clipPath id="clip-path">
      <rect id="Rectángulo_37584" data-name="Rectángulo 37584" width="216.563" height="236.313" fill="none"/>
    </clipPath>
  </defs>
  <g id="Grupo_112132" data-name="Grupo 112132" clip-path="url(#clip-path)">
    <path id="Trazado_169568" data-name="Trazado 169568" d="M171.439,101.776l0-.063C171.441,88.095,135.555,0,91.284,0S11.127,88.095,11.127,101.713l.005.063-.005.063c0,12.686,54.047,79.363,80.157,79.363,25.551,0,80.157-66.678,80.157-79.363l0-.066Z" transform="translate(16.997 0.002)" fill="#21a191"/>
    <path id="Trazado_169569" data-name="Trazado 169569" d="M69.531,55.51h-9.1v-26.4h9.1a8.494,8.494,0,0,1,8.5,8.493v9.413a8.494,8.494,0,0,1-8.5,8.5" transform="translate(92.307 44.467)" fill="#f3c7b3"/>
    <path id="Trazado_169570" data-name="Trazado 169570" d="M26.785,55.51h9.1v-26.4h-9.1a8.494,8.494,0,0,0-8.5,8.493v9.413a8.494,8.494,0,0,0,8.5,8.5" transform="translate(27.939 44.467)" fill="#f3c7b3"/>
    <path id="Trazado_169571" data-name="Trazado 169571" d="M92.591,69.022l-5.745-1.155a8.725,8.725,0,0,1-7.006-8.553V51.041H42.277v8.483a8.72,8.72,0,0,1-7.006,8.553l-4.7.945v31.585H92.591Z" transform="translate(46.701 77.97)" fill="#f3c7b3"/>
    <path id="Trazado_169572" data-name="Trazado 169572" d="M72.515,121.194h0a49.1,49.1,0,0,1-49.1-49.1v-13.8a49.1,49.1,0,1,1,98.2,0v13.8a49.1,49.1,0,0,1-49.1,49.1" transform="translate(35.767 14.042)" fill="#f6cfbe"/>
    <path id="Trazado_169573" data-name="Trazado 169573" d="M50.58,9.193h0a49.188,49.188,0,0,0-12.807,1.691,49.121,49.121,0,0,1,36.294,47.41v13.8A49.123,49.123,0,0,1,37.773,119.5a49.129,49.129,0,0,0,61.908-47.41v-13.8a49.1,49.1,0,0,0-49.1-49.1" transform="translate(57.701 14.044)" fill="#f3c7b3"/>
    <path id="Trazado_169574" data-name="Trazado 169574" d="M91.284,73.793c44.2,0,80.036,15.315,80.155,27.985l0-.066C171.441,88.1,135.555,0,91.284,0S11.127,88.1,11.127,101.712l0,.066c.119-12.671,35.957-27.985,80.155-27.985" transform="translate(16.997 0.001)" fill="#2fc3b0"/>
    <path id="Trazado_169575" data-name="Trazado 169575" d="M49.778,0A36.013,36.013,0,0,0,38.3,1.941c28.589,9.569,52.308,52.4,62.831,79.283,17.552,5.6,28.739,13.487,28.8,20.554l0-.066C129.935,88.1,94.049,0,49.778,0" transform="translate(58.503 0.001)" fill="#21a191"/>
    <path id="Trazado_169576" data-name="Trazado 169576" d="M216.519,142c-2.136-15.7-10.81-61.215-40.611-73.173l-33.991-10.6H74.644l-33.988,10.6C10.855,80.786,2.178,126.3.045,142a4.726,4.726,0,0,0,4.689,5.358h207.1A4.728,4.728,0,0,0,216.519,142" transform="translate(0.001 88.952)" fill="#2fc3b0"/>
    <path id="Trazado_169577" data-name="Trazado 169577" d="M146.566,142c-2.136-15.7-10.81-61.215-40.611-73.173L71.965,58.23H45.794l33.991,10.6c36.187,14.521,41.225,78.532,41.225,78.532h20.868A4.728,4.728,0,0,0,146.566,142" transform="translate(69.954 88.952)" fill="#21a191"/>
    <path id="Trazado_169578" data-name="Trazado 169578" d="M155.533,57.55H21.134a8.076,8.076,0,0,0-8.076,8.076v76.586h150.55V65.626a8.076,8.076,0,0,0-8.076-8.076" transform="translate(19.947 87.913)" fill="#cfcfcf"/>
    <path id="Trazado_169579" data-name="Trazado 169579" d="M84.909,57.55H59.292a8.078,8.078,0,0,1,8.078,8.076v76.586H92.985V65.626a8.076,8.076,0,0,0-8.076-8.076" transform="translate(90.573 87.913)" fill="#c2c4c6"/>
    <path id="Trazado_169580" data-name="Trazado 169580" d="M174.73,88.668H14.462a5.5,5.5,0,0,0-5.5,5.5v1.19a5.5,5.5,0,0,0,5.5,5.5H174.73a5.5,5.5,0,0,0,5.5-5.5v-1.19a5.5,5.5,0,0,0-5.5-5.5" transform="translate(13.686 135.448)" fill="#9c9da0"/>
    <path id="Trazado_169581" data-name="Trazado 169581" d="M86.8,88.668H66.524v12.2H86.8a5.5,5.5,0,0,0,5.5-5.5v-1.19a5.5,5.5,0,0,0-5.5-5.5" transform="translate(101.621 135.448)" fill="#8d8f93"/>
    <path id="Trazado_169582" data-name="Trazado 169582" d="M49.67,69.91a11.3,11.3,0,1,1-11.3,11.3,11.3,11.3,0,0,1,11.3-11.3" transform="translate(58.612 106.794)" fill="#fff"/>
    <path id="Trazado_169583" data-name="Trazado 169583" d="M62.463,35.825c-8.882-3.293-15.507-3.319-24.462,0,.639,1.3.958,1.959,1.6,3.263.182.369.382.725.591,1.077,7.633-2.619,12.509-2.611,20.135.025.854-1.747,1.284-2.619,2.138-4.365" transform="translate(58.05 50.938)" fill="#4d4d4d"/>
    <path id="Trazado_169584" data-name="Trazado 169584" d="M72.466,35.63V33.062H55.589V36.7c0,.409.023.819.056,1.226H72.413c.033-.761.053-1.524.053-2.292" transform="translate(84.917 50.506)" fill="#4d4d4d"/>
    <path id="Trazado_169585" data-name="Trazado 169585" d="M23.414,33.062V35.63c0,.768.025,1.532.058,2.292H40.291V33.062Z" transform="translate(35.767 50.506)" fill="#4d4d4d"/>
    <path id="Trazado_169586" data-name="Trazado 169586" d="M50.453,49.958H32.264a3.629,3.629,0,0,1-3.627-3.627V35.975a3.629,3.629,0,0,1,3.627-3.627h22.67a3.629,3.629,0,0,1,3.63,3.627v5.872a8.112,8.112,0,0,1-8.111,8.111" transform="translate(43.745 49.415)" fill="#4d4d4d"/>
    <path id="Trazado_169587" data-name="Trazado 169587" d="M53.314,49.958H71.5a3.629,3.629,0,0,0,3.627-3.627V35.975A3.629,3.629,0,0,0,71.5,32.348H48.833a3.629,3.629,0,0,0-3.63,3.627v5.872a8.112,8.112,0,0,0,8.111,8.111" transform="translate(69.051 49.415)" fill="#4d4d4d"/>
    <path id="Trazado_169588" data-name="Trazado 169588" d="M68.918,32.348H46.895V48.995a8.07,8.07,0,0,0,3.834.963H68.918a3.626,3.626,0,0,0,3.627-3.627V35.975a3.627,3.627,0,0,0-3.627-3.627" transform="translate(71.636 49.415)" fill="#353535"/>
    <path id="Trazado_169589" data-name="Trazado 169589" d="M52.357,32.348H30.324v17.61H47.876a8.108,8.108,0,0,0,8.108-8.111V35.975a3.627,3.627,0,0,0-3.627-3.627" transform="translate(46.322 49.415)" fill="#353535"/>
    <g id="Grupo_710368" data-name="Grupo 710368" transform="translate(94.281 110.839)">
      <path id="Trazado_242574" data-name="Trazado 242574" d="M205.6,118.655l-.006,0,0,0-.051.173a18.139,18.139,0,0,0,.408,7.687,11.106,11.106,0,0,0,1.652,3.446,8.107,8.107,0,0,0,5.009,3.238,6.633,6.633,0,0,0,1.463.158c.3,0,.594-.019.89-.048A8.661,8.661,0,0,0,219,131.669a12.54,12.54,0,0,0,3.082-3.265,15.794,15.794,0,0,0,2.038-4.449,11.894,11.894,0,0,0,.3-1.286.935.935,0,0,0-.023-.4,67.681,67.681,0,0,1-9.472-.909,38.364,38.364,0,0,1-9.316-2.7l-.012,0" transform="translate(-205.308 -118.655)" fill="#021621"/>
      <path id="Trazado_242576" data-name="Trazado 242576" d="M206.141,122.451q-.36,0-.72.018a16.732,16.732,0,0,0,.474,2.294,11.1,11.1,0,0,0,1.652,3.443,8.341,8.341,0,0,0,2.927,2.516,8.186,8.186,0,0,0,2.084.726,6.624,6.624,0,0,0,1.462.157c.3,0,.6-.019.891-.047a8.517,8.517,0,0,0,3.838-1.51l-.067-.114a18.756,18.756,0,0,0-1.128-1.674,15.468,15.468,0,0,0-1.291-1.475,17.2,17.2,0,0,0-1.485-1.324,15.171,15.171,0,0,0-1.585-1.077,16.168,16.168,0,0,0-1.775-.887l.053.028a14.031,14.031,0,0,0-1.708-.588,15.568,15.568,0,0,0-1.818-.37l.08.015a13.994,13.994,0,0,0-1.8-.129Zm5.329,1.073.019,0-.019,0" transform="translate(-205.254 -116.892)" fill="#f68677"/>
    </g>
  </g>
</svg>
