<svg id="Grupo_715886" data-name="Grupo 715886" xmlns="http://www.w3.org/2000/svg" width="202.093" height="229.188" viewBox="0 0 202.093 229.188">
  <path id="Trazado_182574" data-name="Trazado 182574" d="M121.391,476.274c.161-.811,10-50.265,10.114-50.773a19.167,19.167,0,0,1,9.087-12.935,21.847,21.847,0,0,1,6.246-2.533L180.406,398.3a4.9,4.9,0,0,0,3.311-4.637V383.386a42.17,42.17,0,0,0,38.308.182v10.1a4.9,4.9,0,0,0,3.313,4.637l13.8,4.731h.013v.006l19.742,6.995,2.6.767a19.86,19.86,0,0,1,11.052,9.73c1.58,3.2,1.11,2.078,8.777,40.559,2.837,14.7,3.465,15.77,3.11,19.053-.99,9.18-10.43,8.222-10.686,8.333H131.99c-.1-.034-12.45.906-10.6-12.2" transform="translate(-82.425 -259.292)" fill="#fba92d"/>
  <path id="Trazado_182575" data-name="Trazado 182575" d="M139.669,464.721l-10.114-55.386a19.3,19.3,0,0,0-8.352-12.467c8.489,3.008,5.858,1.8,8.469,2.923A19.362,19.362,0,0,1,140.3,411.126c.754,2.141.266.26,7.871,38.41,2.839,14.7,3.465,15.77,3.11,19.053-.988,9.18-10.428,8.222-10.684,8.333H129.07c8.137,0,11.652-4.757,10.6-12.2" transform="translate(50.716 -247.738)" fill="#e1982b"/>
  <path id="Trazado_182576" data-name="Trazado 182576" d="M121.208,453h20.867c.267-.117,11.03.964,10.76-10.255-.058-2.392-.358-2.492-3.184-17.131l-.163-.821H121.208Z" transform="translate(49.239 -223.814)" fill="#f6cfbe"/>
  <path id="Trazado_182577" data-name="Trazado 182577" d="M128.884,424.792h11.265l.163.821c2.837,14.689,3.127,14.736,3.186,17.131.267,11.182-10.549,10.162-10.76,10.255H121.207c7.494,0,10.911-3.942,10.76-10.255-.019-.733-.292-2.265-3.084-17.952" transform="translate(58.578 -223.813)" fill="#f3c7b3"/>
  <path id="Trazado_182578" data-name="Trazado 182578" d="M193.163,382.529v19.318h-.013v.689a10.675,10.675,0,0,1-7.281,10.124,38.864,38.864,0,0,1-23.721,0,10.675,10.675,0,0,1-7.281-10.124v-.689h-.011V382.529a40.156,40.156,0,0,0,38.306,0" transform="translate(-53.563 -260.026)" fill="#f6cfbe"/>
  <path id="Trazado_182579" data-name="Trazado 182579" d="M157.386,405.061h.015V387.376a41.984,41.984,0,0,0,11.531-4.124v17.974h-.013v.691a10.675,10.675,0,0,1-7.281,10.124,35.626,35.626,0,0,1-6.781,1.541,13.657,13.657,0,0,0,2.529-8.521" transform="translate(-29.331 -259.406)" fill="#f3c7b3"/>
  <path id="Trazado_182580" data-name="Trazado 182580" d="M139.84,418.7a3.459,3.459,0,0,1,3.459,3.459v36.062h-6.919V422.157a3.459,3.459,0,0,1,3.459-3.459" transform="translate(30.607 -229.035)" fill="#e1982b"/>
  <path id="Trazado_182581" data-name="Trazado 182581" d="M169.076,446.124H281.063a8.46,8.46,0,0,0,8.46-8.46,4.85,4.85,0,0,0-4.848-4.85H165.464a4.85,4.85,0,0,0-4.848,4.85,8.46,8.46,0,0,0,8.46,8.46" transform="translate(-160.616 -216.94)" fill="#c6c6c6"/>
  <path id="Trazado_182582" data-name="Trazado 182582" d="M169.076,437.663h0a4.848,4.848,0,0,0-4.848-4.848h21.792a4.848,4.848,0,0,1,4.848,4.848,8.461,8.461,0,0,1-8.46,8.462H160.616a8.463,8.463,0,0,0,8.46-8.462" transform="translate(-61.961 -216.939)" fill="#b7b7b7"/>
  <path id="Trazado_182583" data-name="Trazado 182583" d="M171.678,392.933h97.316a5.55,5.55,0,0,1,5.533,5.535v62.984a5.551,5.551,0,0,1-5.533,5.535H171.678a5.553,5.553,0,0,1-5.535-5.535V398.468a5.552,5.552,0,0,1,5.535-5.535" transform="translate(-155.884 -251.111)" fill="#ededed"/>
  <path id="Trazado_182584" data-name="Trazado 182584" d="M171.677,461.452V398.468a5.55,5.55,0,0,0-5.535-5.535h11.531a5.552,5.552,0,0,1,5.535,5.535v62.984a5.553,5.553,0,0,1-5.535,5.535H166.142a5.552,5.552,0,0,0,5.535-5.535" transform="translate(-64.562 -251.111)" fill="#dadada"/>
  <path id="Trazado_182585" data-name="Trazado 182585" d="M199.018,408.568a7.995,7.995,0,1,0,7.994,7.994,7.994,7.994,0,0,0-7.994-7.994" transform="translate(-134.567 -237.715)" fill="#dadada"/>
  <path id="Trazado_182586" data-name="Trazado 182586" d="M197.933,408.572a7.991,7.991,0,1,1-6.917,11.978,7.984,7.984,0,0,0,6.917-11.978" transform="translate(-133.485 -237.711)" fill="#c6c6c6"/>
  <path id="Trazado_182587" data-name="Trazado 182587" d="M190.761,316.6a55.353,55.353,0,0,1,54.947,55.337v20.971H135.019V361.534c0-21.43,13.184-26.367,13.184-26.367,16.4-20.215,42.536-18.568,42.536-18.568" transform="translate(-69.272 -316.544)" fill="#4c4846"/>
  <path id="Trazado_182588" data-name="Trazado 182588" d="M135.018,316.94c33.766-3.844,61.246,21.641,62.378,52.827.087,2.241.028,1.4.046,23.151H184.259V371.946a55.35,55.35,0,0,0-49.241-55.007" transform="translate(-21.006 -316.555)" fill="#3d3938"/>
  <path id="Trazado_182589" data-name="Trazado 182589" d="M134.563,354.446c6.943-2.473,14.478,2.126,14.478,8.838s-7.535,11.312-14.478,8.839Z" transform="translate(28.242 -284.669)" fill="#f6cfbe"/>
  <path id="Trazado_182590" data-name="Trazado 182590" d="M201.768,354.446c-6.943-2.473-14.478,2.126-14.478,8.838s7.535,11.312,14.478,8.839Z" transform="translate(-122.39 -284.669)" fill="#f6cfbe"/>
  <path id="Trazado_182591" data-name="Trazado 182591" d="M148.014,356.7c4.055,7.7-4.482,16.1-13.464,12.9v-8.129c5.238,1.866,11.095-.275,13.464-4.774" transform="translate(28.255 -282.153)" fill="#f3c7b3"/>
  <path id="Trazado_182592" data-name="Trazado 182592" d="M201.791,361.479v8.129c-8.981,3.2-17.519-5.2-13.464-12.9,1.7,3.22,8.224,6.64,13.464,4.774" transform="translate(-122.414 -282.153)" fill="#f3c7b3"/>
  <path id="Trazado_182593" data-name="Trazado 182593" d="M144.022,349.775a2.093,2.093,0,0,0-1.9,2.076c0,35.5-.022,32.818.061,34.468a42.047,42.047,0,0,0,12.673,28.036c26.317,25.66,70.233,7.463,71.553-28.53.061-1.588.035-19.972.035-19.92a13.55,13.55,0,0,0-15.518-13.393c-12.886,1.861-31.7,1.138-48.107-12.89a3.483,3.483,0,0,0-5.324.964,17.036,17.036,0,0,1-13.471,9.19" transform="translate(-63.189 -297.513)" fill="#f6cfbe"/>
  <path id="Trazado_182594" data-name="Trazado 182594" d="M178.841,379.482c.052-1.361.041-26.267.037-33.3a13.536,13.536,0,0,1,11.535,13.38c0-.052.026,18.332-.037,19.92-.973,26.538-25.1,43.4-48.259,40.141,19.014-2.629,35.913-18.022,36.724-40.141" transform="translate(-27.16 -291.169)" fill="#f3c7b3"/>
  <text id="Seudonimo" transform="matrix(-1, 0, 0, 1, 81.907, 203.555)" fill="#a2a2a2" font-size="8" font-family="Roboto-Regular, Roboto"><tspan x="0" y="0">Seudonimo</tspan></text>
  <g id="Grupo_710367" data-name="Grupo 710367" transform="translate(92.15 65.493)">
    <path id="Trazado_242576" data-name="Trazado 242576" d="M217.316,122.451q.34,0,.679.017a15.786,15.786,0,0,1-.447,2.165,10.475,10.475,0,0,1-1.559,3.249,7.87,7.87,0,0,1-2.761,2.373,7.723,7.723,0,0,1-1.966.685,6.252,6.252,0,0,1-1.379.148c-.286,0-.563-.018-.841-.044a8.034,8.034,0,0,1-3.621-1.425l.063-.108a17.7,17.7,0,0,1,1.064-1.579,14.583,14.583,0,0,1,1.218-1.392,16.228,16.228,0,0,1,1.4-1.249,14.311,14.311,0,0,1,1.5-1.016,15.246,15.246,0,0,1,1.675-.837l-.05.026a13.232,13.232,0,0,1,1.611-.555,14.678,14.678,0,0,1,1.715-.349l-.076.014a13.2,13.2,0,0,1,1.7-.121Zm-5.028,1.012-.018,0,.018,0" transform="translate(-190.296 -79.916)" fill="#f68677"/>
    <g id="Grupo_710383" data-name="Grupo 710383" transform="translate(0)">
      <path id="Trazado_242574" data-name="Trazado 242574" d="M223.076,118.655l.005,0,0,0,.048.163a17.113,17.113,0,0,1-.385,7.252,10.478,10.478,0,0,1-1.559,3.251,7.648,7.648,0,0,1-4.726,3.055,6.258,6.258,0,0,1-1.381.149c-.283,0-.561-.018-.839-.046a8.171,8.171,0,0,1-3.814-1.554,11.83,11.83,0,0,1-2.907-3.08,14.9,14.9,0,0,1-1.923-4.2,11.216,11.216,0,0,1-.282-1.213.882.882,0,0,1,.022-.377,63.849,63.849,0,0,0,8.936-.857,36.191,36.191,0,0,0,8.789-2.548l.011,0" transform="translate(-195.496 -81.364)" fill="#021621"/>
      <path id="Trazado_242575" data-name="Trazado 242575" d="M225.937,91.643a.486.486,0,0,1,.34.156.392.392,0,0,1,.106.3c-.2,2.318-.456,4.408-.794,6.393a32.363,32.363,0,0,1-1.773,6.582,17.371,17.371,0,0,1-1.379,2.764,7.067,7.067,0,0,1-.861,1.143,8.287,8.287,0,0,1-1.053.924,22.683,22.683,0,0,1-2.362,1.5,21.794,21.794,0,0,0-2.293,1.437,6.5,6.5,0,0,0-.913.877,4.435,4.435,0,0,0-.432.726,3.988,3.988,0,0,0-.173.646,4.407,4.407,0,0,0,0,.726,4.706,4.706,0,0,0,.255.91,6.034,6.034,0,0,0,.7,1.167,9.9,9.9,0,0,0,1.418,1.4,13.065,13.065,0,0,0,2.567,1.53c.3.12.617.222.93.312a1.179,1.179,0,0,1-.312,2.314,1.066,1.066,0,0,1-.316-.048,9.261,9.261,0,0,1-2.38-1.131,11.552,11.552,0,0,1-2.348-1.993,7.468,7.468,0,0,1-2.158-5.286,4.521,4.521,0,0,1,.831-2.351,6.931,6.931,0,0,1,1.963-1.775,21.958,21.958,0,0,1,2.065-1.161,17.97,17.97,0,0,0,2.51-1.472,5.66,5.66,0,0,0,.979-.987,16.237,16.237,0,0,0,1.861-3.3,35.74,35.74,0,0,0,2.259-8.936c.121-.908.229-1.911.309-2.914a.463.463,0,0,1,.446-.449" transform="translate(-208.735 -91.643)" fill="#eabca7"/>
      <path id="Trazado_242577" data-name="Trazado 242577" d="M2.428,11.645a1.979,1.979,0,0,1-.284-.023c-.8-.148-1.454-.89-1.827-2.089A9.335,9.335,0,0,1,.174,5.283C.712,2.272,2.33,0,3.936,0A1.98,1.98,0,0,1,4.22.023c.808.148,1.458.89,1.832,2.089A9.289,9.289,0,0,1,6.2,6.361c-.543,3.012-2.162,5.283-3.768,5.283" transform="translate(39.669 13.297) rotate(172)" fill="#021621"/>
      <path id="Trazado_242624" data-name="Trazado 242624" d="M2.428,11.645a1.979,1.979,0,0,1-.284-.023c-.8-.148-1.454-.89-1.827-2.089A9.335,9.335,0,0,1,.174,5.283C.712,2.272,2.33,0,3.936,0A1.98,1.98,0,0,1,4.22.023c.808.148,1.458.89,1.832,2.089A9.289,9.289,0,0,1,6.2,6.361c-.543,3.012-2.162,5.283-3.768,5.283" transform="translate(7.93 13.297) rotate(172)" fill="#021621"/>
    </g>
  </g>
  <g id="Grupo_714218" data-name="Grupo 714218" transform="translate(66.006 63.798)">
    <g id="Grupo_714218-2" data-name="Grupo 714218" transform="translate(0)">
      <path id="Trazado_169583" data-name="Trazado 169583" d="M38,35.817c8.855-3.283,15.459-3.309,24.387,0-.638,1.3-.955,1.953-1.593,3.253-.181.368-.38.723-.59,1.073-7.61-2.611-12.471-2.6-20.073.025-.852-1.741-1.28-2.611-2.132-4.352" transform="translate(-1.244 -30.833)" fill="#4d4d4d"/>
      <path id="Trazado_169584" data-name="Trazado 169584" d="M55.589,35.622v-2.56H72.414v3.624c0,.408-.023.816-.055,1.222H55.642c-.033-.758-.053-1.519-.053-2.285" transform="translate(-55.589 -31.263)" fill="#4d4d4d"/>
      <path id="Trazado_169585" data-name="Trazado 169585" d="M40.239,33.062v2.56c0,.766-.025,1.527-.058,2.285H23.414V33.062Z" transform="translate(57.662 -31.263)" fill="#4d4d4d"/>
      <path id="Trazado_169586" data-name="Trazado 169586" d="M36.723,49.9H54.856a3.618,3.618,0,0,0,3.616-3.616V35.964a3.618,3.618,0,0,0-3.616-3.616h-22.6a3.618,3.618,0,0,0-3.618,3.616v5.854A8.087,8.087,0,0,0,36.723,49.9" transform="translate(26.267 -32.348)" fill="#4d4d4d"/>
      <path id="Trazado_169587" data-name="Trazado 169587" d="M66.952,49.9H48.819A3.618,3.618,0,0,1,45.2,46.288V35.964a3.618,3.618,0,0,1,3.616-3.616h22.6a3.618,3.618,0,0,1,3.618,3.616v5.854A8.087,8.087,0,0,1,66.952,49.9" transform="translate(-32.042 -32.348)" fill="#4d4d4d"/>
      <path id="Trazado_169588" data-name="Trazado 169588" d="M50.511,32.348H72.466v16.6a8.045,8.045,0,0,1-3.823.96H50.511a3.614,3.614,0,0,1-3.616-3.616V35.964a3.616,3.616,0,0,1,3.616-3.616" transform="translate(-33.734 -32.348)" fill="#353535"/>
      <path id="Trazado_169589" data-name="Trazado 169589" d="M33.94,32.348H55.905V49.9h-17.5a8.083,8.083,0,0,1-8.084-8.086V35.964a3.616,3.616,0,0,1,3.616-3.616" transform="translate(24.584 -32.348)" fill="#353535"/>
    </g>
  </g>
</svg>
