<svg xmlns="http://www.w3.org/2000/svg" xmlns:xlink="http://www.w3.org/1999/xlink" width="418" height="330" viewBox="0 0 418 330">
  <defs>
    <filter id="Rectángulo_263055" x="0" y="0" width="418" height="330" filterUnits="userSpaceOnUse">
      <feOffset dy="3" input="SourceAlpha"/>
      <feGaussianBlur stdDeviation="3" result="blur"/>
      <feFlood flood-opacity="0.161"/>
      <feComposite operator="in" in2="blur"/>
      <feComposite in="SourceGraphic"/>
    </filter>
    <clipPath id="clip-path">
      <rect id="Rectángulo_264047" data-name="Rectángulo 264047" width="84.214" height="104.783" fill="#fff" stroke="#fff" stroke-width="1"/>
    </clipPath>
    <clipPath id="clip-path-2">
      <rect id="Rectángulo_264042" data-name="Rectángulo 264042" width="87.338" height="104.783" transform="translate(0 0)" fill="none"/>
    </clipPath>
  </defs>
  <g id="Grupo_715902" data-name="Grupo 715902" transform="translate(-171 -8645)">
    <g transform="matrix(1, 0, 0, 1, 171, 8645)" filter="url(#Rectángulo_263055)">
      <rect id="Rectángulo_263055-2" data-name="Rectángulo 263055" width="400" height="312" rx="30" transform="translate(9 6)" fill="#e7defc"/>
    </g>
    <g id="Grupo_711931" data-name="Grupo 711931" transform="translate(0 -38.217)">
      <g id="Grupo_711920" data-name="Grupo 711920" transform="translate(-161.182 -47.113)">
        <g id="Grupo_711918" data-name="Grupo 711918" transform="translate(488 8797.33)" clip-path="url(#clip-path)">
          <path id="Trazado_245662" data-name="Trazado 245662" d="M43.883,0c1.267.332,2.566.569,3.8,1.012C52.142,2.621,55.552,5.731,58.5,9.438c5.019,6.317,8.284,13.625,11.011,21.226.378,1.052.72,2.119,1.054,3.187A6.813,6.813,0,0,1,68.94,41c-1.357,1.435-2.755,2.828-4.2,4.3.376.26.661.469.957.661,2.225,1.45,4.445,2.911,6.682,4.341a11.807,11.807,0,0,1,4.9,6.2c2.046,5.784,4.154,11.545,6.173,17.339a11.783,11.783,0,0,1-1.685,11.394c-2.223,3.043-4.459,6.077-6.738,9.075-.582.765-1.38,1.35-2.019,2.075a2.273,2.273,0,0,0-.555,1.151c-.105.909-.012,1.844-.124,2.752a5.041,5.041,0,0,1-4.765,4.481c-.3.013-.592.007-.888.007H17.552c-3.775,0-5.761-2.068-5.767-6a4.939,4.939,0,0,1,.005-.715,1.842,1.842,0,0,0-.939-2.01,7.183,7.183,0,0,1-1.661-1.722q-3.4-4.514-6.733-9.079A11.765,11.765,0,0,1,.762,73.864C2.789,68.037,4.9,62.24,6.963,56.427a11.864,11.864,0,0,1,4.354-5.782c2.56-1.85,5.077-3.765,7.769-5.768-1.183-1.2-2.307-2.371-3.463-3.507A7.177,7.177,0,0,1,13.8,33.364c2.677-8.056,5.914-15.818,10.938-22.645C27.766,6.6,31.295,3.066,36.08,1.2A44.04,44.04,0,0,1,40.332,0ZM64.276,90.793a4.233,4.233,0,0,0,.094-.492c.438-9.022.887-18.043,1.3-27.066a3.545,3.545,0,0,0-3.7-3.863q-19.872-.017-39.745,0a3.6,3.6,0,0,0-3.675,4.085Q19.1,75,19.656,86.54c.069,1.415.165,2.828.249,4.253ZM18.3,30.449a67.4,67.4,0,0,1,47.447-.072,3.408,3.408,0,0,0-.17-.573c-1.45-3.277-2.788-6.615-4.394-9.809A40.434,40.434,0,0,0,52.59,8.12C49.739,5.5,46.526,3.671,42.63,3.513c-4.294-.174-7.839,1.708-10.959,4.57-4.44,4.071-7.448,9.222-10.029,14.66-1.2,2.524-2.232,5.131-3.342,7.706m10.354.5a29.958,29.958,0,0,0-11.034,4.221c-1.1.686-1.242,1.207-.641,2.4a4.1,4.1,0,0,0,.7.978q8.111,8.436,16.252,16.842a1.706,1.706,0,0,0,1.1.47q7.05.047,14.1,0a1.835,1.835,0,0,0,1.188-.5q8.083-8.321,16.1-16.707a5.7,5.7,0,0,0,1.053-1.8,1.08,1.08,0,0,0-.586-1.5c-1.177-.6-2.284-1.35-3.475-1.917a27.206,27.206,0,0,0-7.867-2.461c0,2.584.022,5.068-.006,7.55a10.261,10.261,0,0,1-2.781,7.009c-1.267,1.383-2.564,2.742-3.9,4.05A9.474,9.474,0,0,1,35.39,49.6c-1.39-1.352-2.724-2.767-4.041-4.2a8.678,8.678,0,0,1-2.469-5.124c-.218-2.606-.166-5.236-.226-7.856-.011-.464,0-.929,0-1.48M16.4,90.492c0-.608.035-1.458-.005-2.3-.4-8.271-.824-16.541-1.21-24.812a6.87,6.87,0,0,1,5.6-7.3,43.388,43.388,0,0,1,5.8-.194c.932-.019,1.865,0,2.853,0l-8.072-8.365c-.167.116-.415.277-.652.453-2.456,1.826-4.893,3.681-7.373,5.471a8.831,8.831,0,0,0-3.268,4.352C8.042,63.542,5.978,69.281,3.944,75.03a8.272,8.272,0,0,0,1.188,8.1q3.351,4.549,6.722,9.082a7.479,7.479,0,0,0,.578.656L16.4,90.492m55.452,2.389s.157-.183.3-.371c2.421-3.27,4.894-6.5,7.242-9.825A7.983,7.983,0,0,0,80.3,75.1c-2.061-5.848-4.157-11.682-6.237-17.522a7.161,7.161,0,0,0-2.583-3.653C68.469,51.867,65.4,49.9,62.5,47.99l-7.6,7.888h.9c2.1,0,4.207-.021,6.31.005a7.078,7.078,0,0,1,6.932,7.729Q68.5,74.229,67.991,84.848c-.1,1.969-.173,3.938-.246,5.6l4.1,2.428M42.085,94.32q-12.429,0-24.858,0c-1.465,0-2.031.581-2.064,2.091-.018.818-.007,1.637,0,2.455.009,1.891.527,2.426,2.356,2.427q12.971,0,25.943,0,11.738,0,23.476,0c1.5,0,2.087-.611,2.115-2.162.015-.818.008-1.637,0-2.455-.012-1.841-.515-2.356-2.307-2.356q-12.33,0-24.66,0m-9.97-57.608a7.4,7.4,0,0,0,1.7,6.323c1.263,1.388,2.555,2.752,3.9,4.05a6.173,6.173,0,0,0,8.759.02c1.351-1.295,2.641-2.661,3.906-4.047a7.55,7.55,0,0,0,1.735-6.351c-3.5-.314-7.272.944-10.015-2.434-2.833,3.363-6.551,2.1-9.987,2.44m-.021-6.459v2.9c1.814,0,3.555.062,5.29-.018A3.2,3.2,0,0,0,40.3,29.645l-8.2.608m20.072.015L43.9,29.643c-.015,1.765.955,3.24,2.475,3.395a57.779,57.779,0,0,0,5.792.047Z" transform="translate(0 -0.001)" fill="#fff" stroke="#fff" stroke-width="1"/>
          <path id="Trazado_245663" data-name="Trazado 245663" d="M116.077,248.554H71.707c-.084-1.424-.181-2.838-.249-4.252q-.559-11.541-1.105-23.083a3.6,3.6,0,0,1,3.675-4.085q19.872-.019,39.744,0a3.546,3.546,0,0,1,3.7,3.863c-.41,9.023-.859,18.044-1.3,27.066a4.187,4.187,0,0,1-.094.492m-22.283-6.967a8.741,8.741,0,1,0-8.313-8.825,8.6,8.6,0,0,0,8.313,8.825" transform="translate(-51.801 -157.762)" fill="#fff" stroke="#fff" stroke-width="1"/>
          <path id="Trazado_245664" data-name="Trazado 245664" d="M69.412,39.753c1.11-2.575,2.144-5.182,3.342-7.706,2.582-5.438,5.59-10.589,10.029-14.66,3.121-2.861,6.666-4.743,10.96-4.569,3.9.157,7.11,1.991,9.961,4.607A40.443,40.443,0,0,1,112.3,29.3c1.605,3.194,2.943,6.532,4.394,9.809a3.432,3.432,0,0,1,.17.573,67.4,67.4,0,0,0-47.447.073" transform="translate(-51.114 -9.305)" fill="#fff" stroke="#fff" stroke-width="1"/>
          <path id="Trazado_245665" data-name="Trazado 245665" d="M75.1,113.191c0,.551-.009,1.016,0,1.48.06,2.62.008,5.25.226,7.856a8.679,8.679,0,0,0,2.469,5.124c1.317,1.429,2.651,2.844,4.041,4.2a9.474,9.474,0,0,0,13.472-.03c1.339-1.309,2.636-2.667,3.9-4.05a10.261,10.261,0,0,0,2.781-7.009c.028-2.483.006-4.966.006-7.55a27.212,27.212,0,0,1,7.866,2.461c1.19.566,2.3,1.317,3.475,1.917a1.08,1.08,0,0,1,.587,1.5,5.7,5.7,0,0,1-1.053,1.8q-8.017,8.39-16.1,16.707a1.832,1.832,0,0,1-1.188.5q-7.05.052-14.1,0a1.7,1.7,0,0,1-1.1-.47q-8.149-8.4-16.252-16.842a4.1,4.1,0,0,1-.7-.978c-.6-1.192-.457-1.713.642-2.4A29.96,29.96,0,0,1,75.1,113.191" transform="translate(-46.443 -82.245)" fill="#fff" stroke="#fff" stroke-width="1"/>
          <path id="Trazado_245666" data-name="Trazado 245666" d="M25.853,216.76l-3.965,2.372a7.444,7.444,0,0,1-.578-.656q-3.369-4.534-6.722-9.082a8.272,8.272,0,0,1-1.188-8.1c2.035-5.75,4.1-11.488,6.124-17.241a8.831,8.831,0,0,1,3.268-4.352c2.48-1.79,4.917-3.646,7.373-5.471.237-.176.484-.337.652-.453l8.072,8.365c-.988,0-1.92-.016-2.852,0a43.346,43.346,0,0,0-5.8.194,6.87,6.87,0,0,0-5.6,7.3c.385,8.271.811,16.541,1.209,24.812.041.846.006,1.7.006,2.3" transform="translate(-9.456 -126.269)" fill="#fff" stroke="#fff" stroke-width="1"/>
          <path id="Trazado_245667" data-name="Trazado 245667" d="M225.192,220.418l-4.1-2.428c.073-1.666.15-3.636.246-5.6q.518-10.618,1.049-21.236a7.078,7.078,0,0,0-6.932-7.729c-2.1-.027-4.206-.005-6.31-.005h-.9l7.6-7.888c2.9,1.91,5.971,3.877,8.982,5.934a7.161,7.161,0,0,1,2.583,3.653c2.08,5.84,4.177,11.675,6.237,17.522a7.983,7.983,0,0,1-.913,7.585c-2.348,3.325-4.821,6.556-7.242,9.825-.14.189-.293.367-.3.371" transform="translate(-153.344 -127.538)" fill="#fff" stroke="#fff" stroke-width="1"/>
          <path id="Trazado_245668" data-name="Trazado 245668" d="M84.414,344.981q12.33,0,24.66,0c1.793,0,2.295.515,2.307,2.356.006.818.012,1.637,0,2.455-.028,1.55-.618,2.16-2.115,2.162q-11.738.007-23.477,0H59.844c-1.829,0-2.347-.535-2.356-2.427,0-.819-.015-1.637,0-2.455.033-1.51.6-2.09,2.064-2.092q12.429-.007,24.858,0" transform="translate(-42.328 -250.663)" fill="#fff" stroke="#fff" stroke-width="1"/>
          <path id="Trazado_245669" data-name="Trazado 245669" d="M121.544,127.792c3.436-.336,7.154.923,9.987-2.44,2.744,3.378,6.52,2.12,10.015,2.434a7.55,7.55,0,0,1-1.735,6.351c-1.265,1.386-2.555,2.752-3.906,4.047a6.173,6.173,0,0,1-8.759-.02c-1.348-1.3-2.64-2.662-3.9-4.05a7.4,7.4,0,0,1-1.7-6.323" transform="translate(-89.428 -91.081)" fill="#fff" stroke="#fff" stroke-width="1"/>
          <path id="Trazado_245670" data-name="Trazado 245670" d="M121.745,109.036l8.2-.608a3.2,3.2,0,0,1-2.915,3.492c-1.735.08-3.476.018-5.29.018Z" transform="translate(-89.651 -78.784)" fill="#fff" stroke="#fff" stroke-width="1"/>
          <path id="Trazado_245671" data-name="Trazado 245671" d="M174.791,109.046v2.817a57.78,57.78,0,0,1-5.792-.047c-1.52-.154-2.49-1.63-2.475-3.395l8.267.625" transform="translate(-122.625 -78.779)" fill="#fff" stroke="#fff" stroke-width="1"/>
          <path id="Trazado_245672" data-name="Trazado 245672" d="M136.068,260.16a8.743,8.743,0,1,1,8.538-8.589,8.63,8.63,0,0,1-8.538,8.589m.111-3.5a5.243,5.243,0,1,0-5.051-5.185,5.154,5.154,0,0,0,5.051,5.185" transform="translate(-94.075 -176.335)" fill="#fff" stroke="#fff" stroke-width="1"/>
          <path id="Trazado_245673" data-name="Trazado 245673" d="M145.6,265.948a5.243,5.243,0,1,1,5.055-5.18,5.159,5.159,0,0,1-5.055,5.18" transform="translate(-103.5 -185.623)" fill="#fff" stroke="#fff" stroke-width="1"/>
        </g>
      </g>
      <g id="Grupo_711913" data-name="Grupo 711913" transform="translate(336 8750.216)">
        <g id="Grupo_711912" data-name="Grupo 711912" transform="translate(0 0.001)" clip-path="url(#clip-path-2)">
          <path id="Trazado_245657" data-name="Trazado 245657" d="M45.512,0c1.314.332,2.661.569,3.936,1.012,4.629,1.608,8.166,4.718,11.22,8.425,5.205,6.317,8.591,13.625,11.419,21.226.392,1.052.747,2.119,1.093,3.187A6.641,6.641,0,0,1,71.5,41c-1.407,1.435-2.857,2.828-4.353,4.3.39.26.686.469.992.661,2.308,1.45,4.61,2.911,6.93,4.341a11.89,11.89,0,0,1,5.078,6.2c2.122,5.784,4.309,11.545,6.4,17.339A11.441,11.441,0,0,1,84.8,85.241c-2.306,3.043-4.624,6.077-6.988,9.075-.6.765-1.431,1.35-2.094,2.075a2.24,2.24,0,0,0-.576,1.151c-.109.909-.013,1.844-.129,2.752a5.153,5.153,0,0,1-4.942,4.481c-.306.013-.614.007-.921.007H18.2c-3.915,0-5.975-2.068-5.981-6a4.762,4.762,0,0,1,.005-.715,1.821,1.821,0,0,0-.974-2.01A7.309,7.309,0,0,1,9.53,94.334q-3.523-4.514-6.983-9.079A11.425,11.425,0,0,1,.79,73.864c2.1-5.828,4.289-11.625,6.432-17.438a11.918,11.918,0,0,1,4.515-5.782c2.655-1.85,5.265-3.765,8.057-5.768-1.227-1.2-2.393-2.371-3.592-3.507a7,7,0,0,1-1.893-8.006c2.776-8.056,6.133-15.818,11.343-22.645C28.8,6.6,32.456,3.066,37.418,1.2c1.42-.533,2.937-.809,4.41-1.2ZM66.661,90.793a4.1,4.1,0,0,0,.1-.492c.454-9.022.92-18.043,1.345-27.066a3.606,3.606,0,0,0-3.833-3.863q-20.61-.017-41.219,0a3.649,3.649,0,0,0-3.812,4.085Q19.806,75,20.386,86.54c.071,1.415.171,2.828.258,4.252ZM18.978,30.449a72.334,72.334,0,0,1,49.207-.072,3.315,3.315,0,0,0-.176-.573c-1.5-3.277-2.892-6.615-4.557-9.809A40.524,40.524,0,0,0,54.542,8.121c-2.957-2.616-6.29-4.45-10.331-4.607-4.453-.174-8.13,1.708-11.366,4.57-4.6,4.071-7.724,9.222-10.4,14.66-1.243,2.524-2.314,5.131-3.466,7.706m10.739.5a31.772,31.772,0,0,0-11.444,4.221c-1.139.686-1.288,1.207-.665,2.4a4.1,4.1,0,0,0,.726.978q8.412,8.436,16.855,16.842a1.8,1.8,0,0,0,1.145.47q7.312.047,14.624,0a1.939,1.939,0,0,0,1.232-.5q8.383-8.321,16.7-16.707a5.66,5.66,0,0,0,1.092-1.8,1.066,1.066,0,0,0-.608-1.5c-1.221-.6-2.369-1.35-3.6-1.917a28.977,28.977,0,0,0-8.159-2.461c0,2.584.023,5.068-.006,7.55a10.066,10.066,0,0,1-2.885,7.009c-1.315,1.383-2.659,2.742-4.048,4.05A10.084,10.084,0,0,1,36.7,49.6c-1.441-1.352-2.825-2.767-4.191-4.2a8.557,8.557,0,0,1-2.56-5.124c-.226-2.606-.172-5.236-.234-7.856-.011-.464,0-.929,0-1.48M17,90.492c0-.608.037-1.458-.005-2.3-.413-8.271-.855-16.541-1.255-24.812a6.922,6.922,0,0,1,5.808-7.3,46.66,46.66,0,0,1,6.014-.194c.967-.019,1.934,0,2.958,0l-8.371-8.365c-.174.116-.43.277-.676.453-2.548,1.826-5.074,3.681-7.647,5.471a8.87,8.87,0,0,0-3.389,4.352C8.34,63.542,6.2,69.281,4.09,75.03a8.033,8.033,0,0,0,1.232,8.1q3.476,4.549,6.971,9.082a7.579,7.579,0,0,0,.6.656L17,90.492m57.509,2.389s.163-.183.308-.371c2.511-3.27,5.075-6.5,7.511-9.825a7.745,7.745,0,0,0,.947-7.585c-2.137-5.848-4.311-11.682-6.469-17.522a7.173,7.173,0,0,0-2.679-3.653c-3.122-2.057-6.3-4.024-9.315-5.934l-7.884,7.888h.936c2.181,0,4.363-.021,6.544.005A7.181,7.181,0,0,1,71.6,63.612q-.558,10.617-1.088,21.236c-.1,1.969-.18,3.938-.255,5.6l4.255,2.428M43.647,94.32q-12.89,0-25.78,0c-1.519,0-2.107.581-2.141,2.091-.019.818-.007,1.637,0,2.455.009,1.891.546,2.426,2.443,2.427q13.453,0,26.905,0,12.174,0,24.348,0c1.552,0,2.165-.611,2.194-2.162.015-.818.008-1.637,0-2.455-.013-1.841-.534-2.356-2.393-2.356q-12.788,0-25.575,0M33.307,36.712a7.212,7.212,0,0,0,1.763,6.323c1.31,1.388,2.65,2.752,4.048,4.05a6.571,6.571,0,0,0,9.084.02c1.4-1.295,2.739-2.661,4.051-4.047a7.361,7.361,0,0,0,1.8-6.351c-3.626-.314-7.542.944-10.387-2.434-2.938,3.363-6.794,2.1-10.357,2.44m-.022-6.459v2.9c1.881,0,3.687.062,5.486-.018a3.241,3.241,0,0,0,3.022-3.492l-8.509.608m20.817.015-8.574-.625A3.108,3.108,0,0,0,48.1,33.038c1.975.193,3.983.047,6.007.047Z" transform="translate(0 -0.001)"/>
          <path id="Trazado_245658" data-name="Trazado 245658" d="M147.211,261.836c0-.839.021-1.529,0-2.218a3.847,3.847,0,0,0-7.64-.591c-.035.175-.054.352-.087.574h-2.2a6.124,6.124,0,0,1,5.106-6.019,6.233,6.233,0,0,1,7.146,6.367c-.033,3.157-.007,6.314-.007,9.471v.656H137.239v-8.24Zm-7.661,5.926h7.622v-3.587H139.55Z" transform="translate(-99.718 -184.207)"/>
        </g>
      </g>
    </g>
  </g>
</svg>
