<svg xmlns="http://www.w3.org/2000/svg" xmlns:xlink="http://www.w3.org/1999/xlink" width="418" height="330" viewBox="0 0 418 330">
  <defs>
    <filter id="Rectángulo_263055" x="0" y="0" width="418" height="330" filterUnits="userSpaceOnUse">
      <feOffset dy="3" input="SourceAlpha"/>
      <feGaussianBlur stdDeviation="3" result="blur"/>
      <feFlood flood-opacity="0.161"/>
      <feComposite operator="in" in2="blur"/>
      <feComposite in="SourceGraphic"/>
    </filter>
    <clipPath id="clip-path">
      <rect id="Rectángulo_264056" data-name="Rectángulo 264056" width="104.153" height="107.519" fill="#fff" stroke="#fff" stroke-width="1"/>
    </clipPath>
    <clipPath id="clip-path-2">
      <rect id="Rectángulo_264040" data-name="Rectángulo 264040" width="107.638" height="107.585" fill="none"/>
    </clipPath>
  </defs>
  <g id="Grupo_715904" data-name="Grupo 715904" transform="translate(-1011 -8645)">
    <g id="Grupo_715205" data-name="Grupo 715205">
      <g transform="matrix(1, 0, 0, 1, 1011, 8645)" filter="url(#Rectángulo_263055)">
        <rect id="Rectángulo_263055-2" data-name="Rectángulo 263055" width="400" height="312" rx="30" transform="translate(9 6)" fill="#e7defc"/>
      </g>
      <g id="Grupo_711930" data-name="Grupo 711930" transform="translate(0 -42.232)">
        <g id="Grupo_711924" data-name="Grupo 711924" transform="translate(1157 8752.298)">
          <g id="Grupo_711923" data-name="Grupo 711923" clip-path="url(#clip-path)">
            <path id="Trazado_245694" data-name="Trazado 245694" d="M73.968,107.494v-3.369H77.2v-3.493c-1.288,0-2.573-.061-3.851.013a5.457,5.457,0,0,1-5.6-2.871,44.292,44.292,0,0,1-31.319-.007c-1.292,2.417-3.4,3.032-5.874,2.877-1.177-.074-2.361-.012-3.595-.012v3.425H30.2v3.46H6.835v-3.4h3.23v-3.483q-2.18,0-4.361,0c-3.647,0-5.66-2.07-5.662-5.818q0-8.131,0-16.262c0-3.534,2.068-5.668,5.48-5.677,1.642,0,3.284,0,5.071,0-.119-.376-.193-.668-.3-.945A47.715,47.715,0,0,1,8.426,41.388a1.3,1.3,0,0,0-.481-1.534C1.129,33.617-1.527,25.839.858,16.738,3.273,7.521,9.391,1.908,18.491.339c8.025-1.383,14.788,1.5,20.126,7.853A1.128,1.128,0,0,0,40,8.7a43.39,43.39,0,0,1,26.526.677c.191.065.393.1.675.169,0-1.438-.011-2.805,0-4.173A5.1,5.1,0,0,1,72.356.02Q85.681,0,99.006.021A5.069,5.069,0,0,1,104.13,5.3q.036,8.619,0,17.237a5.087,5.087,0,0,1-5.062,5.232c-1.634.026-3.268,0-4.951,0v3.436H97.36v3.459H93.525a48.9,48.9,0,0,1,.042,38.129c.34.033.6.078.85.079,1.574.007,3.148-.02,4.721.011a5.057,5.057,0,0,1,4.982,5.086q.063,8.781,0,17.562a5.063,5.063,0,0,1-4.978,5.094c-1.64.034-3.282.006-5,.006v3.456H97.37v3.407ZM11.621,42.584a3.513,3.513,0,0,0-.165.423A44.411,44.411,0,0,0,14.073,72.18a1.079,1.079,0,0,0,1.213.7q8.236-.02,16.471,0a5.1,5.1,0,0,1,5.219,5.4c.015,2.1,0,4.191,0,6.287v9.7a41.171,41.171,0,0,0,30.222,0c0-5.333,0-10.535,0-15.736,0-3.523,2.075-5.65,5.5-5.652,5.386,0,10.771-.01,16.157.011a1.14,1.14,0,0,0,1.274-.775,44.407,44.407,0,0,0,.018-36.606,1.148,1.148,0,0,0-1.253-.813c-4.616.029-9.233.016-13.848.016H73.975v-3.5h3.213V27.771c-1.484,0-2.881,0-4.28,0-3.713,0-5.706-2.054-5.708-5.878,0-2.85,0-5.7,0-8.513-8.6-3.636-19-3.694-25.92-1.372,4.185,9.909,3.278,19.118-4.371,26.751-7.342,7.327-16.016,8.08-25.288,3.825M70.564,17.291H100.78c0-3.856,0-7.642,0-11.429,0-1.838-.526-2.378-2.312-2.378q-9.8,0-19.6,0c-2.132,0-4.264-.012-6.4.006A1.664,1.664,0,0,0,70.577,5.2c-.033,4-.013,8.008-.013,12.1m-36.943,72.9c0-3.973.006-7.833,0-11.692,0-1.542-.6-2.145-2.114-2.146q-13-.007-26,0c-1.51,0-2.1.607-2.1,2.157q-.012,5.47,0,10.941c0,.24.046.479.073.74Zm67.159,0c0-3.98.006-7.841,0-11.7,0-1.533-.6-2.132-2.127-2.132q-13-.007-26,0c-1.5,0-2.086.612-2.089,2.171q-.011,5.416,0,10.833c0,.274.047.548.072.83Zm0-69.281H70.627c-.259,2.93.149,3.4,2.879,3.4H93.736c1.712,0,3.424.015,5.136-.006a1.734,1.734,0,0,0,1.905-1.926c.015-.465,0-.93,0-1.469M3.4,93.73c0,.357,0,.606,0,.854-.014,2.068.465,2.577,2.433,2.579q2.83,0,5.66,0,10.009,0,20.019,0c1.247,0,1.957-.494,2.076-1.507A16.9,16.9,0,0,0,33.6,93.73Zm97.38.031H70.559c0,.458,0,.849,0,1.241.016,1.549.6,2.144,2.1,2.161.384,0,.769,0,1.153,0q12.315,0,24.631,0c1.831,0,2.341-.543,2.335-2.464,0-.285,0-.571,0-.937M15.871,13.918l-.754,6.852H28.633l-.787-6.852ZM27.861,31.2l.766-6.828H15.105c.262,2.325.515,4.564.771,6.828Zm-15.429.041c-.236-2.391-.455-4.61-.679-6.882H3.521A17.482,17.482,0,0,0,5.258,30.8a.856.856,0,0,0,.622.419c2.162.031,4.325.019,6.551.019m-.009-17.345c-2.213,0-4.376-.012-6.537.019a.854.854,0,0,0-.624.416,17.2,17.2,0,0,0-1.735,6.448h8.228l.668-6.883m19.557,6.859h8.544c-.692-2.22-1.318-4.268-1.981-6.3-.073-.223-.361-.526-.553-.529-2.223-.037-4.446-.024-6.68-.024.231,2.362.449,4.584.672,6.856m0,3.595c-.229,2.342-.446,4.561-.674,6.889,2.231,0,4.427.007,6.623-.013a.653.653,0,0,0,.494-.295,17.014,17.014,0,0,0,1.763-6.581ZM16.843,10.391H26.9A14.58,14.58,0,0,0,23.834,4.5c-1.33-1.361-2.61-1.364-3.935,0a14.291,14.291,0,0,0-3.055,5.893m-.021,24.344c.788,2.276,1.543,4.409,3.205,6.022,1.09,1.057,2.155,1.215,3.214.38,2.031-1.6,2.835-3.959,3.661-6.4Zm63.858-3.569h9.942V27.826H80.681ZM23.5,100.709H13.558v3.337H23.5Zm67.159,0H80.717v3.337h9.942ZM7.643,10.421c1.892,0,3.518.015,5.144-.018a.814.814,0,0,0,.619-.4c.669-1.71,1.293-3.439,1.97-5.27a18.775,18.775,0,0,0-7.733,5.686M28.36,4.742c.67,1.8,1.281,3.472,1.927,5.131.085.219.343.517.527.521,1.684.04,3.37.023,5.271.023A18.557,18.557,0,0,0,28.36,4.742M15.378,40.4c-.677-1.825-1.294-3.529-1.952-5.216a.816.816,0,0,0-.581-.45c-1.652-.036-3.305-.021-5.184-.021A18.588,18.588,0,0,0,15.378,40.4m20.595-5.687c-1.789,0-3.42-.011-5.049.014a.729.729,0,0,0-.569.322c-.673,1.741-1.308,3.5-1.952,5.251a16.5,16.5,0,0,0,7.569-5.588" transform="translate(0 0)" fill="#fff" stroke="#fff" stroke-width="1"/>
            <path id="Trazado_245695" data-name="Trazado 245695" d="M37.6,68.158c9.271,4.255,17.945,3.5,25.287-3.825,7.649-7.634,8.557-16.842,4.372-26.752,6.916-2.322,17.318-2.264,25.92,1.372,0,2.812,0,5.663,0,8.513,0,3.824,1.995,5.876,5.708,5.878h4.28v3.44H99.953v3.5h1.076c4.616,0,9.232.014,13.848-.015a1.149,1.149,0,0,1,1.254.813,44.408,44.408,0,0,1-.018,36.605,1.141,1.141,0,0,1-1.275.776c-5.385-.022-10.771-.016-16.156-.011-3.428,0-5.5,2.129-5.5,5.652-.006,5.2,0,10.4,0,15.736a41.173,41.173,0,0,1-30.222,0v-9.7c0-2.1.012-4.191,0-6.287a5.1,5.1,0,0,0-5.219-5.4q-8.236-.024-16.471,0a1.08,1.08,0,0,1-1.213-.7,44.409,44.409,0,0,1-2.617-29.172,3.469,3.469,0,0,1,.165-.423M62.637,73.8a21.43,21.43,0,0,1,30.772-.106L95.75,71.4c-9.718-10.68-26.963-9.679-35.316.017l2.2,2.381m28.422,2.47c-7.35-7.685-19.39-7.12-25.816-.134l2.3,2.433A14.64,14.64,0,0,1,78.1,74.177a14.828,14.828,0,0,1,10.632,4.494l2.327-2.4m-13.025,8.3a5.2,5.2,0,1,0,5.066,5.22,5.141,5.141,0,0,0-5.066-5.22m-5.911-1.031c3.989-3.3,7.958-3.285,11.856-.036l2.3-2.255C82.449,76.72,74.373,76.21,69.862,81.2l2.262,2.34" transform="translate(-25.977 -25.573)" fill="#fff" stroke="#fff" stroke-width="1"/>
            <path id="Trazado_245696" data-name="Trazado 245696" d="M251.763,25.825c0-4.087-.02-8.091.013-12.1a1.664,1.664,0,0,1,1.89-1.707c2.132-.018,4.263-.006,6.4-.006q9.8,0,19.6,0c1.786,0,2.311.54,2.312,2.378,0,3.786,0,7.572,0,11.429Z" transform="translate(-181.198 -8.534)" fill="#fff" stroke="#fff" stroke-width="1"/>
            <path id="Trazado_245697" data-name="Trazado 245697" d="M42.348,277.423H12.2c-.027-.262-.073-.5-.073-.74q-.007-5.47,0-10.941c0-1.55.592-2.156,2.1-2.157q13-.007,26,0c1.515,0,2.111.6,2.114,2.146.008,3.86,0,7.719,0,11.692" transform="translate(-8.726 -187.236)" fill="#fff" stroke="#fff" stroke-width="1"/>
            <path id="Trazado_245698" data-name="Trazado 245698" d="M281.973,277.418H251.828c-.026-.282-.072-.556-.072-.83q-.008-5.416,0-10.832c0-1.559.587-2.17,2.089-2.171q13-.008,26,0c1.523,0,2.123.6,2.127,2.133.009,3.861,0,7.722,0,11.7" transform="translate(-181.193 -187.236)" fill="#fff" stroke="#fff" stroke-width="1"/>
            <path id="Trazado_245699" data-name="Trazado 245699" d="M281.984,72.162c0,.539.013,1,0,1.469a1.734,1.734,0,0,1-1.905,1.925c-1.712.021-3.424.006-5.136.006H254.712c-2.731,0-3.139-.47-2.88-3.4Z" transform="translate(-181.205 -51.261)" fill="#fff" stroke="#fff" stroke-width="1"/>
            <path id="Trazado_245700" data-name="Trazado 245700" d="M12.129,323.605h30.2a16.835,16.835,0,0,1-.013,1.924c-.118,1.013-.829,1.506-2.076,1.507q-10.009.007-20.019,0-2.83,0-5.66,0c-1.969,0-2.448-.51-2.433-2.578,0-.249,0-.5,0-.855" transform="translate(-8.73 -229.874)" fill="#fff" stroke="#fff" stroke-width="1"/>
            <path id="Trazado_245701" data-name="Trazado 245701" d="M281.975,323.711c0,.367,0,.652,0,.938.006,1.921-.5,2.464-2.335,2.464q-12.315,0-24.631,0c-.384,0-.768,0-1.153,0-1.507-.017-2.086-.613-2.1-2.161,0-.392,0-.783,0-1.241Z" transform="translate(-181.195 -229.95)" fill="#fff" stroke="#fff" stroke-width="1"/>
            <path id="Trazado_245702" data-name="Trazado 245702" d="M54.694,48.054H66.669c.259,2.256.518,4.513.787,6.852H53.94l.754-6.852" transform="translate(-38.822 -34.135)" fill="#fff" stroke="#fff" stroke-width="1"/>
            <path id="Trazado_245703" data-name="Trazado 245703" d="M66.653,90.966H54.669L53.9,84.138H67.419l-.766,6.828" transform="translate(-38.792 -59.768)" fill="#fff" stroke="#fff" stroke-width="1"/>
            <path id="Trazado_245704" data-name="Trazado 245704" d="M21.474,90.974c-2.226,0-4.389.012-6.551-.019a.856.856,0,0,1-.622-.419,17.482,17.482,0,0,1-1.738-6.444h8.232c.224,2.272.443,4.491.679,6.882" transform="translate(-9.042 -59.735)" fill="#fff" stroke="#fff" stroke-width="1"/>
            <path id="Trazado_245705" data-name="Trazado 245705" d="M21.48,47.964l-.668,6.883H12.584A17.2,17.2,0,0,1,14.319,48.4a.856.856,0,0,1,.624-.417c2.162-.03,4.324-.019,6.537-.019" transform="translate(-9.057 -34.07)" fill="#fff" stroke="#fff" stroke-width="1"/>
            <path id="Trazado_245706" data-name="Trazado 245706" d="M112.38,54.832c-.223-2.271-.44-4.494-.671-6.856,2.234,0,4.458-.013,6.68.024.192,0,.48.306.553.529.664,2.035,1.289,4.083,1.981,6.3Z" transform="translate(-80.401 -34.079)" fill="#fff" stroke="#fff" stroke-width="1"/>
            <path id="Trazado_245707" data-name="Trazado 245707" d="M112.385,84.062h8.206a17.012,17.012,0,0,1-1.763,6.581.652.652,0,0,1-.494.295c-2.2.019-4.392.013-6.623.013l.674-6.889" transform="translate(-80.402 -59.714)" fill="#fff" stroke="#fff" stroke-width="1"/>
            <path id="Trazado_245708" data-name="Trazado 245708" d="M60.1,18.913a14.294,14.294,0,0,1,3.055-5.893c1.325-1.365,2.606-1.362,3.935,0a14.578,14.578,0,0,1,3.064,5.895Z" transform="translate(-43.256 -8.522)" fill="#fff" stroke="#fff" stroke-width="1"/>
            <path id="Trazado_245709" data-name="Trazado 245709" d="M60.023,119.924H70.1c-.826,2.443-1.63,4.8-3.661,6.4-1.058.836-2.124.678-3.213-.379-1.662-1.612-2.417-3.746-3.205-6.022" transform="translate(-43.201 -85.189)" fill="#fff" stroke="#fff" stroke-width="1"/>
            <rect id="Rectángulo_264053" data-name="Rectángulo 264053" width="9.942" height="3.339" transform="translate(80.681 27.827)" fill="#fff" stroke="#fff" stroke-width="1"/>
            <rect id="Rectángulo_264054" data-name="Rectángulo 264054" width="9.942" height="3.337" transform="translate(13.558 100.709)" fill="#fff" stroke="#fff" stroke-width="1"/>
            <rect id="Rectángulo_264055" data-name="Rectángulo 264055" width="9.942" height="3.337" transform="translate(80.718 100.71)" fill="#fff" stroke="#fff" stroke-width="1"/>
            <path id="Trazado_245710" data-name="Trazado 245710" d="M27.271,22.037A18.773,18.773,0,0,1,35,16.351c-.677,1.831-1.3,3.56-1.97,5.27a.814.814,0,0,1-.619.4c-1.626.033-3.252.018-5.144.018" transform="translate(-19.628 -11.615)" fill="#fff" stroke="#fff" stroke-width="1"/>
            <path id="Trazado_245711" data-name="Trazado 245711" d="M101.191,16.373a18.558,18.558,0,0,1,7.724,5.676c-1.9,0-3.587.017-5.271-.024-.184,0-.442-.3-.527-.521-.645-1.659-1.256-3.333-1.926-5.131" transform="translate(-72.831 -11.631)" fill="#fff" stroke="#fff" stroke-width="1"/>
            <path id="Trazado_245712" data-name="Trazado 245712" d="M35.053,125.522a18.588,18.588,0,0,1-7.717-5.686c1.879,0,3.532-.016,5.184.021a.816.816,0,0,1,.58.45c.658,1.687,1.275,3.391,1.952,5.216" transform="translate(-19.675 -85.123)" fill="#fff" stroke="#fff" stroke-width="1"/>
            <path id="Trazado_245713" data-name="Trazado 245713" d="M108.913,119.836a16.5,16.5,0,0,1-7.57,5.588c.645-1.753,1.279-3.51,1.952-5.251a.729.729,0,0,1,.569-.322c1.629-.025,3.259-.014,5.049-.014" transform="translate(-72.94 -85.125)" fill="#fff" stroke="#fff" stroke-width="1"/>
            <path id="Trazado_245714" data-name="Trazado 245714" d="M125.148,141.893l-2.2-2.381c8.353-9.7,25.6-10.7,35.316-.017l-2.341,2.292a21.43,21.43,0,0,0-30.772.106" transform="translate(-88.488 -93.666)" fill="#fff" stroke="#fff" stroke-width="1"/>
            <path id="Trazado_245715" data-name="Trazado 245715" d="M165.921,161.37l-2.327,2.4a14.827,14.827,0,0,0-10.632-4.494,14.641,14.641,0,0,0-10.561,4.392l-2.3-2.433c6.426-6.987,18.466-7.551,25.816.134" transform="translate(-100.838 -110.673)" fill="#fff" stroke="#fff" stroke-width="1"/>
            <path id="Trazado_245716" data-name="Trazado 245716" d="M172.9,203.7a5.2,5.2,0,1,1-5,5.18,5.138,5.138,0,0,1,5-5.18m1.7,5.184a1.671,1.671,0,1,0-1.655,1.743,1.715,1.715,0,0,0,1.655-1.743" transform="translate(-120.843 -144.701)" fill="#fff" stroke="#fff" stroke-width="1"/>
            <path id="Trazado_245717" data-name="Trazado 245717" d="M158.844,185.7l-2.262-2.34c4.511-4.993,12.588-4.483,16.421.049l-2.3,2.255c-3.9-3.248-7.866-3.265-11.856.037" transform="translate(-112.697 -127.726)" fill="#fff" stroke="#fff" stroke-width="1"/>
            <path id="Trazado_245718" data-name="Trazado 245718" d="M183.239,217.407a1.671,1.671,0,1,1-1.687-1.709,1.72,1.72,0,0,1,1.687,1.709" transform="translate(-129.479 -153.222)" fill="#fff" stroke="#fff" stroke-width="1"/>
          </g>
        </g>
        <g id="Grupo_711910" data-name="Grupo 711910" transform="translate(1166 8752.231)">
          <g id="Grupo_711910-2" data-name="Grupo 711910" clip-path="url(#clip-path-2)">
            <path id="Trazado_245641" data-name="Trazado 245641" d="M7.024,107.571V104.2h3.341V100.7c-1.55,0-3.092,0-4.634,0-3.545-.007-5.7-2.133-5.7-5.646q-.009-8.245,0-16.489c0-3.471,2.15-5.628,5.6-5.639,1.732-.006,3.463,0,5.271,0a5.287,5.287,0,0,0-.173-.682A46.19,46.19,0,0,1,7.237,49.136c.286-2.609.929-5.182,1.472-7.758a1.263,1.263,0,0,0-.459-1.453C1.309,33.841-1.461,26.211.741,17.233,2.9,8.41,8.692,2.706,17.552.66c8.877-2.05,16.381.74,22.38,7.57.388.442.658.687,1.335.5a46.178,46.178,0,0,1,27.727.753,3.226,3.226,0,0,0,.456.063c0-1.316,0-2.6,0-3.877C69.462,2.189,71.6.021,75.04.018q13.5-.01,27.006,0a5.217,5.217,0,0,1,5.586,5.542q.016,8.353,0,16.706a5.216,5.216,0,0,1-5.5,5.524c-1.587.009-3.174,0-4.836,0V31.22H100.6v3.468H96.666a47.538,47.538,0,0,1,.006,38.24c1.825,0,3.5,0,5.185,0,3.683,0,5.773,2.1,5.776,5.789q.005,8.136,0,16.272c0,3.6-2.132,5.708-5.745,5.714-1.512,0-3.024,0-4.6,0v3.448h3.328v3.433H76.483v-3.377H79.8v-3.5c-1.435,0-2.9-.049-4.364.011a5.563,5.563,0,0,1-5.424-2.865,47.186,47.186,0,0,1-32.368-.01c-1.308,2.283-3.323,3.016-5.793,2.877-1.295-.073-2.6-.013-3.976-.013v3.458h3.338v3.409ZM38.211,94.283a43.858,43.858,0,0,0,30.422.358,1.093,1.093,0,0,0,.834-1.247c-.029-4.954-.021-9.907-.014-14.861.005-3.449,2.168-5.6,5.634-5.6,5.6-.006,11.207-.014,16.809.014a1.185,1.185,0,0,0,1.284-.83c5.394-12.178,5.45-24.346.022-36.531a1.257,1.257,0,0,0-1.374-.865c-4.735.034-9.471.018-14.207.018H76.473v-3.5H79.8V27.792c-1.653,0-3.238.007-4.823,0a5.217,5.217,0,0,1-5.519-5.5c-.011-2.639-.032-5.28.016-7.918a1.2,1.2,0,0,0-.948-1.382,42.85,42.85,0,0,0-19.414-2.283c-2.2.249-4.372.747-6.626,1.143,5.034,10.05,2.449,20.289-3.654,26.326-7.819,7.733-16.886,8.815-26.837,4.459a4.859,4.859,0,0,0-.208.561,43.141,43.141,0,0,0,2.731,28.985,1.128,1.128,0,0,0,1.218.761c5.495-.023,10.989-.014,16.484-.013,3.987,0,5.994,2.01,5.995,6,0,5.1,0,10.192,0,15.35m65.952-76.945c0-3.977.006-7.84,0-11.7,0-1.541-.62-2.144-2.188-2.144q-13.438-.007-26.877,0c-1.559,0-2.166.608-2.17,2.162q-.012,5.474,0,10.948a7.14,7.14,0,0,0,.077.737ZM34.739,90.247c0-3.981.006-7.844,0-11.707,0-1.536-.623-2.136-2.2-2.137Q19.1,76.4,5.663,76.4c-1.554,0-2.159.611-2.162,2.17q-.012,5.42,0,10.84c0,.275.048.549.074.834Zm69.424,0c0-3.963.006-7.823,0-11.684,0-1.552-.614-2.162-2.17-2.162q-13.438-.007-26.877,0c-1.6,0-2.187.608-2.189,2.252q-.008,5.365,0,10.731c0,.277.039.553.063.863ZM72.922,20.884c0,.356,0,.6,0,.854-.015,2.071.48,2.581,2.513,2.583q2.6,0,5.2,0,10.672,0,21.344,0c1.383,0,2.09-.558,2.171-1.72.039-.56.007-1.126.007-1.714ZM34.739,93.832H3.567c-.257,2.948.149,3.4,2.984,3.4H27.895c1.625,0,3.251.016,4.876-.006A1.764,1.764,0,0,0,34.736,95.3c.015-.464,0-.93,0-1.464M73,93.8c-.292,2.935.152,3.434,2.959,3.434H96.223c1.878,0,3.756,0,5.634,0,1.748,0,2.307-.577,2.3-2.357,0-.348-.032-.7-.051-1.076ZM29.581,20.791c-.275-2.337-.542-4.6-.807-6.851H16.393c-.261,2.277-.52,4.538-.785,6.851ZM16.4,31.216h12.39l.791-6.827H15.6l.8,6.827m-12.9-6.84c.337,1.443.575,2.823.987,4.15.855,2.751.893,2.74,3.755,2.74h4.6l-.7-6.889Zm9.338-10.47c-2.288,0-4.489-.011-6.689.016a.9.9,0,0,0-.685.355,16.485,16.485,0,0,0-1.815,6.507h8.5l.693-6.879m19.521,0,.693,6.873h8.5a16.963,16.963,0,0,0-1.714-6.3,1.1,1.1,0,0,0-.777-.551c-2.2-.044-4.4-.025-6.7-.025m.695,10.47c-.231,2.288-.457,4.535-.695,6.888,2.279,0,4.514.016,6.747-.022a.993.993,0,0,0,.7-.5,16.965,16.965,0,0,0,1.748-6.371ZM27.778,10.4a14.108,14.108,0,0,0-3.151-5.889c-1.37-1.369-2.7-1.372-4.067-.01A14.169,14.169,0,0,0,17.4,10.4Zm-.005,24.395H17.48a13.908,13.908,0,0,0,2.876,5.683c1.537,1.6,2.945,1.618,4.455,0a14.646,14.646,0,0,0,2.962-5.685m55.588-3.617H93.676v-3.3H83.361ZM13.962,104.1H24.239v-3.341H13.962ZM93.7,100.78H83.422v3.342H93.7ZM7.895,10.432c1.917,0,3.539.022,5.158-.021a1.053,1.053,0,0,0,.8-.462c.7-1.68,1.326-3.387,2.017-5.189a18.916,18.916,0,0,0-7.978,5.672M29.3,4.747c.694,1.8,1.326,3.482,1.994,5.145.087.217.36.508.552.512,1.738.04,3.477.023,5.44.023A19.183,19.183,0,0,0,29.3,4.747M7.889,34.737a19.079,19.079,0,0,0,7.99,5.675c-.689-1.788-1.313-3.466-2-5.118a1.035,1.035,0,0,0-.749-.533c-1.65-.048-3.3-.024-5.244-.024M29.3,40.431a18.521,18.521,0,0,0,7.934-5.694c-1.866,0-3.487-.022-5.106.021a1.051,1.051,0,0,0-.8.464c-.7,1.678-1.327,3.385-2.026,5.209" transform="translate(0 -0.001)"/>
            <path id="Trazado_245642" data-name="Trazado 245642" d="M125.447,142.106l-2.308-2.36c9.126-9.822,26.5-10.431,36.467-.018l-2.372,2.293a22.783,22.783,0,0,0-31.787.086" transform="translate(-87.532 -93.934)"/>
            <path id="Trazado_245643" data-name="Trazado 245643" d="M142.189,164.2l-2.415-2.389a18.967,18.967,0,0,1,26.858,0l-2.585,2.232a15.713,15.713,0,0,0-21.858.16" transform="translate(-99.356 -111.062)"/>
            <path id="Trazado_245644" data-name="Trazado 245644" d="M178.57,209.34a5.2,5.2,0,1,1-5.2-5.155,5.229,5.229,0,0,1,5.2,5.155m-3.477.074a1.727,1.727,0,1,0-1.752,1.7,1.745,1.745,0,0,0,1.752-1.7" transform="translate(-119.537 -145.142)"/>
            <path id="Trazado_245645" data-name="Trazado 245645" d="M174.22,183.662l-2.256,2.388c-4.891-3.289-7.934-3.293-12.233-.059l-2.244-2.444c3.762-4.346,12.145-4.809,16.733.114" transform="translate(-111.947 -128.041)"/>
          </g>
        </g>
      </g>
    </g>
  </g>
</svg>
